<svg width="52" height="61" viewBox="0 0 52 61" fill="none" xmlns="http://www.w3.org/2000/svg">
<path d="M4.32884 20.2773C3.29504 20.2773 2.4179 20.6379 1.69688 21.3589C0.975854 22.0799 0.615234 22.9451 0.615234 23.9549V39.4596C0.615234 40.4947 0.975746 41.3711 1.69688 42.0922C2.4179 42.8133 3.29504 43.1739 4.32884 43.1739C5.36188 43.1739 6.2337 42.8134 6.94355 42.0922C7.65198 41.3712 8.00718 40.4947 8.00718 39.4596V23.9549C8.00718 22.945 7.64667 22.0799 6.92554 21.3589C6.20441 20.6379 5.33866 20.2773 4.32884 20.2773Z" fill="white"/>
<path d="M34.1846 6.35815L36.7448 1.63537C36.9128 1.32271 36.853 1.08295 36.5649 0.914352C36.2521 0.768976 36.0118 0.842641 35.8439 1.13014L33.2479 5.89067C30.9637 4.88073 28.5477 4.37485 26.0001 4.37485C23.4519 4.37485 21.0357 4.88084 18.7523 5.89067L16.1562 1.13014C15.9875 0.842641 15.7472 0.769627 15.4352 0.914352C15.1464 1.0837 15.0866 1.32271 15.2553 1.63537L17.8156 6.35815C15.2195 7.68205 13.1519 9.52583 11.6136 11.8935C10.0752 14.2625 9.30566 16.8513 9.30566 19.6644H42.6582C42.6582 16.8519 41.8886 14.263 40.3503 11.8935C38.8118 9.52583 36.7562 7.68205 34.1846 6.35815ZM19.3831 13.2275C19.1062 13.505 18.7755 13.6431 18.3911 13.6431C18.006 13.6431 17.682 13.505 17.4178 13.2275C17.1535 12.9513 17.0213 12.6219 17.0213 12.2362C17.0213 11.8518 17.1535 11.5218 17.4178 11.245C17.682 10.9687 18.0068 10.8306 18.3911 10.8306C18.7755 10.8306 19.1062 10.9687 19.3831 11.245C19.6593 11.5225 19.798 11.8518 19.798 12.2362C19.7973 12.6213 19.6586 12.9513 19.3831 13.2275ZM34.5809 13.2275C34.3161 13.505 33.9914 13.6431 33.6077 13.6431C33.2224 13.6431 32.8919 13.505 32.6155 13.2275C32.3388 12.9513 32.2007 12.6219 32.2007 12.2362C32.2007 11.8518 32.3388 11.5218 32.6155 11.245C32.8919 10.9687 33.2224 10.8306 33.6077 10.8306C33.9921 10.8306 34.316 10.9687 34.5809 11.245C34.8454 11.5225 34.9774 11.8518 34.9774 12.2362C34.9774 12.6213 34.8453 12.9513 34.5809 13.2275Z" fill="white"/>
<path d="M9.44922 44.9755C9.44922 46.0823 9.8336 47.0193 10.6025 47.7881C11.372 48.557 12.3089 48.9414 13.4149 48.9414H16.0834L16.1199 57.1273C16.1199 58.161 16.4804 59.0388 17.2015 59.76C17.9225 60.4811 18.7883 60.8416 19.7975 60.8416C20.8307 60.8416 21.7083 60.4811 22.4295 59.76C23.1506 59.0388 23.5111 58.1611 23.5111 57.1273V48.9421H28.4869V57.1273C28.4869 58.161 28.8473 59.0388 29.5684 59.76C30.2895 60.4811 31.1665 60.8416 32.2004 60.8416C33.2335 60.8416 34.1112 60.4811 34.8323 59.76C35.5535 59.0388 35.9139 58.1611 35.9139 57.1273V48.9421H38.6183C39.6998 48.9421 40.6247 48.5576 41.395 47.7888C42.1637 47.0199 42.5483 46.083 42.5483 44.9763V20.9609H9.44922V44.9755Z" fill="white"/>
<path d="M47.6709 20.2773C46.6609 20.2773 45.7958 20.6325 45.0747 21.341C44.3537 22.0507 43.9932 22.9225 43.9932 23.9549V39.4596C43.9932 40.4947 44.3536 41.3711 45.0747 42.0922C45.7958 42.8134 46.6616 43.1739 47.6709 43.1739C48.704 43.1739 49.5817 42.8134 50.3028 42.0922C51.0239 41.3711 51.3843 40.4947 51.3843 39.4596V23.9549C51.3843 22.9224 51.0239 22.0507 50.3028 21.341C49.5817 20.6325 48.704 20.2773 47.6709 20.2773Z" fill="white"/>
</svg>
