<svg width="50" height="61" viewBox="0 0 50 61" fill="none" xmlns="http://www.w3.org/2000/svg">
<path d="M41.4408 34.474C39.7903 26.1677 47.6744 21.2961 47.6744 21.2961C47.6744 21.2961 44.6026 16.852 39.4402 15.7088C34.2803 14.563 31.6978 15.9945 29.1203 17.0682C26.5403 18.1445 25.253 18.1445 25.253 18.1445C21.5299 18.1445 18.8082 14.2025 11.7146 15.9971C6.8277 17.2304 1.68315 22.8719 0.753653 29.6051C-0.175847 36.3408 1.82997 44.9354 5.6973 51.5965C9.56463 58.2627 13.5042 60.768 16.3003 60.8401C19.0966 60.9096 21.8877 58.8369 25.253 58.3322C28.6209 57.8327 30.6936 59.5527 33.997 60.4822C37.2876 61.4092 38.4411 60.5492 42.2312 57.3255C46.0316 54.1018 49.4716 44.8557 49.4716 44.8557C49.4716 44.8557 43.0912 42.7854 41.4408 34.474Z" fill="white"/>
<path d="M34.1334 10.3351C37.7896 6.60943 36.5512 0.841797 36.5512 0.841797C36.5512 0.841797 31.417 1.74301 27.977 5.32195C24.5397 8.90352 25.1087 14.5604 25.1087 14.5604C25.1087 14.5604 30.4772 14.0583 34.1334 10.3351Z" fill="white"/>
</svg>
