<svg width="56" height="69" viewBox="0 0 56 69" fill="none" xmlns="http://www.w3.org/2000/svg">
<path d="M46.3673 38.2011C44.4968 28.7873 53.4321 23.2662 53.4321 23.2662C53.4321 23.2662 49.9508 18.2295 44.1 16.9338C38.2521 15.6352 35.3252 17.2577 32.4041 18.4745C29.4802 19.6944 28.0211 19.6944 28.0211 19.6944C23.8016 19.6944 20.717 15.2267 12.6777 17.2607C7.13915 18.6584 1.30867 25.052 0.255239 32.683C-0.798195 40.3168 1.47507 50.0574 5.85804 57.6066C10.241 65.1617 14.7058 68.001 17.8748 68.0827C21.0439 68.1614 24.2072 65.8124 28.0211 65.2404C31.8381 64.6743 34.1871 66.6237 37.931 67.6771C41.6603 68.7277 42.9677 67.753 47.2631 64.0994C51.5702 60.4459 55.4689 49.967 55.4689 49.967C55.4689 49.967 48.2378 47.6207 46.3673 38.2011Z" fill="black"/>
<path d="M38.0857 10.8435C42.2294 6.62112 40.8258 0.0844727 40.8258 0.0844727C40.8258 0.0844727 35.0071 1.10585 31.1084 5.16198C27.2128 9.22109 27.8576 15.6322 27.8576 15.6322C27.8576 15.6322 33.9419 15.0632 38.0857 10.8435Z" fill="black"/>
</svg>
