<svg width="211" height="70" viewBox="0 0 211 70" fill="none" xmlns="http://www.w3.org/2000/svg">
<path d="M90.2978 36.9173C90.2978 46.9614 82.4805 54.3628 72.8869 54.3628C63.2934 54.3628 55.4761 46.9614 55.4761 36.9173C55.4761 26.8023 63.2934 19.4717 72.8869 19.4717C82.4805 19.4717 90.2978 26.8023 90.2978 36.9173ZM82.6761 36.9173C82.6761 30.6406 78.1454 26.3461 72.8869 26.3461C67.6285 26.3461 63.0977 30.6406 63.0977 36.9173C63.0977 43.131 67.6285 47.4884 72.8869 47.4884C78.1454 47.4884 82.6761 43.1231 82.6761 36.9173Z" fill="#EA4335"/>
<path d="M127.858 36.9173C127.858 46.9614 120.041 54.3628 110.447 54.3628C100.854 54.3628 93.0364 46.9614 93.0364 36.9173C93.0364 26.8101 100.854 19.4717 110.447 19.4717C120.041 19.4717 127.858 26.8023 127.858 36.9173ZM120.236 36.9173C120.236 30.6406 115.706 26.3461 110.447 26.3461C105.189 26.3461 100.658 30.6406 100.658 36.9173C100.658 43.131 105.189 47.4884 110.447 47.4884C115.706 47.4884 120.236 43.1231 120.236 36.9173Z" fill="#FBBC05"/>
<path d="M163.853 20.5257V51.8459C163.853 64.7295 156.294 69.9915 147.358 69.9915C138.946 69.9915 133.883 64.3362 131.974 59.7113L138.61 56.9348C139.791 59.7743 142.686 63.1249 147.35 63.1249C153.07 63.1249 156.615 59.5776 156.615 52.8998V50.3908H156.349C154.643 52.5066 151.357 54.3549 147.209 54.3549C138.531 54.3549 130.581 46.7569 130.581 36.9802C130.581 27.1326 138.531 19.4717 147.209 19.4717C151.349 19.4717 154.635 21.3201 156.349 23.3729H156.615V20.5335H163.853V20.5257ZM157.155 36.9802C157.155 30.8373 153.078 26.3461 147.89 26.3461C142.632 26.3461 138.226 30.8373 138.226 36.9802C138.226 43.0602 142.632 47.4884 147.89 47.4884C153.078 47.4884 157.155 43.0602 157.155 36.9802Z" fill="#4285F4"/>
<path d="M175.787 2.16724V53.2927H168.353V2.16724H175.787Z" fill="#34A853"/>
<path d="M204.755 42.6588L210.671 46.623C208.762 49.4624 204.161 54.3547 196.21 54.3547C186.351 54.3547 178.987 46.6938 178.987 36.9092C178.987 26.5347 186.413 19.4636 195.357 19.4636C204.364 19.4636 208.77 26.6684 210.21 30.5618L211 32.5439L187.798 42.2026C189.575 45.7028 192.337 47.4882 196.21 47.4882C200.092 47.4882 202.783 45.569 204.755 42.6588ZM186.546 36.3822L202.056 29.9089C201.203 27.7302 198.636 26.2122 195.616 26.2122C191.742 26.2122 186.351 29.6494 186.546 36.3822Z" fill="#EA4335"/>
<path d="M27.3368 32.3786V24.9773H52.1502C52.3928 26.2672 52.518 27.7931 52.518 29.4448C52.518 34.9978 51.0077 41.8644 46.1405 46.7567C41.4063 51.7119 35.3575 54.3547 27.3446 54.3547C12.4925 54.3547 0.00366211 42.1947 0.00366211 27.2661C0.00366211 12.3375 12.4925 0.17749 27.3446 0.17749C35.561 0.17749 41.4141 3.41806 45.8119 7.6418L40.616 12.8645C37.4625 9.89132 33.19 7.57888 27.3368 7.57888C16.4912 7.57888 8.00875 16.3646 8.00875 27.2661C8.00875 38.1676 16.4912 46.9533 27.3368 46.9533C34.3715 46.9533 38.378 44.1139 40.9446 41.534C43.0261 39.4418 44.3955 36.4529 44.9354 32.3708L27.3368 32.3786Z" fill="#4285F4"/>
</svg>
