<svg width="485" height="39" viewBox="0 0 485 39" fill="none" xmlns="http://www.w3.org/2000/svg">
<path d="M453.248 19.3339C452.588 19.3666 451.922 19.3898 451.276 19.4376C450.856 19.4676 450.675 19.3845 450.395 19.3416C450.301 19.3267 450.201 19.2966 450.114 19.3007C449.461 19.3333 448.808 19.3698 448.155 19.4063C447.956 19.4812 447.831 19.5805 447.525 19.6177C447.225 19.653 446.872 19.6542 446.539 19.6724C446.099 19.6949 445.659 19.7173 445.22 19.7378C445 19.7481 444.82 19.7848 444.748 19.8536C444.735 19.8651 444.882 19.8931 444.962 19.91C445.229 19.9662 445.49 20.03 445.784 20.0728C446.065 20.1137 446.411 20.044 446.711 20.0963C447.386 20.214 447.393 20.212 447.906 20.1875C448.346 20.1651 448.786 20.1408 449.225 20.1241C449.312 20.12 449.412 20.1482 449.506 20.1631C449.787 20.204 449.968 20.2986 450.381 20.261C450.694 20.2314 451.04 20.2245 451.367 20.2082C451.641 20.2625 451.895 20.3245 452.189 20.3672C452.463 20.4082 452.543 20.4403 452.398 20.496C452.265 20.5478 452.078 20.5694 451.832 20.574C451.612 20.5767 451.392 20.5945 451.172 20.6048C451.059 20.6109 450.952 20.615 450.846 20.6211C450.426 20.6435 450.426 20.6435 449.658 20.5242C449.357 20.4776 449.018 20.5454 448.731 20.5007C448.537 20.4709 448.369 20.4258 448.182 20.394C448.102 20.381 447.975 20.3795 447.876 20.3836C447.542 20.3981 447.209 20.4087 446.889 20.4345C446.663 20.4524 446.53 20.5062 446.558 20.5594C446.565 20.5803 446.725 20.6102 446.819 20.6118C447.032 20.6149 447.258 20.5875 447.465 20.6001C447.665 20.6128 447.873 20.6501 448.02 20.6915C448.321 20.778 448.66 20.6989 448.947 20.7208C449.247 20.7445 449.495 20.8198 449.782 20.8645C449.856 20.8757 449.996 20.8562 450.109 20.8501C450.435 20.8357 450.762 20.8232 451.088 20.8087C451.363 20.863 451.657 20.9115 451.904 20.9735C452.352 21.0862 452.833 21.1283 453.412 21.0712C453.739 21.0396 454.059 21.05 454.32 21.1233C454.587 21.1986 454.894 21.1899 455.234 21.1736C455.547 21.1573 455.866 21.1143 456.187 21.1666C456.882 21.2822 456.889 21.2879 457.708 21.2395C457.955 21.2253 458.142 21.2209 458.329 21.2641C458.503 21.3035 458.69 21.3371 458.87 21.3745C459.197 21.3601 459.53 21.3457 459.857 21.3294C460.276 21.307 460.51 21.3329 460.611 21.4391C460.672 21.5036 460.7 21.5625 460.847 21.6058C461.021 21.6585 461.208 21.656 461.461 21.6399C461.701 21.6258 461.874 21.6043 461.973 21.5354C462.013 21.5067 462.092 21.4798 462.165 21.4567C462.225 21.4394 462.318 21.4124 462.371 21.4161C462.471 21.4234 462.605 21.4438 462.639 21.4685C462.969 21.6977 462.969 21.6996 463.303 21.7651C463.671 21.8381 464.052 21.9034 464.386 21.986C464.687 22.0592 464.987 22.0259 465.313 22.0248C465.56 22.024 465.721 22.0729 465.702 22.1225C465.689 22.1511 465.596 22.1932 465.516 22.1973C464.863 22.2376 464.203 22.2721 463.544 22.301C463.464 22.3051 463.363 22.2712 463.27 22.2543C463.083 22.2207 462.915 22.168 462.715 22.1572C462.515 22.1465 462.282 22.1758 462.062 22.1861C461.842 22.1963 461.609 22.2219 461.409 22.2073C461.209 22.1928 461.048 22.1381 460.861 22.1026C460.774 22.0857 460.653 22.0614 460.58 22.0674C460.094 22.1147 459.733 22.0531 459.385 21.9705C459.312 21.9536 459.185 21.9426 459.092 21.9467C458.319 21.9817 457.553 22.0223 456.78 22.0611C456.467 22.0773 456.212 22.0116 456.144 21.8995C456.11 21.8368 456.042 21.7742 456.041 21.7114C456.04 21.5972 455.672 21.5356 455.406 21.5499C454.966 21.5704 454.52 21.5871 454.087 21.6171C453.734 21.6411 453.433 21.6193 453.192 21.5516C452.911 21.4745 452.591 21.4908 452.272 21.5128C452.032 21.5288 451.966 21.5919 451.981 21.7498C451.997 21.8773 451.884 21.9176 451.451 21.94C450.904 21.9685 450.351 21.997 449.798 22.0198C449.712 22.0239 449.611 21.9919 449.524 21.9751C449.337 21.9414 449.17 21.8868 448.97 21.876C448.769 21.8634 448.536 21.8927 448.317 21.9049C448.097 21.9151 447.864 21.9426 447.664 21.9299C447.463 21.9173 447.296 21.8607 447.115 21.8252C447.028 21.8083 446.921 21.7839 446.835 21.788C446.395 21.8047 445.955 21.8291 445.516 21.8515C445.022 21.876 445.022 21.876 444.321 21.7603C444 21.7081 443.681 21.7511 443.367 21.7673C443.034 21.7837 442.721 21.7923 442.46 21.7171C442.286 21.6682 442.092 21.6384 441.886 21.6486C441.333 21.6733 440.786 21.7037 440.233 21.7284C440.14 21.7325 440.013 21.7234 439.94 21.7065C439.585 21.6278 439.238 21.5661 438.745 21.6078C438.319 21.6434 437.859 21.6469 437.432 21.6807C437.199 21.6986 437.093 21.7599 437.141 21.8073C437.168 21.8319 437.308 21.86 437.401 21.8597C437.615 21.8609 437.848 21.8316 438.048 21.8423C438.462 21.8638 438.671 22.0229 439.21 21.9773C439.53 21.9496 439.863 21.939 440.196 21.9303C440.283 21.9281 440.376 21.9639 440.47 21.9826C440.737 22.0331 440.972 22.0989 441.358 22.0634C441.678 22.0357 442.018 22.0269 442.344 22.0106C442.864 21.9841 442.864 21.986 443.539 22.0999C443.86 22.154 444.179 22.1091 444.492 22.0948C444.725 22.0845 444.945 22.0647 445.132 22.0907C445.419 22.1297 445.627 22.2204 445.981 22.2135C446.314 22.2066 446.64 22.1789 446.973 22.1682C447.18 22.1618 447.374 22.1917 447.541 22.2425C447.715 22.2933 447.902 22.3155 448.129 22.3033C448.455 22.287 448.788 22.2668 449.121 22.2562C449.215 22.254 449.322 22.2708 449.409 22.2857C449.596 22.3193 449.776 22.3587 449.957 22.3942C450.283 22.3817 450.617 22.3768 450.936 22.3529C451.183 22.3349 451.356 22.342 451.557 22.3794C451.811 22.4299 452.019 22.5206 452.432 22.4754C452.638 22.4538 452.878 22.4587 453.085 22.4389C453.338 22.4133 453.511 22.4223 453.692 22.4788C454.033 22.5861 454.46 22.5866 454.9 22.5432C455.379 22.4959 455.74 22.548 456.101 22.6306C456.482 22.7169 456.482 22.7149 456.778 22.9252C456.866 22.9858 457.113 23.0136 457.319 23.0015C457.666 22.9813 457.966 22.9898 458.22 23.0612C458.488 23.1384 458.808 23.1278 459.134 23.1057C459.567 23.0757 460 23.0495 460.355 23.1588C460.529 23.2115 460.716 23.2241 460.949 23.21C461.609 23.1736 462.275 23.1504 462.922 23.1064C463.315 23.0784 463.542 23.1385 463.809 23.189C464.17 23.2582 464.565 23.3197 464.567 23.4701C464.567 23.4948 464.661 23.5231 464.741 23.5418C464.915 23.5812 465.102 23.6148 465.283 23.6523C465.55 23.7085 465.811 23.7552 466.177 23.7235C466.497 23.6977 466.837 23.6889 467.163 23.6707C467.489 23.6525 467.789 23.642 468.084 23.7133C468.425 23.794 468.786 23.8708 469.174 23.9304C469.447 23.9733 469.807 23.8979 470.101 23.9559C470.281 23.9914 470.455 24.0327 470.649 24.0625C470.729 24.0756 470.856 24.0656 470.962 24.0615C471.182 24.0531 471.409 24.0467 471.622 24.0269C471.868 24.0052 472.055 24.0083 472.242 24.0515C472.416 24.0909 472.59 24.1455 472.791 24.1562C473.091 24.1723 473.423 24.0951 473.724 24.1816C473.878 24.2249 474.072 24.2661 474.272 24.2788C474.473 24.2914 474.705 24.2621 474.919 24.2633C475.012 24.263 475.126 24.293 475.18 24.3176C475.213 24.3308 475.167 24.3671 475.121 24.3863C475.061 24.4094 474.975 24.4401 474.888 24.4442C474.228 24.4807 473.569 24.5115 472.909 24.546C472.516 24.5664 472.516 24.5664 471.721 24.4491C471.534 24.4212 471.327 24.4276 471.094 24.4417C470.781 24.4599 470.462 24.4933 470.134 24.4602C469.706 24.3322 469.179 24.3225 468.62 24.3739C468.387 24.3956 468.173 24.3963 467.999 24.3608C467.632 24.2897 467.244 24.2244 466.916 24.1398C466.662 24.074 466.542 24.0687 466.437 24.1604C466.404 24.1891 466.371 24.2197 466.378 24.2463C466.419 24.3413 466.494 24.4343 466.535 24.5294C466.549 24.556 466.496 24.5866 466.463 24.6153C466.357 24.6956 466.217 24.6903 465.983 24.6245C465.749 24.5587 465.468 24.5158 465.095 24.5475C464.775 24.5753 464.429 24.5726 464.109 24.6022C463.616 24.6458 463.269 24.586 462.914 24.5054C462.841 24.4885 462.714 24.4794 462.621 24.4835C461.628 24.5306 460.642 24.5834 459.649 24.6305C459.436 24.6408 459.242 24.6129 459.075 24.562C458.9 24.5112 458.707 24.4852 458.493 24.4955C457.614 24.5384 456.734 24.5775 455.855 24.63C455.495 24.6521 455.208 24.6283 454.961 24.5625C454.773 24.5137 454.6 24.499 454.367 24.5055C454.113 24.5121 453.934 24.5317 453.808 24.5874C453.688 24.6411 453.775 24.6731 454.043 24.7141C454.33 24.7588 454.598 24.8169 454.872 24.8693C455.092 24.8609 455.311 24.845 455.525 24.8461C455.618 24.8458 455.705 24.8798 455.799 24.8985C456.066 24.9528 456.314 25.0072 456.693 24.9755C457.013 24.9478 457.353 24.9409 457.679 24.9227C458.132 24.9002 458.132 24.9002 458.867 25.0177C459.055 25.0475 459.255 25.0449 459.494 25.027C459.701 25.0129 459.915 25.0389 460.062 25.0955C460.122 25.1181 460.103 25.1563 459.978 25.2823C459.979 25.3756 460.119 25.3332 460.164 25.2722C460.237 25.1844 460.096 25.1563 459.83 25.2048C459.644 25.2397 459.551 25.2895 459.599 25.3293C459.626 25.3501 459.753 25.3763 459.978 25.2823C460.563 25.1661 461.01 25.1513 461.436 25.1194C461.689 25.1014 461.849 25.1085 462.05 25.1573C462.291 25.2155 462.532 25.2775 462.924 25.2458C463.351 25.2101 463.804 25.2047 464.237 25.1747C464.637 25.1467 464.844 25.2298 465.098 25.2784C465.406 25.3364 465.745 25.2686 466.026 25.302C466.319 25.3352 466.527 25.4183 466.867 25.4324C467.36 25.3793 467.675 25.4734 468.049 25.535C468.343 25.5816 468.689 25.5385 469.002 25.5165C469.355 25.4925 469.649 25.5125 469.896 25.5802C470.178 25.6573 470.491 25.6391 470.811 25.6209C471.557 25.5803 471.583 25.5745 472.018 25.6777C472.332 25.7528 472.632 25.7175 472.945 25.707C473.219 25.7574 473.487 25.8117 473.774 25.8565C473.848 25.8676 473.987 25.8481 474.101 25.842C474.427 25.8257 474.76 25.8094 475.087 25.793C475.307 25.7828 475.539 25.7535 475.74 25.7642C475.94 25.7769 476.107 25.8315 476.288 25.8671C476.468 25.9026 476.656 25.9381 476.829 25.9756C477.097 26.0318 477.351 26.0786 477.724 26.0488C478.043 26.0229 478.377 26.0142 478.71 25.996C479.13 25.9736 479.116 25.9794 479.898 26.0909C480.319 26.1523 480.751 26.0748 481.178 26.0657C481.391 26.0612 481.598 26.0814 481.745 26.1361C481.806 26.1588 481.786 26.1969 481.807 26.2292C480.707 26.2843 479.601 26.3318 478.515 26.3982C478.096 26.4244 477.875 26.3566 477.647 26.3003C477.273 26.2102 476.781 26.345 476.426 26.2282C476.212 26.1585 475.905 26.1196 475.538 26.1551C475.325 26.1748 475.099 26.1737 474.879 26.1916C474.319 26.2353 473.806 26.2389 473.357 26.1091C473.203 26.0639 472.983 26.0399 472.823 25.9967C472.635 25.9498 472.455 25.9237 472.235 25.934C471.242 25.983 470.256 26.032 469.27 26.0848C469.183 26.0889 469.097 26.1177 469.024 26.1389C468.838 26.1928 468.899 26.2345 469.199 26.2677C469.299 26.2788 469.38 26.3033 469.473 26.322C469.654 26.3576 469.821 26.4141 470.021 26.4268C470.222 26.4394 470.455 26.412 470.675 26.4017C470.895 26.3915 471.128 26.3621 471.328 26.3729C471.528 26.3855 471.695 26.4402 471.882 26.4738C471.969 26.4907 472.076 26.5188 472.163 26.5166C472.603 26.5037 473.036 26.4814 473.476 26.4627C473.75 26.5132 473.984 26.5867 474.311 26.6027C474.518 26.6134 474.738 26.5917 474.951 26.5948C475.044 26.5964 475.165 26.6246 475.212 26.6492C475.239 26.6643 475.153 26.7027 475.086 26.7219C474.834 26.7951 474.487 26.7829 474.174 26.8068C473.834 26.8327 473.527 26.8261 473.266 26.7528C473.092 26.7039 472.899 26.6779 472.685 26.6881C472.132 26.7147 471.586 26.7451 471.033 26.7679C470.94 26.772 470.826 26.7553 470.739 26.7422C470.038 26.6285 470.038 26.6247 469.545 26.6511C468.818 26.6897 468.818 26.6897 468.33 26.5904C468.237 26.5717 468.136 26.5359 468.056 26.5381C467.283 26.5711 466.517 26.6041 465.751 26.6505C465.498 26.6647 465.324 26.6653 465.137 26.6164C464.976 26.5751 464.789 26.5281 464.589 26.5173C464.382 26.5066 464.156 26.5359 463.936 26.5462C463.716 26.5564 463.483 26.582 463.289 26.5674C463.089 26.5528 462.915 26.5001 462.741 26.4627C462.561 26.4233 462.367 26.4258 462.121 26.4419C461.361 26.4882 461.355 26.4825 460.6 26.3671C460.513 26.354 460.399 26.3392 460.306 26.3433C459.753 26.368 459.207 26.3984 458.654 26.4231C458.44 26.4333 458.233 26.4093 458.086 26.3546C458.026 26.3319 458.045 26.2938 458.004 26.2197C457.957 26.2027 458.011 26.233 458.025 26.2615C458.125 26.2574 458.245 26.2608 458.318 26.2453C458.504 26.2085 458.597 26.1606 458.549 26.1208C458.522 26.0999 458.395 26.0737 458.315 26.074C458.169 26.0745 458.043 26.1168 458.004 26.2197C457.585 26.2839 457.138 26.2987 456.705 26.3307C456.452 26.3505 456.292 26.3416 456.092 26.2928C455.851 26.2327 455.603 26.1745 455.21 26.2062C454.784 26.2419 454.331 26.2492 453.891 26.2773C453.385 26.3095 453.162 26.1389 452.736 26.1441C452.296 26.1494 451.856 26.1833 451.417 26.2076C451.03 26.2279 451.03 26.2279 450.228 26.1069C449.934 26.0622 449.589 26.13 449.301 26.0833C449.107 26.0535 448.94 26.0084 448.753 25.9767C448.673 25.9636 448.546 25.9641 448.446 25.9682C447.893 25.9929 447.333 26.01 446.801 26.0537C446.195 26.1052 445.734 26.0535 445.299 25.9426C444.752 25.9654 444.199 25.9787 443.66 26.0166C443.267 26.0446 443.039 25.9826 442.772 25.9321C442.678 25.9153 442.598 25.887 442.498 25.8797C442.398 25.8724 442.278 25.888 442.171 25.8941C441.731 25.9165 441.278 25.9276 440.852 25.9633C440.326 26.0088 440.124 25.8534 439.717 25.8357C439.445 25.9299 439.3 26.0579 438.76 26.0693C438.32 26.0784 437.88 26.1103 437.441 26.1327C437.221 26.143 437.001 26.1551 436.781 26.1654C436.428 26.1837 436.262 26.2585 436.337 26.3724C436.378 26.4351 436.412 26.4978 436.446 26.5605C436.515 26.6726 436.349 26.7683 436.069 26.7826C435.297 26.8213 434.53 26.862 433.757 26.8969C433.551 26.9071 433.35 26.8754 433.183 26.8246C433.009 26.7738 432.815 26.7516 432.602 26.7619C431.829 26.8006 431.063 26.8413 430.29 26.8762C430.204 26.8803 430.09 26.8617 430.003 26.8467C429.816 26.8131 429.635 26.7737 429.455 26.7382C429.015 26.7568 428.582 26.7696 428.149 26.7939C427.449 26.8306 427.449 26.8325 426.934 26.7295C426.841 26.7108 426.747 26.6749 426.66 26.6771C426.327 26.6859 426.001 26.706 425.668 26.7243C424.688 26.777 424.688 26.777 424.401 26.7209C424.14 26.6685 423.906 26.6046 423.513 26.6363C423.086 26.672 422.633 26.685 422.193 26.7055C421.867 26.7199 421.541 26.7362 421.214 26.7411C421.127 26.7433 421.033 26.7075 420.94 26.6887C420.672 26.6306 420.412 26.5839 420.045 26.6175C419.832 26.6373 419.606 26.6418 419.386 26.6521C418.813 26.6807 418.813 26.6807 417.871 26.5696C417.778 26.5585 417.664 26.5456 417.571 26.5516C416.798 26.5884 416.032 26.6291 415.259 26.6641C415.166 26.6682 415.052 26.6571 414.959 26.6479C413.904 26.5411 413.904 26.5411 412.784 26.5981C412.358 26.6186 412.345 26.6263 411.897 26.5269C411.696 26.4838 411.529 26.4634 411.296 26.4775C410.416 26.5261 409.53 26.5596 408.658 26.6158C408.265 26.64 408.037 26.5836 407.77 26.5331C407.676 26.5163 407.576 26.4786 407.496 26.4808C406.616 26.5199 405.736 26.5666 404.857 26.6057C404.777 26.6098 404.676 26.5721 404.583 26.5553C404.402 26.5216 404.228 26.4708 404.028 26.4601C403.821 26.4493 403.595 26.4786 403.368 26.4889C402.815 26.5155 402.815 26.5136 402.174 26.4035C402.087 26.3885 401.973 26.368 401.887 26.3721C401.007 26.4131 400.121 26.4484 399.248 26.5066C398.749 26.5387 398.408 26.4846 398.053 26.4059C397.98 26.389 397.853 26.3818 397.76 26.3859C396.767 26.4331 395.781 26.4859 394.788 26.533C394.582 26.5432 394.381 26.5115 394.214 26.4626C393.946 26.3854 393.633 26.396 393.3 26.4142C392.534 26.4568 392.527 26.4549 392.072 26.3651C391.979 26.3464 391.898 26.3219 391.798 26.3127C391.705 26.3035 391.585 26.3096 391.485 26.3138C391.045 26.3343 390.605 26.3567 390.166 26.3791C389.726 26.4015 389.279 26.4144 388.846 26.4483C388.313 26.49 388.058 26.3671 387.684 26.3113C387.138 26.3379 386.578 26.355 386.039 26.3968C385.626 26.4286 385.431 26.3455 385.157 26.3027C385.064 26.2877 384.963 26.2557 384.877 26.2598C383.884 26.305 382.891 26.354 381.905 26.4087C381.665 26.421 381.505 26.4063 381.304 26.3613C380.856 26.26 380.836 26.2639 380.09 26.3045C379.764 26.3227 379.45 26.339 379.169 26.2619C378.922 26.1923 378.621 26.1761 378.268 26.2002C377.835 26.2302 377.389 26.2469 376.949 26.2674C376.51 26.2898 376.07 26.3199 375.63 26.3309C375.277 26.3416 375.062 26.2528 374.782 26.2081C374.695 26.1951 374.575 26.1936 374.475 26.1977C374.035 26.2163 373.582 26.2311 373.156 26.2649C372.636 26.3066 372.348 26.2029 371.98 26.1433C371.9 26.1302 371.767 26.1383 371.667 26.1443C370.894 26.1812 370.128 26.2218 369.355 26.2606C369.081 26.2101 368.8 26.1616 368.526 26.1111C368.086 26.1316 367.647 26.154 367.207 26.1745C366.874 26.1909 366.534 26.1977 366.221 26.2273C365.815 26.2668 365.613 26.178 365.339 26.1351C365.246 26.1202 365.145 26.0882 365.059 26.0923C364.506 26.1151 363.953 26.1398 363.406 26.174C362.887 26.2081 362.678 26.0375 362.251 26.0408C361.811 26.0442 361.358 26.0705 360.932 26.1062C360.439 26.1478 360.092 26.088 359.737 26.0074C359.663 25.9905 359.537 25.9814 359.443 25.9855C358.89 26.0102 358.344 26.0406 357.791 26.0653C357.698 26.0694 357.584 26.0603 357.491 26.0492C356.436 25.9404 356.436 25.9385 355.976 25.9629C355.65 25.9793 355.317 25.9994 354.983 26.01C354.89 26.0142 354.776 25.9974 354.689 25.9825C353.994 25.8687 353.994 25.8668 353.495 25.8913C353.055 25.9137 352.615 25.9361 352.176 25.9585C351.901 25.9081 351.621 25.8595 351.347 25.8091C350.8 25.8357 350.241 25.8566 349.701 25.8926C349.448 25.9087 349.281 25.9036 349.087 25.8566C348.846 25.8003 348.605 25.7345 348.206 25.7682C347.78 25.8039 347.326 25.8093 346.893 25.8393C346.374 25.8753 346.158 25.7028 345.738 25.7061C345.298 25.7095 344.845 25.7357 344.419 25.7714C343.926 25.8131 343.578 25.7533 343.224 25.6727C343.15 25.6558 343.024 25.6467 342.93 25.6508C341.718 25.7101 340.512 25.7693 339.299 25.8324C338.553 25.8711 338.553 25.873 337.131 25.7731C337.031 25.7658 336.924 25.7586 336.824 25.7627C336.385 25.7813 335.931 25.7961 335.505 25.8299C334.986 25.8717 334.698 25.7698 334.33 25.7083C334.25 25.6952 334.123 25.7032 334.017 25.7074C333.684 25.7218 333.357 25.7401 333.024 25.7564C332.584 25.7789 332.145 25.8013 331.705 25.8237C331.431 25.7751 331.15 25.7246 330.876 25.6761C330.33 25.7027 329.77 25.7179 329.23 25.7597C328.817 25.7915 328.623 25.7122 328.349 25.6674C328.255 25.6525 328.155 25.6205 328.068 25.6227C327.075 25.6679 326.083 25.715 325.097 25.7716C324.69 25.7958 324.502 25.7108 324.229 25.668C324.135 25.6549 324.028 25.6306 323.941 25.6347C323.282 25.6635 322.622 25.6981 321.963 25.7327C321.589 25.753 321.589 25.753 320.774 25.6377C320.681 25.6247 320.574 25.6117 320.481 25.6158C318.389 25.718 316.303 25.8259 314.211 25.9281C313.998 25.9384 313.804 25.9105 313.637 25.8596C313.463 25.8088 313.269 25.7828 313.056 25.7931C312.176 25.836 311.29 25.8751 310.417 25.9276C310.058 25.9497 309.77 25.9259 309.523 25.8601C309.335 25.8113 309.162 25.7928 308.929 25.805C308.489 25.8293 308.049 25.8498 307.61 25.8723C307.17 25.8947 306.73 25.9171 306.29 25.9395C305.851 25.9619 305.404 25.9748 304.971 26.0087C304.438 26.0504 304.177 25.9333 303.809 25.8755C303.15 25.9063 302.49 25.9371 301.837 25.9697C300.957 26.0126 300.078 26.0594 299.198 26.1004C299.118 26.1045 299.018 26.0705 298.924 26.0537C298.65 26.0071 298.449 25.9411 298.043 25.9634C296.071 26.0709 294.085 26.1632 292.107 26.2689C291.694 26.2912 291.512 26.21 291.232 26.1671C291.138 26.1541 291.031 26.1278 290.945 26.1319C289.845 26.1832 288.746 26.2402 287.647 26.2953C287.2 26.3177 287.2 26.3177 286.452 26.2022C286.365 26.1892 286.251 26.1724 286.158 26.1765C284.725 26.2461 283.3 26.3194 281.867 26.3908C281.654 26.4011 281.46 26.3751 281.286 26.3243C281.119 26.2734 280.918 26.2456 280.712 26.2558C279.393 26.3211 278.067 26.3846 276.754 26.4556C276.401 26.4758 276.108 26.4597 275.853 26.392C275.673 26.3431 275.492 26.3228 275.266 26.335C273.287 26.4349 271.308 26.531 269.329 26.6366C268.949 26.6569 268.682 26.6217 268.441 26.5597C268.247 26.5108 268.081 26.5019 267.841 26.5103C267.587 26.5206 267.434 26.5421 267.295 26.5997C267.116 26.6745 267.004 26.7681 266.578 26.7753C266.138 26.7825 265.691 26.8068 265.258 26.8406C264.845 26.8744 264.651 26.7894 264.39 26.7389C264.196 26.7034 264.016 26.6982 263.77 26.7162C263.543 26.7322 263.404 26.765 263.271 26.8264C262.98 26.9568 262.953 26.9569 262.592 26.8762C262.398 26.8331 262.224 26.7994 262.011 26.8078C261.131 26.8488 260.252 26.8936 259.372 26.9403C258.866 26.9668 258.859 26.9706 258.478 26.8767C258.291 26.8298 258.11 26.8075 257.891 26.8197C255.472 26.942 253.053 27.0606 250.635 27.1886C250.262 27.2089 250.008 27.1698 249.74 27.1136C249.653 27.0948 249.566 27.0685 249.466 27.0612C249.366 27.0539 249.253 27.0619 249.146 27.0661C247.387 27.1538 245.622 27.2378 243.869 27.3351C243.47 27.3573 243.256 27.2972 242.982 27.2486C242.888 27.2318 242.808 27.2054 242.707 27.1981C242.607 27.1927 242.488 27.2065 242.381 27.2125C240.622 27.3003 238.856 27.3843 237.104 27.4815C236.684 27.5039 236.503 27.4245 236.229 27.3836C236.136 27.3687 236.035 27.3404 235.949 27.3445C235.396 27.3673 234.849 27.3977 234.296 27.4243C232.977 27.4916 231.658 27.555 230.339 27.6242C229.832 27.6506 229.61 27.4819 229.183 27.491C228.63 27.5024 228.084 27.5423 227.531 27.5708C227.091 27.5932 226.651 27.6137 226.212 27.638C225.779 27.6604 225.779 27.6604 224.697 27.5536C224.604 27.5444 224.49 27.5315 224.397 27.5356C222.858 27.6112 221.312 27.6868 219.78 27.7681C219.426 27.7864 219.133 27.7779 218.879 27.7083C218.698 27.6595 218.511 27.6353 218.291 27.6475C215.979 27.7637 213.674 27.88 211.362 27.9944C211.275 27.9985 211.162 27.9798 211.075 27.9649C210.887 27.9312 210.707 27.8919 210.526 27.8563C210.394 27.9005 210.221 27.9411 210.135 27.9909C210.016 28.0579 209.856 28.0775 209.603 28.0897C209.35 28.102 209.19 28.0987 208.989 28.0499C208.748 27.9898 208.501 27.943 208.108 27.9634C205.689 28.0914 203.27 28.2081 200.852 28.3342C200.452 28.3546 200.264 28.2715 199.984 28.2286C199.89 28.2156 199.783 28.195 199.697 28.1991C198.704 28.2463 197.718 28.2972 196.725 28.3462C193.973 28.4848 191.222 28.6178 188.477 28.7641C187.977 28.7905 187.636 28.7441 187.282 28.6634C187.208 28.6465 187.081 28.6374 186.988 28.6416C183.137 28.8334 179.286 29.0272 175.441 29.2209C175.235 29.2311 175.034 29.2013 174.867 29.1524C174.693 29.1016 174.499 29.0775 174.286 29.0877C172.527 29.1755 170.768 29.2633 169.009 29.3529C168.57 29.3753 168.563 29.3773 168.108 29.2874C168.015 29.2687 167.914 29.2329 167.841 29.2369C167.688 29.247 167.542 29.295 167.436 29.3601C167.33 29.429 167.164 29.4486 166.917 29.4627C166.664 29.4769 166.497 29.4718 166.303 29.4267C166.056 29.3705 165.828 29.316 165.429 29.3364C160.372 29.597 155.315 29.8481 150.258 30.1068C149.851 30.1272 149.663 30.0479 149.383 30.0051C149.289 29.9921 149.196 29.9734 149.096 29.9699C148.989 29.9664 148.876 29.9783 148.769 29.9843C140.521 30.3984 132.272 30.8144 124.024 31.2285C123.531 31.253 123.537 31.253 123 31.4299C122.933 31.4511 122.847 31.4799 122.754 31.484C120.229 31.6143 117.697 31.7409 115.165 31.8674C114.066 31.9225 112.966 31.9795 111.867 32.0326C111.474 32.0511 111.474 32.0511 110.537 32.2598C110.457 32.2772 110.364 32.3004 110.27 32.3045C105.873 32.5267 101.476 32.749 97.0714 32.9674C96.7249 32.9838 96.4454 33.019 96.2867 33.1109C96.1743 33.176 96.0281 33.2146 95.8083 33.2267C92.7301 33.3817 89.652 33.5386 86.5671 33.6899C86.2006 33.7082 85.9813 33.7623 85.8024 33.8428C85.7427 33.8697 85.6898 33.9003 85.6034 33.9196C85.5236 33.937 85.4037 33.9431 85.3038 33.9492C82.6653 34.0817 80.027 34.2181 77.3818 34.345C76.9887 34.3635 76.8296 34.4345 76.6372 34.5093C76.5709 34.5343 76.5247 34.5687 76.4383 34.5861C76.3518 34.6017 76.2251 34.6021 76.1185 34.6062C73.9198 34.7164 71.7212 34.8285 69.5225 34.9387C69.0956 34.9306 69.0038 35.0413 68.798 35.1086C68.725 35.1317 68.6722 35.1623 68.5857 35.1778C68.4926 35.1934 68.3724 35.1919 68.2591 35.196C66.5002 35.2838 64.7413 35.3773 62.9756 35.4593C62.5691 35.4778 62.4904 35.5752 62.2713 35.6425C62.1983 35.6637 62.1255 35.6963 62.0389 35.7023C60.9396 35.7612 59.8403 35.8163 58.7409 35.8695C58.3744 35.8878 58.3744 35.8859 57.7303 36.0765C57.6572 36.0977 57.5708 36.1209 57.4775 36.1269C55.8319 36.2124 54.1795 36.294 52.5272 36.3776C52.314 36.3879 52.168 36.434 52.0622 36.4991C51.9564 36.5642 51.8037 36.6066 51.5905 36.6168C50.2712 36.684 48.9519 36.7532 47.6326 36.8147C47.2662 36.8312 47.0269 36.8796 46.868 36.9658C46.7489 37.0309 46.6027 37.0637 46.3695 37.0759C45.0503 37.1413 43.7312 37.2123 42.4051 37.2701C42.0187 37.2866 41.8195 37.352 41.6606 37.4325C41.5348 37.4976 41.3884 37.5209 41.1419 37.5332C38.7233 37.6517 36.298 37.7702 33.8862 37.9001C33.4798 37.9225 33.2722 37.8565 33.0049 37.8098C32.6239 37.7445 32.2696 37.6734 32.2676 37.5249C32.2673 37.5021 32.1535 37.4758 32.0733 37.457C31.4779 37.3163 31.4779 37.3163 31.3825 37.1644C31.3278 37.0713 31.2665 36.9763 31.2185 36.8813C31.1297 36.7255 30.9157 36.6863 30.3027 36.7169C30.0829 36.7271 29.863 36.7412 29.6431 36.7495C29.3166 36.7639 29.0691 36.702 29.0075 36.588C28.9733 36.5253 28.9325 36.4626 28.8983 36.3999C29.2314 36.3836 29.2247 36.3817 29.8082 36.1494C30.0535 36.0515 30.0536 36.0515 29.5789 35.956C29.3984 35.9205 29.2245 35.8811 29.0306 35.8475C28.9438 35.8325 28.8303 35.8234 28.737 35.8275C28.184 35.8522 27.6377 35.8807 27.0913 35.9092C26.2119 35.954 26.2118 35.954 25.3157 35.7629C25.2421 35.7479 25.1284 35.7197 25.1415 35.7045C25.2139 35.6338 25.3934 35.6027 25.62 35.5944C25.9532 35.5818 26.2796 35.5617 26.6061 35.5454C26.826 35.5351 27.0458 35.523 27.2657 35.5127C27.4714 35.4397 27.6839 35.3685 27.8762 35.2937C28.1813 35.1784 28.1811 35.1746 27.76 35.0961C27.4926 35.0437 27.2052 34.9971 26.9312 34.9485C26.6047 34.9648 26.2716 34.9831 25.9451 34.9975C25.532 35.016 25.3648 34.9804 25.2564 34.8571C25.1616 34.7489 25.2736 34.6553 25.5933 34.6313C25.9197 34.6074 26.2263 34.5911 26.3917 34.4935C26.5504 34.3997 26.8298 34.3626 27.1764 34.3538C27.3964 34.3474 27.6162 34.3333 27.836 34.3212C28.1225 34.305 28.2746 34.2074 28.2131 34.0991C28.1787 34.0288 28.1112 33.97 27.851 33.9557C26.6967 33.8929 26.6833 33.8949 26.1081 33.7674C26.0546 33.7561 26.0142 33.722 26.034 33.7048C26.067 33.6761 26.1397 33.634 26.2197 33.628C26.9858 33.5836 27.7519 33.543 28.5183 33.5118C28.7715 33.5015 28.958 33.4875 29.0437 33.4168C29.1624 33.3193 29.1078 33.23 28.8735 33.1642C28.7999 33.1435 28.6794 33.1173 28.5994 33.1194C27.7199 33.1567 26.8471 33.2034 25.9675 33.2406C25.8876 33.2447 25.7405 33.2128 25.7068 33.1882C25.6395 33.1427 25.7386 33.0815 25.9717 33.0598C26.278 33.0302 26.5913 33.0272 26.7967 32.9314C27.0815 32.7953 27.4331 32.6704 27.7513 32.5399C27.8043 32.5169 27.8905 32.4728 27.8705 32.469C27.7032 32.4277 27.5094 32.396 27.3355 32.3566C27.0412 32.291 27.0399 32.1977 27.1053 32.1081C27.1576 32.0356 27.3572 32.0063 27.6039 32.0055C27.7106 32.0051 27.8439 32.0047 27.9304 31.9873C28.1565 31.9446 28.2291 31.8911 28.1152 31.8515C28.0482 31.8289 27.9278 31.7969 27.8479 31.801C26.422 31.8686 24.9893 31.9343 23.5703 32.0171C23.1506 32.0414 22.9564 31.9697 22.7023 31.9192C22.5084 31.8799 22.3281 31.8652 22.0884 31.8946C21.8621 31.922 21.642 31.9075 21.5011 31.8452C21.3871 31.7942 21.5864 31.7497 22.1258 31.6984C22.2256 31.6886 22.3389 31.6825 22.4119 31.6632C23.1825 31.455 23.1824 31.4531 23.7154 31.4247C24.2351 31.3982 24.2352 31.3963 24.507 31.285C24.633 31.2332 24.7722 31.1813 24.8914 31.1276C24.9378 31.1065 25.0174 31.0682 24.9906 31.0569C24.8431 30.9984 24.6428 30.9857 24.4096 30.9998C23.8901 31.0339 23.2764 31.0093 23.0056 31.1911C22.8998 31.2599 22.7334 31.2795 22.4935 31.2918C20.0816 31.4103 17.6697 31.5364 15.251 31.6511C14.8579 31.6696 14.6789 31.7406 14.5267 31.8191C14.3942 31.8843 14.2478 31.9038 13.9946 31.9161C13.7414 31.9284 13.5414 31.9347 13.3938 31.8724C13.3066 31.8347 13.3792 31.7811 13.5785 31.7271C13.8642 31.6501 13.8095 31.5551 13.7149 31.4659C13.6474 31.4071 13.4402 31.366 13.2202 31.3705C12.8936 31.3792 12.5806 31.4012 12.3062 31.326C12.1456 31.2828 11.9451 31.253 11.7646 31.2155C11.4168 31.1386 11.069 31.0599 10.583 31.1129C10.2494 31.095 10.0151 31.0272 9.7477 30.9748C9.2998 30.8888 9.25961 30.8756 9.57834 30.7813C9.93691 30.6754 9.65494 30.5393 9.85353 30.4358C10.0654 30.3247 10.3575 30.2267 10.6161 30.123C10.6824 30.0961 10.742 30.0712 10.8083 30.0443C10.6545 30.0068 10.5138 29.9597 10.3334 29.9336C10.0996 29.9002 9.97903 29.8587 9.99073 29.7406C9.94383 29.7237 9.9643 29.7674 10.0178 29.7786C10.078 29.7898 10.2246 29.7798 10.2978 29.7662C10.4839 29.7295 10.5765 29.6816 10.5293 29.6417C10.5023 29.6209 10.3754 29.5947 10.2954 29.5949C10.1487 29.5954 10.0226 29.6377 9.98406 29.7407C9.23843 29.8212 8.46545 29.8619 7.69249 29.8949C7.61254 29.899 7.51206 29.8613 7.41846 29.8425C7.11088 29.7789 7.11086 29.7807 6.21055 29.7647C6.11718 29.7632 5.9902 29.7369 5.94316 29.7105C5.74821 29.595 5.75316 29.4674 5.65811 29.344C5.83035 29.2635 6.00248 29.1849 6.18141 29.1063C6.53924 28.9471 7.00412 28.8066 7.28174 28.6324C7.22044 28.5394 7.13913 28.4464 7.43143 28.3693C8.2635 28.2713 8.25688 28.2713 8.4823 28.1792C9.12542 27.9182 9.76181 27.6553 10.4317 27.398C10.6107 27.3307 10.6103 27.2946 10.2899 27.2671C10.1897 27.2598 10.0829 27.2583 9.97628 27.2624C9.64311 27.2769 9.31024 27.3123 8.98345 27.3057C8.65668 27.3011 8.41551 27.2182 8.14811 27.1677C7.87402 27.1153 7.59992 27.0611 7.32581 27.0068C7.01253 27.0135 6.69998 27.0679 6.38544 26.9833C6.1445 26.9175 5.84384 26.8709 5.56973 26.8166C5.7744 26.6713 6.15962 26.5596 6.45788 26.4311C6.72962 26.314 6.73616 26.3159 7.46831 26.224C7.81441 26.181 7.93145 25.9655 7.63723 25.9037C7.28282 25.8287 6.90857 25.7595 6.54754 25.6884C6.23427 25.6952 5.91502 25.7477 5.61382 25.663C5.37958 25.5991 5.11223 25.5562 4.72589 25.5822C4.07309 25.6263 3.40669 25.6495 2.74713 25.686C2.5206 25.6982 2.27374 25.6914 2.17284 25.627C2.10554 25.5815 2.29803 25.5181 2.51786 25.504C2.85095 25.4839 3.15062 25.46 3.31598 25.3643C3.47467 25.2686 3.76759 25.239 4.1141 25.2246C4.20738 25.2204 4.31382 25.1972 4.36017 25.1742C4.59866 25.063 4.86404 24.967 5.37746 24.9691C5.59028 24.9303 5.70289 24.8823 5.63559 24.8369C5.59524 24.8123 5.45486 24.7804 5.37491 24.7845C4.8218 24.8053 4.26872 24.8262 3.72916 24.8623C3.47602 24.8784 3.28262 24.8828 3.12182 24.8263C3.00795 24.7886 3.06724 24.737 3.27982 24.6811C3.46584 24.6329 3.51847 24.5775 3.50424 24.5128C3.46883 24.3626 3.26817 24.3195 2.62826 24.3311C2.16834 24.3403 2.05465 24.3159 1.95285 24.1869C1.92576 24.1565 1.85862 24.1148 1.905 24.0937C2.1899 23.9634 2.37438 23.8029 2.91357 23.7401C3.1266 23.7166 3.35319 23.7158 3.48584 23.6659C3.6185 23.616 3.73777 23.5584 3.87712 23.5104C4.04968 23.4527 4.16883 23.399 4.08832 23.3631C3.95409 23.2989 3.74073 23.2939 3.49437 23.3175C3.28128 23.3373 3.05464 23.3399 2.83478 23.3521C2.44171 23.3744 2.12108 23.326 2.07325 23.2424C1.94352 23.022 1.80711 22.8036 1.69071 22.5832C1.67701 22.5566 1.70978 22.5222 1.7628 22.4992C1.94837 22.4186 2.1474 22.3418 2.33967 22.2631C2.56511 22.1729 2.92543 22.1888 3.23188 22.1707C3.6649 22.1445 3.66477 22.1464 4.24228 21.9617C4.46796 21.8886 4.86173 21.9158 5.09418 21.8503C5.16723 21.8292 5.2801 21.7945 5.25983 21.7756C5.23282 21.7509 5.09929 21.7323 4.99912 21.7212C4.90563 21.7101 4.79223 21.7048 4.69231 21.7108C3.47966 21.7701 2.27377 21.8332 1.0611 21.8905C0.85455 21.9008 0.627283 21.8597 0.553128 21.8009C0.479026 21.7459 0.49804 21.6792 0.483836 21.6165C0.676101 21.5378 0.895029 21.4647 1.06055 21.3804C1.18632 21.3153 1.33263 21.2862 1.58593 21.2816C1.9192 21.2748 2.24561 21.2508 2.61873 21.2324C3.30826 20.9522 3.98422 20.6587 4.72709 20.3784C5.02555 20.265 4.95075 20.1511 5.00909 20.031C5.06757 19.9204 5.51447 19.936 5.81404 19.9027C6.05369 19.8752 6.13275 19.814 6.03883 19.7725C5.98515 19.7479 5.86481 19.7197 5.77147 19.7201C5.55146 19.7208 5.33169 19.7387 5.11181 19.7489C4.89192 19.7592 4.63851 19.7543 4.45895 19.7873C4.28602 19.8183 4.17351 19.8834 4.06094 19.939C3.93511 20.0003 3.76884 20.0218 3.51554 20.0265C3.18891 20.0314 2.86248 20.0496 2.53597 20.064C2.17492 19.991 1.80049 19.92 1.45272 19.8431C1.38584 19.8281 1.37182 19.7844 1.3781 19.7558C1.3904 19.6815 1.28979 19.6362 1.06928 19.6007C0.882175 19.5709 0.728213 19.5276 0.554342 19.4902C0.686972 19.4383 0.833015 19.3883 0.938924 19.3328C1.17066 19.2159 1.46289 19.1312 1.96964 19.1333C2.16862 19.0584 2.32732 18.9665 2.58663 18.9142C2.83263 18.8639 3.25336 18.912 3.43848 18.799C3.53106 18.7435 3.67027 18.6803 3.84997 18.6568C4.13615 18.6197 4.50976 18.6375 4.67497 18.5303C4.77413 18.4691 4.91998 18.4134 5.11312 18.3975C5.33289 18.3796 5.55946 18.3751 5.71897 18.3384C5.80538 18.3191 5.89831 18.2883 5.89794 18.2616C5.89771 18.2445 5.7641 18.2183 5.6706 18.2072C5.58375 18.1942 5.47014 18.185 5.37019 18.1892C5.03699 18.2017 4.7106 18.2238 4.37741 18.2363C4.28412 18.2404 4.17729 18.2275 4.07713 18.2164C3.78336 18.1869 3.80279 18.1488 4.03519 18.0795C4.26762 18.0121 4.4332 17.9258 4.62546 17.8472C4.83863 17.8331 5.10535 17.8379 5.25152 17.8013C5.49739 17.7415 5.6695 17.6552 5.86849 17.5803C6.08834 17.5682 6.31496 17.5636 6.52135 17.542C6.60791 17.5341 6.64737 17.4921 6.72037 17.4671C6.85305 17.419 6.96553 17.3501 7.14523 17.3267C7.4381 17.2914 7.7983 17.3036 7.9702 17.1983C8.06936 17.137 8.22175 17.0718 8.40838 17.0674C8.9283 17.058 9.14687 16.9526 9.41219 16.8527C9.61117 16.7778 10.0384 16.8145 10.2574 16.7395C10.4034 16.6914 10.5093 16.6321 10.6554 16.5859C10.7151 16.5666 10.8416 16.5567 10.9415 16.5507C11.4878 16.5203 12.0409 16.4975 12.5872 16.4652C12.6738 16.4592 12.7534 16.4304 12.8198 16.4073C12.9591 16.3574 13.0448 16.2885 13.2176 16.2556C13.3905 16.2227 13.6372 16.2218 13.8504 16.2116C14.5367 16.1808 14.5902 16.1882 14.9013 16.0253C15.1529 15.8932 15.7743 15.9843 15.9789 15.839C16.0978 15.7549 16.3168 15.6856 16.71 15.6748C17.2632 15.6596 17.8094 15.6216 18.3624 15.595C18.8554 15.5705 18.8488 15.5705 19.3797 15.3917C19.6186 15.3109 19.9722 15.3212 20.2853 15.3049C20.6185 15.2886 20.9248 15.2647 21.0835 15.169C21.2422 15.0752 21.5351 15.0437 21.875 15.0293C22.1881 15.0149 22.5417 15.0232 22.7873 14.9463C23.3848 14.7615 23.3781 14.7597 23.7979 14.7392C24.4575 14.7065 25.1171 14.6739 25.7767 14.6393C26.2165 14.6169 26.6764 14.6115 27.0892 14.5683C27.3888 14.5368 27.5206 14.4298 27.7129 14.3549C28.2592 14.3245 28.8055 14.2941 29.3518 14.2656C30.118 14.225 30.8909 14.1881 31.6638 14.1494C31.9962 14.0759 32.0407 13.9159 32.6006 13.9064C32.934 13.9015 33.2603 13.8756 33.5934 13.8593C34.1464 13.8308 34.6926 13.7947 35.2458 13.7795C35.6657 13.7686 35.7375 13.6655 35.9566 13.6001C36.0297 13.577 36.0959 13.5444 36.1825 13.5384C37.0485 13.4822 37.9417 13.4678 38.7873 13.3869C38.8739 13.379 38.9534 13.3388 38.973 13.3102C38.9861 13.2949 38.8724 13.2667 38.7988 13.2537C38.7119 13.2387 38.5984 13.2239 38.5051 13.228C35.7534 13.3648 33.0018 13.5035 30.25 13.6402C29.8636 13.6606 29.8636 13.6586 28.9264 13.8712C28.8467 13.8886 28.7535 13.9079 28.6535 13.914C28.2138 13.9383 27.7673 13.9531 27.3344 13.9831C26.9813 14.0071 26.6878 13.9853 26.4335 13.9176C26.2528 13.8687 26.0658 13.8541 25.8392 13.8587C25.5859 13.8653 25.4196 13.8868 25.2736 13.9386C25.0813 14.0097 24.9825 14.1014 24.5761 14.1218C22.7037 14.2099 20.8314 14.3076 18.9659 14.4014C18.7055 14.3756 18.5783 14.3361 18.6443 14.2883C18.6839 14.2596 18.7634 14.2213 18.8434 14.2172C19.6095 14.1747 20.3824 14.1378 21.1486 14.0972C21.2552 14.0911 21.4019 14.0944 21.4616 14.0752C21.7538 13.9885 21.8587 13.8492 22.4119 13.8378C22.7318 13.8311 23.0581 13.8014 23.3644 13.7737C23.451 13.7658 23.5304 13.7256 23.5501 13.697C23.5565 13.6817 23.4494 13.6535 23.3692 13.6405C23.0751 13.5863 22.7361 13.654 22.4422 13.617C22.342 13.604 22.2017 13.5854 22.1813 13.5626C22.1677 13.5417 22.2806 13.5071 22.3603 13.4859C22.4334 13.4666 22.5331 13.4492 22.633 13.4431C23.5125 13.3964 24.392 13.3477 25.2716 13.3105C25.6315 13.296 25.8841 13.2475 26.0429 13.1595C26.162 13.0943 26.3082 13.0596 26.5347 13.0493C28.0739 12.9737 29.6128 12.8905 31.1587 12.8206C31.5452 12.8041 31.7444 12.7406 31.9033 12.6582C32.0291 12.5931 32.1754 12.5698 32.422 12.5575C34.6274 12.4511 36.8193 12.3334 39.0248 12.2308C39.4312 12.2123 39.5502 12.13 39.7559 12.0589C39.8289 12.0339 39.875 12.0033 39.9681 11.9878C40.0612 11.9722 40.1813 11.9737 40.2946 11.9695C42.0535 11.8818 43.8126 11.7883 45.5783 11.7063C45.9914 11.6877 46.07 11.5923 46.2824 11.525C46.3554 11.5038 46.4217 11.4693 46.5083 11.4633C47.8275 11.3942 49.1467 11.3288 50.4659 11.2616C51.3454 11.2167 52.2248 11.1719 53.1043 11.129C53.5374 11.1085 53.5374 11.1066 54.1216 10.9238C54.188 10.9026 54.2811 10.8776 54.3676 10.8716C56.8995 10.7412 59.4246 10.6167 61.9564 10.4883C62.1696 10.478 62.3224 10.4337 62.4281 10.3686C62.5339 10.3036 62.6868 10.2593 62.8933 10.2491C64.8721 10.1473 66.8509 10.0473 68.8365 9.95121C69.1963 9.93478 69.4489 9.88824 69.6078 9.80206C69.7269 9.73694 69.8731 9.7022 70.0996 9.69192C72.0785 9.59391 74.0574 9.49017 76.0429 9.39594C76.4227 9.37754 76.6084 9.31221 76.7941 9.23545C76.8604 9.20858 76.9131 9.16462 76.9931 9.16054C77.9791 9.10393 78.9583 9.04544 79.9512 9.00594C80.3644 8.98933 80.5033 8.90891 80.6689 8.83222C80.8014 8.77087 80.9545 8.74942 81.2078 8.74096C81.7609 8.72197 82.3071 8.68779 82.8467 8.65362C82.9266 8.64764 83.0261 8.60543 83.0324 8.57876C83.045 8.52923 82.8912 8.49548 82.6376 8.4792C79.9991 8.61178 77.3541 8.74438 74.7156 8.87697C74.2825 8.89936 74.2825 8.89937 73.6983 9.08216C73.632 9.10332 73.5389 9.12838 73.4456 9.1344C70.9138 9.26282 68.3887 9.38932 65.8568 9.51774C65.6436 9.52797 65.4909 9.57226 65.3851 9.63733C65.2794 9.70241 65.1265 9.7467 64.9199 9.75691C62.5014 9.87924 60.0829 10.0035 57.6576 10.1201C57.2978 10.1366 57.0451 10.1812 56.8863 10.2693C56.7672 10.3344 56.621 10.3691 56.3944 10.3794C54.0824 10.4938 51.7771 10.6138 49.4583 10.7244C49.2251 10.7347 49.0511 10.6801 49.0637 10.6286C49.07 10.602 49.1693 10.5579 49.2492 10.5538C50.4551 10.4869 51.6544 10.4182 52.8672 10.3665C53.2736 10.3499 53.3924 10.2658 53.5981 10.1947C53.6644 10.1697 53.7174 10.1372 53.8038 10.1235C53.897 10.108 54.017 10.1095 54.1303 10.1053C56.9886 9.96057 59.847 9.81393 62.712 9.67678C63.1251 9.65635 63.2037 9.56281 63.4161 9.49548C63.4892 9.47239 63.5554 9.43792 63.642 9.43382C64.5215 9.38519 65.4009 9.34225 66.2804 9.29933C67.8195 9.22183 69.3586 9.14432 70.9044 9.0668C71.3508 9.04436 71.3508 9.04435 71.9217 8.86352C71.9881 8.84236 72.0811 8.81541 72.1677 8.81132C76.2386 8.6054 80.3096 8.39947 84.3806 8.19545C84.5938 8.18522 84.7465 8.14093 84.8523 8.07586C84.9581 8.01269 85.1108 7.9665 85.3173 7.95438C90.8207 7.67703 96.3175 7.39969 101.821 7.12614C102.181 7.1078 102.433 7.06698 102.592 6.97698C102.705 6.91189 102.858 6.87712 103.084 6.86494C109.134 6.56101 115.184 6.25708 121.24 5.95122C125.311 5.74721 129.382 5.53938 133.453 5.33917C133.826 5.32079 134.025 5.2611 134.211 5.18244C134.27 5.15559 134.33 5.11161 134.41 5.10753C135.283 5.05702 136.155 5.01031 137.028 4.9636C137.302 5.01407 137.576 5.06265 137.85 5.11312C138.056 5.0401 138.255 4.9652 138.461 4.89218C139.78 4.83254 141.079 4.74253 142.412 4.7114C142.499 4.70921 142.592 4.74506 142.686 4.76378C143.308 4.88161 143.661 4.8709 144.052 4.7097C144.191 4.65213 144.311 4.60034 144.524 4.59011C145.183 4.55363 145.85 4.52855 146.503 4.48638C146.856 4.46426 147.149 4.4823 147.404 4.54997C147.584 4.59885 147.771 4.61917 147.991 4.60701C149.204 4.54584 150.41 4.48658 151.622 4.4216C151.709 4.4175 151.788 4.38486 151.855 4.3618C151.994 4.31184 152.113 4.25816 152.246 4.20632C152.426 4.23807 152.627 4.26215 152.774 4.30353C152.961 4.35239 153.135 4.35179 153.388 4.33762C158.225 4.09105 163.069 3.85018 167.906 3.60172C168.319 3.58129 168.5 3.66064 168.781 3.70157C168.874 3.71648 168.968 3.73519 169.068 3.73866C169.175 3.74211 169.288 3.73032 169.395 3.72425C173.026 3.54074 176.657 3.35913 180.288 3.17562C180.768 3.15117 180.768 3.15117 181.483 3.26678C181.57 3.28172 181.683 3.29847 181.777 3.29244C183.429 3.21266 185.081 3.12717 186.727 3.04551C186.94 3.03527 187.121 3.06512 187.315 3.10824C187.696 3.19261 187.722 3.19253 188.001 3.06597C188.133 3.00652 188.273 2.96987 188.492 2.952C188.732 2.93216 188.926 2.93724 189.113 2.97088C189.38 3.01756 189.575 3.09684 189.981 3.07454C191.74 2.97917 193.506 2.89901 195.258 2.80176C195.658 2.77948 195.872 2.84347 196.139 2.89016C196.233 2.90697 196.32 2.93333 196.42 2.93871C196.52 2.94408 196.64 2.93034 196.746 2.92427C198.945 2.8141 201.15 2.70583 203.342 2.58807C203.756 2.56574 203.937 2.64696 204.217 2.6879C204.311 2.70281 204.418 2.72911 204.504 2.72501C205.824 2.66158 207.15 2.59429 208.469 2.52705C208.942 2.50262 208.942 2.50452 209.664 2.6182C209.75 2.63314 209.864 2.64799 209.957 2.64387C211.496 2.56827 213.042 2.49075 214.581 2.41325C215.054 2.38882 215.054 2.38882 216.422 2.4832C216.523 2.49048 216.629 2.50155 216.729 2.49741C218.488 2.40966 220.254 2.32377 222.013 2.2303C222.366 2.21199 222.66 2.22622 222.914 2.29389C223.095 2.34277 223.281 2.36309 223.501 2.35093C225.48 2.25102 227.466 2.15489 229.438 2.04929C229.818 2.02898 230.065 2.07001 230.332 2.12431C230.419 2.14305 230.506 2.16941 230.606 2.17669C230.707 2.18396 230.82 2.17596 230.926 2.1699C232.905 2.06998 234.891 1.97576 236.863 1.86825C237.263 1.84597 237.477 1.90996 237.744 1.95665C237.838 1.97347 237.938 2.00739 238.018 2.00522C238.791 1.97026 239.564 1.93913 240.33 1.88897C240.743 1.86093 240.924 1.94786 241.205 1.9888C241.298 2.00181 241.406 2.03001 241.492 2.02591C243.145 1.94613 244.797 1.86254 246.443 1.77707C246.676 1.76487 246.849 1.7814 247.037 1.83026C247.284 1.89605 247.571 1.92173 247.931 1.89958C248.697 1.85323 249.47 1.82019 250.243 1.78143C250.696 1.75897 250.696 1.75897 252.084 1.85329C252.184 1.86056 252.291 1.87162 252.391 1.86747C253.71 1.80213 255.036 1.73868 256.349 1.66765C256.702 1.64743 256.996 1.66357 257.25 1.73124C257.431 1.78012 257.611 1.80046 257.837 1.78828C259.05 1.7271 260.256 1.66594 261.469 1.60477C261.908 1.58235 262.348 1.5447 262.788 1.54322C263.108 1.54405 263.343 1.63462 263.63 1.67934C263.71 1.69239 263.843 1.67674 263.95 1.67257C265.489 1.59507 267.035 1.52325 268.567 1.43626C268.967 1.41398 269.181 1.47797 269.448 1.52466C269.542 1.54147 269.642 1.5754 269.722 1.57323C270.275 1.55043 270.822 1.52004 271.375 1.49344C272.034 1.46077 272.701 1.43569 273.354 1.39162C273.886 1.35557 274.089 1.52048 274.515 1.52476C274.842 1.52937 275.175 1.4959 275.502 1.47957C276.161 1.4469 276.821 1.41043 277.48 1.38157C277.714 1.37127 277.893 1.34019 277.966 1.27143C277.979 1.25806 277.865 1.2299 277.792 1.21302C276.902 1.02186 276.902 1.02185 276.009 1.06673C275.456 1.09523 274.91 1.12372 274.357 1.14842C274.264 1.15254 274.157 1.13767 274.063 1.12657C273.796 1.09511 273.822 1.05695 274.048 0.987672C274.274 0.918392 274.446 0.834071 274.638 0.755386C274.912 0.803954 275.18 0.852526 275.454 0.901093C275.674 0.890837 275.893 0.878695 276.113 0.868439C277.213 0.815257 278.312 0.760168 279.411 0.710793C279.491 0.706717 279.592 0.744454 279.686 0.763173C279.953 0.817473 280.194 0.864236 280.58 0.842001C281.566 0.783489 282.559 0.740182 283.545 0.689284C283.978 0.666892 283.978 0.666894 284.74 0.782346C284.827 0.795378 284.94 0.810224 285.033 0.806104C286.026 0.75899 287.012 0.708098 288.005 0.659081C288.218 0.648848 288.425 0.672895 288.579 0.727576C288.64 0.750214 288.627 0.788318 288.885 1.09961C289.675 1.35011 290.214 1.32166 290.761 1.29698C290.994 1.28668 291.201 1.27646 291.353 1.23788C291.433 1.21668 291.533 1.18588 291.532 1.16114C291.532 1.14211 291.385 1.11214 291.292 1.10865C290.631 1.0728 290.005 1.15485 289.359 1.17416C289.059 1.18278 288.798 1.11703 288.743 1.00872C288.73 0.978316 288.709 0.946029 288.689 0.915644C288.668 0.885258 288.655 0.852948 288.634 0.822562C288.374 0.813919 288.221 0.848688 288.109 0.913782C288.016 0.967388 287.883 1.02874 287.704 1.0579C287.524 1.08895 287.277 1.08408 287.058 1.09434C286.844 1.10457 286.611 1.1301 286.411 1.11745C286.211 1.10289 286.05 1.04822 285.863 1.01459C285.776 0.997753 285.669 0.973377 285.583 0.977475C284.816 1.01241 284.057 1.0473 283.297 1.09173C282.898 1.11592 282.696 1.03666 282.442 0.988025C282.242 0.950631 282.042 0.960808 282.01 1.04847C281.926 1.25813 282.234 1.34464 282.913 1.30239C283.473 1.26625 283.98 1.25885 284.421 1.3868C284.482 1.40373 284.622 1.41087 284.708 1.40677C285.255 1.3821 285.794 1.35173 286.341 1.32705C286.441 1.32291 286.548 1.33015 286.641 1.33745C288.003 1.43566 288.003 1.43757 288.462 1.41319C288.682 1.40103 288.895 1.3908 288.871 1.10156C289.287 0.789909 289.953 0.766736 290.599 0.718883C291.019 0.688923 291.2 0.772068 291.474 0.814925C291.568 0.829838 291.668 0.859949 291.755 0.855852C293.187 0.788226 294.613 0.716808 296.039 0.641592C296.279 0.629365 296.452 0.640205 296.64 0.689064C296.88 0.751067 297.148 0.790148 297.528 0.766032C298.287 0.717799 299.06 0.686657 299.833 0.645993C300.226 0.625638 300.226 0.625618 301.021 0.740958C301.108 0.75399 301.221 0.768837 301.315 0.764717C302.087 0.729762 302.854 0.687228 303.62 0.650392C303.833 0.640159 304.027 0.666153 304.194 0.716983C304.362 0.767812 304.562 0.793784 304.769 0.783573C305.542 0.746715 306.308 0.706085 307.074 0.669249C307.167 0.665129 307.281 0.67807 307.368 0.691102C308.183 0.806375 308.183 0.806355 308.556 0.786068C309.102 0.755681 309.662 0.740491 310.201 0.700611C310.728 0.660775 311.002 0.770239 311.363 0.829936C312.349 0.782844 313.342 0.743353 314.322 0.686768C314.721 0.662584 314.936 0.724671 315.203 0.773261C315.296 0.790077 315.39 0.82593 315.477 0.823736C315.81 0.815003 316.137 0.792972 316.463 0.776648C316.79 0.760324 317.123 0.743979 317.449 0.727655C317.823 0.781597 318.072 0.910191 318.605 0.864623C318.924 0.836902 319.264 0.830049 319.591 0.813725C319.917 0.797401 320.25 0.781056 320.577 0.764732C320.797 0.754477 321.023 0.747997 321.236 0.73015C321.629 0.700279 321.824 0.792903 322.105 0.833835C322.198 0.846844 322.305 0.869311 322.392 0.865213C323.051 0.836349 323.718 0.811271 324.364 0.765322C324.863 0.729383 325.204 0.785347 325.559 0.864099C325.632 0.880982 325.759 0.890073 325.852 0.885952C326.625 0.850998 327.391 0.808441 328.158 0.771605C328.364 0.761394 328.565 0.791174 328.732 0.8401C328.906 0.890907 329.1 0.91502 329.313 0.904786C330.079 0.867951 330.852 0.827275 331.618 0.790439C331.712 0.786319 331.825 0.801167 331.912 0.816103C332.66 0.931599 332.66 0.933504 333.1 0.909186C333.207 0.903118 333.32 0.898916 333.427 0.892847C333.973 0.864364 334.539 0.852957 335.072 0.805485C335.685 0.752035 336.132 0.81525 336.567 0.922282C337.114 0.897606 337.673 0.882398 338.206 0.84254C338.606 0.812646 338.82 0.884252 339.088 0.930938C339.181 0.947755 339.282 0.981678 339.362 0.977603C340.135 0.942648 340.908 0.911511 341.667 0.861374C342.08 0.833339 342.261 0.918367 342.542 0.961203C342.635 0.976116 342.736 1.00244 342.822 0.998342C343.262 0.981637 343.702 0.957308 344.142 0.934893C344.655 0.908425 344.655 0.910327 345.336 1.02414C345.657 1.07826 345.977 1.03341 346.29 1.01904C346.623 1.00269 346.936 0.99022 347.204 1.06736C347.371 1.11629 347.572 1.14607 347.778 1.13776C348.218 1.11915 348.664 1.10053 349.097 1.07052C349.444 1.04652 349.744 1.06073 349.998 1.1303C350.179 1.17918 350.366 1.20331 350.586 1.19115C351.572 1.14216 352.565 1.09122 353.551 1.04413C353.637 1.04003 353.758 1.05677 353.838 1.07363C354.025 1.10726 354.206 1.14471 354.386 1.18217C354.819 1.16359 355.266 1.15449 355.692 1.12641C356.145 1.09824 356.558 1.08734 356.913 1.19083C356.987 1.21342 357.094 1.2454 357.181 1.24321C357.514 1.23448 357.84 1.21435 358.167 1.19803C358.493 1.1817 358.826 1.16536 359.153 1.14903C359.533 1.19534 359.776 1.33157 360.308 1.286C360.628 1.25828 360.968 1.25143 361.294 1.2351C361.621 1.21878 361.954 1.20053 362.28 1.18611C362.387 1.18195 362.507 1.17202 362.6 1.17932C362.7 1.1866 362.787 1.21296 362.874 1.2317C363.142 1.286 363.389 1.34037 363.769 1.30674C364.089 1.27902 364.429 1.27217 364.755 1.25394C365.201 1.2315 365.201 1.2315 365.943 1.34893C366.244 1.3974 366.583 1.33155 366.87 1.37246C367.064 1.40036 367.231 1.44738 367.418 1.4791C367.499 1.49216 367.625 1.49743 367.719 1.49331C368.158 1.47471 368.605 1.45608 369.038 1.42608C369.391 1.40205 369.685 1.4239 369.932 1.49159C370.113 1.54047 370.293 1.56082 370.52 1.54864C371.619 1.49165 372.718 1.44226 373.811 1.37958C374.184 1.35739 374.484 1.38875 374.692 1.45657C375.047 1.57339 375.545 1.43277 375.913 1.5267C376.141 1.58494 376.368 1.65271 376.781 1.62277C377.541 1.57073 378.314 1.54147 379.08 1.50463C379.354 1.5551 379.628 1.60559 379.909 1.65603C380.349 1.63362 380.788 1.61119 381.228 1.59068C381.555 1.57436 381.888 1.55611 382.214 1.54169C382.321 1.53752 382.434 1.52953 382.534 1.53871C382.634 1.54789 382.715 1.57237 382.808 1.59109C383.27 1.6828 383.27 1.68472 384.029 1.6441C384.356 1.62587 384.669 1.6134 384.943 1.68861C385.198 1.75818 385.498 1.77049 385.844 1.74839C386.497 1.70813 387.157 1.67736 387.823 1.64847C388.03 1.63826 388.223 1.66997 388.397 1.71887C388.658 1.79604 388.978 1.78735 389.305 1.76532C389.738 1.73721 390.164 1.70914 390.532 1.81449C390.606 1.83709 390.72 1.86904 390.8 1.86687C391.346 1.84981 391.899 1.83654 392.432 1.79858C392.965 1.76063 393.227 1.87776 393.594 1.93362C394.141 1.90704 394.694 1.88044 395.24 1.85386C395.346 1.84779 395.473 1.83025 395.566 1.83945C395.96 1.8781 396.189 2.02008 396.728 1.97449C397.041 1.94869 397.381 1.93995 397.708 1.93314C397.795 1.93094 397.908 1.9629 397.969 1.98745C398.002 2.00066 397.969 2.03693 397.93 2.0561C397.81 2.10979 397.664 2.15979 397.558 2.21534C397.545 2.223 397.672 2.25682 397.746 2.2718C397.926 2.30545 398.133 2.29906 398.373 2.28303C398.579 2.26901 398.793 2.29494 398.941 2.35155C399.001 2.37419 398.981 2.41232 398.856 2.53836C398.858 2.63162 398.997 2.58927 399.043 2.52821C399.115 2.44041 398.975 2.41233 398.709 2.46081C398.522 2.4957 398.43 2.5455 398.477 2.58531C398.504 2.60616 398.631 2.63238 398.856 2.53836C399.441 2.42219 399.881 2.39978 400.321 2.37737C400.434 2.37128 400.567 2.35179 400.648 2.36294C400.935 2.40765 401.202 2.46196 401.483 2.51241C401.803 2.49992 402.103 2.47034 402.417 2.54352C402.858 2.64673 402.878 2.63714 403.305 2.61477C403.525 2.60261 403.744 2.59238 403.964 2.58212C404.184 2.57186 404.358 2.59982 404.552 2.64295C404.946 2.73108 404.98 2.73096 405.238 2.60828C405.39 2.53353 405.497 2.50844 405.691 2.54205C406.332 2.656 406.339 2.66359 406.885 2.62749C407.338 2.59742 407.765 2.58837 408.1 2.69574C408.327 2.77111 408.4 2.75374 408.579 2.67319C409.056 2.46031 409.276 2.46337 410.179 2.61261C410.6 2.68353 411.032 2.60404 411.459 2.59309C411.819 2.58427 412.072 2.62909 412.101 2.74891C412.122 2.82307 412.183 2.87617 412.423 2.90011C412.516 2.90931 412.63 2.92225 412.723 2.91813C413.276 2.89343 413.823 2.86494 414.376 2.83644C414.655 2.82217 414.808 2.73222 414.753 2.61439C414.691 2.48898 414.797 2.44292 415.196 2.40542C415.436 2.38367 415.63 2.38685 415.823 2.42046C416.037 2.45781 415.978 2.49226 415.792 2.56141C415.348 2.7304 415.402 2.83299 415.977 2.94716C416.178 2.98646 416.338 3.0221 416.386 3.08095C416.413 3.11131 416.387 3.15137 416.447 3.174C416.776 3.30043 417.23 3.38076 417.738 3.43996C418.224 3.38694 418.558 3.47145 418.932 3.53871C419.227 3.59102 419.573 3.54419 419.886 3.5241C420.239 3.50198 420.532 3.51621 420.787 3.58578C420.967 3.63467 421.154 3.65687 421.374 3.64661C421.814 3.6242 422.26 3.60938 422.693 3.57747C423.066 3.54957 423.347 3.5867 423.581 3.65063C423.876 3.73149 424.202 3.67518 424.509 3.68557C424.922 3.69751 425.131 3.8662 425.67 3.81871C425.99 3.79099 426.323 3.78035 426.657 3.77162C426.743 3.76943 426.85 3.80143 426.924 3.82402C427.279 3.92752 427.692 3.92042 428.145 3.88844C428.458 3.86645 428.764 3.8464 429.072 3.91769C429.581 4.0378 430.142 4.14251 430.677 4.25302C430.752 4.34032 430.7 4.44326 431.08 4.49337C431.281 4.51935 431.468 4.55871 431.622 4.60197C431.809 4.65273 431.983 4.66547 432.223 4.65134C432.656 4.62324 433.109 4.61599 433.535 4.5803C433.928 4.54852 434.176 4.61052 434.416 4.66872C434.61 4.71565 434.791 4.73787 435.024 4.70283C435.263 4.66967 435.437 4.69002 435.631 4.74075C435.905 4.81026 435.925 4.80259 436.832 4.82048C436.926 4.82207 437.039 4.85022 437.093 4.87479C437.12 4.88802 437.06 4.92631 437.014 4.9455C436.954 4.96854 436.861 4.99549 436.775 5.00149C435.789 5.05429 434.796 5.1014 433.81 5.1542C433.71 5.16025 433.603 5.17395 433.53 5.19322C433.451 5.21443 433.351 5.2433 433.351 5.26994C433.352 5.28898 433.485 5.31138 433.579 5.32439C433.873 5.36718 434.219 5.2994 434.506 5.34792C434.7 5.37963 434.86 5.42476 435.054 5.45456C435.134 5.46762 435.261 5.4653 435.361 5.46115C435.694 5.44671 436.021 5.42658 436.354 5.41404C436.447 5.41183 436.554 5.43051 436.641 5.44544C437.282 5.55749 437.282 5.55749 437.835 5.53089C438.055 5.52063 438.288 5.49129 438.495 5.50202C438.695 5.51277 438.869 5.56357 439.05 5.59532C439.424 5.66259 439.778 5.72802 439.807 5.87639C439.821 5.93344 440.042 5.98218 440.262 5.98525C440.475 5.98834 440.702 5.96666 440.922 5.9545C441.441 5.92991 441.441 5.92991 442.116 6.04375C442.303 6.07548 442.503 6.07861 442.743 6.05877C442.836 6.05084 442.95 6.05808 443.05 6.06726C443.377 6.09471 443.378 6.13087 443.165 6.2001C442.867 6.30199 442.893 6.31142 443.735 6.39425C444.055 6.42553 444.303 6.48561 444.57 6.538C445.005 6.6222 444.998 6.6222 444.713 6.73546C444.647 6.76043 444.587 6.78728 444.521 6.81415C444.328 6.88903 444.176 6.96948 443.776 6.97844C443.336 6.98753 442.897 7.01947 442.457 7.04189C442.03 7.06426 441.918 7.1103 441.96 7.23959C442.008 7.39551 442.095 7.41235 442.862 7.40787C443.082 7.40713 443.276 7.4217 443.443 7.47253C443.364 7.53371 443.218 7.58178 443.005 7.59392C442.458 7.62431 441.905 7.65092 441.359 7.6775C440.919 7.69991 440.479 7.72232 440.04 7.74473C439.767 7.75897 439.595 7.85854 439.669 7.96868C439.71 8.03136 439.744 8.09405 439.779 8.15675C439.854 8.28212 439.994 8.31402 440.441 8.30681C440.554 8.30452 440.661 8.28893 440.767 8.29237C441.201 8.30424 441.41 8.46152 441.929 8.42741C442.362 8.39931 442.816 8.39208 443.242 8.35639C443.635 8.32462 443.856 8.39241 444.13 8.44288C444.223 8.4597 444.324 8.49551 444.404 8.49334C444.957 8.47054 445.51 8.44776 446.05 8.40978C446.303 8.39371 446.456 8.40461 446.657 8.44961C447.138 8.55839 447.152 8.55264 447.865 8.51598C448.384 8.48759 448.391 8.49137 449.059 8.60523C449.246 8.63696 449.446 8.63628 449.686 8.62025C449.999 8.60016 450.325 8.56861 450.653 8.59607C450.753 8.60334 450.88 8.62577 450.913 8.6504C450.934 8.66746 450.841 8.70965 450.761 8.72324C450.176 8.82418 449.489 8.80936 448.849 8.85148C448.649 8.86357 448.449 8.82808 448.281 8.77725C448.107 8.72644 447.921 8.70614 447.694 8.71642C447.254 8.73883 446.808 8.75365 446.375 8.78556C446.002 8.81346 445.741 8.77055 445.48 8.71243C445.393 8.69368 445.293 8.65785 445.206 8.66005C444.22 8.70143 443.227 8.74284 442.248 8.79943C441.855 8.82359 441.627 8.76345 441.36 8.71295C441.266 8.69614 441.173 8.66029 441.086 8.66248C440.753 8.67121 440.426 8.69324 440.093 8.70959C438.88 8.77077 437.674 8.83192 436.462 8.88929C436.382 8.89337 436.281 8.85373 436.188 8.83691C436.007 8.80326 435.82 8.77152 435.633 8.73979C435.3 8.75614 434.973 8.77627 434.64 8.78881C434.4 8.79723 434.187 8.8246 434.155 8.89704C434.136 8.94469 434.356 8.98772 434.59 8.98313C434.816 8.97856 435.043 8.95496 435.23 8.97907C436.158 9.09777 436.158 9.09968 436.738 9.07299C437.244 9.04845 437.19 9.02958 437.639 9.13277C437.833 9.17779 438.006 9.20387 438.226 9.19171C438.773 9.16323 439.326 9.13472 439.879 9.11002C439.965 9.10592 440.079 9.12458 440.166 9.13952C440.821 9.25152 440.821 9.25532 441.36 9.22496C442.067 9.18832 442.093 9.17872 442.568 9.29323C442.896 9.37207 443.195 9.31586 443.508 9.31101C443.869 9.38402 444.264 9.44933 444.592 9.53198C444.98 9.62965 445.386 9.61114 445.826 9.58111C446.152 9.55907 446.472 9.55039 446.74 9.62753C446.994 9.699 447.301 9.7056 447.647 9.6854C447.96 9.66722 448.28 9.62997 448.607 9.67074C448.694 9.68187 448.828 9.70998 448.821 9.72714C448.815 9.7538 448.729 9.79217 448.642 9.80388C448.03 9.88397 447.357 9.88433 446.711 9.92266C446.624 9.92866 446.51 9.9081 446.423 9.89317C446.236 9.85953 446.056 9.82018 445.875 9.78462C445.549 9.79714 445.215 9.80205 444.896 9.82597C444.649 9.84393 444.462 9.84267 444.282 9.79759C444.115 9.75628 443.934 9.70548 443.734 9.69283C443.534 9.68018 443.301 9.70952 443.081 9.72168C442.861 9.73384 442.607 9.72897 442.435 9.76C442.262 9.79104 442.156 9.85802 442.043 9.91169C441.917 9.97112 441.744 9.99075 441.491 9.99731C441.258 10.0038 441.071 9.99681 440.897 9.9441C440.823 9.92151 440.723 9.90471 440.623 9.88982C440.529 9.87681 440.422 9.85622 440.336 9.86032C439.343 9.90743 438.357 9.95835 437.364 10.0074C436.871 10.0319 436.878 10.0318 435.849 9.92298C435.756 9.91377 435.642 9.90084 435.549 9.90496C434.996 9.92966 434.45 9.95814 433.897 9.98665C433.337 10.0152 433.344 10.0113 432.389 9.89464C432.215 9.87238 431.962 9.90369 431.755 9.90058C431.322 9.89252 431.106 9.73336 430.6 9.76551C430.167 9.79362 429.714 9.80085 429.281 9.83656C428.888 9.86834 428.66 9.80249 428.393 9.752C428.299 9.73518 428.199 9.69745 428.119 9.70152C427.126 9.74673 426.14 9.79763 424.82 9.80778C424.493 9.80887 424.64 9.84836 424.854 9.86096C425.161 9.88087 425.26 9.84056 425.093 9.76499C424.972 9.7121 424.798 9.68602 424.658 9.69981C424.585 9.70767 424.492 9.74416 424.82 9.80778C425.168 9.87894 425.148 9.91897 425.208 9.9416C425.356 9.99631 425.563 10.0185 425.776 10.0101C426.109 9.99568 426.436 9.97555 426.769 9.96301C426.862 9.95889 426.976 9.97183 427.063 9.98677C427.798 10.1023 427.804 10.1099 428.584 10.0616C428.83 10.0475 429.01 10.0469 429.204 10.0824C429.472 10.131 429.666 10.214 430.072 10.186C430.612 10.148 431.165 10.1253 431.718 10.1025C431.805 10.0984 431.898 10.1323 431.999 10.1472C432.273 10.192 432.474 10.2769 432.88 10.2394C433.193 10.2098 433.533 10.201 433.866 10.1942C433.953 10.192 434.087 10.222 434.127 10.2466C434.208 10.2901 434.108 10.3419 433.882 10.3788C433.789 10.3943 433.662 10.391 433.556 10.397C433.116 10.4194 432.676 10.4438 432.236 10.4624C432.003 10.4727 431.784 10.502 431.758 10.5725C431.739 10.6201 431.979 10.6612 432.206 10.6566C432.539 10.6498 432.872 10.6334 433.192 10.6076C433.758 10.5638 434.252 10.5736 434.713 10.692C435.041 10.7746 435.021 10.7442 435.371 10.9905C435.458 11.053 435.718 11.0579 435.945 11.0533C436.492 11.0419 436.745 11.0696 436.699 11.1288C436.64 11.2013 436.447 11.2248 436.201 11.2351C435.761 11.2519 435.321 11.2781 434.882 11.3005C434.775 11.3066 434.655 11.3184 434.555 11.3149C434.455 11.3114 434.361 11.2889 434.275 11.2721C434.087 11.2365 433.927 11.1819 433.726 11.1692C433.526 11.1566 433.293 11.1859 433.073 11.1981C432.854 11.2083 432.621 11.2377 432.42 11.225C432.22 11.2124 432.053 11.1558 431.872 11.1222C431.785 11.1053 431.678 11.079 431.592 11.0812C431.152 11.0979 430.712 11.1242 430.272 11.1447C429.733 11.1712 429.733 11.1712 429.078 11.0554C428.891 11.0218 428.697 11.0244 428.451 11.0404C427.918 11.0727 427.911 11.067 426.936 10.9598C426.843 10.9487 426.729 10.9358 426.636 10.9418C425.643 10.9889 424.657 11.0398 423.671 11.0888C422.825 11.1316 422.825 11.1316 422.361 11.3235C422.016 11.4655 422.009 11.4656 422.35 11.5291C422.624 11.5815 422.872 11.6587 423.172 11.6862C423.453 11.712 423.798 11.6251 424.106 11.7117C424.26 11.7549 424.461 11.8018 424.654 11.8088C424.961 11.8173 425.287 11.761 425.582 11.8438C425.729 11.8851 425.949 11.9282 426.136 11.9295C426.463 11.9322 426.796 11.9006 427.122 11.8862C427.222 11.882 427.336 11.8816 427.429 11.8908C427.529 11.9019 427.616 11.9245 427.703 11.9432C427.971 12.007 428.258 12.0365 428.604 12.003C429.17 11.9478 429.677 11.9727 430.119 12.0931C430.179 12.11 430.326 12.1114 430.419 12.1035C430.659 12.0837 430.865 12.0811 431.046 12.1166C431.119 12.1316 431.226 12.1579 431.213 12.175C431.194 12.2037 431.114 12.242 431.028 12.2518C430.402 12.3186 429.729 12.3285 429.082 12.3649C428.996 12.369 428.889 12.3446 428.802 12.3278C428.615 12.2942 428.454 12.2376 428.254 12.225C428.054 12.2123 427.821 12.2379 427.601 12.2481C427.381 12.2584 427.148 12.2877 426.948 12.277C426.747 12.2643 426.56 12.2173 426.4 12.176C426.212 12.129 426.032 12.124 425.786 12.1438C425.466 12.1696 425.133 12.1746 424.806 12.189C424.626 12.1534 424.445 12.114 424.258 12.0804C424.171 12.0636 424.064 12.043 423.971 12.0452C423.531 12.0619 423.091 12.0862 422.651 12.1086C422.212 12.1311 422.212 12.1311 421.464 12.0156C421.377 12.0026 421.263 11.9877 421.17 11.9918C420.617 12.0165 420.07 12.0469 419.517 12.0716C419.304 12.0818 419.11 12.0558 418.936 12.005C418.769 11.9542 418.569 11.9263 418.362 11.9365C417.482 11.9795 416.603 12.0205 415.724 12.071C415.37 12.0912 415.07 12.0751 414.829 12.0074C414.548 11.9303 414.235 11.9504 413.909 11.9667C413.169 12.0073 413.162 12.0054 412.688 11.9099C412.594 11.8912 412.5 11.8553 412.414 11.8575C411.647 11.8887 410.874 11.9179 410.115 11.9661C409.715 11.9922 409.501 11.9263 409.234 11.8777C409.14 11.8609 409.04 11.8251 408.96 11.8292C408.406 11.852 407.853 11.8729 407.314 11.9127C406.774 11.9526 406.565 11.7763 406.158 11.7796C405.605 11.7834 405.059 11.829 404.513 11.8574C404.073 11.8799 403.633 11.9023 403.193 11.9247C402.754 11.9471 402.314 11.9657 401.874 11.9919C401.641 12.006 401.468 11.9895 401.274 11.9425C401.026 11.8806 400.732 11.8321 400.465 11.7759C400.057 11.6954 400.057 11.6954 399.564 11.7199C399.457 11.726 399.344 11.7301 399.237 11.7362C398.431 11.7808 398.431 11.777 397.403 11.6605C397.356 11.655 397.236 11.6763 397.19 11.6917C397.05 11.7417 396.924 11.7954 396.799 11.8472C396.618 11.8173 396.398 11.801 396.277 11.7576C395.935 11.635 395.404 11.8062 395.056 11.6855C394.929 11.6403 394.708 11.6011 394.508 11.5903C394.301 11.5796 394.068 11.607 393.855 11.6192C393.302 11.6496 393.302 11.6477 392.831 11.8187C392.592 11.9032 392.245 11.8891 391.932 11.9092C391.606 11.9313 391.292 11.9437 391.018 11.8666C390.77 11.797 390.47 11.7809 390.117 11.8049C389.684 11.8349 389.238 11.8536 388.798 11.8722C388.705 11.8763 388.591 11.8672 388.498 11.856C387.476 11.7472 387.476 11.7453 386.983 11.7717C386.763 11.7838 386.536 11.7884 386.323 11.8062C385.964 11.8379 385.69 11.7989 385.429 11.7388C385.342 11.7201 385.242 11.6843 385.155 11.6865C384.715 11.6975 384.282 11.716 383.849 11.7346C383.516 11.7491 383.182 11.7578 382.863 11.7855C382.33 11.8311 382.068 11.7082 381.701 11.6524C381.154 11.6789 380.601 11.6979 380.055 11.734C379.802 11.7501 379.635 11.745 379.441 11.6999C379.194 11.6437 378.966 11.5797 378.566 11.6096C378.034 11.6495 377.474 11.6647 376.927 11.6894C376.56 11.6316 376.292 11.5126 375.766 11.5581C375.446 11.5858 375.106 11.5927 374.779 11.609C374.34 11.6314 373.9 11.6519 373.46 11.6763C372.987 11.7007 372.994 11.695 372.266 11.5851C371.845 11.5199 371.412 11.5956 370.986 11.6084C370.652 11.6191 370.487 11.7072 370.569 11.8192C370.65 11.9312 370.471 12.0194 370.165 12.0357C369.399 12.0744 368.626 12.115 367.859 12.15C367.766 12.1541 367.653 12.1412 367.566 12.1281C366.744 12.011 366.744 12.0129 366.378 12.0313C365.831 12.0616 365.272 12.0787 364.732 12.1167C364.359 12.1427 364.085 12.1037 363.844 12.0398C363.657 11.9909 363.483 11.9801 363.243 11.9923C360.605 12.1287 357.966 12.2556 355.335 12.3957C354.942 12.4161 354.714 12.3617 354.447 12.3112C354.353 12.2944 354.266 12.2585 354.173 12.2588C353.953 12.2595 353.733 12.2774 353.513 12.2896C352.527 12.3386 351.541 12.3971 350.548 12.4347C350.128 12.4513 350.016 12.5392 349.837 12.6122C349.698 12.6678 349.538 12.6912 349.292 12.6996C349.052 12.7081 348.878 12.6991 348.691 12.6503C348.45 12.5864 348.176 12.5473 347.803 12.5752C347.37 12.6071 346.93 12.6219 346.484 12.6444C346.257 12.6546 346.085 12.6895 346.012 12.7582C345.999 12.7697 346.139 12.7978 346.22 12.8147C346.487 12.8709 346.741 12.9366 347.042 12.9756C347.349 13.0145 347.682 12.9677 348.002 12.9552C348.115 12.951 348.222 12.9393 348.328 12.9408C348.428 12.9424 348.549 12.9515 348.622 12.9684C348.97 13.0529 349.337 13.1106 349.817 13.0576C350.23 13.081 350.446 13.2382 350.972 13.1946C351.292 13.1688 351.625 13.1562 351.958 13.1456C352.045 13.1434 352.139 13.1774 352.232 13.1942C352.5 13.2409 352.714 13.3163 353.114 13.2826C353.54 13.2469 353.993 13.2396 354.426 13.2115C354.666 13.1955 354.839 13.2083 355.027 13.2571C355.268 13.3191 355.542 13.3658 355.915 13.3341C356.234 13.3063 356.574 13.2995 356.901 13.2813C357.327 13.2589 357.327 13.2608 358.089 13.3762C358.176 13.3893 358.289 13.4041 358.382 13.4C358.935 13.3753 359.482 13.3449 360.035 13.3202C360.248 13.31 360.455 13.334 360.603 13.3887C360.663 13.4114 360.643 13.4495 360.664 13.4818C359.564 13.5369 358.465 13.5844 357.372 13.6508C356.959 13.677 356.772 13.5996 356.498 13.5567C356.404 13.5418 356.304 13.5098 356.217 13.5139C355.444 13.5488 354.678 13.5857 353.912 13.6301C353.672 13.6442 353.492 13.6372 353.311 13.5826C352.849 13.4376 352.29 13.5194 351.77 13.5421C351.371 13.5587 351.245 13.6181 351.293 13.7436C351.355 13.8919 351.596 13.9367 352.209 13.908C352.429 13.8978 352.648 13.8837 352.868 13.8753C353.082 13.867 353.275 13.8911 353.449 13.9419C353.617 13.9927 353.817 14.0187 354.024 14.0104C354.463 13.9918 354.91 13.9732 355.336 13.9432C355.689 13.9192 355.983 13.9372 356.231 14.0068C356.505 14.0839 356.825 14.0657 357.145 14.0475C357.891 14.0069 357.897 14.0088 358.365 14.1024C358.459 14.1211 358.553 14.157 358.64 14.1548C359.406 14.1237 360.179 14.0963 360.932 14.0481C361.325 14.024 361.552 14.0841 361.813 14.1327C361.907 14.1495 362 14.1873 362.087 14.1832C362.64 14.1604 363.193 14.1376 363.733 14.0996C363.986 14.0816 364.139 14.0925 364.347 14.1375C364.841 14.2481 364.855 14.2443 365.554 14.2058C365.768 14.1936 366.001 14.1719 366.201 14.1865C366.401 14.201 366.562 14.2557 366.749 14.2893C366.836 14.3043 366.943 14.3248 367.036 14.3207C367.476 14.304 367.916 14.2797 368.355 14.2573C368.768 14.235 368.768 14.2369 369.543 14.3523C369.857 14.4007 370.184 14.3577 370.497 14.3415C370.837 14.3232 371.143 14.3222 371.404 14.3955C371.665 14.4689 371.979 14.464 372.312 14.4477C372.625 14.4314 372.944 14.3884 373.265 14.4388C374 14.5543 374 14.5562 374.453 14.5318C375.113 14.4972 375.766 14.4646 376.432 14.4338C376.519 14.4297 376.632 14.4522 376.719 14.4671C376.906 14.5008 377.067 14.5573 377.267 14.5699C377.468 14.5845 377.701 14.5609 377.914 14.5487C378.6 14.5103 378.646 14.4968 379.108 14.6209C379.496 14.7224 379.974 14.5723 380.336 14.6891C380.544 14.755 380.824 14.8073 381.211 14.7737C381.53 14.746 381.863 14.7372 382.197 14.7209C382.723 14.6944 382.723 14.6963 383.391 14.8083C383.478 14.8232 383.592 14.8418 383.678 14.8377C384.118 14.821 384.565 14.8062 384.991 14.7705C385.49 14.7289 385.811 14.8001 386.186 14.8693C386.48 14.9235 386.826 14.8767 387.139 14.8566C387.479 14.8364 387.785 14.8411 388.04 14.9144C388.308 14.9897 388.621 14.9791 388.954 14.9628C389.267 14.9484 389.587 14.9035 389.907 14.9557C390.596 15.0714 390.596 15.0714 391.095 15.0469C391.535 15.0245 391.975 15.0002 392.415 14.9835C392.501 14.9794 392.608 15.0038 392.695 15.0206C392.882 15.0542 393.043 15.1108 393.243 15.1235C393.444 15.1361 393.677 15.1106 393.896 15.1003C394.116 15.0901 394.349 15.0607 394.549 15.0715C394.75 15.0822 394.937 15.1292 395.098 15.1705C395.285 15.2194 395.458 15.2245 395.711 15.2046C396.031 15.1788 396.364 15.172 396.691 15.1576C396.871 15.1931 397.059 15.2287 397.232 15.268C397.413 15.3093 397.606 15.3049 397.853 15.2907C398.672 15.2423 398.679 15.248 399.367 15.3637C399.681 15.4159 400.008 15.371 400.321 15.3566C400.654 15.3403 400.967 15.3316 401.228 15.4069C401.482 15.4784 401.796 15.4868 402.129 15.4629C402.342 15.4469 402.569 15.4367 402.789 15.4302C402.889 15.428 403.009 15.4352 403.082 15.4502C403.437 15.5289 403.784 15.6001 404.27 15.5471C404.697 15.5608 404.913 15.7162 405.426 15.684C405.859 15.6559 406.312 15.6487 406.738 15.613C407.131 15.5812 407.412 15.6336 407.613 15.6995C407.975 15.8163 408.479 15.6547 408.841 15.7696C409.048 15.8355 409.316 15.8879 409.715 15.858C410.155 15.8261 410.295 15.8656 410.424 15.9851C410.498 16.0534 410.486 16.1086 410.353 16.1623C410.22 16.218 410.074 16.209 409.859 16.1469C409.612 16.0773 409.318 16.0649 408.965 16.0813C408.619 16.0977 408.404 15.9995 408.117 15.9624C407.829 15.9234 407.49 15.9911 407.19 15.9408C406.481 15.8232 406.481 15.8232 406.002 15.8477C405.675 15.864 405.335 15.8728 405.016 15.9005C404.636 15.9341 404.388 15.8759 404.128 15.8235C404.034 15.8048 403.94 15.7689 403.86 15.7711C403.094 15.8022 402.321 15.8315 401.561 15.8816C401.162 15.9077 400.948 15.8399 400.68 15.7932C400.587 15.7764 400.486 15.7425 400.406 15.7466C399.746 15.7754 399.094 15.8119 398.434 15.8465C398.308 15.8983 398.169 15.9482 398.049 16.0038C397.923 16.0613 397.751 16.0867 397.497 16.0856C397.077 16.087 396.665 16.1684 396.243 16.0689C395.809 15.9676 395.776 15.9734 395.356 15.9996C394.823 16.0337 394.256 16.028 393.757 16.1039C393.671 16.1175 393.578 16.154 393.578 16.1806C393.572 16.1978 393.712 16.2221 393.799 16.237C394.093 16.2817 394.432 16.2139 394.726 16.2605C394.92 16.2903 395.08 16.3355 395.274 16.3672C395.354 16.3802 395.474 16.3779 395.581 16.3757C395.694 16.3734 395.801 16.3597 395.907 16.3613C396.007 16.3628 396.114 16.3739 396.195 16.3907C396.562 16.4618 396.95 16.5272 397.278 16.6117C397.599 16.6944 397.898 16.6363 398.218 16.6314C399.5 16.7603 399.5 16.7622 400.36 16.7175C400.573 16.7072 400.793 16.6951 401.013 16.6962C401.106 16.6959 401.193 16.7299 401.287 16.7486C401.554 16.8048 401.808 16.8553 402.181 16.8236C402.501 16.7959 402.841 16.789 403.167 16.7708C403.607 16.7484 403.607 16.7484 404.355 16.8658C404.543 16.8956 404.742 16.8912 404.982 16.8751C405.189 16.8611 405.402 16.889 405.55 16.9437C405.61 16.9663 405.591 17.0044 405.611 17.0367C404.952 17.0694 404.285 17.0926 403.646 17.1404C403.233 17.1703 403.045 17.0891 402.771 17.0463C402.677 17.0313 402.577 16.9993 402.49 17.0034C401.837 17.0342 401.185 17.0687 400.532 17.109C400.452 17.113 400.352 17.1572 400.346 17.1838C400.333 17.2334 400.501 17.2804 400.741 17.2777C401.061 17.2747 401.374 17.2413 401.661 17.3183C401.902 17.3861 402.203 17.4155 402.556 17.3839C402.769 17.366 402.996 17.3653 403.209 17.3493C403.775 17.3017 404.288 17.3095 404.717 17.4375C405.044 17.4707 405.363 17.4373 405.677 17.4191C405.91 17.405 406.136 17.3909 406.303 17.4265C406.658 17.5014 407.006 17.5764 407.492 17.5234C408.019 17.5749 408.421 17.6858 408.862 17.7757C409.069 17.8188 409.229 17.843 409.469 17.8137C409.569 17.8019 409.689 17.8015 409.795 17.7954C410.015 17.7852 410.248 17.7558 410.448 17.7666C410.649 17.7792 410.816 17.8339 410.997 17.8675C411.084 17.8844 411.184 17.9126 411.271 17.9104C411.604 17.8997 411.93 17.8796 412.257 17.8633C412.583 17.8489 412.91 17.8345 413.236 17.82C413.51 17.8686 413.791 17.9172 414.065 17.9657C414.505 17.9433 414.945 17.9209 415.378 17.9004C415.864 17.8759 415.864 17.8778 416.566 17.9935C416.88 18.0457 417.213 18.0103 417.512 17.9846C418.012 17.9429 418.346 18.0142 418.701 18.0891C418.774 18.1041 418.908 18.1131 418.994 18.1052C419.34 18.0774 419.641 18.0973 419.895 18.1669C420.076 18.2158 420.256 18.238 420.476 18.2278C421.242 18.1891 422.008 18.1484 422.775 18.1135C422.868 18.1093 422.975 18.1261 423.062 18.1411C423.743 18.2549 423.75 18.2606 424.25 18.2284C424.696 18.2003 425.109 18.1875 425.464 18.291C425.538 18.3136 425.651 18.3455 425.731 18.3434C426.278 18.3225 426.831 18.2997 427.371 18.2655C427.617 18.2495 427.791 18.2546 427.984 18.2977C428.232 18.3521 428.453 18.418 428.859 18.3919C429.985 18.3177 429.992 18.329 431.327 18.4559C431.42 18.4651 431.547 18.4494 431.654 18.4415C431.88 18.4217 432.047 18.4478 432.248 18.4909C432.696 18.5883 432.709 18.5826 433.135 18.5602C433.462 18.542 433.802 18.537 434.121 18.5074C434.614 18.4639 434.942 18.537 435.31 18.6062C435.604 18.6604 435.943 18.6136 436.256 18.5954C436.596 18.5752 436.903 18.5799 437.157 18.6514C437.331 18.7003 437.518 18.7263 437.738 18.7161C438.504 18.6792 439.27 18.6386 440.037 18.6017C440.13 18.5976 440.243 18.6125 440.33 18.6255C441.092 18.741 441.092 18.7467 441.845 18.7004C442.085 18.6862 442.285 18.6818 442.465 18.7211C442.639 18.7586 442.826 18.7941 443.007 18.8297C443.333 18.8153 443.667 18.8104 443.986 18.7864C444.233 18.7685 444.406 18.7755 444.6 18.8148C444.854 18.8654 445.069 18.9541 445.468 18.909C445.675 18.8873 445.915 18.8923 446.121 18.8725C446.367 18.847 446.534 18.8616 446.728 18.9105C446.969 18.9686 447.217 19.0287 447.603 18.997C448.029 18.9613 448.482 18.954 448.915 18.9259C449.155 18.9099 449.322 18.9246 449.516 18.9734C449.757 19.0354 450.031 19.0745 450.404 19.0485C451.163 18.9983 451.17 19.0078 451.912 19.1252C452.099 19.1551 452.299 19.1506 452.539 19.1346C452.745 19.1206 452.959 19.1484 453.106 19.2031C453.247 19.2635 453.234 19.3016 453.248 19.3339ZM393.6 2.36758C393.38 2.37784 393.16 2.39 392.838 2.22548C392.818 2.197 392.831 2.16271 392.784 2.13812C392.676 2.08709 392.509 2.05149 392.309 2.04645C391.949 2.04004 391.516 2.1062 391.524 2.15567C391.531 2.19752 391.645 2.23329 391.865 2.26681C391.959 2.27982 392.032 2.30242 392.119 2.31735C392.373 2.36028 392.574 2.44527 392.941 2.40026C392.872 2.28248 392.906 2.34137 392.941 2.40026C392.908 2.4727 393.009 2.52375 393.249 2.54388C393.316 2.54937 393.416 2.54522 393.469 2.53362C393.675 2.49105 393.708 2.43385 393.552 2.28401C393.526 2.30884 393.547 2.35253 393.607 2.36375C393.667 2.37497 393.813 2.36497 393.887 2.3514C394.073 2.31461 394.166 2.26671 394.118 2.2269C394.091 2.20605 393.964 2.17983 393.884 2.1801C393.744 2.18057 393.618 2.22287 393.6 2.36758ZM447.816 24.2592C447.33 24.297 446.769 24.2855 446.284 24.3614C446.197 24.375 446.111 24.4096 446.105 24.4362C446.098 24.4534 446.232 24.4777 446.312 24.4907C446.493 24.5206 446.693 24.5104 446.926 24.5001C447.279 24.4856 447.487 24.5724 447.761 24.6153C447.848 24.6283 447.961 24.6374 448.054 24.6333C448.594 24.6087 449.127 24.5822 449.667 24.5537C449.76 24.5477 449.86 24.534 449.94 24.5166C450.206 24.4605 450.178 24.4244 449.918 24.3834C449.63 24.3387 449.403 24.2633 449.109 24.2282C448.688 24.1782 448.262 24.2481 447.816 24.2592ZM409.973 25.7758C409.646 25.7921 409.326 25.8084 409 25.8247C408.893 25.8308 408.78 25.8331 408.68 25.841C408.474 25.8551 408.321 25.8955 408.222 25.9587C408.376 26.0077 408.563 26.0356 408.769 26.0292C409.096 26.0167 409.416 25.9908 409.742 25.984C410.095 25.9752 410.303 26.0602 410.577 26.103C410.664 26.1161 410.771 26.1176 410.871 26.1192C411.364 26.1251 411.663 26.0252 411.568 25.8865C411.5 25.7783 411.245 25.7144 410.939 25.7288C410.619 25.7432 410.293 25.7595 409.973 25.7758ZM450.057 21.4384C450.137 21.4058 450.223 21.3827 450.263 21.354C450.381 21.2565 450.333 21.1843 450.112 21.1089C449.844 21.0166 449.519 21.0805 449.219 21.091C449.145 21.0931 449.066 21.1334 449.026 21.1583C449 21.1755 449 21.2117 449.041 21.221C449.368 21.2961 449.716 21.3653 450.057 21.4384ZM392.142 16.0104C391.822 16.0267 391.496 16.0392 391.176 16.0612C391.096 16.0672 391.023 16.1036 390.977 16.1285C390.891 16.1744 390.985 16.2369 391.259 16.2417C391.572 16.2483 391.898 16.2148 392.225 16.1985C392.638 16.1781 392.884 16.1068 392.729 16.0464C392.582 15.9879 392.382 15.9772 392.142 16.0104ZM41.1373 13.1221C41.3505 13.1118 41.5704 13.1035 41.7835 13.0895C41.9834 13.0755 42.1362 13.0331 42.2354 12.9699C42.068 12.921 41.8809 12.895 41.6743 12.9014C41.3478 12.9139 41.028 12.9302 40.7082 12.9503C40.5084 12.9624 40.3157 13.0049 40.2699 13.0698C40.2239 13.1194 40.6709 13.1465 41.1373 13.1221ZM363.887 11.7446C363.974 11.7614 364.061 11.7954 364.147 11.7951C364.361 11.7944 364.581 11.7822 364.781 11.7625C364.867 11.7546 364.933 11.7201 364.973 11.6934C364.999 11.6761 364.992 11.6457 364.952 11.6306C364.757 11.5399 363.984 11.5749 363.859 11.68C363.846 11.699 363.88 11.7237 363.887 11.7446ZM342.708 1.39272C342.728 1.42311 342.735 1.45353 342.762 1.4839C342.817 1.54082 342.964 1.58221 343.177 1.61004C343.343 1.5619 343.429 1.50832 343.422 1.45124C343.415 1.42081 343.394 1.39041 343.367 1.36004C343.313 1.30312 343.166 1.26176 342.952 1.23393C342.786 1.28016 342.707 1.33372 342.708 1.39272ZM465.527 25.9203C465.468 25.9453 465.408 25.9702 465.342 25.9933C465.522 26.0479 465.689 26.0644 465.816 26.0336C465.895 26.0143 465.942 25.9856 466.001 25.9606C465.821 25.906 465.66 25.8913 465.527 25.9203ZM461.384 26.1931C461.471 26.21 461.551 26.2325 461.645 26.2436C461.798 26.2622 461.938 26.2293 462.044 26.1604C461.957 26.1436 461.876 26.121 461.783 26.1099C461.629 26.0914 461.49 26.1242 461.384 26.1931ZM464.006 25.836C463.96 25.8818 464.054 25.9196 464.301 25.9511C464.361 25.9262 464.44 25.903 464.48 25.8763C464.546 25.8323 464.432 25.7927 464.192 25.763C464.125 25.7861 464.066 25.811 464.006 25.836ZM449.903 23.8315C449.857 23.8773 449.951 23.9151 450.198 23.9466C450.258 23.9217 450.338 23.8986 450.377 23.8718C450.443 23.8278 450.33 23.7882 450.089 23.7585C450.023 23.7816 449.963 23.8066 449.903 23.8315ZM430.542 10.4281C430.483 10.453 430.423 10.478 430.357 10.501C430.538 10.5556 430.704 10.5722 430.831 10.5413C430.91 10.522 430.957 10.4933 431.016 10.4684C430.836 10.4138 430.675 10.3991 430.542 10.4281ZM412.076 3.34476C412.236 3.35755 412.369 3.33046 412.481 3.25966C412.394 3.24282 412.314 3.22025 412.22 3.20914C412.067 3.19062 411.927 3.22346 411.822 3.29234C411.909 3.31108 411.995 3.3279 412.076 3.34476ZM402.316 2.93026C402.256 2.9552 402.196 2.98015 402.13 3.00321C402.311 3.0578 402.478 3.07437 402.604 3.04349C402.684 3.02419 402.73 2.99548 402.79 2.97053C402.609 2.91594 402.449 2.90316 402.316 2.93026ZM336.147 1.41286C336.088 1.4378 336.028 1.46275 335.962 1.48581C336.143 1.5404 336.309 1.55697 336.436 1.52609C336.515 1.50679 336.562 1.47808 336.621 1.45313C336.441 1.39854 336.28 1.38576 336.147 1.41286ZM7.01446 18.0047C6.92755 17.9879 6.84072 17.9711 6.76045 17.9523C6.56782 18.0043 6.50849 18.0521 6.61567 18.0879C6.68265 18.1105 6.78277 18.1235 6.86968 18.1404C7.06898 18.0883 7.11499 18.0425 7.01446 18.0047Z" fill="#FFE492"/>
<path d="M45.5503 10.9216C44.784 10.9603 44.0246 11.0085 43.2582 11.0339C42.8517 11.0467 42.7063 11.129 42.5406 11.2057C42.4081 11.2671 42.255 11.2866 42.0085 11.2989C39.9297 11.3991 37.8575 11.505 35.7853 11.609C35.525 11.5852 35.3978 11.5456 35.4571 11.4979C35.4901 11.4692 35.5695 11.429 35.6495 11.4249C37.0686 11.3497 38.481 11.2726 39.907 11.2127C40.3135 11.1961 40.4257 11.112 40.6314 11.0428C40.6978 11.0197 40.7507 10.9853 40.8372 10.9717C40.9236 10.9561 41.0503 10.9576 41.1636 10.9534C43.4556 10.8373 45.7477 10.723 48.0397 10.6068C48.3 10.6307 48.4273 10.6702 48.3679 10.718C48.335 10.7467 48.2555 10.7869 48.1755 10.791C47.296 10.8339 46.4231 10.8768 45.5503 10.9216Z" fill="#FFE492"/>
<path d="M465.609 20.0606C465.262 20.0846 464.823 20.1184 464.461 20.0092C464.287 19.9565 464.1 19.9401 463.874 19.9522C463.547 19.9724 463.214 19.9887 462.881 20.0012C462.794 20.0034 462.681 19.9829 462.594 19.966C462.407 19.9324 462.246 19.8759 462.046 19.8613C461.845 19.8468 461.606 19.8894 461.399 19.8806C461.126 19.8682 461.012 19.8172 461.084 19.7694C461.124 19.7426 461.203 19.7043 461.29 19.6983C462.522 19.6237 462.529 19.6237 462.877 19.691C463.144 19.7434 463.392 19.8016 463.771 19.768C464.091 19.7402 464.431 19.7334 464.757 19.7152C465.21 19.6908 465.21 19.6927 465.945 19.8101C466.132 19.84 466.332 19.8374 466.572 19.8195C466.779 19.8055 466.979 19.8352 467.147 19.886C467.041 19.9511 466.888 19.9935 466.681 20.0056C466.348 20.0258 466.022 20.0402 465.609 20.0606Z" fill="#FFE492"/>
<path d="M453.331 19.5051C454.17 19.4623 455.017 19.4252 455.856 19.3767C456.203 19.3565 456.476 19.3765 456.717 19.4404C456.978 19.51 457.271 19.5033 457.591 19.4889C457.791 19.4806 457.985 19.5104 458.119 19.5633C458.173 19.5841 458.16 19.6222 458.18 19.6526C457.447 19.6894 456.708 19.728 455.968 19.761C455.882 19.7651 455.775 19.7464 455.694 19.7314C455.514 19.6997 455.36 19.643 455.166 19.6323C454.753 19.607 454.34 19.6598 453.92 19.6707C453.72 19.6752 453.526 19.6473 453.392 19.5964C453.339 19.5718 453.351 19.5355 453.331 19.5051Z" fill="#FFE492"/>
<path d="M149.484 3.76852C150.357 3.72371 151.23 3.68083 152.103 3.63603C152.363 3.6618 152.484 3.69945 152.431 3.74721C152.398 3.77587 152.318 3.81611 152.238 3.82018C150.493 3.91169 148.747 3.99939 147.008 4.08707C146.748 4.0613 146.627 4.02364 146.68 3.97588C146.713 3.94722 146.793 3.90699 146.872 3.90291C147.739 3.85623 148.611 3.81332 149.484 3.76852Z" fill="#FFE492"/>
<path d="M14.9296 14.8006C14.5364 14.8058 14.1243 14.8779 13.6837 14.8259C13.5969 14.8166 13.4765 14.7865 13.4829 14.7692C13.4958 14.7405 13.5753 14.7039 13.6618 14.6922C14.041 14.6431 14.5142 14.6357 14.7056 14.5013C14.798 14.4322 14.9709 14.4087 15.204 14.3945C15.4504 14.3784 15.6237 14.3835 15.8175 14.423C16.0715 14.4737 16.2861 14.5686 16.6853 14.5175C16.7057 14.548 16.7527 14.5823 16.7331 14.611C16.7135 14.6397 16.6274 14.6668 16.5477 14.6881C16.4747 14.7074 16.3748 14.725 16.2816 14.731C15.8421 14.7555 15.4024 14.7761 14.9296 14.8006Z" fill="#FFE492"/>
<path d="M361.816 13.5113C362.142 13.495 362.482 13.4862 362.802 13.4585C363.055 13.4366 363.215 13.4494 363.416 13.4945C363.757 13.5734 363.777 13.5657 364.61 13.5743C364.703 13.5759 364.817 13.6041 364.871 13.6287C364.904 13.6419 364.858 13.6783 364.818 13.6975C364.759 13.7225 364.673 13.7552 364.593 13.7554C364.066 13.7629 363.534 13.8772 363.019 13.7493C362.758 13.6854 362.471 13.6559 362.118 13.6856C361.905 13.7035 361.679 13.7119 361.459 13.7203C361.245 13.7286 361.025 13.7084 360.891 13.6517C360.697 13.5685 360.809 13.5357 361.156 13.5403C361.376 13.5433 361.596 13.5216 361.816 13.5113Z" fill="#FFE492"/>
<path d="M482.802 26.4446C483.222 26.4241 483.641 26.3997 484.068 26.383C484.154 26.3788 484.261 26.3995 484.342 26.4126C484.662 26.4689 484.617 26.5665 484.631 26.6525C484.639 26.7423 483.901 26.8174 483.586 26.7573C483.239 26.6897 482.925 26.6124 482.445 26.6561C482.259 26.672 482.039 26.6384 481.918 26.5833C481.737 26.5037 481.836 26.4708 482.176 26.4754C482.376 26.4786 482.589 26.4568 482.802 26.4446Z" fill="#FFE492"/>
<path d="M270.835 0.834412C271.268 0.811969 271.701 0.778101 272.134 0.774728C272.388 0.771965 272.515 0.834457 272.456 0.880429C272.423 0.909147 272.343 0.949467 272.263 0.953551C271.398 1.00225 270.531 1.04333 269.665 1.08821C269.412 1.06237 269.285 1.02276 269.344 0.976785C269.377 0.948067 269.456 0.909655 269.536 0.903663C269.969 0.8755 270.402 0.856854 270.835 0.834412Z" fill="#FFE492"/>
<path d="M474.443 20.2094C474.863 20.1889 475.289 20.1588 475.709 20.1479C475.929 20.1433 476.103 20.1866 476.13 20.2361C476.144 20.2589 476.038 20.2994 475.951 20.3092C475.352 20.3761 474.706 20.3859 474.08 20.4205C473.88 20.4307 473.666 20.4009 473.545 20.3479C473.364 20.2665 473.464 20.2356 473.804 20.2402C474.017 20.2414 474.23 20.2197 474.443 20.2094Z" fill="#FFE492"/>
<path d="M372.841 13.7411C373.054 13.7308 373.274 13.7052 373.48 13.7121C373.7 13.7209 373.841 13.776 373.909 13.8312C373.983 13.8942 373.977 13.9535 373.911 14.0073C373.806 14.0996 373.699 14.0961 373.451 14.0357C373.07 13.9413 373.044 13.9529 372.291 13.9593C372.204 13.9596 372.097 13.9312 372.03 13.9066C371.93 13.8686 371.983 13.8091 372.215 13.7739C372.388 13.7484 372.628 13.7514 372.841 13.7411Z" fill="#FFE492"/>
<path d="M458.808 19.62C459.121 19.6036 459.433 19.5777 459.747 19.5767C459.967 19.574 460.141 19.6173 460.161 19.665C460.168 19.6879 460.069 19.7264 459.989 19.7382C459.61 19.791 459.183 19.7963 458.77 19.8149C458.577 19.8232 458.363 19.7933 458.243 19.7403C458.061 19.6607 458.168 19.624 458.494 19.6344C458.595 19.6379 458.701 19.6261 458.808 19.62Z" fill="#FFE492"/>
<path d="M409.45 17.389C408.984 17.4135 408.544 17.3863 408.576 17.3366C408.622 17.2715 408.815 17.2288 409.014 17.2167C409.334 17.1965 409.654 17.1802 409.98 17.1676C410.187 17.1592 410.374 17.1873 410.541 17.2363C410.442 17.2978 410.289 17.3422 410.09 17.3562C409.883 17.3703 409.663 17.3787 409.45 17.389Z" fill="#FFE492"/>
<path d="M406.386 17.1524C406.699 17.1361 407.012 17.1102 407.325 17.1092C407.545 17.1065 407.719 17.1498 407.74 17.1975C407.747 17.2204 407.647 17.2589 407.568 17.2706C407.188 17.3235 406.762 17.3288 406.349 17.3473C406.156 17.3556 405.942 17.3258 405.821 17.2727C405.64 17.1932 405.746 17.1565 406.073 17.1669C406.173 17.1704 406.28 17.1585 406.386 17.1524Z" fill="#FFE492"/>
<path d="M369.051 13.7359C369.364 13.7196 369.677 13.6937 369.99 13.6907C370.21 13.688 370.384 13.7314 370.405 13.7791C370.412 13.8019 370.312 13.8386 370.233 13.8522C369.853 13.905 369.427 13.9103 369.014 13.9289C368.821 13.9372 368.607 13.9074 368.486 13.8543C368.305 13.7747 368.411 13.7381 368.738 13.7484C368.838 13.7519 368.945 13.7401 369.051 13.7359Z" fill="#FFE492"/>
<path d="M367.297 13.6272C367.63 13.6108 367.737 13.6009 367.843 13.6005C368.043 13.5998 368.25 13.6221 368.371 13.677C368.552 13.7566 368.446 13.7799 368.119 13.7848C367.699 13.7901 367.287 13.8316 366.867 13.8406C366.647 13.8452 366.473 13.8 366.459 13.7523C366.452 13.7294 366.551 13.6889 366.631 13.681C366.911 13.6514 367.217 13.6332 367.297 13.6272Z" fill="#FFE492"/>
<path d="M403.557 2.2226C403.344 2.23288 403.118 2.26041 402.918 2.25153C402.651 2.23906 402.544 2.18783 402.61 2.13983C402.649 2.11294 402.722 2.07447 402.802 2.06846C403.228 2.04025 403.661 2.02156 404.087 2.001C404.341 2.02881 404.455 2.06855 404.389 2.11656C404.349 2.14345 404.276 2.18001 404.196 2.18792C403.99 2.20774 403.77 2.21232 403.557 2.2226Z" fill="#FFE492"/>
<path d="M144.701 4.00799C144.908 4.00537 145.094 4.02959 145.255 4.07686C145.156 4.13839 145.01 4.17905 144.81 4.19694C144.71 4.20493 144.597 4.21105 144.491 4.21332C144.284 4.21785 144.097 4.19172 143.936 4.14446C144.036 4.08292 144.188 4.04224 144.381 4.02437C144.481 4.01638 144.594 4.01409 144.701 4.00799Z" fill="#FFE492"/>
<path d="M472.158 20.2073C472.151 20.1518 472.556 20.0873 472.923 20.088C473.116 20.0893 473.316 20.1154 473.43 20.1666C473.605 20.2444 473.505 20.2753 473.179 20.2707C472.979 20.2676 472.766 20.3008 472.566 20.2957C472.339 20.2946 472.205 20.253 472.158 20.2073Z" fill="#FFE492"/>
<path d="M374.771 13.9677C374.764 13.9467 374.731 13.9219 374.75 13.9027C374.875 13.797 375.641 13.7619 375.842 13.8531C375.876 13.8702 375.89 13.8988 375.863 13.9161C375.824 13.9431 375.751 13.9778 375.671 13.9857C375.465 14.0056 375.252 14.0159 375.038 14.0185C374.945 14.0188 374.858 13.9866 374.771 13.9677Z" fill="#FFE492"/>
<path d="M17.2994 14.4868C16.5136 14.5296 16.5002 14.5258 16.6389 14.4297C16.7643 14.3432 16.9968 14.2908 17.3366 14.2896C17.4366 14.2893 17.5431 14.2851 17.6299 14.2924C17.7233 14.3017 17.8569 14.3203 17.8772 14.3432C17.9178 14.3871 17.8051 14.4353 17.6056 14.4685C17.5192 14.4841 17.4059 14.4807 17.2994 14.4868Z" fill="#FFE492"/>
<path d="M154.551 3.71067C154.318 3.74401 154.118 3.73322 153.971 3.67247C153.824 3.61172 154.056 3.53818 154.462 3.51956C154.568 3.51537 154.682 3.49968 154.782 3.507C154.882 3.5124 154.982 3.535 155.042 3.55777C155.149 3.59569 155.083 3.64761 154.871 3.69236C154.784 3.70988 154.658 3.70648 154.551 3.71067Z" fill="#FFE492"/>
<path d="M470.769 20.0672C470.828 20.0421 470.887 20.0169 470.954 19.9937C471.2 20.0255 471.306 20.0634 471.241 20.1078C471.201 20.1348 471.122 20.1581 471.062 20.1832C470.816 20.1514 470.716 20.1115 470.769 20.0672Z" fill="#FFE492"/>
<path d="M28.0428 36.3422C28.0425 36.3192 28.1351 36.2825 28.2081 36.2746C28.3475 36.2607 28.5206 36.2869 28.6409 36.3401C28.8082 36.4162 28.7091 36.4568 28.4031 36.4368C28.1902 36.4222 28.0434 36.3843 28.0428 36.3422Z" fill="#FFE492"/>
<path d="M377.467 12.1721C377.554 12.1891 377.64 12.206 377.72 12.2249C377.608 12.2961 377.469 12.3272 377.323 12.3086C377.229 12.2974 377.149 12.2747 377.063 12.2578C377.175 12.1865 377.307 12.1593 377.467 12.1721Z" fill="#FFE492"/>
<path d="M375.162 12.0917C375.294 12.0625 375.454 12.0773 375.641 12.1322C375.582 12.1573 375.529 12.1862 375.456 12.2056C375.33 12.2367 375.164 12.2219 374.983 12.1651C375.036 12.1419 375.096 12.1168 375.162 12.0917Z" fill="#FFE492"/>
<path d="M373.394 12.1806C373.48 12.1975 373.567 12.2145 373.647 12.2334C373.535 12.3046 373.403 12.3357 373.249 12.3171C373.156 12.3059 373.076 12.2832 372.99 12.2662C373.102 12.195 373.234 12.1658 373.394 12.1806Z" fill="#FFE492"/>
<path d="M372.088 12.0819C372.188 12.12 372.136 12.1662 371.944 12.2186C371.857 12.2016 371.758 12.1886 371.691 12.1658C371.584 12.1297 371.637 12.0816 371.835 12.0291C371.915 12.048 372.002 12.065 372.088 12.0819Z" fill="#FFE492"/>
</svg>
