<svg width="371" height="45" viewBox="0 0 371 45" fill="none" xmlns="http://www.w3.org/2000/svg">
<path d="M352.117 9.79337C351.689 9.80818 351.257 9.81837 350.838 9.84059C350.565 9.85447 350.449 9.81375 350.267 9.79245C350.207 9.78505 350.142 9.77023 350.086 9.77208C349.662 9.78689 349.238 9.80356 348.815 9.82022C348.685 9.85633 348.603 9.90447 348.404 9.92206C348.21 9.93872 347.981 9.93872 347.764 9.94706C347.479 9.95724 347.194 9.96743 346.909 9.97669C346.766 9.98132 346.649 9.99891 346.602 10.0322C346.593 10.0378 346.688 10.0517 346.74 10.06C346.913 10.0878 347.081 10.1193 347.272 10.1405C347.453 10.1609 347.678 10.1276 347.873 10.1535C348.309 10.2118 348.313 10.2109 348.646 10.1998C348.932 10.1896 349.217 10.1785 349.502 10.1711C349.558 10.1693 349.623 10.1831 349.684 10.1905C349.865 10.2109 349.982 10.2572 350.25 10.2396C350.453 10.2257 350.678 10.2229 350.89 10.2155C351.067 10.2424 351.231 10.2729 351.421 10.2942C351.599 10.3146 351.65 10.3303 351.555 10.3572C351.469 10.3822 351.348 10.3924 351.188 10.3942C351.045 10.3952 350.903 10.4035 350.76 10.4081C350.686 10.4109 350.617 10.4127 350.548 10.4155C350.276 10.4257 350.276 10.4257 349.779 10.3665C349.584 10.3433 349.364 10.3757 349.178 10.3535C349.053 10.3387 348.944 10.3165 348.823 10.3007C348.772 10.2942 348.689 10.2933 348.625 10.2952C348.409 10.3016 348.192 10.3063 347.985 10.3183C347.838 10.3266 347.752 10.3526 347.769 10.3785C347.773 10.3887 347.877 10.4035 347.937 10.4044C348.076 10.4063 348.223 10.3933 348.357 10.3998C348.486 10.4063 348.62 10.4248 348.715 10.4451C348.91 10.4877 349.13 10.4498 349.316 10.4609C349.511 10.4729 349.671 10.51 349.857 10.5322C349.904 10.5377 349.995 10.5285 350.068 10.5257C350.28 10.5192 350.492 10.5137 350.704 10.5072C350.881 10.534 351.071 10.5581 351.231 10.5886C351.521 10.6442 351.832 10.6655 352.208 10.6386C352.42 10.6238 352.627 10.6294 352.796 10.6655C352.969 10.7025 353.168 10.6988 353.388 10.6914C353.591 10.684 353.799 10.6636 354.006 10.6896C354.456 10.747 354.46 10.7497 354.992 10.7275C355.152 10.721 355.273 10.7192 355.394 10.7405C355.506 10.7599 355.627 10.7766 355.744 10.7951C355.956 10.7886 356.172 10.7821 356.383 10.7747C356.656 10.7646 356.807 10.7775 356.872 10.8294C356.911 10.8608 356.928 10.8895 357.023 10.9108C357.136 10.9367 357.257 10.9358 357.421 10.9284C357.576 10.9219 357.689 10.9118 357.754 10.8784C357.78 10.8645 357.831 10.8516 357.879 10.8405C357.918 10.8321 357.978 10.8192 358.013 10.821C358.078 10.8247 358.164 10.8349 358.186 10.8469C358.398 10.959 358.398 10.9599 358.614 10.9923C358.852 11.0284 359.098 11.0608 359.314 11.1015C359.509 11.1376 359.703 11.1219 359.915 11.1219C360.075 11.1219 360.179 11.146 360.166 11.1701C360.157 11.1839 360.096 11.2043 360.045 11.2062C359.621 11.2247 359.193 11.2404 358.765 11.2534C358.713 11.2552 358.648 11.2386 358.588 11.2302C358.467 11.2136 358.359 11.1876 358.229 11.1821C358.099 11.1765 357.948 11.1904 357.806 11.195C357.663 11.1997 357.512 11.2117 357.382 11.2043C357.252 11.1969 357.149 11.1701 357.027 11.1525C356.971 11.1441 356.894 11.1321 356.846 11.1349C356.53 11.1571 356.297 11.1265 356.072 11.0858C356.025 11.0775 355.943 11.0719 355.882 11.0738C355.381 11.0895 354.884 11.108 354.382 11.1256C354.179 11.133 354.015 11.1006 353.971 11.046C353.95 11.0154 353.907 10.9849 353.907 10.9543C353.907 10.8988 353.669 10.8682 353.496 10.8747C353.211 10.884 352.921 10.8914 352.64 10.9053C352.411 10.9164 352.217 10.9053 352.061 10.8719C351.879 10.834 351.672 10.8414 351.465 10.8516C351.309 10.859 351.266 10.8895 351.274 10.9664C351.283 11.0284 351.209 11.0478 350.928 11.058C350.574 11.071 350.215 11.084 349.857 11.0941C349.8 11.096 349.736 11.0802 349.679 11.0719C349.558 11.0553 349.45 11.0284 349.321 11.0228C349.191 11.0164 349.04 11.0303 348.897 11.0358C348.754 11.0404 348.603 11.0534 348.473 11.0469C348.344 11.0404 348.236 11.0127 348.119 10.9951C348.063 10.9867 347.994 10.9747 347.937 10.9766C347.652 10.984 347.367 10.9951 347.082 11.0053C346.762 11.0164 346.762 11.0164 346.308 10.959C346.1 10.933 345.893 10.9534 345.69 10.9608C345.474 10.9682 345.27 10.9719 345.102 10.9349C344.989 10.9108 344.864 10.896 344.73 10.9006C344.371 10.9118 344.017 10.9256 343.658 10.9368C343.598 10.9386 343.516 10.934 343.468 10.9256C343.239 10.8868 343.014 10.8562 342.694 10.8756C342.418 10.8923 342.119 10.8932 341.843 10.909C341.691 10.9173 341.622 10.9469 341.652 10.9701C341.67 10.9821 341.761 10.996 341.821 10.996C341.959 10.9969 342.111 10.983 342.24 10.9886C342.508 10.9997 342.642 11.0775 342.992 11.0562C343.2 11.0432 343.416 11.0386 343.632 11.0349C343.688 11.034 343.749 11.0515 343.809 11.0608C343.982 11.0858 344.134 11.1182 344.384 11.1015C344.592 11.0886 344.812 11.0849 345.024 11.0775C345.361 11.0654 345.361 11.0664 345.798 11.1228C346.005 11.1497 346.213 11.1284 346.416 11.1219C346.567 11.1173 346.71 11.108 346.831 11.121C347.017 11.1404 347.151 11.1849 347.38 11.1821C347.596 11.1793 347.808 11.1663 348.024 11.1617C348.158 11.1589 348.283 11.1738 348.391 11.1988C348.504 11.2237 348.625 11.2349 348.772 11.2293C348.983 11.2219 349.199 11.2126 349.416 11.208C349.476 11.2071 349.545 11.2154 349.602 11.2228C349.723 11.2395 349.839 11.2589 349.956 11.2765C350.168 11.271 350.384 11.2691 350.591 11.258C350.751 11.2497 350.864 11.2534 350.993 11.2719C351.158 11.2969 351.292 11.3413 351.56 11.32C351.694 11.3099 351.849 11.3126 351.983 11.3034C352.147 11.2913 352.26 11.296 352.377 11.3237C352.597 11.3765 352.874 11.3774 353.159 11.3571C353.47 11.3348 353.704 11.3608 353.937 11.4015C354.183 11.4441 354.183 11.4432 354.374 11.5459C354.43 11.5756 354.59 11.5894 354.724 11.5839C354.948 11.5746 355.143 11.5793 355.307 11.6144C355.48 11.6524 355.688 11.6478 355.899 11.6376C356.18 11.6237 356.461 11.6117 356.69 11.6654C356.803 11.6913 356.924 11.6978 357.075 11.6913C357.503 11.6746 357.935 11.6644 358.355 11.6441C358.61 11.6311 358.756 11.6607 358.929 11.6857C359.163 11.72 359.418 11.7505 359.418 11.8237C359.418 11.8357 359.478 11.8496 359.53 11.8589C359.643 11.8783 359.764 11.895 359.88 11.9135C360.053 11.9412 360.222 11.9644 360.46 11.9496C360.667 11.9375 360.887 11.9338 361.099 11.9255C361.311 11.9172 361.506 11.9125 361.696 11.9477C361.916 11.9875 362.15 12.0255 362.4 12.0551C362.578 12.0764 362.811 12.0403 363.001 12.069C363.118 12.0866 363.23 12.107 363.356 12.1218C363.407 12.1283 363.49 12.1236 363.559 12.1218C363.701 12.1181 363.848 12.1153 363.987 12.106C364.147 12.0959 364.268 12.0977 364.389 12.119C364.501 12.1385 364.613 12.1653 364.743 12.1709C364.938 12.1792 365.154 12.1422 365.348 12.1847C365.448 12.206 365.573 12.2264 365.703 12.2329C365.832 12.2394 365.984 12.2255 366.122 12.2264C366.182 12.2264 366.256 12.2412 366.291 12.2532C366.312 12.2597 366.282 12.2773 366.252 12.2866C366.213 12.2977 366.157 12.3125 366.1 12.3144C365.672 12.331 365.245 12.3449 364.817 12.3606C364.562 12.3699 364.562 12.3699 364.047 12.3116C363.926 12.2977 363.792 12.3005 363.641 12.3069C363.438 12.3153 363.23 12.331 363.018 12.3144C362.742 12.2514 362.4 12.2458 362.037 12.2699C361.886 12.2801 361.748 12.2801 361.635 12.2625C361.397 12.2273 361.147 12.1949 360.935 12.1533C360.771 12.1209 360.693 12.1181 360.624 12.1625C360.602 12.1764 360.581 12.1912 360.585 12.2042C360.611 12.2505 360.658 12.2958 360.684 12.3421C360.693 12.3551 360.658 12.3699 360.637 12.3838C360.568 12.4227 360.477 12.4199 360.326 12.3875C360.174 12.3551 359.993 12.3338 359.751 12.3486C359.543 12.3616 359.318 12.3597 359.111 12.3736C358.791 12.394 358.566 12.3643 358.337 12.3245C358.29 12.3162 358.208 12.3116 358.147 12.3134C357.503 12.3347 356.863 12.3588 356.219 12.3801C356.081 12.3847 355.956 12.3708 355.847 12.3458C355.735 12.3208 355.61 12.3079 355.471 12.3125C354.901 12.3319 354.33 12.3495 353.76 12.3736C353.526 12.3838 353.34 12.3717 353.181 12.3393C353.06 12.3153 352.947 12.3079 352.796 12.3106C352.632 12.3134 352.515 12.3227 352.433 12.3495C352.355 12.3755 352.411 12.3912 352.584 12.4116C352.77 12.4338 352.943 12.4625 353.12 12.4884C353.263 12.4847 353.405 12.4773 353.544 12.4782C353.604 12.4782 353.66 12.4949 353.721 12.5041C353.894 12.531 354.054 12.5578 354.3 12.543C354.507 12.5301 354.728 12.5273 354.94 12.519C355.234 12.5088 355.234 12.5088 355.709 12.5671C355.83 12.5819 355.96 12.581 356.115 12.5726C356.249 12.5662 356.388 12.5791 356.483 12.6069C356.522 12.618 356.509 12.6365 356.427 12.6976C356.427 12.743 356.517 12.7226 356.548 12.693C356.595 12.6504 356.504 12.6365 356.332 12.6597C356.211 12.6763 356.15 12.7004 356.18 12.7199C356.198 12.73 356.28 12.743 356.427 12.6976C356.807 12.6421 357.097 12.6356 357.373 12.6208C357.538 12.6125 357.641 12.6162 357.771 12.6402C357.927 12.6689 358.082 12.6995 358.337 12.6847C358.614 12.668 358.908 12.6662 359.189 12.6523C359.448 12.6393 359.582 12.68 359.746 12.7041C359.945 12.7328 360.166 12.7004 360.347 12.7171C360.537 12.7337 360.671 12.7745 360.892 12.7819C361.212 12.7569 361.415 12.8032 361.657 12.8337C361.847 12.8569 362.072 12.8365 362.275 12.8263C362.504 12.8152 362.694 12.8254 362.854 12.8587C363.036 12.8967 363.239 12.8884 363.446 12.88C363.931 12.8615 363.948 12.8587 364.229 12.9096C364.432 12.9467 364.626 12.93 364.83 12.9254C365.007 12.9504 365.18 12.9772 365.366 12.9994C365.413 13.005 365.504 12.9957 365.577 12.993C365.789 12.9856 366.005 12.9782 366.217 12.9708C366.36 12.9661 366.511 12.9522 366.641 12.9578C366.77 12.9643 366.878 12.9911 366.995 13.0087C367.112 13.0263 367.233 13.0439 367.345 13.0624C367.518 13.0902 367.682 13.1133 367.924 13.0994C368.132 13.0874 368.348 13.0837 368.564 13.0754C368.836 13.0652 368.828 13.068 369.334 13.1235C369.606 13.1541 369.887 13.117 370.163 13.1133C370.302 13.1115 370.436 13.1217 370.531 13.1485C370.57 13.1596 370.557 13.1781 370.57 13.1939C369.857 13.2189 369.139 13.2402 368.434 13.2707C368.162 13.2827 368.02 13.2494 367.873 13.2216C367.631 13.1772 367.311 13.242 367.082 13.1846C366.943 13.1504 366.744 13.1309 366.507 13.1476C366.368 13.1568 366.221 13.1559 366.079 13.1642C365.716 13.1846 365.383 13.1855 365.093 13.1217C364.994 13.0994 364.851 13.0874 364.747 13.0661C364.626 13.043 364.51 13.03 364.367 13.0346C363.723 13.0568 363.083 13.0791 362.444 13.1031C362.387 13.105 362.331 13.1189 362.284 13.1291C362.163 13.155 362.201 13.1754 362.396 13.192C362.461 13.1976 362.513 13.2096 362.573 13.2189C362.69 13.2365 362.798 13.2642 362.928 13.2707C363.057 13.2772 363.209 13.2642 363.351 13.2596C363.494 13.255 363.645 13.2411 363.775 13.2466C363.905 13.2531 364.013 13.28 364.134 13.2966C364.19 13.305 364.259 13.3189 364.315 13.3179C364.601 13.3124 364.881 13.3022 365.167 13.2939C365.344 13.3189 365.495 13.355 365.707 13.3633C365.841 13.3688 365.984 13.3587 366.122 13.3605C366.182 13.3614 366.26 13.3753 366.291 13.3874C366.308 13.3948 366.252 13.4133 366.208 13.4225C366.044 13.4577 365.819 13.4512 365.616 13.4623C365.396 13.4744 365.197 13.4707 365.028 13.4346C364.916 13.4105 364.791 13.3976 364.652 13.4022C364.294 13.4142 363.939 13.4281 363.58 13.4383C363.52 13.4401 363.446 13.4318 363.39 13.4253C362.936 13.3689 362.936 13.367 362.616 13.379C362.145 13.3966 362.145 13.3966 361.83 13.3475C361.769 13.3383 361.704 13.3207 361.653 13.3216C361.151 13.3364 360.654 13.3513 360.157 13.3725C359.993 13.379 359.88 13.379 359.759 13.355C359.656 13.3346 359.535 13.3114 359.405 13.3059C359.271 13.3003 359.124 13.3142 358.981 13.3189C358.839 13.3235 358.687 13.3355 358.562 13.3281C358.432 13.3207 358.32 13.2948 358.208 13.2763C358.091 13.2568 357.966 13.2577 357.806 13.2652C357.313 13.2864 357.308 13.2837 356.82 13.2263C356.764 13.2198 356.69 13.2124 356.63 13.2142C356.271 13.2253 355.917 13.2392 355.558 13.2503C355.42 13.255 355.286 13.2429 355.19 13.2161C355.152 13.205 355.165 13.1865 355.139 13.1504C355.108 13.142 355.143 13.1568 355.152 13.1707C355.216 13.1689 355.294 13.1707 355.342 13.1633C355.463 13.1457 355.523 13.1226 355.493 13.1031C355.476 13.093 355.394 13.08 355.342 13.08C355.247 13.08 355.165 13.1004 355.139 13.1504C354.866 13.1809 354.577 13.1874 354.296 13.2022C354.131 13.2115 354.028 13.2068 353.898 13.1828C353.742 13.1531 353.582 13.1244 353.327 13.1392C353.051 13.1559 352.757 13.1587 352.472 13.1717C352.143 13.1865 352 13.1031 351.724 13.105C351.439 13.1068 351.153 13.1226 350.868 13.1337C350.617 13.143 350.617 13.1429 350.099 13.0828C349.908 13.0605 349.684 13.093 349.498 13.0698C349.372 13.055 349.264 13.0328 349.143 13.017C349.091 13.0106 349.009 13.0106 348.945 13.0124C348.586 13.0235 348.223 13.0309 347.877 13.0513C347.484 13.0754 347.185 13.0494 346.904 12.9948C346.55 13.005 346.191 13.0106 345.841 13.0281C345.586 13.0411 345.439 13.0106 345.266 12.9856C345.206 12.9772 345.154 12.9633 345.089 12.9596C345.024 12.9559 344.946 12.9633 344.877 12.9661C344.592 12.9763 344.298 12.9809 344.021 12.9976C343.68 13.0189 343.55 12.943 343.286 12.9337C343.109 12.9791 343.014 13.0411 342.664 13.0457C342.379 13.0494 342.093 13.0643 341.808 13.0744C341.665 13.0791 341.523 13.0846 341.38 13.0893C341.151 13.0976 341.043 13.1337 341.091 13.1892C341.117 13.2198 341.138 13.2503 341.16 13.2809C341.203 13.3355 341.095 13.3818 340.913 13.3883C340.412 13.4059 339.915 13.4244 339.413 13.4401C339.279 13.4448 339.15 13.429 339.042 13.404C338.929 13.379 338.804 13.3679 338.666 13.3725C338.164 13.3901 337.667 13.4087 337.166 13.4244C337.11 13.4263 337.036 13.417 336.98 13.4096C336.859 13.3929 336.742 13.3735 336.625 13.3559C336.34 13.3642 336.059 13.3698 335.778 13.3809C335.324 13.3975 335.324 13.3985 334.992 13.3475C334.931 13.3383 334.871 13.3207 334.814 13.3216C334.598 13.3253 334.386 13.3346 334.17 13.3429C333.535 13.367 333.535 13.367 333.349 13.3392C333.18 13.3133 333.029 13.2818 332.774 13.2966C332.497 13.3133 332.204 13.3189 331.918 13.3281C331.706 13.3346 331.495 13.342 331.283 13.3439C331.227 13.3448 331.166 13.3272 331.106 13.3179C330.933 13.2892 330.764 13.2661 330.526 13.2818C330.388 13.2911 330.241 13.2929 330.099 13.2976C329.727 13.3105 329.727 13.3105 329.117 13.255C329.057 13.2494 328.983 13.2429 328.923 13.2457C328.421 13.2624 327.924 13.2809 327.423 13.2966C327.362 13.2985 327.289 13.2929 327.228 13.2883C326.546 13.2346 326.546 13.2346 325.819 13.2605C325.543 13.2698 325.534 13.2735 325.244 13.2244C325.115 13.2031 325.007 13.1929 324.855 13.1994C324.285 13.2216 323.71 13.2365 323.144 13.2624C322.889 13.2735 322.742 13.2457 322.569 13.2207C322.508 13.2124 322.444 13.1939 322.392 13.1948C321.821 13.2124 321.25 13.2337 320.68 13.2513C320.628 13.2531 320.563 13.2346 320.503 13.2263C320.386 13.2096 320.274 13.1846 320.144 13.1791C320.01 13.1735 319.863 13.1874 319.716 13.192C319.357 13.2041 319.357 13.2031 318.942 13.1485C318.886 13.1411 318.813 13.1309 318.756 13.1328C318.186 13.1513 317.611 13.167 317.045 13.1939C316.72 13.2087 316.5 13.1818 316.271 13.1429C316.223 13.1346 316.141 13.1309 316.081 13.1328C315.437 13.1541 314.797 13.1781 314.153 13.1994C314.019 13.2041 313.889 13.1883 313.781 13.1642C313.608 13.1263 313.405 13.1309 313.189 13.1392C312.692 13.1587 312.688 13.1578 312.394 13.1133C312.333 13.1041 312.281 13.092 312.217 13.0874C312.156 13.0828 312.078 13.0856 312.013 13.0874C311.728 13.0967 311.443 13.1068 311.158 13.117C310.872 13.1272 310.583 13.1328 310.302 13.1485C309.956 13.168 309.792 13.1078 309.549 13.08C309.195 13.092 308.832 13.0994 308.482 13.1189C308.214 13.1337 308.089 13.093 307.911 13.0717C307.851 13.0643 307.786 13.0485 307.73 13.0504C307.086 13.0707 306.442 13.093 305.802 13.118C305.646 13.1235 305.543 13.1161 305.413 13.0939C305.123 13.0439 305.11 13.0457 304.626 13.0643C304.414 13.0726 304.211 13.08 304.03 13.042C303.87 13.0078 303.675 12.9994 303.446 13.0106C303.165 13.0244 302.876 13.0319 302.59 13.0411C302.305 13.0513 302.02 13.0652 301.735 13.0698C301.505 13.0744 301.367 13.0309 301.186 13.0087C301.129 13.0022 301.052 13.0013 300.987 13.0032C300.701 13.0115 300.408 13.018 300.131 13.0337C299.794 13.0531 299.608 13.0022 299.37 12.9726C299.318 12.9661 299.232 12.9698 299.167 12.9726C298.666 12.9893 298.168 13.0078 297.667 13.0254C297.49 13.0004 297.308 12.9763 297.131 12.9513C296.846 12.9606 296.561 12.9707 296.275 12.98C296.059 12.9874 295.839 12.9902 295.635 13.0041C295.372 13.0226 295.242 12.9791 295.065 12.9578C295.004 12.9504 294.94 12.9346 294.883 12.9365C294.525 12.9467 294.166 12.9578 293.811 12.9735C293.474 12.9893 293.34 12.9059 293.064 12.9069C292.778 12.9078 292.484 12.9198 292.208 12.9365C291.888 12.9559 291.663 12.9263 291.434 12.8865C291.387 12.8782 291.304 12.8735 291.244 12.8754C290.885 12.8865 290.531 12.9004 290.172 12.9115C290.111 12.9133 290.038 12.9087 289.977 12.9032C289.295 12.8485 289.294 12.8476 288.996 12.8587C288.784 12.8661 288.568 12.8754 288.352 12.88C288.292 12.8819 288.218 12.8735 288.162 12.8661C287.712 12.8097 287.712 12.8087 287.388 12.8198C287.103 12.83 286.818 12.8402 286.532 12.8504C286.355 12.8254 286.174 12.8013 285.996 12.7763C285.642 12.7884 285.279 12.7976 284.929 12.8143C284.764 12.8217 284.656 12.8189 284.531 12.7958C284.376 12.768 284.22 12.7356 283.961 12.7513C283.684 12.768 283.39 12.7698 283.109 12.7837C282.772 12.8004 282.634 12.7162 282.361 12.7171C282.076 12.718 281.782 12.73 281.505 12.7467C281.186 12.7661 280.961 12.7365 280.732 12.6967C280.684 12.6884 280.602 12.6838 280.541 12.6856C279.755 12.7125 278.972 12.7393 278.186 12.768C277.702 12.7856 277.702 12.7865 276.781 12.7356C276.716 12.7319 276.647 12.7282 276.582 12.73C276.297 12.7384 276.003 12.7449 275.726 12.7606C275.389 12.78 275.203 12.73 274.965 12.6995C274.914 12.693 274.831 12.6967 274.762 12.6986C274.546 12.705 274.334 12.7134 274.118 12.7208C273.833 12.731 273.548 12.7411 273.262 12.7513C273.085 12.7273 272.904 12.7023 272.726 12.6782C272.372 12.6902 272.009 12.6967 271.659 12.7162C271.391 12.731 271.265 12.6921 271.088 12.6699C271.028 12.6625 270.963 12.6467 270.907 12.6476C270.263 12.668 269.619 12.6893 268.979 12.7152C268.715 12.7263 268.594 12.6847 268.417 12.6634C268.356 12.6569 268.287 12.6449 268.231 12.6467C267.803 12.6597 267.375 12.6754 266.947 12.6912C266.705 12.7004 266.705 12.7004 266.178 12.643C266.117 12.6365 266.048 12.63 265.988 12.6319C264.631 12.6782 263.278 12.7273 261.92 12.7736C261.782 12.7782 261.657 12.7643 261.549 12.7393C261.436 12.7143 261.311 12.7013 261.172 12.706C260.602 12.7254 260.027 12.743 259.461 12.7671C259.227 12.7773 259.041 12.7652 258.882 12.7328C258.761 12.7087 258.648 12.6995 258.497 12.705C258.212 12.7162 257.926 12.7254 257.641 12.7356C257.356 12.7458 257.07 12.756 256.785 12.7662C256.5 12.7763 256.21 12.7819 255.929 12.7976C255.584 12.8171 255.415 12.7597 255.177 12.731C254.749 12.7449 254.321 12.7587 253.898 12.7736C253.327 12.793 252.757 12.8143 252.186 12.8328C252.134 12.8347 252.069 12.818 252.009 12.8097C251.832 12.7865 251.702 12.7541 251.438 12.7643C250.159 12.8134 248.871 12.855 247.587 12.9032C247.319 12.9134 247.202 12.8735 247.021 12.8522C246.96 12.8458 246.891 12.8328 246.835 12.8347C246.122 12.8578 245.408 12.8837 244.695 12.9087C244.406 12.9189 244.406 12.9189 243.922 12.8615C243.865 12.855 243.792 12.8467 243.731 12.8485C242.802 12.88 241.877 12.9133 240.948 12.9458C240.809 12.9504 240.684 12.9374 240.572 12.9124C240.464 12.8874 240.334 12.8735 240.2 12.8782C239.344 12.9078 238.484 12.9365 237.632 12.9689C237.403 12.9782 237.213 12.9698 237.049 12.9365C236.932 12.9124 236.815 12.9022 236.668 12.9078C235.385 12.9532 234.101 12.9967 232.817 13.0448C232.571 13.0541 232.398 13.0365 232.242 13.0059C232.117 12.9819 232.009 12.9772 231.853 12.9809C231.689 12.9856 231.59 12.9957 231.499 13.0235C231.382 13.0596 231.309 13.105 231.032 13.1078C230.747 13.1105 230.457 13.1217 230.176 13.1374C229.908 13.1531 229.783 13.1115 229.614 13.0865C229.489 13.0689 229.372 13.0661 229.212 13.0744C229.065 13.0818 228.974 13.0976 228.888 13.1272C228.698 13.1902 228.681 13.1902 228.447 13.1504C228.322 13.1291 228.209 13.1124 228.071 13.1161C227.5 13.1346 226.93 13.155 226.359 13.1763C226.031 13.1883 226.027 13.1902 225.78 13.1439C225.659 13.1207 225.542 13.1096 225.4 13.1152C223.831 13.1707 222.262 13.2244 220.693 13.2827C220.451 13.292 220.286 13.2726 220.113 13.2448C220.057 13.2355 220.001 13.2226 219.936 13.2189C219.871 13.2152 219.798 13.2189 219.729 13.2207C218.588 13.2605 217.442 13.2985 216.305 13.3429C216.046 13.3531 215.908 13.3235 215.73 13.2994C215.67 13.2911 215.618 13.2781 215.553 13.2744C215.488 13.2716 215.411 13.2781 215.341 13.2809C214.2 13.3207 213.055 13.3587 211.918 13.4031C211.646 13.4133 211.529 13.3744 211.352 13.354C211.291 13.3466 211.226 13.3327 211.17 13.3346C210.811 13.3448 210.457 13.3587 210.098 13.3707C209.242 13.4012 208.386 13.43 207.531 13.4614C207.202 13.4735 207.059 13.3911 206.783 13.3948C206.424 13.3994 206.07 13.4179 205.711 13.4309C205.426 13.4411 205.14 13.4503 204.855 13.4614C204.574 13.4716 204.574 13.4716 203.874 13.4179C203.813 13.4133 203.74 13.4068 203.679 13.4087C202.681 13.4429 201.678 13.4772 200.684 13.5142C200.455 13.5225 200.265 13.5179 200.1 13.4837C199.984 13.4596 199.863 13.4475 199.72 13.4531C198.22 13.5059 196.724 13.5586 195.225 13.6105C195.168 13.6123 195.095 13.6031 195.039 13.5957C194.918 13.579 194.801 13.5596 194.684 13.542C194.598 13.5633 194.486 13.5827 194.429 13.6068C194.352 13.6392 194.248 13.6484 194.083 13.654C193.919 13.6596 193.816 13.6577 193.686 13.6336C193.53 13.604 193.37 13.5809 193.115 13.5901C191.546 13.6484 189.977 13.7012 188.408 13.7586C188.149 13.7679 188.028 13.7271 187.846 13.7058C187.786 13.6994 187.716 13.6892 187.66 13.691C187.016 13.7123 186.376 13.7355 185.732 13.7577C183.947 13.8206 182.162 13.8808 180.381 13.9475C180.057 13.9595 179.837 13.9364 179.608 13.8966C179.56 13.8882 179.478 13.8836 179.417 13.8854C176.919 13.9725 174.421 14.0604 171.927 14.1484C171.793 14.153 171.663 14.1382 171.555 14.1141C171.442 14.0891 171.317 14.0771 171.179 14.0817C170.038 14.1215 168.897 14.1613 167.755 14.2021C167.47 14.2123 167.466 14.2132 167.172 14.1687C167.111 14.1595 167.046 14.1419 166.999 14.1438C166.9 14.1484 166.804 14.1715 166.735 14.203C166.666 14.2363 166.558 14.2456 166.398 14.2521C166.234 14.2585 166.126 14.2558 166 14.2336C165.84 14.2058 165.694 14.1789 165.434 14.1882C162.153 14.3067 158.873 14.4206 155.592 14.5381C155.328 14.5474 155.207 14.5085 155.026 14.4872C154.965 14.4807 154.905 14.4715 154.84 14.4696C154.771 14.4678 154.697 14.4733 154.628 14.4761C149.277 14.6641 143.926 14.8529 138.574 15.0409C138.255 15.052 138.259 15.052 137.909 15.1371C137.866 15.1473 137.809 15.1612 137.749 15.1631C136.111 15.2223 134.468 15.2797 132.826 15.3371C132.112 15.3621 131.399 15.388 130.686 15.4121C130.431 15.4204 130.431 15.4204 129.821 15.5204C129.77 15.5288 129.709 15.5399 129.648 15.5417C126.796 15.6426 123.943 15.7435 121.086 15.8426C120.861 15.85 120.679 15.8667 120.576 15.9111C120.502 15.9426 120.407 15.9611 120.264 15.9667C118.267 16.037 116.27 16.1083 114.269 16.1768C114.031 16.1852 113.889 16.2111 113.772 16.25C113.733 16.2629 113.699 16.2777 113.642 16.287C113.59 16.2953 113.513 16.2981 113.448 16.3009C111.736 16.3611 110.024 16.4231 108.308 16.4805C108.053 16.4888 107.95 16.5231 107.824 16.5592C107.781 16.5712 107.751 16.5879 107.695 16.5962C107.638 16.6036 107.556 16.6036 107.487 16.6055C106.061 16.6555 104.634 16.7064 103.208 16.7564C102.931 16.7518 102.871 16.8055 102.737 16.8379C102.689 16.849 102.655 16.8638 102.599 16.8712C102.538 16.8786 102.46 16.8777 102.387 16.8795C101.245 16.9193 100.104 16.9619 98.9589 16.9989C98.6953 17.0073 98.6434 17.0545 98.5007 17.0869C98.4532 17.0971 98.4057 17.1128 98.3495 17.1156C97.6363 17.1424 96.9231 17.1674 96.2099 17.1915C95.9722 17.1998 95.9722 17.1989 95.5529 17.2906C95.5053 17.3008 95.4491 17.3119 95.3886 17.3146C94.3209 17.3535 93.249 17.3906 92.177 17.4285C92.0387 17.4331 91.9436 17.4554 91.8745 17.4868C91.8053 17.5183 91.7059 17.5387 91.5676 17.5433C90.7117 17.5739 89.8558 17.6053 88.9999 17.6331C88.7622 17.6405 88.6066 17.6637 88.5029 17.7053C88.4251 17.7368 88.33 17.7525 88.1787 17.7581C87.3229 17.7877 86.467 17.8201 85.6069 17.8461C85.3562 17.8535 85.2264 17.8849 85.1227 17.9238C85.0406 17.9553 84.9455 17.9664 84.7855 17.972C83.2165 18.0257 81.6432 18.0794 80.0784 18.1386C79.8148 18.1488 79.6807 18.1164 79.5078 18.0932C79.2614 18.0608 79.0324 18.0257 79.0324 17.9534C79.0324 17.9423 78.9589 17.9294 78.9071 17.9201C78.5224 17.8507 78.5223 17.8507 78.4618 17.7766C78.4272 17.7313 78.3883 17.685 78.3581 17.6387C78.3019 17.5628 78.1635 17.5433 77.7659 17.5572C77.6232 17.5618 77.4806 17.5683 77.3379 17.572C77.1261 17.5785 76.9662 17.5479 76.9273 17.4924C76.9057 17.4618 76.8798 17.4313 76.8582 17.4007C77.0743 17.3933 77.07 17.3924 77.4503 17.2804C77.6103 17.2332 77.6103 17.2332 77.3034 17.186C77.1867 17.1684 77.0743 17.1489 76.949 17.1323C76.8928 17.1248 76.8193 17.1202 76.7588 17.1221C76.4 17.1332 76.0456 17.1461 75.6912 17.1591C75.1206 17.1795 75.1205 17.1795 74.5413 17.085C74.4938 17.0776 74.4203 17.0638 74.4289 17.0563C74.4765 17.0221 74.5932 17.0073 74.7401 17.0036C74.9563 16.998 75.1681 16.9888 75.3799 16.9813C75.5225 16.9767 75.6651 16.9712 75.8078 16.9665C75.9418 16.9314 76.0802 16.8971 76.2055 16.861C76.4043 16.8055 76.4043 16.8036 76.132 16.7647C75.9591 16.7388 75.7732 16.7156 75.596 16.6916C75.3842 16.699 75.1681 16.7073 74.9563 16.7138C74.6883 16.7221 74.5802 16.7045 74.511 16.6444C74.4505 16.5916 74.524 16.5462 74.7315 16.5351C74.9433 16.524 75.1422 16.5166 75.2503 16.4694C75.354 16.424 75.5355 16.4064 75.7603 16.4027C75.9029 16.3999 76.0456 16.3935 76.1882 16.3879C76.3741 16.3805 76.4735 16.3333 76.4346 16.2805C76.413 16.2463 76.3698 16.2176 76.2012 16.2102C75.4534 16.1778 75.4447 16.1787 75.073 16.1157C75.0384 16.1102 75.0125 16.0935 75.0255 16.0852C75.0471 16.0713 75.0947 16.0509 75.1465 16.0481C75.6436 16.0278 76.1407 16.0093 76.6378 15.9954C76.802 15.9907 76.9231 15.9843 76.9792 15.95C77.0571 15.9028 77.0225 15.8593 76.8712 15.8269C76.8236 15.8167 76.7458 15.8037 76.6939 15.8046C76.1233 15.8213 75.5571 15.8426 74.9865 15.8593C74.9347 15.8611 74.8396 15.8454 74.818 15.8334C74.7748 15.8111 74.8396 15.7815 74.9909 15.7713C75.1897 15.7574 75.3929 15.7565 75.5269 15.7102C75.7127 15.6445 75.9418 15.5843 76.1493 15.5214C76.1838 15.5102 76.2401 15.4889 76.2271 15.4871C76.1191 15.4667 75.9937 15.451 75.8813 15.4315C75.6911 15.3991 75.6911 15.3538 75.7343 15.3103C75.7689 15.2751 75.8986 15.2612 76.0585 15.2612C76.1277 15.2612 76.2141 15.2612 76.2703 15.2529C76.4173 15.2325 76.4648 15.2066 76.3913 15.1871C76.3481 15.176 76.2704 15.1603 76.2185 15.1621C75.2935 15.1927 74.3641 15.2223 73.4434 15.2603C73.1711 15.2714 73.0458 15.2362 72.8816 15.2112C72.7562 15.1918 72.6394 15.1844 72.4838 15.1982C72.3369 15.2112 72.1943 15.2038 72.1035 15.1733C72.03 15.1483 72.1597 15.127 72.5098 15.1029C72.5746 15.0983 72.6481 15.0955 72.6956 15.0862C73.197 14.9862 73.197 14.9853 73.5428 14.9723C73.88 14.9603 73.88 14.9594 74.0573 14.9057C74.1394 14.8807 74.2301 14.8557 74.3079 14.8298C74.3381 14.8196 74.3901 14.8011 74.3728 14.7955C74.2777 14.7668 74.148 14.7603 73.9967 14.7668C73.6595 14.7826 73.2619 14.7696 73.0847 14.8575C73.0155 14.8909 72.9075 14.9001 72.7519 14.9057C71.1871 14.9594 69.6223 15.0168 68.0533 15.0686C67.7983 15.077 67.6816 15.1112 67.5822 15.1492C67.4958 15.1807 67.4006 15.1899 67.2364 15.1955C67.0721 15.201 66.9424 15.2038 66.8473 15.1733C66.7911 15.1547 66.8387 15.1288 66.9683 15.1029C67.1542 15.0659 67.1196 15.0196 67.0591 14.9761C67.0159 14.9474 66.8819 14.927 66.7392 14.9288C66.5274 14.9325 66.3243 14.9427 66.1471 14.9057C66.0434 14.8844 65.9137 14.8696 65.797 14.8511C65.5722 14.8131 65.3474 14.7742 65.0319 14.7992C64.8158 14.79 64.6645 14.7566 64.4916 14.7307C64.202 14.6881 64.176 14.6816 64.3835 14.6363C64.6169 14.5854 64.4354 14.5187 64.565 14.4687C64.7033 14.415 64.8936 14.3678 65.0622 14.3178C65.1054 14.3048 65.1443 14.2928 65.1875 14.2798C65.0881 14.2613 64.9974 14.2382 64.8807 14.2252C64.7294 14.2086 64.6516 14.1882 64.6602 14.1308C64.63 14.1225 64.6428 14.1437 64.6774 14.1493C64.7163 14.1549 64.8115 14.1502 64.859 14.1438C64.9801 14.1262 65.0405 14.103 65.0103 14.0836C64.993 14.0734 64.9109 14.0604 64.859 14.0604C64.7639 14.0604 64.6818 14.0808 64.6559 14.1308C64.1718 14.1687 63.6703 14.1873 63.1689 14.2021C63.117 14.2039 63.0522 14.1854 62.9917 14.1762C62.7929 14.1447 62.7928 14.1456 62.2093 14.1363C62.1488 14.1354 62.0667 14.1225 62.0365 14.1095C61.9111 14.053 61.9155 13.991 61.8549 13.9308C61.9673 13.8919 62.0796 13.854 62.1963 13.816C62.4297 13.7392 62.7324 13.6716 62.9139 13.5873C62.875 13.542 62.8231 13.4966 63.0133 13.4596C63.5536 13.4133 63.5494 13.4133 63.6963 13.3689C64.1156 13.2429 64.5305 13.1161 64.9671 12.992C65.0838 12.9596 65.0838 12.9421 64.8763 12.9282C64.8115 12.9245 64.7423 12.9235 64.6731 12.9254C64.457 12.9319 64.2408 12.9485 64.029 12.9448C63.8172 12.942 63.6616 12.9013 63.4887 12.8763C63.3115 12.8504 63.1343 12.8235 62.9571 12.7967C62.7539 12.7995 62.5508 12.8254 62.3477 12.7837C62.192 12.7513 61.9975 12.7282 61.8203 12.7013C61.9543 12.631 62.2051 12.5773 62.3996 12.5152C62.5768 12.4588 62.581 12.4597 63.0565 12.4162C63.2813 12.3958 63.3591 12.2912 63.1689 12.2607C62.9398 12.2236 62.6978 12.1894 62.4644 12.1542C62.2612 12.157 62.0538 12.182 61.8593 12.1403C61.708 12.1088 61.535 12.0875 61.2843 12.0996C60.8607 12.1199 60.4285 12.1301 60.0006 12.1468C59.8536 12.1523 59.6936 12.1486 59.6288 12.1172C59.5856 12.0949 59.7109 12.0644 59.8536 12.0579C60.0697 12.0486 60.2642 12.0375 60.3723 11.9912C60.476 11.945 60.6662 11.9311 60.8909 11.9246C60.9514 11.9227 61.0207 11.9116 61.0509 11.9005C61.2065 11.8468 61.3794 11.8005 61.7123 11.8024C61.8506 11.7839 61.924 11.7607 61.8808 11.7385C61.8549 11.7265 61.7641 11.7107 61.7123 11.7126C61.3535 11.7218 60.9947 11.7311 60.6446 11.7478C60.4804 11.7552 60.355 11.757 60.2512 11.7292C60.1777 11.7107 60.2166 11.6857 60.355 11.6589C60.476 11.6357 60.5106 11.6089 60.502 11.5774C60.4803 11.5043 60.3506 11.483 59.9357 11.4876C59.6374 11.4913 59.5639 11.4793 59.4991 11.4163C59.4818 11.4015 59.4387 11.3811 59.4689 11.371C59.6548 11.308 59.7758 11.2302 60.126 11.2006C60.2643 11.1895 60.4112 11.1895 60.4976 11.1654C60.5841 11.1414 60.6619 11.1136 60.7527 11.0904C60.8651 11.0627 60.9428 11.0367 60.8909 11.0191C60.8045 10.9877 60.6662 10.9849 60.5063 10.996C60.368 11.0053 60.221 11.0062 60.0784 11.0117C59.8233 11.0219 59.6159 10.9979 59.5856 10.9571C59.5035 10.8497 59.417 10.7433 59.3436 10.6359C59.3349 10.6229 59.3565 10.6062 59.3911 10.5951C59.5121 10.5562 59.6418 10.5192 59.7672 10.4812C59.9141 10.4377 60.1476 10.4461 60.3464 10.4377C60.6274 10.4257 60.6273 10.4266 61.0033 10.3377C61.1503 10.3026 61.4053 10.3165 61.5566 10.285C61.6042 10.2748 61.6776 10.2581 61.6647 10.2489C61.6474 10.2368 61.561 10.2276 61.4961 10.222C61.4356 10.2165 61.3622 10.2137 61.2973 10.2165C60.5106 10.2433 59.7283 10.272 58.9416 10.2979C58.8076 10.3026 58.6606 10.2822 58.6131 10.2535C58.5655 10.2267 58.5785 10.1942 58.5698 10.1637C58.6952 10.1257 58.8378 10.0906 58.9458 10.0498C59.028 10.0183 59.1231 10.0045 59.2873 10.0026C59.5034 9.99983 59.7153 9.98872 59.9573 9.98038C60.4069 9.84522 60.8477 9.70357 61.3318 9.5684C61.5263 9.51378 61.4789 9.45823 61.5178 9.3999C61.5567 9.3462 61.8463 9.35454 62.0408 9.33881C62.1964 9.32584 62.2482 9.29621 62.1877 9.27585C62.1531 9.26381 62.0753 9.24992 62.0148 9.24992C61.8722 9.24992 61.7295 9.25825 61.5869 9.26288C61.4443 9.26751 61.28 9.26474 61.1633 9.28048C61.0509 9.29529 60.9774 9.32676 60.9039 9.35361C60.8218 9.38324 60.7138 9.39343 60.5495 9.39528C60.3377 9.39713 60.126 9.40546 59.9142 9.41194C59.6807 9.37583 59.4386 9.34066 59.2139 9.3027C59.1706 9.29529 59.162 9.274 59.1663 9.26011C59.1749 9.22401 59.1101 9.20178 58.9675 9.18419C58.8464 9.16938 58.747 9.14809 58.6346 9.12957C58.7211 9.10458 58.8162 9.0805 58.8854 9.05365C59.0366 8.99717 59.2269 8.95645 59.5554 8.9583C59.685 8.92219 59.7887 8.87775 59.9573 8.85276C60.1173 8.82868 60.3896 8.85275 60.5106 8.79813C60.5711 8.77128 60.6619 8.74073 60.7787 8.72962C60.9645 8.71203 61.2066 8.72129 61.3146 8.66945C61.3795 8.63982 61.4745 8.61297 61.5999 8.60556C61.7425 8.59723 61.8894 8.59538 61.9932 8.57779C62.0494 8.56853 62.1099 8.55372 62.1099 8.54076C62.1099 8.53243 62.0235 8.51946 61.963 8.51391C61.9068 8.50743 61.8332 8.5028 61.7684 8.50465C61.5523 8.51021 61.3405 8.52039 61.1244 8.52594C61.0638 8.52779 60.9947 8.52131 60.9299 8.51576C60.7397 8.50095 60.7526 8.48243 60.9039 8.4491C61.0552 8.4167 61.1633 8.37503 61.2887 8.33707C61.427 8.33059 61.5999 8.33337 61.695 8.31578C61.8549 8.28708 61.9672 8.24542 62.0969 8.20931C62.2396 8.20376 62.3865 8.20191 62.5205 8.19173C62.5767 8.18802 62.6027 8.16765 62.6502 8.15562C62.7367 8.13247 62.8102 8.09915 62.9269 8.08804C63.1171 8.07137 63.3505 8.07785 63.4629 8.02693C63.5277 7.9973 63.6271 7.96583 63.7481 7.96398C64.0853 7.96028 64.2279 7.90935 64.4008 7.86121C64.5305 7.8251 64.8071 7.84362 64.9498 7.80751C65.0449 7.78437 65.1141 7.75566 65.2092 7.73345C65.2481 7.72419 65.3302 7.71956 65.395 7.71679C65.7495 7.7029 66.1082 7.69271 66.4627 7.6779C66.5188 7.67512 66.5708 7.66124 66.614 7.65013C66.7048 7.62606 66.7609 7.59273 66.8733 7.57699C66.9857 7.56125 67.1456 7.56125 67.2839 7.55662C67.7291 7.54274 67.7637 7.54643 67.9669 7.46774C68.1311 7.40386 68.5332 7.44923 68.6672 7.37886C68.745 7.33813 68.8875 7.3048 69.1426 7.30017C69.5013 7.29369 69.8558 7.2761 70.2145 7.26407C70.5344 7.25296 70.5301 7.25295 70.8759 7.16685C71.0315 7.12797 71.2606 7.13353 71.4638 7.12612C71.6799 7.11871 71.8787 7.10761 71.9825 7.06132C72.0862 7.01595 72.2764 7.00113 72.4968 6.99465C72.7 6.98817 72.9291 6.99281 73.089 6.95577C73.4781 6.8669 73.4737 6.86597 73.7461 6.85671C74.174 6.84189 74.6019 6.82708 75.0298 6.81134C75.3151 6.80116 75.6133 6.79931 75.8813 6.77894C76.0758 6.76413 76.1623 6.71229 76.2876 6.67618C76.6421 6.66229 76.9965 6.6484 77.3509 6.63544C77.848 6.61692 78.3494 6.60026 78.8508 6.58267C79.0669 6.54749 79.0973 6.46972 79.4603 6.46602C79.6765 6.46417 79.8883 6.45213 80.1044 6.44473C80.4631 6.43177 80.8176 6.4151 81.1763 6.40862C81.4487 6.40399 81.4961 6.35399 81.6388 6.32251C81.6863 6.3114 81.7296 6.29567 81.7858 6.29289C82.3477 6.26697 82.9269 6.26142 83.4758 6.22346C83.532 6.21975 83.5839 6.20031 83.5969 6.18642C83.6055 6.17902 83.532 6.16514 83.4845 6.15866C83.4283 6.15125 83.3548 6.14384 83.2943 6.14569C81.5091 6.20772 79.724 6.27068 77.9388 6.33271C77.6881 6.34197 77.6881 6.34103 77.0787 6.44287C77.0268 6.45121 76.9662 6.46046 76.9014 6.46324C76.6161 6.47435 76.3265 6.48084 76.0455 6.49472C75.8164 6.50583 75.6263 6.49471 75.4621 6.46139C75.3454 6.43731 75.2243 6.42991 75.0773 6.43176C74.913 6.43454 74.805 6.44473 74.71 6.46973C74.5846 6.50398 74.5197 6.54841 74.2561 6.55767C73.0415 6.59748 71.8268 6.64192 70.6165 6.68451C70.4479 6.67155 70.3658 6.65211 70.409 6.62896C70.4349 6.61507 70.4868 6.59656 70.5387 6.59471C71.0358 6.57527 71.5372 6.5586 72.0343 6.54009C72.1034 6.53731 72.1985 6.53915 72.2374 6.52989C72.4276 6.48823 72.4968 6.42065 72.8556 6.41602C73.0631 6.41324 73.2748 6.39936 73.4737 6.3864C73.5299 6.3827 73.5818 6.36325 73.5947 6.34937C73.599 6.34196 73.5299 6.32807 73.478 6.32159C73.2878 6.29474 73.0674 6.32715 72.8772 6.30864C72.8124 6.30216 72.7216 6.29289 72.7086 6.28178C72.7 6.2716 72.7734 6.25493 72.8253 6.24475C72.8729 6.23549 72.9377 6.22716 73.0025 6.22438C73.5731 6.20309 74.1437 6.18087 74.7143 6.1642C74.9477 6.15772 75.1119 6.13458 75.2156 6.09199C75.2935 6.06051 75.3885 6.04385 75.5355 6.03922C76.534 6.00497 77.5325 5.96701 78.5353 5.93553C78.786 5.92813 78.9157 5.89758 79.0194 5.85777C79.1016 5.82629 79.1967 5.81518 79.3566 5.80962C80.7873 5.76148 82.2094 5.70779 83.6401 5.6615C83.9038 5.65316 83.9816 5.61335 84.1156 5.5791C84.1632 5.56706 84.1934 5.55225 84.2539 5.54484C84.3144 5.53744 84.3922 5.53836 84.4657 5.5365C85.6068 5.49669 86.748 5.45411 87.8935 5.41708C88.1615 5.40875 88.2133 5.36245 88.3516 5.33005C88.3991 5.31987 88.4424 5.30321 88.4986 5.30043C89.3544 5.26895 90.2103 5.23933 91.0661 5.20878C91.6367 5.18841 92.2072 5.16804 92.7778 5.1486C93.0587 5.13934 93.0588 5.13841 93.4391 5.05045C93.4824 5.04027 93.5429 5.02823 93.5991 5.02546C95.2416 4.9662 96.8798 4.90974 98.5224 4.85141C98.6607 4.84679 98.7601 4.82548 98.8292 4.794C98.8984 4.76253 98.9979 4.74123 99.1319 4.7366C100.416 4.69031 101.699 4.64495 102.987 4.60144C103.221 4.59403 103.385 4.57181 103.489 4.53015C103.567 4.49867 103.662 4.48201 103.809 4.47738C105.092 4.43295 106.376 4.38572 107.664 4.34313C107.911 4.3348 108.032 4.30333 108.153 4.2663C108.196 4.25334 108.231 4.23204 108.283 4.23019C108.922 4.20427 109.558 4.17742 110.202 4.15983C110.47 4.15242 110.56 4.11353 110.669 4.0765C110.755 4.04688 110.854 4.03669 111.019 4.03299C111.377 4.02466 111.732 4.00893 112.082 3.99319C112.134 3.99041 112.199 3.97004 112.203 3.95708C112.212 3.93301 112.112 3.91634 111.948 3.90801C110.236 3.96819 108.52 4.02836 106.809 4.08854C106.528 4.09872 106.528 4.09873 106.147 4.18668C106.104 4.19686 106.043 4.2089 105.983 4.21168C104.34 4.27 102.702 4.3274 101.06 4.38573C100.921 4.39036 100.822 4.41165 100.753 4.44313C100.684 4.47461 100.584 4.4959 100.45 4.50053C98.8811 4.55608 97.3121 4.61255 95.7387 4.66533C95.5053 4.67273 95.3411 4.69402 95.2373 4.7366C95.1595 4.76808 95.0644 4.78475 94.9175 4.78938C93.4176 4.84123 91.9219 4.89584 90.4177 4.94584C90.2664 4.95047 90.1541 4.92362 90.1628 4.89862C90.1671 4.88566 90.2318 4.86438 90.2837 4.86252C91.0661 4.83197 91.8442 4.80049 92.6309 4.77735C92.8946 4.76994 92.9723 4.7292 93.1063 4.69495C93.1495 4.68291 93.1841 4.66717 93.2403 4.66069C93.3008 4.65329 93.3786 4.65421 93.4521 4.65236C95.3064 4.58663 97.1608 4.51997 99.0195 4.45795C99.2875 4.44869 99.3393 4.40332 99.4776 4.37091C99.5252 4.3598 99.5684 4.34314 99.6246 4.34129C100.195 4.31907 100.766 4.29963 101.336 4.28019C102.335 4.24501 103.333 4.20982 104.336 4.17464C104.626 4.16446 104.626 4.16445 104.997 4.07743C105.041 4.06724 105.101 4.05429 105.157 4.05244C107.798 3.95893 110.439 3.86543 113.081 3.77285C113.219 3.76822 113.318 3.74692 113.387 3.71545C113.457 3.68489 113.556 3.66267 113.69 3.65712C117.26 3.53121 120.826 3.40529 124.397 3.28124C124.63 3.2729 124.794 3.25346 124.898 3.20995C124.972 3.17847 125.071 3.16181 125.218 3.15625C129.143 3.01831 133.068 2.88036 136.997 2.74149C139.638 2.64891 142.279 2.55448 144.92 2.46375C145.162 2.45542 145.291 2.42671 145.412 2.38875C145.451 2.37579 145.49 2.3545 145.542 2.35265C146.108 2.3295 146.675 2.30821 147.241 2.28692C147.418 2.31191 147.595 2.33599 147.773 2.36099C147.907 2.32581 148.036 2.2897 148.17 2.25452C149.026 2.22767 149.869 2.18601 150.733 2.17305C150.79 2.17212 150.85 2.18971 150.911 2.19897C151.313 2.2573 151.542 2.25267 151.797 2.1749C151.888 2.14712 151.965 2.12213 152.104 2.1175C152.532 2.10083 152.964 2.08972 153.388 2.07028C153.617 2.0601 153.807 2.06935 153.971 2.10268C154.088 2.12675 154.209 2.13694 154.351 2.13139C155.138 2.10361 155.92 2.07676 156.707 2.04714C156.763 2.04528 156.815 2.02954 156.858 2.01843C156.949 1.99436 157.027 1.96844 157.113 1.94345C157.23 1.95919 157.36 1.97122 157.455 1.99159C157.576 2.01566 157.688 2.01566 157.853 2.00918C160.991 1.89715 164.133 1.78791 167.271 1.67496C167.539 1.6657 167.656 1.70459 167.837 1.72496C167.898 1.73236 167.958 1.74162 168.023 1.74347C168.092 1.74532 168.166 1.73977 168.235 1.73699C170.591 1.65367 172.947 1.57127 175.302 1.48794C175.614 1.47683 175.614 1.47683 176.076 1.53424C176.132 1.54164 176.206 1.54998 176.266 1.5472C177.338 1.51109 178.41 1.47221 179.478 1.43518C179.616 1.43055 179.733 1.44536 179.858 1.46665C180.105 1.50831 180.122 1.50832 180.303 1.44721C180.39 1.41851 180.481 1.40092 180.623 1.39258C180.779 1.38333 180.904 1.38611 181.025 1.40278C181.198 1.42592 181.324 1.4648 181.587 1.45462C182.728 1.4111 183.874 1.375 185.011 1.33056C185.27 1.32038 185.408 1.35185 185.581 1.375C185.642 1.38333 185.698 1.39629 185.763 1.39907C185.828 1.40185 185.905 1.39536 185.975 1.39258C187.401 1.34259 188.832 1.29353 190.254 1.23983C190.522 1.22965 190.638 1.26945 190.82 1.28982C190.881 1.29723 190.95 1.31019 191.006 1.30834C191.862 1.27964 192.722 1.24908 193.578 1.21853C193.885 1.20742 193.885 1.20835 194.351 1.26482C194.408 1.27223 194.481 1.27964 194.542 1.27778C195.54 1.24353 196.543 1.20835 197.541 1.17317C197.848 1.16206 197.848 1.16206 198.734 1.2102C198.799 1.21391 198.868 1.21947 198.933 1.21762C200.074 1.17781 201.22 1.13892 202.361 1.09633C202.59 1.088 202.78 1.0954 202.945 1.12873C203.061 1.1528 203.182 1.16299 203.325 1.15744C204.609 1.11207 205.897 1.06856 207.176 1.02042C207.423 1.01116 207.583 1.03152 207.755 1.05837C207.812 1.06763 207.868 1.08059 207.933 1.08429C207.998 1.088 208.071 1.08429 208.14 1.08151C209.424 1.03615 210.712 0.993563 211.991 0.944495C212.251 0.934312 212.389 0.965787 212.562 0.988932C212.623 0.997265 212.687 1.01393 212.739 1.013C213.241 0.997266 213.742 0.983383 214.239 0.960238C214.507 0.947277 214.624 0.989856 214.805 1.01022C214.866 1.0167 214.935 1.0306 214.991 1.02875C216.063 0.992641 217.135 0.954685 218.203 0.915801C218.354 0.910246 218.466 0.918571 218.588 0.942642C218.747 0.975045 218.933 0.988007 219.167 0.977823C219.664 0.95653 220.165 0.941721 220.667 0.92413C220.961 0.913946 220.961 0.91395 221.86 0.962092C221.924 0.965795 221.994 0.971346 222.058 0.969494C222.914 0.939868 223.774 0.91117 224.626 0.878767C224.855 0.869509 225.045 0.877839 225.21 0.911168C225.326 0.935239 225.443 0.945428 225.59 0.939873C226.377 0.912099 227.159 0.884322 227.946 0.856548C228.231 0.846364 228.516 0.828769 228.802 0.828769C229.009 0.829695 229.16 0.874132 229.346 0.896352C229.398 0.902832 229.485 0.895434 229.554 0.893583C230.552 0.858402 231.555 0.825996 232.549 0.786186C232.808 0.776002 232.947 0.807478 233.12 0.830623C233.18 0.838955 233.245 0.855621 233.297 0.854695C233.656 0.844511 234.01 0.830622 234.369 0.818587C234.797 0.803774 235.229 0.792664 235.653 0.772296C235.998 0.755632 236.128 0.836174 236.405 0.838952C236.617 0.841729 236.833 0.825993 237.044 0.818587C237.472 0.803774 237.9 0.787111 238.328 0.77415C238.479 0.769521 238.596 0.754701 238.644 0.721372C238.652 0.714892 238.579 0.70101 238.531 0.692678C237.957 0.598246 237.956 0.598241 237.377 0.618609C237.019 0.63157 236.664 0.644534 236.305 0.655644C236.245 0.657495 236.176 0.650089 236.115 0.644534C235.942 0.628796 235.96 0.610281 236.106 0.576952C236.253 0.543623 236.366 0.502891 236.491 0.464933C236.668 0.489004 236.841 0.513066 237.019 0.537137C237.161 0.532508 237.304 0.526962 237.447 0.522333C238.16 0.498262 238.873 0.473263 239.586 0.451044C239.638 0.449192 239.703 0.467711 239.763 0.476969C239.936 0.503817 240.092 0.526956 240.343 0.516772C240.982 0.489924 241.626 0.470482 242.266 0.447337C242.547 0.437153 242.547 0.437154 243.04 0.494554C243.096 0.501034 243.169 0.508441 243.23 0.50659C243.874 0.485296 244.514 0.462154 245.158 0.439934C245.296 0.435305 245.43 0.44734 245.529 0.474189C245.568 0.485298 245.56 0.503811 245.724 0.655644C246.234 0.778776 246.584 0.765821 246.939 0.754711C247.09 0.750082 247.224 0.745449 247.323 0.726933C247.375 0.716749 247.44 0.701934 247.44 0.689898C247.44 0.68064 247.345 0.665824 247.284 0.663973C246.857 0.645457 246.45 0.684346 246.031 0.692678C245.836 0.696381 245.668 0.663978 245.633 0.611207C245.625 0.596394 245.612 0.580656 245.599 0.565843C245.586 0.55103 245.577 0.535292 245.564 0.520479C245.396 0.51585 245.296 0.532512 245.223 0.563989C245.162 0.589912 245.076 0.619538 244.959 0.633425C244.842 0.648238 244.682 0.645466 244.54 0.650095C244.401 0.654724 244.25 0.666758 244.12 0.660277C243.991 0.652871 243.887 0.626018 243.766 0.609353C243.71 0.601021 243.641 0.58899 243.584 0.590842C243.087 0.60658 242.595 0.622313 242.102 0.642681C241.842 0.653791 241.713 0.614913 241.549 0.590842C241.419 0.572325 241.289 0.576949 241.268 0.619536C241.211 0.721375 241.41 0.76396 241.851 0.744518C242.214 0.727853 242.543 0.725084 242.828 0.788039C242.867 0.796371 242.958 0.800073 243.014 0.798222C243.368 0.787112 243.718 0.773224 244.073 0.762114C244.138 0.760262 244.207 0.76396 244.267 0.767663C245.149 0.817656 245.149 0.818587 245.447 0.807478C245.59 0.801923 245.728 0.797293 245.715 0.65657C245.988 0.505664 246.42 0.495481 246.839 0.473262C247.112 0.459375 247.228 0.500112 247.405 0.521406C247.466 0.528812 247.531 0.543623 247.587 0.541771C248.516 0.511219 249.441 0.478811 250.366 0.444557C250.522 0.439002 250.634 0.444557 250.755 0.468628C250.911 0.49918 251.084 0.518626 251.33 0.507516C251.823 0.485297 252.324 0.471413 252.826 0.452897C253.081 0.443639 253.081 0.443629 253.595 0.501029C253.651 0.50751 253.725 0.514917 253.785 0.513065C254.287 0.497327 254.784 0.477891 255.281 0.461226C255.419 0.456597 255.545 0.469557 255.653 0.494554C255.761 0.519551 255.89 0.532511 256.024 0.527882C256.526 0.511217 257.023 0.492707 257.52 0.476042C257.581 0.474191 257.654 0.480671 257.71 0.487151C258.238 0.544552 258.238 0.544542 258.48 0.535284C258.834 0.521397 259.197 0.514923 259.547 0.496407C259.889 0.477891 260.066 0.531583 260.299 0.561209C260.939 0.539916 261.583 0.52233 262.218 0.496407C262.478 0.485298 262.616 0.515846 262.789 0.539918C262.85 0.54825 262.91 0.565842 262.966 0.564916C263.182 0.561213 263.394 0.551031 263.606 0.543624C263.818 0.536218 264.034 0.528812 264.246 0.521406C264.488 0.548254 264.648 0.611208 264.994 0.589915C265.201 0.576953 265.421 0.574176 265.633 0.56677C265.845 0.559363 266.061 0.551958 266.273 0.544551C266.416 0.539922 266.563 0.537141 266.701 0.528808C266.956 0.514921 267.081 0.560291 267.263 0.580659C267.323 0.58714 267.393 0.598242 267.449 0.59639C267.877 0.583429 268.309 0.57232 268.728 0.551027C269.052 0.534362 269.273 0.56214 269.502 0.601024C269.549 0.609356 269.632 0.613985 269.692 0.612133C270.193 0.596395 270.691 0.576947 271.188 0.560283C271.322 0.555654 271.451 0.570466 271.559 0.594537C271.672 0.619534 271.797 0.631578 271.935 0.626949C272.432 0.610285 272.934 0.591763 273.431 0.575099C273.492 0.573247 273.565 0.580655 273.621 0.588061C274.105 0.645461 274.105 0.646388 274.391 0.635279C274.46 0.632501 274.533 0.630642 274.602 0.627865C274.957 0.614903 275.324 0.610281 275.67 0.588061C276.068 0.563065 276.357 0.594543 276.638 0.647314C276.993 0.636205 277.356 0.629723 277.702 0.611207C277.961 0.597319 278.099 0.632498 278.272 0.655644C278.333 0.663976 278.397 0.68064 278.449 0.678789C278.951 0.66305 279.452 0.649168 279.945 0.626023C280.213 0.613061 280.33 0.654715 280.511 0.676009C280.572 0.683415 280.637 0.696383 280.693 0.694532C280.978 0.687125 281.263 0.67601 281.549 0.665826C281.881 0.653791 281.881 0.654716 282.322 0.71119C282.53 0.738038 282.737 0.716744 282.94 0.710263C283.157 0.702857 283.36 0.697304 283.533 0.735262C283.641 0.759333 283.77 0.774146 283.904 0.770443C284.19 0.762111 284.479 0.753782 284.76 0.739895C284.985 0.728786 285.179 0.736188 285.344 0.770443C285.46 0.794514 285.581 0.806557 285.724 0.801002C286.364 0.778782 287.008 0.755629 287.648 0.734335C287.704 0.732483 287.782 0.740819 287.833 0.749151C287.954 0.765816 288.071 0.784328 288.188 0.802844C288.469 0.794512 288.758 0.790818 289.035 0.777857C289.329 0.764895 289.597 0.760265 289.826 0.811184C289.874 0.822294 289.943 0.838024 289.999 0.837098C290.215 0.833395 290.427 0.82414 290.639 0.816733C290.85 0.809327 291.067 0.801921 291.278 0.794515C291.525 0.81766 291.68 0.884317 292.026 0.863024C292.234 0.850062 292.454 0.847285 292.666 0.839879C292.878 0.832472 293.094 0.824141 293.306 0.81766C293.375 0.815809 293.453 0.811177 293.513 0.81488C293.578 0.818583 293.634 0.831547 293.69 0.840805C293.863 0.867654 294.023 0.894505 294.27 0.878767C294.477 0.865805 294.698 0.863027 294.909 0.854695C295.199 0.844511 295.199 0.844513 295.679 0.902839C295.873 0.92691 296.094 0.895433 296.28 0.915801C296.405 0.929688 296.513 0.952829 296.634 0.968567C296.686 0.975048 296.768 0.977821 296.829 0.97597C297.114 0.967637 297.403 0.959309 297.684 0.945422C297.913 0.934312 298.104 0.945421 298.264 0.97875C298.38 1.00282 298.497 1.01301 298.644 1.00746C299.357 0.981533 300.07 0.959306 300.779 0.930606C301.021 0.920422 301.216 0.936165 301.35 0.969494C301.579 1.02689 301.903 0.959312 302.141 1.0056C302.288 1.0343 302.435 1.06763 302.703 1.05375C303.196 1.02967 303.697 1.01671 304.194 1.00004C304.371 1.02504 304.548 1.05004 304.73 1.07504C305.015 1.06485 305.301 1.05466 305.586 1.04541C305.798 1.038 306.014 1.02967 306.226 1.02319C306.295 1.02134 306.368 1.01763 306.433 1.02226C306.498 1.02689 306.55 1.03893 306.61 1.04819C306.909 1.09355 306.908 1.09448 307.401 1.07596C307.613 1.06763 307.816 1.06208 307.993 1.09911C308.158 1.13336 308.352 1.13984 308.577 1.12966C309.001 1.11114 309.429 1.09725 309.861 1.08429C309.995 1.07966 310.12 1.0954 310.232 1.11947C310.401 1.15743 310.609 1.15373 310.82 1.14355C311.101 1.13059 311.378 1.11763 311.616 1.16947C311.663 1.18058 311.737 1.19631 311.789 1.19539C312.143 1.18798 312.502 1.18243 312.848 1.16484C313.193 1.14725 313.362 1.20465 313.6 1.23242C313.954 1.22039 314.313 1.20835 314.667 1.19631C314.736 1.19354 314.819 1.18521 314.879 1.18984C315.134 1.20928 315.281 1.27871 315.631 1.25742C315.834 1.24538 316.055 1.24168 316.267 1.23891C316.323 1.23798 316.396 1.25371 316.435 1.26575C316.457 1.27223 316.435 1.28982 316.409 1.29908C316.331 1.325 316.236 1.34908 316.167 1.37593C316.159 1.37963 316.241 1.39629 316.288 1.40369C316.405 1.42036 316.539 1.41759 316.695 1.41018C316.829 1.4037 316.967 1.41666 317.062 1.44443C317.101 1.45554 317.088 1.47406 317.006 1.53516C317.006 1.58053 317.097 1.56015 317.127 1.53053C317.174 1.48794 317.084 1.47406 316.911 1.4972C316.79 1.51386 316.729 1.53794 316.759 1.55738C316.777 1.56756 316.859 1.58053 317.006 1.53516C317.386 1.47961 317.671 1.46943 317.957 1.45925C318.03 1.45647 318.117 1.44721 318.169 1.45276C318.354 1.47498 318.527 1.50184 318.709 1.52683C318.916 1.52128 319.111 1.50738 319.314 1.54349C319.599 1.59441 319.612 1.58978 319.889 1.5796C320.032 1.57404 320.174 1.56942 320.317 1.56479C320.459 1.56016 320.572 1.57405 320.697 1.59534C320.952 1.63885 320.974 1.63885 321.142 1.5796C321.242 1.54349 321.311 1.53146 321.436 1.54812C321.851 1.6046 321.856 1.6083 322.21 1.59163C322.504 1.57775 322.781 1.57404 322.997 1.62682C323.144 1.66385 323.191 1.65552 323.308 1.61663C323.619 1.51387 323.762 1.51572 324.345 1.58978C324.618 1.62496 324.899 1.58701 325.175 1.58238C325.409 1.57868 325.573 1.60089 325.59 1.65922C325.603 1.69532 325.642 1.72125 325.798 1.73329C325.858 1.73792 325.932 1.74439 325.992 1.74254C326.351 1.73143 326.705 1.71847 327.064 1.70551C327.246 1.69903 327.345 1.65552 327.311 1.59812C327.272 1.53702 327.341 1.51479 327.6 1.4972C327.756 1.48702 327.881 1.48888 328.007 1.50554C328.145 1.52406 328.106 1.54072 327.985 1.57405C327.695 1.65552 327.73 1.70551 328.102 1.76198C328.231 1.78142 328.335 1.79902 328.365 1.82772C328.383 1.84253 328.365 1.86197 328.404 1.87308C328.616 1.93511 328.91 1.97493 329.238 2.00455C329.554 1.97956 329.77 2.02121 330.012 2.05454C330.202 2.08046 330.427 2.05825 330.63 2.04899C330.859 2.03881 331.049 2.04621 331.214 2.08046C331.33 2.10454 331.451 2.11564 331.594 2.11101C331.879 2.10083 332.169 2.09435 332.45 2.07954C332.692 2.06658 332.874 2.08509 333.025 2.11657C333.215 2.15638 333.427 2.12953 333.626 2.13508C333.894 2.14156 334.028 2.22396 334.378 2.20174C334.585 2.18878 334.801 2.18415 335.018 2.18045C335.074 2.17952 335.143 2.19526 335.19 2.20637C335.419 2.25729 335.688 2.25451 335.981 2.2397C336.185 2.22952 336.383 2.22026 336.582 2.25544C336.911 2.3147 337.274 2.36654 337.62 2.42117C337.667 2.46375 337.633 2.51374 337.879 2.53874C338.009 2.5517 338.13 2.57115 338.229 2.59244C338.35 2.61744 338.462 2.62392 338.618 2.61744C338.899 2.60448 339.193 2.60169 339.47 2.58503C339.725 2.57021 339.885 2.60077 340.04 2.62947C340.166 2.65262 340.282 2.66372 340.434 2.64706C340.589 2.63132 340.702 2.6415 340.827 2.6665C341.004 2.70075 341.017 2.69705 341.605 2.70724C341.665 2.70816 341.739 2.72204 341.773 2.73408C341.791 2.74056 341.752 2.75909 341.722 2.76835C341.683 2.77945 341.622 2.79241 341.566 2.79519C340.926 2.81926 340.282 2.84055 339.643 2.86462C339.578 2.8674 339.509 2.87389 339.461 2.88314C339.409 2.89333 339.344 2.90721 339.344 2.92017C339.344 2.92943 339.431 2.94054 339.491 2.94702C339.681 2.96831 339.906 2.93591 340.092 2.95998C340.217 2.97572 340.321 2.99794 340.446 3.01275C340.498 3.01923 340.581 3.01831 340.645 3.01646C340.862 3.00997 341.073 3.00072 341.289 2.99516C341.35 2.99424 341.419 3.0035 341.475 3.01091C341.89 3.06645 341.89 3.06645 342.249 3.05442C342.392 3.04979 342.543 3.0359 342.677 3.04145C342.807 3.04701 342.919 3.07201 343.036 3.08774C343.278 3.12107 343.507 3.15348 343.524 3.22569C343.533 3.25346 343.675 3.27753 343.818 3.27938C343.956 3.28123 344.103 3.27106 344.246 3.2655C344.583 3.25439 344.583 3.25439 345.02 3.31087C345.141 3.32661 345.27 3.32845 345.426 3.3192C345.486 3.31549 345.56 3.3192 345.625 3.32383C345.837 3.33772 345.837 3.3553 345.698 3.38863C345.504 3.4377 345.521 3.44233 346.066 3.48399C346.273 3.49973 346.433 3.52936 346.606 3.55528C346.887 3.59694 346.883 3.59694 346.697 3.65156C346.654 3.66359 346.615 3.67656 346.571 3.68952C346.446 3.72563 346.347 3.76451 346.087 3.76821C345.802 3.77191 345.517 3.78673 345.231 3.79692C344.955 3.8071 344.881 3.82931 344.907 3.89227C344.938 3.96818 344.994 3.97652 345.491 3.97559C345.634 3.97559 345.759 3.983 345.867 4.00799C345.815 4.03762 345.72 4.06076 345.582 4.06632C345.227 4.08021 344.868 4.09224 344.514 4.10428C344.229 4.11446 343.943 4.12464 343.658 4.13483C343.481 4.14131 343.369 4.18945 343.416 4.24315C343.442 4.2737 343.464 4.30425 343.485 4.33481C343.533 4.39591 343.624 4.41165 343.913 4.40887C343.987 4.40795 344.056 4.40054 344.125 4.40239C344.406 4.40887 344.54 4.48571 344.877 4.46997C345.158 4.45701 345.452 4.45423 345.729 4.43757C345.984 4.42276 346.126 4.45609 346.303 4.48109C346.364 4.48942 346.429 4.507 346.481 4.50608C346.84 4.49589 347.198 4.48572 347.548 4.46813C347.713 4.46072 347.812 4.46627 347.942 4.48849C348.253 4.54219 348.262 4.53941 348.724 4.52275C349.061 4.50979 349.066 4.51164 349.498 4.56811C349.619 4.58385 349.748 4.58385 349.904 4.57644C350.107 4.56718 350.319 4.55237 350.531 4.56626C350.596 4.56996 350.678 4.58107 350.699 4.59311C350.712 4.60144 350.652 4.62181 350.6 4.62829C350.22 4.67643 349.774 4.6681 349.359 4.68754C349.23 4.6931 349.1 4.67551 348.992 4.65051C348.88 4.62551 348.759 4.61533 348.612 4.61996C348.326 4.63015 348.037 4.63662 347.756 4.65144C347.514 4.6644 347.345 4.6431 347.177 4.6144C347.12 4.60514 347.056 4.58755 346.999 4.58848C346.36 4.60699 345.716 4.62551 345.08 4.65144C344.825 4.66255 344.678 4.63292 344.505 4.60793C344.445 4.59959 344.384 4.582 344.328 4.58293C344.112 4.58663 343.9 4.59681 343.684 4.60422C342.897 4.63199 342.115 4.65977 341.328 4.68569C341.276 4.68754 341.212 4.6681 341.151 4.65977C341.034 4.6431 340.913 4.62736 340.792 4.61162C340.576 4.61903 340.364 4.62829 340.148 4.63384C339.993 4.63754 339.854 4.65051 339.833 4.68569C339.82 4.70884 339.962 4.73013 340.114 4.72827C340.261 4.72642 340.408 4.71531 340.529 4.72735C341.13 4.7866 341.13 4.78753 341.506 4.77549C341.834 4.76438 341.799 4.75512 342.089 4.80604C342.214 4.82826 342.327 4.84123 342.469 4.83567C342.824 4.82271 343.183 4.80975 343.541 4.79864C343.598 4.79679 343.671 4.80605 343.727 4.81345C344.151 4.869 344.151 4.87085 344.501 4.85696C344.959 4.8403 344.977 4.83567 345.283 4.89214C345.495 4.93103 345.69 4.90418 345.893 4.90233C346.126 4.93843 346.381 4.97084 346.593 5.01158C346.844 5.05972 347.107 5.05138 347.393 5.03749C347.605 5.02731 347.812 5.02361 347.985 5.06156C348.149 5.09674 348.348 5.10045 348.573 5.0912C348.776 5.08286 348.983 5.06527 349.195 5.08564C349.251 5.09119 349.338 5.10508 349.333 5.11341C349.329 5.12638 349.273 5.14489 349.217 5.15045C348.819 5.18841 348.383 5.18748 347.963 5.20507C347.907 5.20785 347.834 5.19766 347.777 5.19025C347.656 5.17359 347.54 5.15415 347.423 5.13656C347.211 5.14211 346.995 5.14396 346.788 5.15507C346.628 5.1634 346.507 5.16249 346.39 5.14027C346.282 5.1199 346.165 5.0949 346.035 5.08842C345.906 5.08193 345.755 5.09582 345.612 5.10138C345.469 5.10693 345.305 5.10415 345.193 5.11896C345.08 5.13378 345.011 5.16618 344.938 5.19211C344.855 5.22081 344.743 5.23007 344.579 5.23285C344.427 5.23562 344.307 5.23192 344.194 5.206C344.147 5.19489 344.082 5.18655 344.017 5.17914C343.956 5.17266 343.887 5.16248 343.831 5.16433C343.187 5.18562 342.547 5.20877 341.903 5.23099C341.583 5.2421 341.588 5.24209 340.922 5.18747C340.861 5.18284 340.788 5.17636 340.728 5.17822C340.369 5.18933 340.014 5.20229 339.656 5.21525C339.292 5.22821 339.297 5.22636 338.679 5.16803C338.566 5.15692 338.402 5.17174 338.268 5.16989C337.987 5.16526 337.849 5.08749 337.52 5.1023C337.239 5.11527 336.945 5.11804 336.664 5.13471C336.409 5.14952 336.262 5.11712 336.09 5.09212C336.029 5.08379 335.964 5.06527 335.912 5.06712C335.268 5.08749 334.628 5.11064 333.773 5.11341C333.561 5.11341 333.656 5.13286 333.794 5.13934C333.993 5.14952 334.058 5.13008 333.95 5.09305C333.872 5.06713 333.76 5.05416 333.669 5.06064C333.621 5.06434 333.561 5.08194 333.773 5.11341C333.997 5.14859 333.984 5.16803 334.023 5.17914C334.118 5.20599 334.252 5.2171 334.391 5.2134C334.607 5.20692 334.819 5.19766 335.035 5.19211C335.095 5.19025 335.169 5.19673 335.225 5.20414C335.7 5.26154 335.705 5.26525 336.211 5.24303C336.37 5.23655 336.487 5.23655 336.613 5.25414C336.785 5.27821 336.911 5.31894 337.174 5.30598C337.525 5.28839 337.883 5.27821 338.242 5.26803C338.298 5.26618 338.359 5.28284 338.424 5.29025C338.601 5.31247 338.731 5.35413 338.994 5.33654C339.197 5.32265 339.418 5.31894 339.634 5.31616C339.69 5.31523 339.776 5.33005 339.802 5.34209C339.854 5.36338 339.79 5.38838 339.643 5.40597C339.582 5.41338 339.5 5.41152 339.431 5.4143C339.145 5.42449 338.86 5.43559 338.575 5.44392C338.424 5.44855 338.281 5.46245 338.264 5.4967C338.251 5.51985 338.406 5.54021 338.553 5.53836C338.769 5.53558 338.986 5.52817 339.193 5.51614C339.56 5.49577 339.88 5.50132 340.179 5.55965C340.39 5.60038 340.377 5.58558 340.602 5.70593C340.658 5.73649 340.827 5.73926 340.974 5.73741C341.328 5.73278 341.493 5.74667 341.462 5.77537C341.423 5.81055 341.298 5.82165 341.138 5.82628C340.853 5.83369 340.568 5.84573 340.282 5.85591C340.213 5.85869 340.135 5.86424 340.07 5.86239C340.006 5.86054 339.945 5.84943 339.889 5.8411C339.768 5.82351 339.664 5.79665 339.534 5.79017C339.405 5.78369 339.254 5.79758 339.111 5.80314C338.968 5.80777 338.817 5.82165 338.687 5.81517C338.558 5.80869 338.45 5.78092 338.333 5.76426C338.277 5.75593 338.208 5.74296 338.151 5.74388C337.866 5.75129 337.581 5.76333 337.296 5.77259C336.945 5.78462 336.945 5.78463 336.522 5.72723C336.401 5.71056 336.275 5.71149 336.115 5.7189C335.77 5.73371 335.765 5.73093 335.134 5.67723C335.074 5.67167 335 5.66519 334.94 5.66797C334.296 5.68927 333.656 5.71241 333.016 5.73463C332.467 5.75407 332.467 5.75408 332.165 5.84666C331.94 5.91517 331.936 5.91516 332.156 5.94664C332.333 5.97256 332.493 6.01052 332.688 6.02441C332.869 6.03737 333.094 5.99571 333.293 6.0383C333.392 6.05959 333.522 6.08274 333.647 6.08644C333.846 6.09107 334.058 6.06422 334.248 6.10495C334.343 6.12532 334.486 6.14662 334.607 6.14755C334.819 6.1494 335.035 6.13458 335.247 6.1281C335.311 6.12625 335.385 6.12625 335.445 6.13088C335.51 6.13643 335.566 6.14754 335.623 6.1568C335.796 6.18828 335.981 6.20309 336.206 6.18735C336.574 6.16143 336.902 6.17439 337.187 6.23364C337.226 6.24197 337.321 6.2429 337.382 6.2392C337.538 6.22994 337.672 6.22901 337.788 6.2466C337.836 6.25401 337.905 6.26696 337.896 6.2753C337.883 6.28918 337.831 6.3077 337.775 6.31233C337.369 6.34381 336.932 6.34752 336.513 6.36418C336.457 6.36603 336.388 6.35399 336.332 6.34566C336.211 6.32899 336.107 6.30123 335.977 6.29475C335.847 6.28827 335.696 6.3003 335.554 6.30493C335.411 6.30956 335.26 6.32345 335.13 6.31789C335 6.31141 334.879 6.28826 334.775 6.26789C334.654 6.24475 334.538 6.24198 334.378 6.25124C334.17 6.26327 333.954 6.26512 333.742 6.2716C333.626 6.25401 333.509 6.23456 333.388 6.2179C333.332 6.20957 333.263 6.19939 333.202 6.20031C332.917 6.20772 332.631 6.21882 332.346 6.22901C332.061 6.23919 332.061 6.2392 331.577 6.1818C331.521 6.17532 331.447 6.16791 331.387 6.16976C331.028 6.18087 330.673 6.19475 330.315 6.20586C330.176 6.21049 330.051 6.19753 329.939 6.17253C329.831 6.14754 329.701 6.13365 329.567 6.13828C328.996 6.15772 328.426 6.17624 327.855 6.19939C327.626 6.20864 327.432 6.20031 327.276 6.16698C327.094 6.12903 326.891 6.13829 326.679 6.14569C326.2 6.16421 326.195 6.16328 325.888 6.11606C325.828 6.1068 325.767 6.08921 325.711 6.09014C325.214 6.10402 324.713 6.11699 324.22 6.13921C323.961 6.15124 323.822 6.11884 323.649 6.09477C323.589 6.08644 323.524 6.06885 323.472 6.0707C323.113 6.08088 322.755 6.09014 322.405 6.10866C322.054 6.12717 321.92 6.04108 321.657 6.042C321.298 6.04293 320.944 6.06422 320.589 6.07718C320.304 6.08737 320.019 6.09755 319.733 6.10773C319.448 6.11792 319.163 6.12624 318.877 6.13828C318.726 6.14476 318.614 6.13643 318.488 6.11328C318.328 6.08273 318.138 6.05867 317.965 6.03089C317.702 5.99108 317.702 5.99108 317.382 6.00219C317.313 6.00497 317.239 6.00681 317.17 6.00959C316.647 6.02996 316.647 6.02811 315.981 5.96979C315.951 5.96701 315.873 5.9772 315.843 5.9846C315.752 6.00867 315.67 6.03459 315.588 6.05959C315.471 6.04477 315.329 6.03644 315.251 6.01515C315.03 5.95497 314.685 6.03737 314.46 5.97812C314.378 5.9559 314.235 5.93645 314.105 5.9309C313.971 5.92534 313.82 5.93831 313.682 5.94386C313.323 5.95775 313.323 5.95683 313.016 6.03922C312.861 6.07996 312.636 6.07255 312.433 6.08181C312.221 6.09199 312.018 6.09755 311.84 6.05959C311.68 6.02533 311.486 6.017 311.257 6.02811C310.976 6.042 310.686 6.05033 310.401 6.05866C310.341 6.06051 310.267 6.05589 310.207 6.05033C309.545 5.99571 309.545 5.99479 309.225 6.00682C309.083 6.01238 308.936 6.01422 308.797 6.02255C308.564 6.03737 308.387 6.01792 308.218 5.9883C308.162 5.97904 308.097 5.96146 308.041 5.96238C307.756 5.96701 307.475 5.97534 307.194 5.98368C306.978 5.99016 306.762 5.99386 306.554 6.00682C306.208 6.02812 306.04 5.96793 305.802 5.94015C305.448 5.95219 305.089 5.96052 304.734 5.97719C304.57 5.9846 304.462 5.98182 304.337 5.9596C304.177 5.93183 304.03 5.90035 303.77 5.91424C303.425 5.93276 303.062 5.93924 302.707 5.95035C302.469 5.92165 302.296 5.86332 301.955 5.88461C301.748 5.89757 301.527 5.90035 301.315 5.90775C301.03 5.91794 300.745 5.9272 300.459 5.93831C300.153 5.94942 300.157 5.94664 299.686 5.89202C299.413 5.85962 299.132 5.89572 298.856 5.90128C298.64 5.90591 298.532 5.94849 298.583 6.00311C298.635 6.05774 298.519 6.10033 298.32 6.10773C297.823 6.12532 297.321 6.14383 296.824 6.15957C296.764 6.16142 296.69 6.15494 296.634 6.14846C296.102 6.09014 296.102 6.09107 295.865 6.0994C295.51 6.11329 295.147 6.12069 294.797 6.13828C294.555 6.15031 294.378 6.13088 294.222 6.0994C294.101 6.07533 293.989 6.06978 293.833 6.07533C292.121 6.13736 290.41 6.19476 288.702 6.25864C288.447 6.2679 288.3 6.24105 288.127 6.21606C288.067 6.20772 288.011 6.19013 287.95 6.19013C287.807 6.19013 287.665 6.19846 287.522 6.20402C286.882 6.22624 286.243 6.25308 285.599 6.26975C285.326 6.27715 285.253 6.31975 285.136 6.35493C285.045 6.38177 284.942 6.39288 284.782 6.39658C284.626 6.40029 284.514 6.39566 284.393 6.37158C284.237 6.34011 284.06 6.32066 283.818 6.33362C283.537 6.34844 283.252 6.35492 282.962 6.36511C282.815 6.36974 282.703 6.3864 282.655 6.41973C282.646 6.42528 282.737 6.43917 282.789 6.44751C282.962 6.47528 283.126 6.50768 283.321 6.52713C283.52 6.54657 283.736 6.52434 283.943 6.51878C284.017 6.51693 284.086 6.51138 284.155 6.51231C284.22 6.51323 284.298 6.51787 284.345 6.5262C284.57 6.56786 284.808 6.59656 285.119 6.57156C285.387 6.5836 285.525 6.66044 285.867 6.64007C286.074 6.62804 286.29 6.62248 286.507 6.61785C286.563 6.61693 286.623 6.63359 286.684 6.64192C286.857 6.66507 286.995 6.7021 287.254 6.68636C287.531 6.6697 287.825 6.66692 288.106 6.65396C288.261 6.64655 288.374 6.65303 288.495 6.67711C288.65 6.70766 288.828 6.7308 289.07 6.71598C289.277 6.70302 289.498 6.70024 289.709 6.69191C289.986 6.68173 289.986 6.68265 290.479 6.74005C290.535 6.74653 290.608 6.75394 290.669 6.75209C291.028 6.74098 291.382 6.72709 291.741 6.71598C291.879 6.71135 292.013 6.72339 292.108 6.75024C292.147 6.76135 292.134 6.77987 292.147 6.79561C291.434 6.82061 290.721 6.8419 290.012 6.87245C289.744 6.88449 289.623 6.84653 289.446 6.82523C289.385 6.81783 289.32 6.80209 289.264 6.80394C288.763 6.81968 288.266 6.83634 287.769 6.85671C287.613 6.86319 287.496 6.85948 287.38 6.83264C287.081 6.76135 286.718 6.80023 286.381 6.81042C286.122 6.81782 286.04 6.84653 286.07 6.90763C286.109 6.97984 286.264 7.00206 286.662 6.9891C286.805 6.98447 286.947 6.97799 287.09 6.97429C287.228 6.97058 287.354 6.98262 287.466 7.00761C287.574 7.03261 287.704 7.04557 287.838 7.04187C288.123 7.03354 288.413 7.02521 288.689 7.01132C288.918 7.00021 289.109 7.00947 289.269 7.04372C289.446 7.08168 289.653 7.07335 289.861 7.06501C290.345 7.0465 290.349 7.04743 290.652 7.09372C290.712 7.10298 290.773 7.12057 290.829 7.11964C291.326 7.10576 291.827 7.09372 292.316 7.0715C292.571 7.06039 292.718 7.09001 292.886 7.11408C292.947 7.12242 293.007 7.14093 293.064 7.13908C293.422 7.1289 293.781 7.11871 294.131 7.10112C294.296 7.09279 294.395 7.09834 294.529 7.12056C294.849 7.17518 294.857 7.17333 295.311 7.15574C295.45 7.15019 295.601 7.14001 295.731 7.14741C295.86 7.15482 295.964 7.18167 296.085 7.19834C296.141 7.20574 296.21 7.21592 296.271 7.21407C296.556 7.20666 296.841 7.19556 297.127 7.18537C297.395 7.17519 297.395 7.17612 297.896 7.23352C298.099 7.25759 298.311 7.23722 298.514 7.22981C298.735 7.22148 298.934 7.22148 299.102 7.25759C299.271 7.2937 299.474 7.29184 299.69 7.28443C299.893 7.27702 300.101 7.25666 300.308 7.28166C300.784 7.33906 300.784 7.33998 301.078 7.32887C301.505 7.31313 301.929 7.29832 302.361 7.28443C302.417 7.28258 302.491 7.29369 302.547 7.3011C302.668 7.31776 302.772 7.34553 302.902 7.35201C303.031 7.35942 303.183 7.34831 303.321 7.34276C303.766 7.32517 303.796 7.31869 304.095 7.37979C304.345 7.42978 304.657 7.35757 304.89 7.41497C305.024 7.44738 305.205 7.47329 305.456 7.45756C305.664 7.44459 305.88 7.44089 306.096 7.43348C306.437 7.42145 306.437 7.42238 306.87 7.47793C306.926 7.48534 306.999 7.49459 307.055 7.49274C307.341 7.48533 307.63 7.47885 307.907 7.46219C308.231 7.44275 308.439 7.47793 308.681 7.51219C308.871 7.53904 309.096 7.51681 309.299 7.50755C309.519 7.4983 309.718 7.50107 309.882 7.53717C310.055 7.57421 310.258 7.56958 310.475 7.56217C310.678 7.55569 310.885 7.5344 311.093 7.56032C311.538 7.61772 311.538 7.61772 311.862 7.60661C312.147 7.59643 312.433 7.58532 312.718 7.57792C312.774 7.57606 312.843 7.5881 312.899 7.59643C313.02 7.61309 313.124 7.64087 313.254 7.64735C313.384 7.65383 313.535 7.6418 313.677 7.63717C313.82 7.63254 313.971 7.61865 314.101 7.62421C314.231 7.62976 314.352 7.65291 314.456 7.67328C314.577 7.69735 314.689 7.70012 314.853 7.69086C315.061 7.67883 315.277 7.67605 315.489 7.66957C315.605 7.68716 315.726 7.70475 315.839 7.72419C315.955 7.74456 316.081 7.74271 316.241 7.73623C316.772 7.71401 316.777 7.71679 317.222 7.77419C317.425 7.80011 317.637 7.77881 317.84 7.77233C318.056 7.76493 318.259 7.76123 318.428 7.79826C318.592 7.83344 318.795 7.83806 319.011 7.82695C319.15 7.81955 319.297 7.81493 319.439 7.81215C319.504 7.81122 319.582 7.81492 319.63 7.82233C319.859 7.86121 320.083 7.8964 320.399 7.8714C320.676 7.87881 320.814 7.95472 321.147 7.93991C321.428 7.92695 321.722 7.92416 321.998 7.9075C322.253 7.89268 322.435 7.91862 322.564 7.95102C322.798 8.00842 323.126 7.93065 323.36 7.98713C323.494 8.01953 323.667 8.04545 323.926 8.03156C324.211 8.01675 324.302 8.03619 324.384 8.09451C324.432 8.12784 324.423 8.1547 324.337 8.18062C324.25 8.20747 324.155 8.20284 324.017 8.17229C323.857 8.13803 323.667 8.13154 323.438 8.13895C323.213 8.14636 323.075 8.09822 322.889 8.07971C322.703 8.06027 322.482 8.09267 322.288 8.06767C321.83 8.00935 321.83 8.00935 321.518 8.02045C321.307 8.02786 321.086 8.03157 320.879 8.04453C320.632 8.06027 320.472 8.03156 320.304 8.00564C320.243 7.99638 320.183 7.97879 320.131 7.97971C319.634 7.9936 319.132 8.00657 318.64 8.02971C318.38 8.04175 318.242 8.00842 318.069 7.98527C318.009 7.97694 317.944 7.96028 317.892 7.96213C317.464 7.97509 317.04 7.99175 316.612 8.00749C316.53 8.03249 316.44 8.05655 316.362 8.0834C316.28 8.11118 316.167 8.12322 316.003 8.12229C315.731 8.12229 315.463 8.16118 315.19 8.11211C314.909 8.06212 314.888 8.06489 314.616 8.07693C314.27 8.09267 313.902 8.08896 313.578 8.12507C313.522 8.13155 313.461 8.14913 313.461 8.1621C313.457 8.17043 313.548 8.18247 313.604 8.18987C313.794 8.21209 314.015 8.17969 314.205 8.20284C314.33 8.21765 314.434 8.23986 314.559 8.2556C314.611 8.26208 314.689 8.26116 314.758 8.26024C314.832 8.25931 314.901 8.25283 314.97 8.25376C315.035 8.25469 315.104 8.26023 315.156 8.26857C315.394 8.30375 315.644 8.33615 315.856 8.37782C316.063 8.41855 316.258 8.39078 316.465 8.38892C317.295 8.45373 317.295 8.45466 317.853 8.43429C317.991 8.42966 318.134 8.42411 318.277 8.42503C318.337 8.42503 318.393 8.44169 318.454 8.45095C318.627 8.47872 318.791 8.50372 319.033 8.48891C319.241 8.47595 319.461 8.47317 319.673 8.46484C319.958 8.45465 319.958 8.45465 320.442 8.51298C320.563 8.52779 320.693 8.52595 320.848 8.51854C320.982 8.51206 321.121 8.52595 321.216 8.55279C321.255 8.5639 321.242 8.58242 321.255 8.59816C320.827 8.61297 320.395 8.62316 319.98 8.64538C319.712 8.65926 319.591 8.61945 319.413 8.59816C319.353 8.59075 319.288 8.57502 319.232 8.57687C318.808 8.59075 318.385 8.60648 317.961 8.625C317.909 8.62685 317.844 8.64815 317.84 8.66111C317.831 8.68518 317.939 8.70832 318.095 8.7074C318.302 8.70647 318.506 8.69073 318.692 8.72869C318.847 8.76202 319.042 8.77684 319.271 8.76203C319.409 8.7537 319.556 8.75369 319.694 8.74629C320.062 8.72407 320.395 8.72869 320.671 8.79165C320.883 8.80831 321.091 8.79258 321.294 8.78425C321.445 8.77777 321.592 8.77128 321.7 8.78887C321.929 8.8259 322.154 8.86294 322.469 8.83794C322.811 8.86386 323.07 8.91848 323.356 8.96292C323.49 8.98421 323.593 8.99626 323.749 8.98237C323.814 8.97682 323.891 8.97681 323.961 8.97403C324.103 8.9694 324.255 8.95551 324.384 8.96107C324.514 8.96755 324.622 8.9944 324.739 9.01107C324.795 9.0194 324.86 9.03328 324.916 9.03236C325.132 9.02773 325.344 9.01847 325.556 9.01107C325.767 9.00458 325.979 8.99811 326.191 8.99163C326.368 9.0157 326.55 9.03977 326.727 9.06384C327.012 9.05366 327.298 9.04347 327.579 9.03421C327.894 9.0231 327.894 9.02403 328.348 9.08143C328.551 9.10735 328.767 9.09068 328.962 9.07865C329.286 9.05921 329.502 9.09439 329.731 9.13142C329.779 9.13883 329.865 9.14346 329.921 9.13975C330.146 9.12679 330.341 9.13697 330.505 9.17123C330.622 9.1953 330.738 9.20642 330.881 9.20179C331.378 9.1842 331.875 9.16568 332.372 9.14994C332.433 9.14808 332.502 9.15642 332.558 9.16383C332.999 9.2203 333.003 9.22308 333.327 9.20826C333.617 9.1953 333.885 9.18974 334.114 9.24066C334.162 9.25177 334.235 9.26752 334.287 9.26659C334.641 9.25733 335 9.24715 335.35 9.23141C335.51 9.224 335.623 9.22678 335.748 9.24808C335.908 9.27493 336.051 9.30733 336.314 9.29529C337.045 9.26104 337.049 9.26658 337.914 9.33047C337.974 9.33509 338.056 9.32769 338.125 9.32399C338.272 9.31473 338.38 9.32769 338.51 9.34899C338.8 9.39713 338.808 9.39435 339.085 9.38417C339.297 9.37584 339.517 9.37398 339.725 9.3601C340.045 9.33973 340.256 9.37584 340.494 9.41009C340.684 9.43694 340.905 9.41472 341.108 9.40639C341.328 9.39713 341.527 9.3999 341.691 9.43508C341.804 9.45915 341.925 9.47212 342.067 9.46749C342.564 9.45083 343.062 9.43231 343.559 9.41564C343.619 9.41379 343.693 9.4212 343.749 9.42768C344.242 9.48508 344.242 9.48786 344.73 9.46657C344.886 9.46009 345.015 9.45823 345.132 9.47768C345.244 9.49619 345.366 9.51378 345.482 9.53137C345.694 9.52489 345.91 9.52304 346.118 9.51193C346.278 9.5036 346.39 9.50731 346.515 9.52675C346.68 9.55174 346.818 9.59525 347.077 9.57395C347.211 9.56377 347.367 9.56655 347.501 9.55729C347.661 9.54526 347.769 9.55266 347.894 9.57673C348.05 9.60543 348.21 9.63506 348.46 9.62024C348.737 9.60358 349.031 9.6008 349.312 9.58784C349.467 9.58044 349.576 9.58784 349.701 9.61191C349.857 9.64247 350.034 9.66191 350.276 9.64988C350.769 9.62673 350.773 9.63135 351.253 9.68968C351.374 9.70449 351.503 9.70265 351.659 9.69524C351.793 9.68876 351.931 9.70265 352.026 9.72949C352.117 9.75912 352.108 9.77763 352.117 9.79337ZM313.6 1.44351C313.457 1.44814 313.314 1.45369 313.107 1.37315C313.094 1.35926 313.103 1.3426 313.072 1.33056C313.003 1.30556 312.895 1.28798 312.765 1.2852C312.532 1.28149 312.251 1.31297 312.255 1.33704C312.26 1.35741 312.333 1.37499 312.476 1.39166C312.536 1.39814 312.584 1.40925 312.64 1.41666C312.804 1.43795 312.934 1.47962 313.172 1.45832C313.129 1.40092 313.15 1.42962 313.172 1.45832C313.15 1.4935 313.215 1.5185 313.371 1.52869C313.414 1.53146 313.479 1.52961 313.513 1.52405C313.647 1.50368 313.669 1.47592 313.569 1.40278C313.552 1.41481 313.565 1.4361 313.604 1.44165C313.643 1.44721 313.738 1.44259 313.786 1.43611C313.907 1.41851 313.967 1.39537 313.937 1.37593C313.92 1.36574 313.837 1.35278 313.786 1.35278C313.695 1.35278 313.613 1.37315 313.6 1.44351ZM348.551 12.1801C348.236 12.1977 347.873 12.1912 347.557 12.2273C347.501 12.2338 347.445 12.2505 347.44 12.2634C347.436 12.2718 347.522 12.2838 347.574 12.2903C347.691 12.3051 347.821 12.3005 347.972 12.2958C348.201 12.2894 348.335 12.3319 348.512 12.3532C348.568 12.3597 348.642 12.3643 348.702 12.3625C349.053 12.3514 349.398 12.3394 349.748 12.3264C349.809 12.3236 349.874 12.3171 349.926 12.3088C350.099 12.2819 350.081 12.2644 349.913 12.244C349.727 12.2218 349.58 12.1847 349.39 12.1671C349.117 12.1421 348.841 12.1755 348.551 12.1801ZM324.004 12.856C323.792 12.8634 323.585 12.8708 323.373 12.8782C323.304 12.8809 323.23 12.8819 323.165 12.8856C323.031 12.8921 322.932 12.9115 322.867 12.942C322.966 12.9661 323.088 12.98 323.221 12.9772C323.433 12.9717 323.641 12.9596 323.853 12.9569C324.082 12.9532 324.216 12.9948 324.393 13.0161C324.449 13.0226 324.518 13.0235 324.583 13.0244C324.903 13.0281 325.097 12.98 325.037 12.9124C324.994 12.8597 324.829 12.8282 324.631 12.8347C324.423 12.8411 324.211 12.8485 324.004 12.856ZM350.029 10.8118C350.081 10.796 350.138 10.7849 350.163 10.771C350.241 10.7238 350.211 10.6886 350.068 10.6516C349.895 10.6062 349.684 10.6368 349.489 10.6414C349.442 10.6423 349.39 10.6618 349.364 10.6738C349.346 10.6821 349.346 10.6997 349.372 10.7044C349.584 10.7414 349.809 10.7757 350.029 10.8118ZM312.532 8.07693C312.325 8.08433 312.113 8.08989 311.905 8.10007C311.853 8.10285 311.806 8.12044 311.776 8.13247C311.719 8.15469 311.78 8.18524 311.957 8.18802C312.16 8.19172 312.372 8.17599 312.584 8.16858C312.852 8.15932 313.012 8.12507 312.912 8.09544C312.817 8.06674 312.688 8.06119 312.532 8.07693ZM85.0017 6.09848C85.14 6.09385 85.2826 6.09014 85.4209 6.08366C85.5506 6.07718 85.6501 6.05681 85.7149 6.02626C85.6069 6.00219 85.4858 5.98923 85.3518 5.99201C85.14 5.99756 84.9326 6.00497 84.7251 6.01422C84.5954 6.01978 84.4701 6.04015 84.4398 6.07162C84.4096 6.09569 84.6991 6.10959 85.0017 6.09848ZM294.252 5.9559C294.309 5.96423 294.365 5.9809 294.421 5.9809C294.559 5.9809 294.702 5.97534 294.832 5.96608C294.888 5.96238 294.931 5.94571 294.957 5.93275C294.974 5.92442 294.97 5.90961 294.944 5.9022C294.819 5.85777 294.317 5.8735 294.235 5.92442C294.226 5.93368 294.248 5.94571 294.252 5.9559ZM280.615 0.886169C280.628 0.900982 280.632 0.915793 280.65 0.930606C280.684 0.95838 280.779 0.978752 280.917 0.992639C281.026 0.969494 281.082 0.943576 281.077 0.915801C281.073 0.900988 281.06 0.886166 281.043 0.871353C281.008 0.843579 280.913 0.823218 280.775 0.809331C280.667 0.83155 280.615 0.857469 280.615 0.886169ZM360.019 13.017C359.98 13.0291 359.941 13.0411 359.898 13.0522C360.014 13.0791 360.122 13.0874 360.205 13.0726C360.256 13.0633 360.287 13.0494 360.326 13.0374C360.209 13.0106 360.105 13.0032 360.019 13.017ZM357.33 13.1429C357.386 13.1513 357.438 13.1624 357.499 13.1679C357.598 13.1772 357.689 13.1615 357.758 13.1281C357.702 13.1198 357.65 13.1087 357.589 13.1031C357.49 13.0939 357.399 13.1096 357.33 13.1429ZM359.033 12.9735C359.003 12.9957 359.063 13.0143 359.223 13.03C359.262 13.018 359.314 13.0069 359.34 12.9939C359.383 12.9726 359.31 12.9532 359.154 12.9383C359.111 12.9495 359.072 12.9615 359.033 12.9735ZM349.908 11.9755C349.878 11.9977 349.939 12.0162 350.099 12.032C350.137 12.0199 350.189 12.0088 350.215 11.9959C350.259 11.9746 350.185 11.9551 350.029 11.9403C349.986 11.9514 349.947 11.9635 349.908 11.9755ZM337.477 5.42448C337.438 5.43652 337.399 5.44856 337.356 5.45967C337.473 5.48651 337.581 5.49484 337.663 5.48003C337.715 5.47077 337.745 5.45688 337.784 5.44485C337.667 5.418 337.563 5.4106 337.477 5.42448ZM325.569 1.949C325.672 1.95548 325.759 1.94252 325.832 1.90827C325.776 1.89993 325.724 1.88882 325.664 1.88327C325.564 1.87401 325.474 1.88975 325.404 1.92308C325.461 1.93234 325.517 1.94066 325.569 1.949ZM319.245 1.73143C319.206 1.74347 319.167 1.7555 319.124 1.76661C319.241 1.79346 319.349 1.80179 319.431 1.78698C319.483 1.77772 319.513 1.76383 319.552 1.7518C319.435 1.72495 319.331 1.71847 319.245 1.73143ZM276.362 0.885242C276.323 0.897278 276.284 0.909314 276.241 0.920424C276.357 0.947272 276.465 0.955602 276.548 0.940789C276.599 0.931531 276.63 0.917643 276.669 0.905607C276.552 0.878759 276.448 0.872281 276.362 0.885242ZM62.836 8.41762C62.7799 8.40929 62.7237 8.40096 62.6718 8.39171C62.5465 8.4167 62.5076 8.43984 62.5768 8.45743C62.62 8.46854 62.6848 8.47503 62.741 8.48336C62.8706 8.45836 62.9009 8.43614 62.836 8.41762Z" fill="#FFE492"/>
<path d="M13.9984 32.1441C13.6692 32.1616 13.3428 32.1837 13.0136 32.1947C12.839 32.2003 12.7761 32.2398 12.7045 32.2766C12.6473 32.3061 12.5814 32.3153 12.4755 32.3208C11.5824 32.3659 10.6921 32.4138 9.80185 32.4607C9.69021 32.4487 9.63582 32.4294 9.66158 32.4064C9.6759 32.3926 9.71026 32.3733 9.74461 32.3714C10.3543 32.3374 10.9612 32.3024 11.5738 32.2757C11.7484 32.2684 11.7971 32.2279 11.8858 32.1947C11.9144 32.1837 11.9374 32.1671 11.9746 32.1607C12.0118 32.1533 12.0662 32.1542 12.1148 32.1524C13.0996 32.1 14.0843 32.0484 15.069 31.996C15.1807 32.0079 15.235 32.0273 15.2093 32.0503C15.195 32.0641 15.1606 32.0834 15.1263 32.0852C14.7484 32.1046 14.3733 32.1239 13.9984 32.1441Z" fill="#FFE492"/>
<path d="M194.435 37.0444C194.286 37.0554 194.097 37.0711 193.942 37.0177C193.868 36.9919 193.788 36.9837 193.69 36.9892C193.55 36.9984 193.407 37.0058 193.264 37.0113C193.227 37.0122 193.178 37.0021 193.141 36.9938C193.061 36.9772 192.992 36.9496 192.906 36.9423C192.82 36.9349 192.717 36.9551 192.628 36.9505C192.511 36.9441 192.462 36.9193 192.494 36.8962C192.511 36.8834 192.545 36.865 192.582 36.8622C193.112 36.8282 193.115 36.8282 193.264 36.8613C193.378 36.887 193.484 36.9156 193.647 36.8999C193.785 36.887 193.931 36.8843 194.071 36.876C194.266 36.865 194.266 36.8659 194.581 36.9238C194.661 36.9386 194.747 36.9377 194.85 36.9294C194.938 36.9229 195.024 36.9377 195.096 36.9625C195.05 36.9938 194.984 37.014 194.895 37.0196C194.752 37.0288 194.612 37.0352 194.435 37.0444Z" fill="#FFE492"/>
<path d="M188.864 36.7608C189.224 36.7415 189.588 36.7249 189.949 36.7028C190.098 36.6936 190.215 36.7038 190.318 36.7351C190.43 36.7691 190.556 36.7663 190.693 36.7599C190.779 36.7562 190.862 36.7709 190.919 36.7967C190.942 36.8068 190.936 36.8252 190.945 36.84C190.63 36.8565 190.312 36.874 189.995 36.8887C189.957 36.8906 189.911 36.8814 189.877 36.874C189.8 36.8584 189.734 36.8308 189.651 36.8252C189.473 36.8124 189.296 36.8372 189.116 36.8418C189.03 36.8436 188.947 36.8298 188.89 36.805C188.867 36.793 188.872 36.7755 188.864 36.7608Z" fill="#FFE492"/>
<path d="M58.5332 28.8486C58.9082 28.8284 59.2832 28.8091 59.6582 28.7888C59.7698 28.8017 59.8214 28.8201 59.7985 28.8431C59.7841 28.8569 59.7498 28.8762 59.7154 28.8781C58.9654 28.9195 58.2155 28.9591 57.4684 28.9986C57.3567 28.9857 57.3052 28.9673 57.3281 28.9443C57.3424 28.9305 57.3768 28.9112 57.4111 28.9094C57.7833 28.8882 58.1582 28.8689 58.5332 28.8486Z" fill="#FFE492"/>
<path d="M0.62127 33.9623C0.452378 33.9641 0.274935 33.9982 0.0860054 33.9724C0.048792 33.9678 -0.00274832 33.9531 0.000114251 33.9448C0.0058394 33.931 0.0401959 33.9135 0.0774093 33.908C0.240576 33.885 0.443838 33.8822 0.526853 33.8178C0.566929 33.7847 0.641356 33.7736 0.741546 33.7672C0.847461 33.7598 0.921865 33.7626 1.00488 33.7819C1.11366 33.8067 1.20527 33.8528 1.37703 33.8288C1.38562 33.8436 1.4056 33.8601 1.39702 33.8739C1.38843 33.8877 1.35128 33.9006 1.31693 33.9107C1.28544 33.9199 1.24246 33.9282 1.20238 33.931C1.01345 33.942 0.824513 33.9512 0.62127 33.9623Z" fill="#FFE492"/>
<path d="M149.477 33.7774C149.617 33.77 149.763 33.7663 149.9 33.7534C150.009 33.7433 150.078 33.7498 150.164 33.7718C150.31 33.8105 150.318 33.8068 150.676 33.8123C150.716 33.8133 150.765 33.8271 150.788 33.839C150.802 33.8455 150.782 33.863 150.765 33.8722C150.739 33.8841 150.702 33.8998 150.668 33.8998C150.441 33.9025 150.212 33.9568 149.992 33.8942C149.88 33.863 149.757 33.8482 149.606 33.862C149.514 33.8703 149.417 33.874 149.322 33.8777C149.231 33.8814 149.136 33.8712 149.079 33.8436C148.996 33.8031 149.045 33.7875 149.193 33.7903C149.288 33.7921 149.382 33.782 149.477 33.7774Z" fill="#FFE492"/>
<path d="M201.349 40.121C201.53 40.1118 201.71 40.1007 201.893 40.0934C201.93 40.0915 201.976 40.1016 202.011 40.1081C202.148 40.1357 202.128 40.1826 202.134 40.224C202.136 40.2673 201.819 40.3022 201.684 40.2728C201.535 40.2397 201.401 40.2019 201.195 40.2222C201.115 40.2296 201.02 40.213 200.969 40.1863C200.891 40.1477 200.934 40.132 201.08 40.1348C201.166 40.1366 201.258 40.1265 201.349 40.121Z" fill="#FFE492"/>
<path d="M110.465 27.5953C110.651 27.5852 110.838 27.5695 111.024 27.5686C111.132 27.5677 111.187 27.5981 111.161 27.6202C111.147 27.634 111.112 27.6533 111.078 27.6551C110.706 27.6772 110.334 27.6956 109.962 27.7159C109.853 27.703 109.798 27.6837 109.824 27.6616C109.839 27.6478 109.873 27.6294 109.907 27.6266C110.093 27.6137 110.279 27.6054 110.465 27.5953Z" fill="#FFE492"/>
<path d="M197.735 37.1255C197.915 37.1163 198.098 37.1025 198.279 37.0979C198.373 37.096 198.448 37.1172 198.459 37.1411C198.465 37.1522 198.419 37.1715 198.382 37.1761C198.124 37.2074 197.846 37.2111 197.577 37.2267C197.492 37.2313 197.4 37.2166 197.348 37.1908C197.271 37.1513 197.314 37.1365 197.46 37.1393C197.552 37.1402 197.643 37.1301 197.735 37.1255Z" fill="#FFE492"/>
<path d="M154.236 33.9016C154.327 33.897 154.422 33.8851 154.51 33.8888C154.605 33.8934 154.665 33.92 154.694 33.9467C154.725 33.9771 154.722 34.0056 154.694 34.0314C154.648 34.0756 154.602 34.0737 154.496 34.0443C154.333 33.9983 154.321 34.0038 153.998 34.0056C153.961 34.0056 153.915 33.9918 153.886 33.9799C153.843 33.9615 153.866 33.9329 153.967 33.9164C154.041 33.9044 154.144 33.9062 154.236 33.9016Z" fill="#FFE492"/>
<path d="M191.557 36.8234C191.692 36.8161 191.826 36.8041 191.961 36.8041C192.055 36.8032 192.13 36.8243 192.138 36.8474C192.141 36.8584 192.098 36.8768 192.064 36.8823C191.901 36.9072 191.717 36.909 191.54 36.9173C191.457 36.921 191.365 36.9062 191.314 36.8805C191.236 36.8418 191.282 36.8243 191.423 36.8299C191.465 36.8317 191.511 36.8262 191.557 36.8234Z" fill="#FFE492"/>
<path d="M169.93 35.6943C169.73 35.7054 169.541 35.6916 169.555 35.6676C169.575 35.6363 169.658 35.6161 169.744 35.6106C169.881 35.6014 170.019 35.594 170.159 35.5885C170.248 35.5848 170.328 35.5986 170.399 35.6225C170.356 35.652 170.291 35.6731 170.205 35.6796C170.116 35.686 170.022 35.6897 169.93 35.6943Z" fill="#FFE492"/>
<path d="M168.629 35.5765C168.763 35.5691 168.898 35.5572 169.032 35.5572C169.127 35.5562 169.201 35.5774 169.21 35.6004C169.213 35.6114 169.17 35.6299 169.135 35.6354C168.972 35.6602 168.789 35.6621 168.612 35.6703C168.529 35.674 168.437 35.6593 168.385 35.6335C168.308 35.5949 168.354 35.5774 168.494 35.5829C168.537 35.5848 168.583 35.5792 168.629 35.5765Z" fill="#FFE492"/>
<path d="M152.939 33.8944C153.074 33.8871 153.208 33.8751 153.343 33.8742C153.437 33.8733 153.512 33.8944 153.52 33.9174C153.523 33.9285 153.48 33.946 153.446 33.9524C153.283 33.9772 153.1 33.9791 152.922 33.9874C152.839 33.9911 152.748 33.9763 152.696 33.9506C152.619 33.9119 152.665 33.8944 152.805 33.8999C152.848 33.9018 152.894 33.8963 152.939 33.8944Z" fill="#FFE492"/>
<path d="M151.814 33.84C151.957 33.8326 152.003 33.828 152.049 33.828C152.135 33.828 152.223 33.839 152.275 33.8657C152.352 33.9044 152.306 33.9154 152.166 33.9173C151.986 33.9191 151.808 33.9384 151.628 33.9421C151.533 33.944 151.459 33.9219 151.453 33.8989C151.45 33.8878 151.493 33.8685 151.528 33.8648C151.648 33.851 151.78 33.8427 151.814 33.84Z" fill="#FFE492"/>
<path d="M167.555 28.4263C167.464 28.4309 167.366 28.4437 167.281 28.4391C167.166 28.4327 167.12 28.4079 167.149 28.3849C167.166 28.372 167.198 28.3536 167.232 28.3508C167.415 28.3379 167.601 28.3296 167.784 28.3204C167.893 28.3342 167.942 28.3536 167.913 28.3766C167.896 28.3895 167.865 28.4069 167.83 28.4106C167.741 28.4198 167.647 28.4217 167.555 28.4263Z" fill="#FFE492"/>
<path d="M56.4459 28.9572C56.5347 28.9563 56.6148 28.9682 56.6835 28.9913C56.6405 29.0207 56.5776 29.04 56.4917 29.0483C56.4488 29.052 56.4001 29.0547 56.3543 29.0557C56.2656 29.0575 56.1854 29.0446 56.1167 29.0216C56.1596 28.9922 56.2255 28.9728 56.3085 28.9646C56.3514 28.9609 56.4001 28.96 56.4459 28.9572Z" fill="#FFE492"/>
<path d="M197.311 37.1215C197.308 37.0948 197.482 37.0644 197.64 37.0653C197.723 37.0662 197.809 37.0791 197.857 37.104C197.932 37.1417 197.889 37.1564 197.748 37.1537C197.663 37.1518 197.571 37.1675 197.485 37.1647C197.388 37.1638 197.331 37.1435 197.311 37.1215Z" fill="#FFE492"/>
<path d="M155.085 34.013C155.082 34.0028 155.067 33.9909 155.076 33.9817C155.13 33.9311 155.46 33.9154 155.545 33.9596C155.56 33.9679 155.565 33.9817 155.554 33.99C155.537 34.0028 155.505 34.0194 155.471 34.0231C155.382 34.0323 155.291 34.0369 155.199 34.0378C155.159 34.0378 155.122 34.0222 155.085 34.013Z" fill="#FFE492"/>
<path d="M2.12314 33.8151C1.78535 33.8344 1.77963 33.8326 1.83974 33.7866C1.89413 33.7452 1.99434 33.7203 2.14033 33.7203C2.18327 33.7203 2.22905 33.7185 2.26626 33.7222C2.30634 33.7268 2.36363 33.7359 2.37221 33.747C2.38939 33.7682 2.34068 33.7912 2.2548 33.8068C2.21759 33.8142 2.16894 33.8123 2.12314 33.8151Z" fill="#FFE492"/>
<path d="M60.6088 28.8276C60.5086 28.8432 60.4227 28.8377 60.3597 28.8082C60.2968 28.7788 60.397 28.7438 60.5716 28.7355C60.6174 28.7337 60.666 28.7263 60.709 28.73C60.7519 28.7328 60.7949 28.7438 60.8206 28.7549C60.8665 28.7733 60.8378 28.7981 60.7462 28.8193C60.709 28.8276 60.6546 28.8257 60.6088 28.8276Z" fill="#FFE492"/>
<path d="M196.713 37.0523C196.738 37.0403 196.764 37.0284 196.793 37.0173C196.899 37.033 196.944 37.0514 196.916 37.0725C196.899 37.0854 196.864 37.0965 196.838 37.1084C196.733 37.0928 196.69 37.0735 196.713 37.0523Z" fill="#FFE492"/>
<path d="M6.63721 44.2908C6.63721 44.2798 6.67728 44.2623 6.70877 44.2586C6.76889 44.2522 6.84328 44.265 6.89481 44.2908C6.96637 44.3276 6.92348 44.3469 6.7918 44.3368C6.70019 44.3295 6.63721 44.3111 6.63721 44.2908Z" fill="#FFE492"/>
<path d="M156.454 33.1564C156.491 33.1647 156.528 33.173 156.563 33.1822C156.514 33.2162 156.454 33.2309 156.391 33.2217C156.351 33.2162 156.317 33.2052 156.279 33.1969C156.328 33.1628 156.385 33.1499 156.454 33.1564Z" fill="#FFE492"/>
<path d="M155.753 33.115C155.81 33.1012 155.879 33.1085 155.959 33.1352C155.933 33.1472 155.91 33.161 155.879 33.1702C155.824 33.1849 155.753 33.1775 155.675 33.1499C155.698 33.1389 155.724 33.1269 155.753 33.115Z" fill="#FFE492"/>
<path d="M154.645 33.1554C154.682 33.1637 154.719 33.1719 154.754 33.1811C154.705 33.2152 154.648 33.2299 154.582 33.2207C154.542 33.2152 154.507 33.2041 154.47 33.1959C154.519 33.1618 154.576 33.148 154.645 33.1554Z" fill="#FFE492"/>
<path d="M154.061 33.1063C154.103 33.1247 154.081 33.1468 153.998 33.1717C153.96 33.1634 153.917 33.157 153.889 33.1459C153.843 33.1284 153.866 33.1054 153.952 33.0806C153.986 33.0898 154.023 33.0981 154.061 33.1063Z" fill="#FFE492"/>
</svg>
