<svg width="280" height="72" viewBox="0 0 280 72" fill="none" xmlns="http://www.w3.org/2000/svg">
<path d="M89.8384 56.2105L93.3243 48.1601C97.0914 50.9554 102.095 52.4089 107.043 52.4089C110.698 52.4089 113.003 51.0113 113.003 48.8869C112.947 42.9609 91.1316 47.6011 90.9629 32.7302C90.9067 25.183 97.6536 19.3688 107.212 19.3688C112.891 19.3688 118.569 20.7664 122.617 23.953L119.356 32.1712C115.646 29.8231 111.035 28.146 106.65 28.146C103.67 28.146 101.702 29.5436 101.702 31.3326C101.758 37.1467 123.742 33.9601 123.967 48.1601C123.967 55.8751 117.389 61.2979 107.943 61.2979C101.027 61.2979 94.6737 59.6767 89.8384 56.2105ZM223.597 45.253C221.854 48.2719 218.593 50.3404 214.826 50.3404C209.26 50.3404 204.762 45.868 204.762 40.3334C204.762 34.7987 209.26 30.3263 214.826 30.3263C218.593 30.3263 221.854 32.3948 223.597 35.4137L233.212 30.1026C229.613 23.7294 222.698 19.3688 214.826 19.3688C203.188 19.3688 193.742 28.7609 193.742 40.3334C193.742 51.9058 203.188 61.2979 214.826 61.2979C222.754 61.2979 229.613 56.9932 233.212 50.5641L223.597 45.253ZM128.802 1.98218H140.834V60.5152H128.802V1.98218ZM237.935 1.98218V60.5152H249.967V42.9609L264.248 60.5152H279.654L261.493 39.6625L278.304 20.2074H263.573L249.967 36.3641V1.98218H237.935ZM176.593 45.3649C174.85 48.216 171.252 50.3404 167.204 50.3404C161.638 50.3404 157.14 45.868 157.14 40.3334C157.14 34.7987 161.638 30.3263 167.204 30.3263C171.252 30.3263 174.85 32.5625 176.593 35.4696V45.3649ZM176.593 20.2074V24.9593C174.626 21.6609 169.734 19.3688 164.618 19.3688C154.047 19.3688 145.726 28.6491 145.726 40.2775C145.726 51.9058 154.047 61.2979 164.618 61.2979C169.734 61.2979 174.626 59.0058 176.593 55.7074V60.4593H188.626V20.2074H176.593Z" fill="black"/>
<path d="M15.4532 45.3087C15.4532 49.3898 12.136 52.6883 8.03155 52.6883C3.92713 52.6883 0.609863 49.3898 0.609863 45.3087C0.609863 41.2276 3.92713 37.9292 8.03155 37.9292H15.4532V45.3087ZM19.1641 45.3087C19.1641 41.2276 22.4813 37.9292 26.5858 37.9292C30.6902 37.9292 34.0075 41.2276 34.0075 45.3087V63.7575C34.0075 67.8386 30.6902 71.1371 26.5858 71.1371C22.4813 71.1371 19.1641 67.8386 19.1641 63.7575V45.3087Z" fill="#E01E5A"/>
<path d="M26.5854 15.679C22.4809 15.679 19.1637 12.3806 19.1637 8.29945C19.1637 4.21835 22.4809 0.919922 26.5854 0.919922C30.6898 0.919922 34.007 4.21835 34.007 8.29945V15.679H26.5854ZM26.5854 19.4246C30.6898 19.4246 34.007 22.7231 34.007 26.8042C34.007 30.8853 30.6898 34.1837 26.5854 34.1837H7.97491C3.87049 34.1837 0.553223 30.8853 0.553223 26.8042C0.553223 22.7231 3.87049 19.4246 7.97491 19.4246H26.5854Z" fill="#36C5F0"/>
<path d="M56.3284 26.8042C56.3284 22.7231 59.6456 19.4246 63.7501 19.4246C67.8545 19.4246 71.1717 22.7231 71.1717 26.8042C71.1717 30.8853 67.8545 34.1837 63.7501 34.1837H56.3284V26.8042ZM52.6175 26.8042C52.6175 30.8853 49.3003 34.1837 45.1959 34.1837C41.0914 34.1837 37.7742 30.8853 37.7742 26.8042V8.29945C37.7742 4.21835 41.0914 0.919922 45.1959 0.919922C49.3003 0.919922 52.6175 4.21835 52.6175 8.29945V26.8042Z" fill="#2EB67D"/>
<path d="M45.1959 56.378C49.3003 56.378 52.6175 59.6764 52.6175 63.7575C52.6175 67.8386 49.3003 71.1371 45.1959 71.1371C41.0914 71.1371 37.7742 67.8386 37.7742 63.7575V56.378H45.1959ZM45.1959 52.6883C41.0914 52.6883 37.7742 49.3898 37.7742 45.3087C37.7742 41.2276 41.0914 37.9292 45.1959 37.9292H63.8063C67.9107 37.9292 71.228 41.2276 71.228 45.3087C71.228 49.3898 67.9107 52.6883 63.8063 52.6883H45.1959Z" fill="#ECB22E"/>
</svg>
