<svg width="19" height="20" viewBox="0 0 19 20" fill="none" xmlns="http://www.w3.org/2000/svg">
<path d="M9.48901 0.342773C9.14844 0.342773 8.80811 0.361082 8.46948 0.39758C8.1591 0.429284 7.85253 0.481277 7.55008 0.544366C7.49155 0.556611 7.43298 0.569531 7.37445 0.583044C5.59245 0.988766 3.96529 1.89988 2.68809 3.20712C2.56932 3.32886 2.45305 3.4542 2.33935 3.58312C-1.11075 7.54396 -0.696703 13.5517 3.26417 17.0018C7.05619 20.3048 12.7641 20.0851 16.291 16.5003C16.41 16.3785 16.5262 16.2532 16.6397 16.1243C18.1623 14.3903 19.0013 12.1612 19 9.85369C19 4.60091 14.7418 0.342734 9.48901 0.342773ZM3.11069 3.68267C3.16078 3.63067 3.21277 3.5809 3.26382 3.53049C3.32278 3.47247 3.38143 3.41414 3.44167 3.35802C3.49461 3.30857 3.54914 3.26101 3.60336 3.21282C3.66454 3.15861 3.72541 3.1044 3.78819 3.05209C3.84335 3.00548 3.9001 2.96078 3.95653 2.91576C4.01994 2.86504 4.08334 2.81431 4.14865 2.76549C4.20635 2.72206 4.265 2.67989 4.32397 2.63868C4.3896 2.59176 4.45554 2.54357 4.52243 2.49982C4.58235 2.45924 4.6429 2.41993 4.70377 2.38093C4.77162 2.3375 4.83978 2.2947 4.90858 2.25412C4.97052 2.21715 5.03285 2.18077 5.09562 2.14506C5.16581 2.10511 5.23627 2.06612 5.30709 2.02808C5.37049 1.99427 5.4339 1.96118 5.4973 1.92884C5.56959 1.89239 5.6425 1.8572 5.71574 1.82264C5.77915 1.79252 5.84509 1.7624 5.9104 1.73387C5.9849 1.70217 6.06035 1.67046 6.13581 1.63876C6.20143 1.61181 6.26674 1.5855 6.333 1.56014C6.40972 1.53097 6.48739 1.5037 6.56507 1.47644C6.63133 1.4533 6.69759 1.43015 6.7648 1.40828C6.84374 1.38292 6.92331 1.35946 7.0032 1.33631C7.0701 1.31697 7.13636 1.297 7.20357 1.27893C7.22925 1.27227 7.25493 1.26688 7.28061 1.26022C6.34219 2.17141 5.64579 3.30227 5.25446 4.55038C4.50198 4.35192 3.77352 4.07158 3.08216 3.71437C3.09262 3.70327 3.1015 3.69218 3.11069 3.68267ZM2.6548 4.19309C3.41635 4.6057 4.22391 4.92709 5.06075 5.15052C4.65051 6.57701 4.43517 8.05243 4.42066 9.53666H0.619454C0.688528 7.57942 1.40427 5.7003 2.6548 4.19309ZM2.6548 15.5143C1.40435 14.007 0.688607 12.1279 0.619454 10.1707H4.42066C4.43517 11.6549 4.65047 13.1304 5.06075 14.5569C4.22395 14.7804 3.41639 15.1017 2.6548 15.5143ZM7.20167 18.4297C7.13763 18.4136 7.07137 18.3926 7.00542 18.3733C6.92521 18.3498 6.84469 18.3264 6.76543 18.3007C6.69854 18.2791 6.6326 18.256 6.56665 18.2328C6.48866 18.2059 6.41067 18.1783 6.33363 18.1488C6.26769 18.1238 6.2027 18.0975 6.13739 18.0708C6.06162 18.0391 5.98585 18.0074 5.91071 17.9757C5.84604 17.9472 5.78168 17.9178 5.71764 17.8876C5.64377 17.8527 5.57022 17.8172 5.49572 17.7804C5.43231 17.7487 5.36891 17.717 5.3055 17.6825C5.23385 17.6441 5.16284 17.6048 5.09182 17.5642C5.02841 17.529 4.96818 17.4929 4.90699 17.4561C4.83724 17.4143 4.76877 17.3712 4.70029 17.3271C4.64005 17.2887 4.57981 17.2497 4.52053 17.2098C4.453 17.1641 4.38611 17.1166 4.31985 17.069C4.26183 17.0275 4.20381 16.986 4.14675 16.9422C4.08112 16.8928 4.01677 16.8417 3.95273 16.7903C3.89661 16.7456 3.84081 16.7013 3.78597 16.6553C3.72256 16.6027 3.66137 16.5478 3.59987 16.4933C3.54597 16.4454 3.49176 16.3982 3.43913 16.3494C3.37858 16.2929 3.31993 16.2343 3.26096 16.1763C3.20992 16.1259 3.15793 16.0761 3.10784 16.0244C3.09864 16.0146 3.08977 16.0044 3.08057 15.9949C3.7719 15.6375 4.50036 15.3571 5.25287 15.1586C5.64429 16.4067 6.34065 17.5375 7.27902 18.4487C7.25334 18.4421 7.22735 18.4367 7.20167 18.4297ZM9.17202 18.7055C7.81544 18.5128 6.62625 17.0969 5.87806 15.0061C6.95977 14.7639 8.06364 14.6339 9.17202 14.6184V18.7055ZM9.17202 13.9843C7.99623 13.9998 6.82539 14.1394 5.67896 14.4009C5.28089 13.0255 5.0709 11.6025 5.05473 10.1707H9.17202V13.9843ZM9.17202 9.53666H5.05473C5.07086 8.1049 5.28085 6.68191 5.67896 5.3065C6.82539 5.56793 7.99627 5.70759 9.17202 5.72308V9.53666ZM9.17202 5.08902C8.0636 5.07356 6.95977 4.94362 5.87806 4.70129C6.62625 2.61046 7.81544 1.1946 9.17202 1.00184V5.08902ZM16.3233 4.19309C17.5738 5.70034 18.2895 7.57946 18.3586 9.53666H14.5574C14.5429 8.05243 14.3276 6.57701 13.9174 5.15052C14.7542 4.92698 15.5617 4.60562 16.3233 4.19309ZM11.7739 1.27734C11.8405 1.29383 11.9067 1.31475 11.9727 1.33409C12.0529 1.35755 12.1334 1.38101 12.2127 1.40669C12.2796 1.42825 12.3455 1.45139 12.4114 1.47454C12.4894 1.50149 12.5674 1.52907 12.6445 1.55855C12.7104 1.5836 12.7754 1.60991 12.8407 1.63654C12.9165 1.66824 12.9923 1.69995 13.0674 1.73165C13.1321 1.76018 13.1964 1.78955 13.2605 1.81979C13.3343 1.85466 13.4079 1.89017 13.4824 1.92694C13.5458 1.95865 13.6092 1.99035 13.6726 2.02491C13.7443 2.06327 13.8153 2.10258 13.8863 2.14316C13.9497 2.17835 14.0099 2.21449 14.0711 2.25127C14.1409 2.29311 14.2093 2.33623 14.2778 2.3803C14.3381 2.41866 14.3983 2.45765 14.4576 2.4976C14.5251 2.54325 14.5917 2.59049 14.6579 2.63805C14.7163 2.67958 14.7743 2.72142 14.8317 2.76486C14.897 2.814 14.961 2.86504 15.0254 2.9164C15.0812 2.96078 15.1373 3.00517 15.1921 3.05145C15.2555 3.10408 15.3167 3.15893 15.3782 3.21346C15.4321 3.26133 15.4863 3.30857 15.539 3.35739C15.5995 3.41382 15.6582 3.47247 15.7171 3.53049C15.7682 3.5809 15.8202 3.63067 15.8703 3.68235C15.8795 3.69218 15.8883 3.70232 15.8975 3.71183C15.2062 4.06921 14.4777 4.34966 13.7252 4.54816C13.3331 3.29993 12.6358 2.16919 11.6965 1.25832C11.7222 1.26498 11.7482 1.27037 11.7739 1.27734ZM9.80608 1.00184C11.1627 1.1946 12.3518 2.61046 13.1 4.70129C12.0183 4.9435 10.9145 5.07344 9.80608 5.08902V1.00184ZM9.80608 5.72308C10.9819 5.70763 12.1527 5.56797 13.2991 5.3065C13.6972 6.68191 13.9072 8.1049 13.9234 9.53666H9.80608V5.72308ZM9.80608 10.1707H13.9234C13.9072 11.6025 13.6973 13.0255 13.2991 14.4009C12.1527 14.1394 10.9819 13.9998 9.80608 13.9843V10.1707ZM9.80608 18.7055V14.6184C10.9145 14.6338 12.0183 14.7638 13.1 15.0061C12.3518 17.0969 11.1627 18.5128 9.80608 18.7055ZM15.8674 16.0247C15.8173 16.0764 15.7656 16.1262 15.7146 16.1766C15.6556 16.2346 15.5967 16.2932 15.5361 16.3497C15.4835 16.3988 15.4293 16.4448 15.3754 16.4939C15.3139 16.5485 15.2527 16.603 15.1899 16.6556C15.1344 16.7019 15.078 16.7466 15.0216 16.7916C14.9582 16.8423 14.8948 16.8931 14.8295 16.9419C14.7718 16.9853 14.7131 17.0275 14.6541 17.0687C14.5885 17.1156 14.5226 17.1638 14.4557 17.2076C14.3958 17.2481 14.3352 17.2875 14.2743 17.3261C14.2065 17.3699 14.1381 17.4122 14.0692 17.4529C14.0058 17.49 13.9452 17.5262 13.8828 17.562C13.8126 17.602 13.742 17.6409 13.671 17.679C13.6076 17.7128 13.5442 17.7459 13.4808 17.7782C13.4085 17.8147 13.3356 17.8499 13.2624 17.8844C13.199 17.9145 13.133 17.9447 13.0677 17.9732C12.9932 18.0049 12.9177 18.0366 12.8423 18.0683C12.7767 18.0949 12.7114 18.1216 12.6454 18.1466C12.5681 18.1761 12.4904 18.2037 12.4124 18.2306C12.3465 18.2538 12.2805 18.2769 12.2136 18.2985C12.1344 18.3242 12.0551 18.3476 11.9743 18.3708C11.908 18.3904 11.8414 18.4101 11.7745 18.4281C11.7489 18.4348 11.7232 18.4402 11.6975 18.4468C12.6359 17.5357 13.3323 16.4048 13.7236 15.1567C14.4761 15.3551 15.2046 15.6355 15.8959 15.9927C15.8855 16.0041 15.8766 16.0152 15.8674 16.0247ZM16.3233 15.5143C15.5618 15.1017 14.7542 14.7803 13.9174 14.5569C14.3276 13.1304 14.5429 11.6549 14.5574 10.1707H18.3586C18.2896 12.1279 17.5738 14.0071 16.3233 15.5143Z" fill="white"/>
</svg>
