<svg width="582" height="472" viewBox="0 0 582 472" fill="none" xmlns="http://www.w3.org/2000/svg">
<circle cx="284.764" cy="180.381" r="144.5" stroke="#4F9CF9" stroke-width="2" stroke-dasharray="15 15"/>
<circle cx="181.875" cy="325.881" r="144.5" stroke="#4F9CF9" stroke-width="2" stroke-dasharray="15 15"/>
<circle cx="400.125" cy="325.881" r="144.5" stroke="#4F9CF9" stroke-width="2" stroke-dasharray="15 15"/>
<circle cx="429.225" cy="183.499" r="36.375" fill="white"/>
<g clip-path="url(#clip0_9_7345)">
<path d="M423.379 184.778C420.861 184.778 418.812 186.826 418.812 189.344V200.757C418.812 203.275 420.861 205.324 423.379 205.324C425.898 205.324 427.946 203.275 427.946 200.757V189.344C427.946 186.826 425.898 184.778 423.379 184.778Z" fill="#FF4340"/>
<path d="M416.257 184.778H411.835C409.397 184.778 407.414 186.761 407.414 189.199C407.414 191.637 409.397 193.62 411.835 193.62C414.273 193.62 416.257 191.637 416.257 189.199V184.778Z" fill="#FF4340"/>
<path d="M407.4 177.653C407.4 180.171 409.449 182.22 411.967 182.22H423.38C425.898 182.22 427.947 180.171 427.947 177.653C427.947 175.135 425.898 173.086 423.38 173.086H411.967C409.449 173.086 407.4 175.135 407.4 177.653V177.653Z" fill="#36C6FF"/>
<path d="M423.527 170.528H427.948V166.107C427.948 163.669 425.965 161.686 423.527 161.686C421.089 161.686 419.105 163.669 419.105 166.107C419.105 168.545 421.089 170.528 423.527 170.528Z" fill="#36C6FF"/>
<path d="M435.071 182.22C437.589 182.22 439.638 180.171 439.638 177.653V166.24C439.638 163.722 437.589 161.674 435.071 161.674C432.553 161.674 430.504 163.722 430.504 166.24V177.653C430.504 180.171 432.553 182.22 435.071 182.22Z" fill="#0DC46E"/>
<path d="M442.195 182.22H446.617C449.055 182.22 451.038 180.237 451.038 177.799C451.038 175.361 449.054 173.378 446.617 173.378C444.179 173.378 442.195 175.361 442.195 177.799V182.22Z" fill="#0DC46E"/>
<path d="M451.05 189.344C451.05 186.826 449.001 184.778 446.483 184.778H435.071C432.553 184.778 430.504 186.826 430.504 189.344C430.504 191.863 432.553 193.911 435.071 193.911H446.483C449.001 193.911 451.05 191.863 451.05 189.344Z" fill="#FDCB02"/>
<path d="M434.925 196.469H430.504V200.89C430.504 203.328 432.487 205.311 434.925 205.311C437.363 205.311 439.346 203.328 439.346 200.89C439.346 198.452 437.363 196.469 434.925 196.469Z" fill="#FDCB02"/>
</g>
<circle cx="36.375" cy="314.448" r="36.375" fill="white"/>
<g clip-path="url(#clip1_9_7345)">
<path d="M56.8352 302.173H37.7383C36.9854 302.173 36.3743 302.784 36.3743 303.537C36.3743 304.29 36.9854 304.901 37.7383 304.901H52.8603L44.4795 311.418L38.4695 307.596L37.0072 309.899L43.8275 314.236C44.0485 314.378 44.3049 314.449 44.5586 314.449C44.8533 314.449 45.1506 314.354 45.3962 314.163L55.4711 306.325V323.998H37.7383C36.9854 323.998 36.3743 324.609 36.3743 325.362C36.3743 326.115 36.9854 326.726 37.7383 326.726H56.8352C57.5882 326.726 58.1993 326.115 58.1993 325.362V303.537C58.1993 302.784 57.5882 302.173 56.8352 302.173Z" fill="#1976D2"/>
<path d="M38.6094 294.302C38.2984 294.043 37.881 293.931 37.4881 294.013L15.6631 298.105C15.0166 298.225 14.55 298.787 14.55 299.445V329.454C14.55 330.109 15.0166 330.674 15.6631 330.794L37.4881 334.886C37.57 334.902 37.6545 334.91 37.7391 334.91C38.0556 334.91 38.3639 334.801 38.6094 334.597C38.9231 334.337 39.1032 333.95 39.1032 333.546V295.352C39.1032 294.946 38.9231 294.561 38.6094 294.302Z" fill="#2196F3"/>
<path d="M26.8274 323.997C23.068 323.997 20.0071 320.325 20.0071 315.813C20.0071 311.301 23.068 307.629 26.8274 307.629C30.5867 307.629 33.6477 311.301 33.6477 315.813C33.6477 320.325 30.5867 323.997 26.8274 323.997ZM26.8274 310.357C24.5712 310.357 22.7352 312.804 22.7352 315.813C22.7352 318.822 24.5712 321.269 26.8274 321.269C29.0836 321.269 30.9196 318.822 30.9196 315.813C30.9196 312.804 29.0836 310.357 26.8274 310.357Z" fill="#FAFAFA"/>
</g>
<circle cx="545.625" cy="314.448" r="36.375" fill="white"/>
<g clip-path="url(#clip2_9_7345)">
<path d="M545.586 306.412L536.527 322.126H536.502L541.748 328.523L529.976 333.462C529.745 333.335 529.566 333.155 529.464 332.976L523.936 322.74C523.655 322.177 523.885 321.742 523.962 321.486L538.779 295.894C538.882 295.741 539.035 295.587 539.24 295.459H539.266L546.866 297.814L545.586 306.412Z" fill="#59C36A"/>
<path d="M567.45 322.126L557.188 328.524L554.756 322.126L545.586 306.413L539.265 295.459C539.444 295.331 539.674 295.255 539.879 295.255H551.378C551.634 295.331 552.146 295.306 552.479 295.894L567.296 321.486C567.398 321.665 567.45 321.895 567.45 322.126Z" fill="#FFDA2D"/>
<path d="M552.48 295.895C552.147 295.307 551.635 295.332 551.379 295.256H545.587V306.413L554.758 322.127L557.189 328.524L567.451 322.127C567.451 321.896 567.4 321.666 567.297 321.487L552.48 295.895Z" fill="#FDBF00"/>
<path d="M567.45 322.126C567.45 322.356 567.399 322.586 567.322 322.74L561.794 332.976C561.59 333.309 561.103 333.642 560.668 333.642H530.59C530.385 333.642 530.155 333.565 529.976 333.463L536.502 322.126H567.45Z" fill="#4086F4"/>
<path d="M545.587 333.642H560.669C561.104 333.642 561.59 333.309 561.795 332.976L567.323 322.74C567.4 322.586 567.451 322.356 567.451 322.126H545.587V333.642H545.587Z" fill="#4175DF"/>
</g>
<circle cx="139.264" cy="183.499" r="36.375" fill="white"/>
<g clip-path="url(#clip3_9_7345)">
<path d="M126.013 194.333V190.825L131.937 194.255L139.264 187.396V202.985L126.013 194.333Z" fill="#0093EB"/>
<path d="M118.921 185.058L126.638 178.042L139.265 185.837L131.938 192.696L118.921 185.058Z" fill="#0093EB"/>
<path d="M126.637 178.042L117.439 171.027L130.69 164.012L140.043 170.247L126.637 178.042Z" fill="#0093EB"/>
<path d="M152.514 194.411L139.263 202.985V187.396L146.824 193.943L152.514 190.357V194.411Z" fill="#0093EB"/>
<path d="M146.824 192.384L139.263 185.836L151.968 177.73L159.607 184.277L146.824 192.384Z" fill="#0093EB"/>
<path d="M151.968 177.73L140.042 170.247L149.396 164.012L161.088 171.027L151.968 177.73Z" fill="#0093EB"/>
</g>
<circle cx="291" cy="417.338" r="36.375" fill="white"/>
<g clip-path="url(#clip4_9_7345)">
<path d="M308.938 408.471H273.132C272.425 408.471 271.853 407.899 271.853 407.192V399.349C271.853 397.234 273.574 395.513 275.689 395.513H306.381C308.496 395.513 310.217 397.234 310.217 399.349V407.192C310.217 407.899 309.645 408.471 308.938 408.471Z" fill="#E3E7EA"/>
<path d="M306.38 395.513H291.035V408.471H308.938C309.645 408.471 310.217 407.899 310.217 407.192V399.349C310.217 397.234 308.496 395.513 306.38 395.513Z" fill="#BABAC0"/>
<path d="M271.804 422.538C271.804 422.536 271.804 422.535 271.804 422.535L269.26 410.415C269.081 409.264 269.388 408.113 270.104 407.269C270.846 406.4 271.92 405.914 273.045 405.914H308.955C310.08 405.914 311.154 406.4 311.896 407.269C312.612 408.113 312.919 409.264 312.74 410.364L310.196 422.541L312.74 434.661C312.919 435.812 312.612 436.963 311.896 437.807C311.154 438.677 310.08 439.163 308.955 439.163H273.045C271.92 439.163 270.846 438.677 270.104 437.807C269.388 436.963 269.081 435.812 269.26 434.712C269.26 434.712 271.76 422.749 271.804 422.538Z" fill="#4086F4"/>
<path d="M271.804 422.535C271.804 422.535 271.804 422.536 271.804 422.538H310.196L312.74 410.364C312.919 409.264 312.612 408.113 311.896 407.269C311.154 406.4 310.08 405.914 308.955 405.914H273.045C271.92 405.914 270.846 406.4 270.104 407.269C269.388 408.113 269.081 409.264 269.26 410.415L271.804 422.535Z" fill="#4175DF"/>
<path d="M278.212 403.186C278.918 403.186 279.491 402.613 279.491 401.907C279.491 401.2 278.918 400.628 278.212 400.628C277.506 400.628 276.933 401.2 276.933 401.907C276.933 402.613 277.506 403.186 278.212 403.186Z" fill="#FFF5F5"/>
<path d="M303.788 403.186C304.494 403.186 305.067 402.613 305.067 401.907C305.067 401.2 304.494 400.628 303.788 400.628C303.082 400.628 302.509 401.2 302.509 401.907C302.509 402.613 303.082 403.186 303.788 403.186Z" fill="#E3E7EA"/>
<path d="M285.885 431.49C283.722 431.49 281.782 430.12 281.062 428.079C280.826 427.414 281.174 426.683 281.841 426.448C282.504 426.211 283.237 426.562 283.472 427.227C283.833 428.247 284.803 428.932 285.885 428.932C287.294 428.932 288.442 427.784 288.442 426.375C288.442 424.965 287.294 423.817 285.885 423.817H284.295C283.589 423.817 283.016 423.245 283.016 422.538C283.016 421.831 283.589 421.259 284.295 421.259H285.885C287.294 421.259 288.442 420.112 288.442 418.702C288.442 417.292 287.294 416.144 285.885 416.144C284.803 416.144 283.833 416.83 283.472 417.849C283.237 418.516 282.503 418.865 281.841 418.628C281.174 418.393 280.826 417.663 281.061 416.997C281.782 414.956 283.722 413.586 285.885 413.586C288.706 413.586 291 415.881 291 418.702C291 420.228 290.328 421.6 289.264 422.538C290.328 423.476 291 424.848 291 426.375C291 429.196 288.706 431.49 285.885 431.49Z" fill="#FFF5F5"/>
<path d="M281.841 418.628C282.503 418.865 283.237 418.516 283.472 417.849C283.833 416.83 284.803 416.144 285.885 416.144C287.294 416.144 288.442 417.292 288.442 418.702C288.442 420.112 287.294 421.259 285.885 421.259H284.295C283.589 421.259 283.016 421.831 283.016 422.538H289.264C290.328 421.6 291 420.228 291 418.702C291 415.881 288.706 413.586 285.885 413.586C283.722 413.586 281.782 414.956 281.062 416.997C280.825 417.663 281.174 418.393 281.841 418.628Z" fill="#E3E7EA"/>
<path d="M298.674 431.49C297.967 431.49 297.395 430.918 297.395 430.211V417.254L295.547 418.487C294.957 418.876 294.164 418.719 293.773 418.132C293.381 417.544 293.54 416.751 294.128 416.359L297.964 413.801C298.356 413.54 298.862 413.515 299.277 413.737C299.693 413.96 299.953 414.393 299.953 414.865V430.211C299.953 430.918 299.381 431.49 298.674 431.49Z" fill="#FFF5F5"/>
<path d="M295.547 418.487L297.395 417.255V422.538H299.953V414.866C299.953 414.393 299.693 413.96 299.277 413.738C298.862 413.516 298.356 413.541 297.964 413.801L294.128 416.359C293.54 416.751 293.381 417.544 293.773 418.132C294.164 418.719 294.957 418.877 295.547 418.487Z" fill="#E3E7EA"/>
</g>
<circle cx="287.882" cy="36.9595" r="36.375" fill="white"/>
<g clip-path="url(#clip5_9_7345)">
<path d="M304.252 20.5906H271.514V53.3281H304.252V20.5906Z" fill="#ECEFF1"/>
<path d="M287.882 40.4024L304.25 53.3282V27.8093L287.882 40.4024Z" fill="#CFD8DC"/>
<path d="M305.615 20.5908H304.251L287.882 33.5167L271.514 20.5908H270.15C267.891 20.5908 266.057 22.4241 266.057 24.683V49.2361C266.057 51.495 267.891 53.3283 270.15 53.3283H271.514V27.8094L287.882 40.3997L304.251 27.8067V53.3283H305.615C307.874 53.3283 309.707 51.495 309.707 49.2361V24.683C309.707 22.4241 307.874 20.5908 305.615 20.5908Z" fill="#F44336"/>
</g>
<circle cx="289.964" cy="279.262" r="51.9643" fill="white"/>
<path d="M264 262.478V271.56C264 274.326 267.454 275.801 269.565 273.865L279.641 264.783C281.848 262.801 280.408 259.297 277.386 259.297H267.31C265.487 259.297 264 260.726 264 262.478Z" fill="#5986EF"/>
<path d="M311.69 259.297H301.614C298.64 259.297 297.152 262.801 299.359 264.783L309.435 273.865C311.546 275.755 315 274.326 315 271.56V262.478C315 260.726 313.513 259.297 311.69 259.297Z" fill="#5986EF"/>
<path d="M291.779 281.471L309.435 297.421C311.546 299.312 315 297.882 315 295.116V285.943C315 285.067 314.616 284.237 313.944 283.638L291.779 263.585C290.484 262.432 288.516 262.432 287.221 263.585L265.056 283.638C264.384 284.237 264 285.067 264 285.943V295.116C264 297.882 267.454 299.358 269.565 297.421L287.221 281.471C288.516 280.319 290.484 280.319 291.779 281.471Z" fill="#5986EF"/>
<defs>
<clipPath id="clip0_9_7345">
<rect width="43.65" height="43.65" fill="white" transform="translate(407.4 161.674)"/>
</clipPath>
<clipPath id="clip1_9_7345">
<rect width="43.65" height="43.65" fill="white" transform="translate(14.55 292.623)"/>
</clipPath>
<clipPath id="clip2_9_7345">
<rect width="43.65" height="43.65" fill="white" transform="translate(523.8 292.623)"/>
</clipPath>
<clipPath id="clip3_9_7345">
<rect width="43.65" height="43.65" fill="white" transform="translate(117.439 161.674)"/>
</clipPath>
<clipPath id="clip4_9_7345">
<rect width="43.65" height="43.65" fill="white" transform="translate(269.175 395.513)"/>
</clipPath>
<clipPath id="clip5_9_7345">
<rect width="43.65" height="43.65" fill="white" transform="translate(266.057 15.1345)"/>
</clipPath>
</defs>
</svg>
