<svg width="1400" height="701" viewBox="0 0 1400 701" fill="none" xmlns="http://www.w3.org/2000/svg">
<g opacity="0.3">
<path d="M525.694 700.767C520.379 700.767 515.205 700.195 510.233 699.053C499.805 696.658 490.171 691.739 481.598 684.433C472.383 676.583 464.302 665.886 457.575 652.641C444.057 626.018 437.293 594.136 430.752 563.302C429.467 557.248 428.138 550.988 426.789 544.913C417.585 503.512 405.917 467.247 391.122 434.046C361.607 367.815 320.099 311.292 271.083 270.587C214.398 223.515 153.451 200.066 99.4692 204.562C67.7415 207.206 25.8204 232.346 7.08487 275.28C-4.0339 300.761 -4.93048 329.038 4.49386 357.05L4.30672 357.169C-0.634731 342.478 -2.78774 327.75 -2.09064 313.394C-1.45111 300.225 1.57587 287.352 6.90803 275.133C15.3885 255.699 29.3738 238.474 47.3527 225.319C63.966 213.165 82.4692 205.692 99.4569 204.277C127.707 201.926 157.753 207.144 188.759 219.788C216.865 231.252 244.599 248.26 271.19 270.342C320.235 311.069 361.767 367.623 391.299 433.893C406.102 467.117 417.776 503.402 426.987 544.826C428.338 550.9 429.666 557.163 430.949 563.218C437.485 594.029 444.244 625.889 457.744 652.472C470.8 678.184 488.472 693.76 510.268 698.766C540.451 705.7 577.104 691.198 608.311 659.969C653.284 614.969 684.495 549.468 714.681 486.127C719.972 475.024 725.442 463.543 730.858 452.457C744.92 423.67 763.964 386.367 786.596 353.135C809.73 319.167 833.239 294.21 858.466 276.836C873.907 266.201 890.272 259.036 907.105 255.541C922.654 252.31 939.111 252.11 956.02 254.94C985.025 259.797 1016.27 273.516 1051.55 296.877C1121.02 342.881 1190.41 398.719 1257.79 462.844C1321.84 523.793 1384.66 592.761 1444.5 667.825L1444.36 668.034C1320.32 512.428 1188.13 387.639 1051.46 297.13C974.25 245.997 912.954 239.626 858.559 277.087C803.22 315.195 764.562 383.969 731.029 452.612C725.614 463.695 720.145 475.176 714.854 486.279C684.66 549.643 653.438 615.164 608.434 660.195C593.892 674.748 577.531 686.099 561.124 693.019C552.456 696.674 543.84 699.065 535.512 700.125C532.193 700.556 528.917 700.767 525.694 700.767Z" fill="#A1A1A1"/>
<path d="M530.891 684.98C517.336 684.98 504.779 681.443 493.558 674.461C481.045 666.675 470.247 654.611 461.462 638.607C460.685 637.189 459.914 635.723 459.169 634.246C445.795 607.739 438.731 576.272 431.902 545.838C430.52 539.688 429.093 533.326 427.645 527.153C419.023 490.397 408.64 458.002 395.901 428.121C394.332 424.443 392.707 420.756 391.069 417.165C361.12 351.503 319.275 295.696 270.058 255.775C212.963 209.506 151.843 187.027 97.9581 192.481C66.4608 195.703 24.7329 221.254 5.91719 263.859C-5.34965 289.371 -6.62458 317.704 2.22602 345.798L2.03682 345.911C-2.60234 331.186 -4.50857 316.43 -3.62639 302.058C-2.81618 288.858 0.334154 275.957 5.74034 263.712C14.3072 244.311 28.2514 227.067 46.0616 213.844C62.5228 201.622 80.9458 193.936 97.9396 192.199C126.155 189.344 156.234 194.063 187.338 206.222C215.512 217.238 243.378 233.829 270.16 255.533C319.406 295.476 361.274 351.317 391.241 417.015C392.88 420.609 394.507 424.299 396.076 427.98C408.823 457.881 419.212 490.293 427.839 527.068C429.288 533.241 430.715 539.603 432.097 545.756C438.924 576.17 445.982 607.615 459.338 634.086C460.08 635.557 460.851 637.023 461.627 638.438C479.78 671.521 504.724 684.98 530.955 684.98C531.099 684.98 531.241 684.98 531.385 684.98C531.22 684.977 531.056 684.98 530.891 684.98ZM536.487 684.783C560.873 683.066 586.037 670.221 607.625 651.113C654.191 609.727 687.658 545.804 720.026 483.988C721.358 481.439 722.691 478.897 724.023 476.355C726.949 470.774 730.419 464.167 733.96 457.506C749.845 427.636 769.07 392.882 791.211 361.6C814.769 328.314 838.304 303.614 863.159 286.084C878.432 275.325 894.572 267.746 911.132 263.557C926.475 259.676 942.689 258.58 959.319 260.296C988.048 263.264 1018.94 274.516 1053.76 294.698C1087.7 314.345 1115.61 332.838 1141.57 352.899C1178.36 381.345 1213.4 414.121 1242.82 442.429C1311.23 508.431 1378.35 583.377 1442.32 665.187L1442.18 665.393C1378.22 583.594 1311.1 508.654 1242.7 442.66C1213.28 414.355 1178.25 381.584 1141.48 353.147C1115.52 333.092 1087.62 314.604 1053.68 294.963C977.83 250.997 917.32 248.255 863.254 286.338C807.139 325.907 767.178 395.526 734.126 457.675C730.583 464.336 727.116 470.94 724.19 476.524C722.857 479.063 721.525 481.609 720.192 484.157C687.815 545.993 654.335 609.938 607.736 651.356C596.181 661.582 583.886 669.706 571.19 675.498C559.372 680.884 547.723 683.999 536.487 684.783Z" fill="#A1A1A1"/>
<path d="M536.621 669.554C534.991 669.554 533.37 669.506 531.762 669.407C518.219 668.587 505.685 664.328 494.511 656.743C482.29 648.447 471.702 636.161 463.042 620.221C462.273 618.8 461.506 617.332 460.766 615.855C447.541 589.478 440.184 558.43 433.071 528.408C431.588 522.15 430.054 515.679 428.5 509.399C419.452 472.767 408.795 440.631 395.918 411.153C394.325 407.508 392.676 403.853 391.012 400.29C360.629 335.201 318.447 280.109 269.028 240.972C211.526 195.506 150.234 173.994 96.4436 180.407C66.1574 184.074 24.551 208.168 4.76871 252.399C-6.66058 277.953 -8.32418 306.363 -0.0431952 334.555L-0.234423 334.659C-4.57336 319.889 -6.22875 305.1 -5.15944 290.702C-4.17649 277.46 -0.894521 264.525 4.59392 252.252C13.2512 232.896 27.1502 215.646 44.7897 202.361C61.0967 190.08 79.4354 182.185 96.4251 180.128C124.608 176.77 154.719 180.987 185.92 192.662C214.164 203.232 242.16 219.403 269.131 240.729C318.578 279.892 360.783 335.015 391.185 400.14C392.848 403.706 394.5 407.362 396.093 411.012C408.976 440.507 419.639 472.663 428.691 509.314C430.245 515.597 431.779 522.069 433.262 528.326C440.373 558.331 447.724 589.356 460.933 615.703C461.673 617.18 462.436 618.645 463.205 620.06C498.391 684.828 560.749 677.875 606.937 642.255C655.446 604.515 691.497 541.791 726.36 481.133L726.718 480.51C730.094 474.63 733.586 468.553 737.061 462.552C773.733 399.244 814.04 334.183 867.855 295.327C882.963 284.442 898.881 276.448 915.163 271.569C930.309 267.031 946.276 265.038 962.622 265.647C991.122 266.706 1021.65 275.495 1055.97 292.514C1092.03 310.337 1119.16 326.719 1143.95 345.635C1179.28 372.641 1213.49 406.767 1243.68 436.876C1310.89 504.274 1376.99 580.198 1440.14 662.535L1440 662.738C1376.85 580.41 1310.76 504.494 1243.56 437.102C1213.38 406.998 1179.17 372.878 1143.85 345.881C1119.07 326.97 1091.95 310.593 1055.9 292.776C981.52 255.885 921.799 256.773 867.949 295.573C814.169 334.403 773.879 399.436 737.222 462.721C733.747 468.722 730.255 474.802 726.878 480.679L726.521 481.302C709.146 511.529 691.182 542.786 671.782 570.705C649.981 602.08 628.802 625.562 607.035 642.494C584.263 660.055 559.457 669.554 536.621 669.554Z" fill="#A1A1A1"/>
<path d="M1437.82 660.08C1375.5 577.222 1310.43 500.331 1244.42 431.543C1241.62 428.651 1238.82 425.745 1236.01 422.831C1207.42 393.172 1177.86 362.505 1146.24 338.614C1115.57 315.501 1084.49 301.368 1058.12 290.592C985.355 260.663 926.421 265.181 872.654 304.806C817.459 345.604 774.69 413.34 740.326 467.769C738.264 471.036 736.206 474.309 734.143 477.584C732.621 480.002 731.097 482.421 729.574 484.836C710.007 515.859 692.209 543.595 672.544 568.904C650.079 597.815 628.425 618.989 606.342 633.638C585.647 647.368 563.539 654.631 542.975 654.634C539.228 654.634 535.537 654.395 531.909 653.907C518.667 652.128 506.406 647.131 495.471 639.053C483.538 630.238 473.159 617.718 464.619 601.837C463.856 600.414 463.095 598.943 462.359 597.463C449.291 571.224 441.647 540.613 434.257 511.011C432.665 504.635 431.018 498.039 429.352 491.638C419.872 455.122 408.941 423.242 395.936 394.176C394.318 390.559 392.642 386.937 390.956 383.406C360.137 318.889 317.62 264.513 268.002 226.156C210.092 181.494 148.629 160.955 94.9336 168.317C58.2254 173.45 20.6885 203.288 3.64942 240.876C-7.95877 266.484 -10.0172 294.983 -2.30789 323.294L-2.50118 323.393C-6.53783 308.569 -7.9444 293.735 -6.68179 279.3C-5.51994 266.01 -2.10226 253.033 3.47461 240.726C12.2224 221.427 26.0761 204.176 43.5388 190.844C59.6895 178.512 77.9336 170.411 94.913 168.038C123.063 164.176 153.205 167.894 184.503 179.084C212.815 189.209 240.944 204.963 268.104 225.908C317.753 264.288 360.293 318.694 391.131 383.251C392.819 386.785 394.495 390.41 396.113 394.026C409.126 423.11 420.062 455.006 429.548 491.539C431.213 497.943 432.86 504.536 434.452 510.915C441.839 540.5 449.478 571.091 462.53 597.299C463.266 598.776 464.025 600.245 464.786 601.665C501.518 669.974 563.952 661.441 606.253 633.381C656.723 599.901 695.343 538.673 729.419 484.65C730.943 482.232 732.465 479.813 733.989 477.398C736.049 474.122 738.11 470.85 740.172 467.583C759.788 436.515 779.159 406.324 800.455 378.504C824.944 346.509 848.53 322.322 872.559 304.558C887.509 293.54 903.201 285.132 919.202 279.571C934.155 274.37 949.878 271.484 965.935 270.988C994.251 270.114 1024.43 276.439 1058.19 290.321C1084.56 301.103 1115.65 315.241 1146.34 338.369C1177.97 362.268 1207.54 392.944 1236.14 422.608C1238.95 425.523 1241.75 428.429 1244.55 431.321C1310.56 500.114 1375.64 577.013 1437.97 659.88L1437.82 660.08Z" fill="#A1A1A1"/>
<path d="M1435.64 657.425C1372.96 572.453 1308.92 494.583 1245.28 425.985C1241.47 421.881 1237.57 417.65 1233.81 413.56C1206.83 384.268 1178.93 353.979 1148.62 331.347C1118.36 308.829 1087.02 297.002 1060.35 288.404C989.348 265.3 931.2 273.446 877.354 314.041C825.994 352.902 785.757 411.339 746.845 467.851L742.571 474.055C739.197 478.957 735.707 484.022 732.267 488.991C693.315 545.179 654.323 597.841 605.646 624.776C593.834 631.312 581.706 635.842 569.594 638.246C556.587 640.826 543.953 640.862 532.041 638.354C519.102 635.628 507.12 629.903 496.426 621.337C484.789 612.016 474.619 599.267 466.2 583.448C465.441 582.016 464.686 580.542 463.956 579.065C451.049 552.981 443.129 522.821 435.472 493.653C433.763 487.145 431.994 480.414 430.209 473.877C420.289 437.474 409.086 405.851 395.959 377.202C394.318 373.622 392.617 370.028 390.904 366.525C359.651 302.58 316.799 248.92 266.977 211.344C208.658 167.491 147.023 147.918 93.4197 156.236C57.0466 162 19.6804 192.048 2.55498 229.308C-9.24651 254.98 -11.7121 283.59 -4.57649 312.045L-4.77186 312.138C-8.50622 297.25 -9.65983 282.358 -8.20186 267.882C-6.857 254.535 -3.29744 241.507 2.37813 229.161C11.2205 209.926 25.0249 192.693 42.3025 179.321C58.2928 166.944 76.4382 158.649 93.395 155.96C121.512 151.596 151.685 154.813 183.081 165.518C211.463 175.197 239.722 190.531 267.074 211.099C316.924 248.695 359.801 302.388 391.073 366.37C392.786 369.876 394.488 373.473 396.129 377.052C409.265 405.716 420.475 437.355 430.399 473.779C432.183 480.315 433.952 487.049 435.661 493.557C443.315 522.708 451.23 552.854 464.123 578.907C464.851 580.379 465.606 581.85 466.362 583.282C502.211 650.64 561.776 648.749 605.566 624.517C654.203 597.604 693.18 544.962 732.115 488.799C735.555 483.83 739.045 478.765 742.419 473.863L746.692 467.659C765.794 439.921 785.543 411.235 806.993 384.55C831.287 354.328 854.269 331.184 877.251 313.792C892.049 302.636 907.519 293.814 923.229 287.573C938 281.704 953.479 277.922 969.234 276.329C997.427 273.48 1027.24 277.341 1060.39 288.128C1087.08 296.731 1118.44 308.561 1148.72 331.099C1179.04 353.739 1206.94 384.037 1233.93 413.337C1237.7 417.427 1241.59 421.655 1245.4 425.762C1309.05 494.366 1373.1 572.241 1435.78 657.222L1435.64 657.425Z" fill="#A1A1A1"/>
<path d="M1433.46 654.769C1371.32 568.853 1308.3 490.008 1246.13 420.429C1241.46 415.2 1236.67 409.763 1232.04 404.506C1206.52 375.53 1180.12 345.567 1151.01 324.086C1120.89 301.954 1089.4 292.525 1062.57 286.223C993.539 269.759 936.179 281.535 882.053 323.28C834.818 359.864 796.037 411.711 758.531 461.85C754.585 467.126 750.503 472.58 746.526 477.865C741.856 484.072 738.288 488.788 734.959 493.151C717.128 516.507 695.898 543.4 673.62 565.769C650.01 589.472 627.549 605.876 604.949 615.922C593.065 621.204 580.988 624.536 569.051 625.821C556.234 627.203 543.824 626.188 532.168 622.803C519.54 619.135 507.837 612.683 497.381 603.627C486.042 593.807 476.083 580.829 467.779 565.062C467.031 563.633 466.28 562.156 465.552 560.673C452.815 534.764 444.631 505.069 436.714 476.352C434.877 469.691 432.979 462.805 431.065 456.116C420.699 419.814 409.222 388.451 395.977 360.227C394.311 356.679 392.586 353.119 390.848 349.643C359.162 286.271 315.972 233.327 265.949 196.532C207.225 153.485 145.417 134.884 91.9082 144.152C61.4617 149.541 21.6956 174.368 1.48978 217.68C-10.5235 243.432 -13.4065 272.171 -6.84468 300.79L-7.04005 300.874C-10.4721 285.91 -11.3687 270.954 -9.70715 256.421C-8.1731 243.006 -4.46548 229.922 1.31703 217.528C10.254 198.372 24.007 181.167 41.0933 167.767C56.9233 155.354 74.9596 146.869 91.8836 143.873C119.967 139.008 150.173 141.722 181.665 151.943C210.114 161.177 238.505 176.094 266.046 196.284C316.098 233.099 359.312 286.073 391.017 349.483C392.755 352.958 394.482 356.524 396.148 360.075C409.399 388.313 420.882 419.693 431.254 456.012C433.171 462.704 435.069 469.59 436.905 476.25C444.816 504.953 452.998 534.631 465.721 560.512C466.449 561.992 467.197 563.466 467.946 564.893C497.769 621.531 548.963 640.507 604.885 615.649C655.53 593.139 696.842 542.687 734.817 492.943C738.146 488.579 741.712 483.864 746.382 477.657C750.359 472.372 754.441 466.918 758.387 461.641C776.851 436.958 795.943 411.435 816.307 387.535C839.334 360.506 860.809 339.406 881.954 323.029C896.61 311.726 911.854 302.489 927.266 295.578C941.864 289.03 957.098 284.354 972.543 281.673C1000.67 276.797 1030.13 278.192 1062.6 285.938C1089.45 292.246 1120.96 301.678 1151.1 323.83C1180.24 345.325 1206.64 375.296 1232.17 404.281C1236.8 409.538 1241.59 414.975 1246.26 420.203C1308.43 489.791 1371.46 568.641 1433.61 654.564L1433.46 654.769Z" fill="#A1A1A1"/>
<path d="M1431.28 652.115C1369.68 565.248 1307.68 485.426 1246.99 414.871C1241.83 408.87 1236.52 402.57 1231.4 396.479C1206.97 367.463 1181.71 337.461 1153.39 316.82C1123.25 294.952 1091.69 287.976 1064.79 284.036C998.891 274.122 940.653 289.98 886.751 332.514C843.833 366.536 807.042 412.049 771.463 456.066C764.276 464.956 756.847 474.151 749.622 482.914C745.203 488.278 741.288 492.988 737.648 497.312C720.722 517.398 698.207 543.152 674.148 564.2C649.973 585.345 627.108 599.368 604.248 607.066C579.314 615.463 554.43 615.525 532.287 607.249C519.976 602.646 508.551 595.47 498.328 585.918C487.292 575.604 477.545 562.401 469.354 546.681C468.612 545.25 467.867 543.77 467.144 542.287C454.587 516.575 446.148 487.368 437.988 459.124C436.014 452.292 433.974 445.228 431.916 438.365C421.095 402.159 409.345 371.049 395.993 343.262C394.303 339.744 392.553 336.215 390.791 332.771C358.67 269.97 315.145 217.74 264.92 181.731C205.792 139.493 143.811 121.862 90.3946 132.08C54.1943 139.155 18.0495 168.864 0.455243 206.003C-11.7884 231.848 -15.0971 260.736 -9.11304 289.546L-9.31044 289.622C-12.4382 274.568 -13.0757 259.533 -11.2064 244.938C-9.47908 231.447 -5.61309 218.295 0.282516 205.848C9.31408 186.782 23.0136 169.617 39.9005 156.205C55.5638 143.766 73.4871 135.096 90.3658 131.798C118.417 126.431 148.656 128.647 180.243 138.38C208.763 147.168 237.285 161.668 265.015 181.478C315.269 217.509 358.818 269.767 390.959 332.607C392.722 336.052 394.472 339.584 396.164 343.104C409.522 370.908 421.278 402.032 432.105 438.255C434.164 445.118 436.203 452.185 438.178 459.017C446.333 487.246 454.768 516.44 467.312 542.126C468.036 543.609 468.778 545.083 469.521 546.515C498.832 602.787 549.178 625.32 604.198 606.793C654.357 589.9 697.915 544.088 737.513 497.101C741.15 492.777 745.068 488.07 749.485 482.706C756.707 473.942 764.138 464.75 771.323 455.86C806.911 411.835 843.707 366.31 886.646 332.275C901.173 320.811 916.194 311.163 931.294 303.592C945.736 296.353 960.725 290.781 975.843 287.029C1003.96 280.053 1033.06 278.985 1064.81 283.759C1091.73 287.703 1123.31 294.682 1153.48 316.575C1181.82 337.23 1207.09 367.243 1231.53 396.27C1236.66 402.362 1241.96 408.659 1247.12 414.66C1307.81 485.22 1369.82 565.048 1431.43 651.92L1431.28 652.115Z" fill="#A1A1A1"/>
<path d="M1429.1 649.459C1368.05 561.634 1307.07 480.839 1247.85 409.315C1242.41 402.742 1236.81 395.782 1231.39 389.051C1207.86 359.79 1183.52 329.532 1155.77 309.556C1125.5 287.874 1093.92 283.384 1067.01 281.851C1003.6 277.972 946.174 297.565 891.45 341.751C853.072 372.886 818.86 412.291 785.773 450.397C774.398 463.501 763.651 475.878 752.721 487.962C748.276 492.881 744.227 497.3 740.34 501.469C715.263 528.345 694.399 547.777 674.678 562.621C649.938 581.244 626.672 592.885 603.551 598.207C594.581 600.27 585.644 601.299 576.869 601.299C561.315 601.299 546.264 598.074 532.409 591.687C507.333 580.128 486.65 558.799 470.933 528.292C470.193 526.846 469.455 525.366 468.739 523.889C456.374 498.4 447.699 469.711 439.309 441.964C437.182 434.934 434.986 427.667 432.771 420.601C421.488 384.479 409.462 353.629 396.014 326.285C394.299 322.798 392.524 319.3 390.737 315.887C358.183 253.658 314.32 202.144 263.894 166.916C204.36 125.49 142.209 108.825 88.8851 119.993C52.5347 127.764 17.4325 156.909 -0.538123 194.246C-13.0306 220.198 -16.7772 249.258 -11.3772 278.288L-11.5767 278.358C-14.396 263.2 -14.7702 248.074 -12.6871 233.403C-10.7583 219.823 -6.72984 206.597 -0.708792 194.091C8.41737 175.13 22.0572 158.02 38.7385 144.609C54.2332 132.15 72.0311 123.311 88.8542 119.714C116.872 113.846 147.144 115.559 178.826 124.807C207.416 133.154 236.067 147.236 263.989 166.662C314.444 201.913 358.331 253.455 390.906 315.72C392.693 319.136 394.467 322.634 396.184 326.124C409.641 353.482 421.673 384.35 432.961 420.485C435.175 427.552 437.374 434.821 439.498 441.851C447.884 469.584 456.555 498.262 468.91 523.728C469.626 525.203 470.362 526.682 471.102 528.126C500.451 585.097 548.713 610.538 603.516 597.925C655.684 585.917 701.89 542.315 740.213 501.244C744.097 497.075 748.146 492.658 752.592 487.739C763.519 475.656 774.266 463.282 785.642 450.177C818.733 412.063 852.953 372.652 891.345 341.506C905.763 329.864 920.56 319.802 935.329 311.594C949.633 303.645 964.377 297.176 979.15 292.37C1007.32 283.207 1036.07 279.672 1067.02 281.566C1093.95 283.099 1125.56 287.595 1155.86 309.302C1183.64 329.292 1207.98 359.565 1231.53 388.837C1236.94 395.568 1242.54 402.527 1247.98 409.098C1307.2 480.628 1368.19 561.431 1429.24 649.262L1429.1 649.459Z" fill="#A1A1A1"/>
<path d="M1426.92 646.804C1365.57 556.764 1307.27 477.263 1248.71 403.757C1243.12 396.744 1237.62 389.582 1231.79 381.999C1209.02 352.358 1185.47 321.71 1158.15 302.292C1127.51 280.619 1094.54 278.815 1069.24 279.667C1008.71 281.437 952.095 304.767 896.149 350.991C862.583 378.859 831.592 412.326 801.62 444.693C785.869 461.703 770.991 477.767 755.819 493.013C751.315 497.543 747.131 501.67 743.03 505.63C717.612 530.141 696.061 547.747 675.205 561.04C649.891 577.174 626.224 586.433 602.852 589.348C590.843 590.845 578.916 590.563 567.402 588.511C555.212 586.338 543.478 582.169 532.528 576.123C508.257 562.72 488.065 540.444 472.513 509.909C471.779 508.46 471.047 506.977 470.335 505.5C458.178 480.273 449.284 452.131 440.683 424.917C438.388 417.656 436.015 410.147 433.627 402.846C421.871 366.804 409.574 336.21 396.033 309.317C394.291 305.861 392.492 302.394 390.684 299.011C357.696 237.355 313.498 186.557 262.871 152.11C216.142 120.447 167.953 103.927 123.764 103.927C111.271 103.927 99.1077 105.246 87.3762 107.915C51.4638 116.247 16.5816 145.497 -1.49386 182.433C-14.2516 208.506 -18.4527 237.764 -13.6429 267.042L-13.8444 267.104C-16.3552 251.827 -16.4601 236.597 -14.157 221.841C-12.0225 208.162 -7.81926 194.85 -1.66661 182.275C7.55414 163.432 21.1303 146.393 37.5977 132.996C53.1418 120.349 70.3433 111.58 87.3391 107.639C115.324 101.269 145.629 102.484 177.408 111.244C206.066 119.142 234.851 132.804 262.961 151.853C313.618 186.32 357.842 237.147 390.851 298.839C392.66 302.222 394.462 305.692 396.203 309.15C409.751 336.057 422.054 366.666 433.816 402.725C436.204 410.026 438.579 417.535 440.874 424.798C449.472 452.002 458.361 480.132 470.508 505.34C471.22 506.814 471.952 508.296 472.684 509.742C501.767 566.841 549.203 595.749 602.835 589.063C657.105 582.296 706.203 540.793 742.915 505.393C747.016 501.433 751.198 497.306 755.702 492.78C770.871 477.539 785.747 461.472 801.497 444.464C831.473 412.094 862.468 378.62 896.047 350.743C924.85 326.945 953.115 309.601 982.459 297.718C1010.76 286.257 1039.15 280.259 1069.24 279.379C1086.4 278.801 1100.41 279.805 1113.31 282.533C1129.98 286.057 1144.67 292.435 1158.25 302.036C1185.6 321.471 1209.15 352.135 1231.94 381.791C1237.76 389.373 1243.26 396.532 1248.85 403.545C1307.42 477.054 1365.71 556.561 1427.07 646.607L1426.92 646.804Z" fill="#A1A1A1"/>
<path d="M1424.74 644.148C1363.95 553.122 1306.65 472.673 1249.56 398.198C1243.91 390.83 1238.35 383.239 1232.45 375.203C1210.36 345.094 1187.52 313.956 1160.53 295.025C1129.63 273.454 1096.7 274.316 1071.46 277.476C1014.34 284.379 958.535 311.447 900.848 360.222C872.425 384.369 845.363 412.004 819.192 438.731C798.503 459.857 778.963 479.813 758.918 498.053C754.387 502.179 749.946 506.125 745.72 509.779C720.252 531.776 697.358 548.02 675.731 559.441C649.836 573.117 625.768 580.001 602.153 580.48C590.137 580.722 578.258 579.234 566.851 576.052C554.893 572.714 543.386 567.497 532.647 560.54C509.209 545.356 489.507 522.133 474.09 491.513C473.366 490.067 472.638 488.582 471.929 487.096C460 462.176 450.913 434.629 442.124 407.99C439.638 400.453 437.065 392.656 434.481 385.077C422.243 349.102 409.673 318.767 396.051 292.333C394.285 288.909 392.461 285.473 390.629 282.121C357.206 221.037 312.672 170.955 261.842 137.288C201.5 97.4884 139.001 82.7636 85.8626 95.8254C50.415 104.69 15.7652 134.016 -2.411 170.532C-15.4566 196.743 -20.1245 226.221 -15.9131 255.783L-16.1146 255.837C-18.3108 240.427 -18.1422 225.079 -15.6108 210.222C-13.2604 196.43 -8.87827 183.022 -2.58167 170.371C6.72956 151.664 20.2378 134.709 36.4831 121.34C51.8483 108.696 68.91 99.7772 85.8256 95.5463C113.78 88.6772 144.115 89.3875 175.989 97.6632C204.717 105.121 233.631 118.366 261.931 137.032C312.791 170.715 357.35 220.829 390.791 281.949C392.625 285.301 394.451 288.739 396.218 292.167C409.847 318.615 422.422 348.964 434.666 384.953C437.253 392.532 439.823 400.329 442.311 407.869C451.096 434.497 460.179 462.033 472.1 486.936C472.809 488.418 473.537 489.904 474.259 491.347C503.648 549.717 549.067 581.275 602.148 580.192C645.219 579.318 690.805 556.865 745.609 509.533C749.833 505.88 754.272 501.937 758.802 497.81C778.842 479.573 798.381 459.623 819.066 438.497C845.242 411.767 872.308 384.127 900.739 359.973C929.824 335.38 957.635 316.766 985.76 303.058C1014.25 289.174 1042.28 280.709 1071.44 277.186C1096.71 274.02 1129.68 273.161 1160.62 294.766C1187.64 313.719 1210.5 344.871 1232.6 374.994C1238.49 383.03 1244.06 390.618 1249.7 397.984C1306.79 472.462 1364.09 552.916 1424.89 643.948L1424.74 644.148Z" fill="#A1A1A1"/>
<path d="M1422.56 641.493C1362.33 549.477 1306.03 468.076 1250.42 392.642C1244.78 384.984 1239.2 377.027 1233.3 368.602C1211.84 337.954 1189.64 306.263 1162.92 287.761C1131.73 266.269 1098.85 269.806 1073.68 275.289C1019.94 286.775 966.52 316.698 905.549 369.458C882.682 389.336 860.335 411.141 838.725 432.228C812.478 457.838 787.686 482.031 762.016 503.101C757.392 506.901 752.814 510.548 748.411 513.936C722.487 533.876 698.886 548.24 676.26 557.846C663.586 563.227 651.075 567.125 639.074 569.433C626.274 571.894 613.617 572.63 601.455 571.621C576.781 569.571 553.672 560.602 532.771 544.964C510.198 528.075 490.987 503.907 475.673 473.127C474.954 471.67 474.232 470.182 473.527 468.705C461.853 444.151 452.603 417.258 443.66 391.253C440.952 383.38 438.153 375.24 435.338 367.319C422.607 331.403 409.763 301.325 396.072 275.362C394.28 271.966 392.43 268.561 390.575 265.243C356.719 204.728 311.849 155.362 260.818 122.482C200.073 83.4965 137.403 69.7413 84.353 83.7474C27.55 98.9768 -27.8012 164.779 -18.1774 244.534L-18.381 244.579C-20.789 224.628 -19.3783 204.974 -14.1901 186.156C-9.45224 168.971 -1.67711 152.797 8.91935 138.089C18.7714 124.413 30.5914 112.605 44.0483 102.993C56.8471 93.8524 70.7707 87.0988 84.3119 83.4683C112.233 76.0975 142.602 76.3089 174.572 84.0997C203.369 91.1155 232.416 103.943 260.904 122.228C311.964 155.131 356.861 204.525 390.737 265.074C392.594 268.394 394.445 271.799 396.238 275.199C409.936 301.173 422.786 331.268 435.523 367.198C438.338 375.118 441.137 383.259 443.845 391.134C452.786 417.131 462.032 444.013 473.699 468.552C474.403 470.029 475.122 471.518 475.842 472.972C505.275 532.125 549.89 567.057 601.468 571.342C645.133 574.964 693.165 556.109 748.311 513.694C752.711 510.306 757.287 506.661 761.912 502.861C787.575 481.797 812.362 457.607 838.606 432C860.218 410.91 882.567 389.102 905.438 369.222C966.434 316.439 1019.88 286.504 1073.65 275.01C1090.56 271.326 1104.56 270.147 1117.71 271.306C1134.52 272.786 1149.33 278.085 1163.01 287.508C1189.76 306.029 1211.97 337.74 1233.45 368.404C1239.35 376.827 1244.92 384.784 1250.56 392.439C1306.17 467.879 1362.48 549.282 1422.71 641.304L1422.56 641.493Z" fill="#A1A1A1"/>
<path d="M1420.38 638.838C1360.73 545.819 1305.41 463.471 1251.28 387.084C1245.68 379.18 1240.14 370.902 1234.28 362.133C1213.4 330.899 1191.8 298.6 1165.3 280.495C1133.43 258.822 1099.02 265.894 1075.91 273.099C1013.18 292.413 956.964 337.314 910.25 378.696C893.46 393.629 876.713 409.448 860.515 424.745C828.022 455.432 797.333 484.416 765.118 508.15C760.38 511.642 755.667 514.988 751.106 518.097C724.675 536.077 700.367 548.558 676.793 556.248C650.068 564.966 624.489 567.159 600.761 562.762C576.384 558.243 553.55 547.014 532.896 529.383C511.233 510.892 492.513 485.781 477.255 454.744C476.544 453.287 475.826 451.796 475.125 450.313C463.741 426.21 454.376 400.056 445.318 374.761C442.35 366.471 439.28 357.902 436.196 349.562C422.778 313.195 410.035 284.227 396.094 258.391C394.279 255.025 392.405 251.654 390.524 248.365C356.23 188.425 311.023 139.775 259.79 107.673C198.642 69.5048 135.8 56.7164 82.8399 71.6668C25.8333 87.9729 -28.387 152.882 -20.4453 233.285L-20.6489 233.322C-22.6189 213.374 -20.9141 193.739 -15.584 174.963C-10.6981 157.761 -2.87775 141.57 7.66319 126.845C17.4926 113.113 29.2509 101.218 42.6132 91.485C55.3359 82.2171 69.2329 75.2691 82.7987 71.3877C110.689 63.5151 141.089 63.2276 173.153 70.5308C202.021 77.104 231.199 89.5147 259.877 107.416C311.14 139.535 356.372 188.214 390.682 248.19C392.564 251.482 394.439 254.856 396.257 258.222C410.205 284.069 422.953 313.054 436.377 349.435C439.461 357.775 442.531 366.347 445.499 374.637C454.555 399.923 463.918 426.069 475.293 450.161C475.995 451.643 476.71 453.132 477.422 454.589C507.083 514.92 550.894 553.237 600.785 562.483C645.532 570.775 694.671 556.172 751.013 517.843C755.572 514.737 760.285 511.394 765.019 507.902C797.226 484.174 827.911 455.195 860.397 424.511C876.595 409.214 893.345 393.392 910.137 378.456C941.55 350.633 967.682 330.076 992.371 313.764C1021.44 294.563 1048.74 281.172 1075.86 272.823C1092.39 267.67 1106.8 265.336 1119.9 265.691C1136.78 266.148 1151.66 270.906 1165.39 280.242C1191.93 298.369 1213.54 330.688 1234.43 361.941C1240.29 370.707 1245.82 378.986 1251.42 386.884C1305.56 463.273 1360.88 545.627 1420.53 638.649L1420.38 638.838Z" fill="#A1A1A1"/>
<path d="M1418.2 636.18C1359.12 542.154 1304.8 458.856 1252.14 381.522C1246.61 373.413 1241.15 364.847 1235.36 355.776C1215.03 323.914 1194.01 290.966 1167.68 273.228C1135.46 251.606 1101.14 261.547 1078.13 270.908C1021.3 293.827 970.604 337.466 914.951 387.929C904.914 397.064 894.761 406.493 884.942 415.614C847.179 450.69 808.133 486.958 768.217 513.195C763.368 516.385 758.515 519.432 753.795 522.251C727.186 538.126 701.457 549.023 677.321 554.641C649.98 561.005 623.987 560.754 600.059 553.899C576.025 547.013 553.468 533.52 533.016 513.795C512.318 493.833 494.087 467.78 478.828 436.36C478.123 434.9 477.411 433.406 476.714 431.923C465.674 408.384 456.249 383.081 447.136 358.612C443.852 349.795 440.456 340.679 437.045 331.809C423.103 295.479 410.094 266.759 396.107 241.425C394.27 238.099 392.37 234.756 390.462 231.492C355.74 172.116 310.2 124.181 258.762 92.8628C197.213 55.5124 134.2 43.6936 81.3264 59.5854C26.1294 76.3566 -29.0923 138.988 -22.7155 222.032L-22.9191 222.06C-24.4511 202.112 -22.4523 182.5 -16.9803 163.767C-11.9484 146.545 -4.08071 130.34 6.40265 115.598C25.7448 88.4037 53.037 67.8864 81.2812 59.3063C109.139 50.9348 139.571 50.1456 171.732 56.9612C200.67 63.0946 229.977 75.0854 258.844 92.6035C310.311 123.939 355.878 171.905 390.622 231.309C392.533 234.575 394.433 237.918 396.271 241.247C410.265 266.596 423.28 295.327 437.226 331.671C440.637 340.544 444.035 349.66 447.319 358.477C456.43 382.94 465.853 408.238 476.887 431.765C477.582 433.248 478.294 434.739 478.999 436.199C509.526 499.062 551.402 539.665 600.098 553.62C645.19 566.541 696.871 555.901 753.709 521.992C758.426 519.173 763.275 516.129 768.122 512.941C808.024 486.713 847.066 450.45 884.821 415.38C894.64 406.259 904.792 396.831 914.832 387.695C939.193 365.605 967.54 340.268 995.674 319.114C1025.1 296.987 1052.05 281.132 1078.07 270.641C1094.44 263.98 1108.85 260.524 1122.1 260.079C1138.81 259.515 1154.17 263.856 1167.76 272.977C1179.56 280.923 1191.43 292.781 1204.05 309.231C1215.2 323.756 1225.52 339.941 1235.51 355.59C1241.29 364.658 1246.76 373.224 1252.28 381.331C1304.95 458.667 1359.27 541.968 1418.35 635.996L1418.2 636.18Z" fill="#A1A1A1"/>
<path d="M1416.02 633.525C1357.52 538.484 1304.19 454.236 1252.99 375.967C1247.57 367.68 1242.2 358.855 1236.51 349.513C1216.71 316.988 1196.24 283.356 1170.06 265.967C1145.6 249.768 1116.26 250.67 1080.35 268.724C1030.15 293.825 985.279 335.809 937.769 380.262C931.852 385.798 925.737 391.52 919.65 397.172C917.267 399.39 914.881 401.614 912.498 403.835C867.229 446.028 820.42 489.659 771.316 518.246C766.352 521.138 761.363 523.886 756.487 526.412C729.294 540.485 702.839 549.443 677.858 553.034C649.885 557.054 623.476 554.365 599.367 545.04C575.706 535.888 553.427 520.132 533.15 498.208C513.495 476.958 495.753 449.966 480.414 417.977C479.715 416.514 479.01 415.017 478.317 413.531C467.695 390.731 458.302 366.448 449.215 342.966C445.536 333.455 441.73 323.621 437.907 314.049C423.426 277.744 410.154 249.272 396.134 224.451C394.271 221.153 392.348 217.844 390.415 214.611C355.253 155.81 309.376 108.589 257.736 78.0537C195.788 41.5234 132.6 30.6715 79.8153 47.5047C25.6321 64.927 -29.5115 128.071 -24.9813 210.783L-25.1869 210.806C-26.2789 190.855 -23.9881 171.265 -18.3742 152.58C-13.1942 135.338 -5.2813 119.114 5.14654 104.361C24.4065 77.1094 51.604 56.2877 79.768 47.2313C107.595 38.358 138.058 37.0671 170.314 43.3979C199.321 49.086 228.762 60.6595 257.819 77.7943C309.487 108.349 355.393 155.596 390.569 214.428C392.502 217.661 394.429 220.975 396.292 224.273C410.319 249.109 423.599 277.589 438.084 313.908C441.909 323.48 445.713 333.317 449.394 342.827C458.477 366.304 467.87 390.582 478.487 413.374C479.18 414.859 479.884 416.353 480.583 417.816C511.772 482.86 552.864 526.755 599.42 544.761C645.378 562.536 698.198 556.27 756.414 526.141C761.285 523.615 766.272 520.87 771.234 517.981C820.321 489.405 867.122 445.783 912.381 403.596C914.766 401.372 917.149 399.151 919.533 396.932C925.62 391.281 931.735 385.559 937.651 380.026C985.172 335.564 1030.06 293.568 1080.28 268.456C1096.5 260.299 1110.9 255.724 1124.3 254.464C1141.08 252.889 1156.5 256.674 1170.15 265.711C1181.87 273.499 1193.59 285.411 1205.98 302.128C1216.91 316.879 1226.96 333.376 1236.67 349.33C1242.36 358.668 1247.72 367.491 1253.15 375.775C1304.35 454.047 1357.68 538.298 1416.17 633.342L1416.02 633.525Z" fill="#A1A1A1"/>
<path d="M1413.84 630.87C1360.45 542.306 1306.62 454.673 1253.85 370.408C1248.48 361.879 1243.15 352.715 1237.52 343.016C1219.18 311.464 1198.4 275.703 1172.44 258.704C1147.7 242.533 1118.3 245.095 1082.57 266.534C1040.09 291.942 1002.5 329.301 962.7 368.852C950.237 381.238 937.347 394.049 924.347 406.406C901.655 428.022 877.108 450.896 851.377 471.729C823.82 494.042 798.643 510.906 774.409 523.291C769.318 525.893 764.193 528.343 759.173 530.566C731.404 542.864 704.229 549.863 678.404 551.368C649.814 553.031 622.986 547.924 598.664 536.176C553.749 514.212 514.493 468.259 481.988 399.59C481.295 398.125 480.595 396.625 479.906 395.14C469.824 373.345 460.595 350.353 451.671 328.117C447.469 317.651 443.126 306.827 438.757 296.294C423.725 259.997 410.185 231.777 396.149 207.482C394.259 204.213 392.311 200.935 390.356 197.735C354.766 139.501 308.552 92.9984 256.71 63.2443C194.361 27.5315 131.003 17.652 78.3042 35.4238C23.792 53.9116 -29.9697 116.219 -27.2491 199.534L-27.4547 199.545C-28.1066 179.589 -25.5197 160.021 -19.768 141.384C-14.4379 124.12 -6.47982 107.878 3.88838 93.114C13.6561 79.2037 25.2335 67.0411 38.2976 56.9615C50.9812 47.1778 64.4237 39.8379 78.2528 35.1476C106.049 25.7754 136.545 23.9828 168.895 29.8259C197.972 35.0771 227.543 46.2307 256.789 62.9822C308.66 92.7532 354.902 139.284 390.512 197.546C392.468 200.749 394.419 204.029 396.309 207.299C410.352 231.608 423.897 259.84 438.935 296.147C443.305 306.683 447.648 317.507 451.849 327.976C460.774 350.21 470.001 373.199 480.079 394.985C480.766 396.473 481.467 397.97 482.158 399.435C514.639 468.051 553.86 513.967 598.732 535.908C644.953 558.232 700.411 556.293 759.11 530.296C764.125 528.072 769.25 525.625 774.337 523.026C828.52 495.338 878.095 450.118 924.228 406.172C937.228 393.815 950.115 381.007 962.579 368.621C1002.39 329.061 1039.99 291.694 1082.49 266.275C1118.27 244.802 1147.73 242.24 1172.53 258.447C1184.16 266.06 1195.7 277.995 1207.82 294.927C1218.51 309.857 1228.25 326.626 1237.68 342.839C1243.31 352.538 1248.63 361.699 1254.01 370.222C1306.78 454.49 1360.61 542.123 1413.99 630.689L1413.84 630.87Z" fill="#A1A1A1"/>
<path d="M1411.66 628.214C1359.08 539.16 1306.28 450.552 1254.71 364.85C1249.5 356.227 1244.34 346.903 1238.87 337.032C1220.99 304.744 1200.72 268.146 1174.82 251.434C1149.78 235.291 1120.33 239.514 1084.79 264.338C1047.56 290.309 1013.35 326.981 980.267 362.448C963.679 380.231 946.525 398.621 929.045 415.637C901.457 442.522 878.245 463.03 855.993 480.182C828.555 501.331 802.881 517.082 777.508 528.334C772.299 530.645 767.035 532.793 761.863 534.718C734.916 544.744 708.455 549.818 683.141 549.821C681.734 549.821 680.336 549.804 678.938 549.773C649.672 549.119 622.429 541.559 597.966 527.308C586.159 520.391 574.596 511.611 563.6 501.21C553.265 491.434 543.109 479.92 533.413 466.988C515.969 443.722 499.662 415.66 483.564 381.201C482.873 379.718 482.185 378.233 481.5 376.742C472.16 356.411 463.324 335.158 454.779 314.604C449.846 302.74 444.746 290.47 439.61 278.527C423.794 241.732 410.397 214.583 396.165 190.502C394.25 187.264 392.278 184.017 390.298 180.848C354.276 123.192 307.727 77.4053 255.684 48.4319C192.936 13.5394 129.405 4.62948 76.7924 23.3399C23.3022 42.4169 -30.3895 105.198 -29.5156 188.278L-29.7212 188.281C-30.1284 149.583 -18.9397 112.785 2.63366 81.8673C12.385 67.8922 23.9006 55.6422 36.864 45.4498C49.4777 35.5336 62.8934 28.0021 76.741 23.0637C104.504 13.1898 135.033 10.8982 167.478 16.2538C196.625 21.0653 226.327 31.8017 255.76 48.167C307.836 77.16 354.412 122.975 390.456 180.665C392.436 183.836 394.413 187.086 396.327 190.325C410.565 214.419 423.969 241.577 439.788 278.386C444.925 290.332 450.027 302.602 454.958 314.466C463.503 335.017 472.337 356.267 481.675 376.592C482.359 378.084 483.046 379.569 483.737 381.049C517.943 454.273 555.334 502.03 598.046 527.049C657.206 561.516 719.755 550.097 761.809 534.448C766.977 532.522 772.237 530.377 777.444 528.066C835.802 502.185 889.053 454.264 928.926 415.409C946.403 398.398 963.555 380.009 980.142 362.228C1013.23 326.755 1047.45 290.073 1084.7 264.09C1100.6 252.982 1115 246.16 1128.7 243.24C1145.6 239.638 1161.15 242.31 1174.91 251.183C1186.51 258.667 1197.94 270.697 1209.86 287.959C1220.37 303.168 1229.86 320.298 1239.03 336.866C1244.5 346.734 1249.66 356.055 1254.86 364.672C1306.44 450.375 1359.24 538.983 1411.82 628.037L1411.66 628.214Z" fill="#A1A1A1"/>
<path d="M1409.48 625.559L1255.56 359.294C1250.54 350.599 1245.55 341.136 1240.26 331.122C1222.82 298.07 1203.05 260.609 1177.21 244.173C1152.22 228.282 1121.87 234.33 1087.02 262.154C1053.51 288.9 1022.95 324.469 993.398 358.869C974.134 381.291 954.214 404.475 933.747 424.88C872.231 486.209 818.469 522.432 764.557 538.879C742.192 545.7 720.129 549.133 698.733 549.133C692.247 549.133 685.827 548.818 679.475 548.186C649.518 545.21 621.86 535.203 597.272 518.449C574.483 502.918 553.636 480.994 533.545 451.42C517.501 427.805 502.122 399.652 485.146 362.821C476.187 343.383 467.511 323.187 459.121 303.656C440.132 259.459 420.498 213.757 396.19 173.534C358.904 111.841 309.962 63.4614 254.656 33.6228C191.511 -0.446759 127.807 -8.38983 75.2815 11.2593C24.4275 30.2826 -30.7674 90.27 -31.7833 177.029L-31.9889 177.024C-31.5344 138.244 -19.9962 101.452 1.37772 70.6237C20.7035 42.7497 46.9304 21.57 75.228 10.9859C102.96 0.613071 133.522 -2.18025 166.06 2.68763C195.277 7.0566 225.11 17.3786 254.732 33.3606C282.099 48.1249 308.089 67.5598 331.984 91.1269C356.078 114.891 377.734 142.554 396.346 173.348C420.665 213.585 440.305 259.298 459.298 303.507C467.688 323.035 476.364 343.228 485.321 362.663C510.088 416.404 545.207 482.646 597.364 518.19C657.18 558.951 721.275 551.786 764.512 538.597C818.397 522.161 872.134 485.952 933.626 424.646C954.084 404.25 974.002 381.066 993.264 358.649C1022.82 324.244 1053.39 288.666 1086.92 261.906C1121.83 234.035 1152.24 227.98 1177.29 243.914C1188.87 251.274 1200.19 263.408 1211.93 281.016C1222.26 296.516 1231.49 314.023 1240.43 330.952C1245.71 340.967 1250.7 350.424 1255.73 359.117L1409.64 625.382L1409.48 625.559Z" fill="#A1A1A1"/>
<path d="M1408.24 605.09C1369.04 530.953 1335.42 470.794 1302.41 415.77C1286.39 389.04 1270.03 362.731 1253.78 337.571C1248.86 329.961 1243.99 321.865 1238.84 313.294C1225.88 291.75 1212.49 269.474 1197.07 252.943C1188.79 244.05 1180.82 237.682 1172.71 233.477C1147.8 220.44 1118.58 229.06 1085.85 259.099C1068.91 274.621 1053.49 292.286 1040.64 307.518C1027.03 323.644 1013.61 341.427 1000.62 358.624C981.967 383.344 962.675 408.904 941.934 430.856C929.314 444.253 916.522 456.224 903.91 466.439C878.678 486.874 851.596 503.713 823.415 516.487C806.004 524.292 788.509 530.192 771.418 534.02C756.688 537.306 741.932 539.203 727.556 539.657C706.04 540.339 685.077 537.738 665.25 531.917C644.168 525.727 624.217 515.848 605.953 502.549C589.666 490.691 574.282 475.76 558.923 456.9C530.303 421.785 507.475 381.182 490.786 349.731C482.587 334.208 474.582 318.379 466.839 303.07C444.546 258.983 423.489 217.343 397.139 180.251C375.648 150.199 351.128 124.264 324.253 103.163C303.601 86.9471 281.139 73.6852 257.493 63.7436C251.861 61.3787 246.121 59.1745 240.44 57.1986C215.977 48.7059 188.438 43.1756 158.59 40.76C128.497 38.2683 102.461 40.4246 79.0003 47.3586C65.7367 51.2484 52.8865 57.3508 40.8012 65.494C-1.86427 94.2447 -29.2612 142.509 -32.4856 194.604L-32.7427 194.573C-31.8831 180.686 -29.3599 167.006 -25.2451 153.911C-21.336 141.472 -15.9668 129.476 -9.28774 118.254C3.33218 97.0577 20.6139 78.7024 40.6881 65.1755C52.7919 57.0182 65.6627 50.9073 78.9468 47.0119C102.433 40.0722 128.489 37.9131 158.606 40.4077C188.471 42.8233 216.024 48.3592 240.503 56.8576C246.191 58.8363 251.933 61.0405 257.569 63.4082C281.234 73.3554 303.714 86.6286 324.382 102.859C351.276 123.973 375.816 149.931 397.318 180.003C423.684 217.117 444.746 258.769 467.047 302.867C474.787 318.176 482.793 334.003 490.989 349.522C507.671 380.959 530.488 421.543 559.092 456.635C574.435 475.475 589.802 490.392 606.07 502.236C641.816 528.261 682.686 540.734 727.548 539.305C741.911 538.851 756.658 536.954 771.375 533.67C788.453 529.842 805.936 523.949 823.333 516.149C851.497 503.383 878.563 486.556 903.778 466.132C916.382 455.925 929.166 443.96 941.776 430.574C962.504 408.633 981.793 383.079 1000.44 358.367C1013.43 341.168 1026.85 323.379 1040.46 307.248C1053.32 292.007 1068.75 274.337 1085.71 258.803C1100.28 245.428 1114.39 236.188 1127.64 231.337C1143.93 225.379 1159.12 225.987 1172.8 233.147C1180.94 237.367 1188.93 243.751 1197.23 252.664C1212.67 269.221 1226.07 291.511 1239.04 313.068C1244.19 321.637 1249.06 329.732 1253.97 337.337C1270.22 362.5 1286.59 388.812 1302.61 415.547C1335.62 470.577 1369.25 530.742 1408.45 604.884L1408.24 605.09Z" fill="#A1A1A1"/>
<path d="M1407 584.615C1370.66 509.224 1336.55 446.136 1302.73 391.749C1286.24 365.183 1269.17 339.645 1252 315.847C1247.44 309.533 1242.94 302.971 1238.18 296.026C1223.92 275.227 1209.17 253.72 1192.65 238.841C1184.31 231.295 1176.32 226.041 1168.21 222.777C1137.18 210.273 1105.66 233.961 1084.68 256.035C1069.82 271.628 1056.24 289.258 1042.49 307.459C1030.45 323.39 1019.13 340.528 1007.14 358.669C989.346 385.599 970.946 413.444 950.123 436.825C937.766 450.775 924.871 462.836 911.794 472.674C887.436 491.001 860.763 505.232 830.251 516.186C813.175 522.314 795.688 526.68 778.274 529.157C763.581 531.223 748.915 531.962 734.681 531.345C713.505 530.437 692.805 526.356 673.155 519.216C652.517 511.715 632.825 500.756 614.629 486.643C598.686 474.28 583.292 458.941 567.567 439.751C539.008 404.949 514.543 366.367 496.422 336.641C489.714 325.637 483.114 314.565 476.729 303.854C451.302 261.201 427.285 220.911 398.089 186.968C376.269 161.6 351.771 140.15 325.281 123.215C305.238 110.401 283.993 100.801 260.337 93.8639C254.877 92.2657 249.323 90.8254 243.831 89.5823C219.705 84.1507 193.957 82.0959 162.806 79.9706C140.35 78.3611 110.954 77.3013 82.7142 83.4517C69.3396 86.3098 56.4112 91.2736 44.2848 98.1991C1.59048 122.589 -27.3714 165.197 -33.1909 212.179L-33.4952 212.108C-31.953 199.649 -28.8273 187.43 -24.2108 175.786C-19.8101 164.692 -14.0276 154.054 -7.02569 144.161C6.28107 125.366 23.9823 109.336 44.1655 97.8073C56.3145 90.8677 69.2676 85.8955 82.6648 83.0317C110.932 76.8729 140.35 77.9355 162.82 79.545C193.982 81.6703 219.738 83.7251 243.88 89.1595C249.377 90.4054 254.935 91.8458 260.401 93.444C284.08 100.389 305.345 109.998 325.411 122.826C351.928 139.778 376.446 161.245 398.288 186.638C427.505 220.606 451.532 260.908 476.967 303.577C483.35 314.286 489.951 325.357 496.659 336.359C514.775 366.073 539.23 404.642 567.772 439.427C583.479 458.597 598.856 473.919 614.781 486.268C650.561 514.018 690.907 529.039 734.692 530.916C748.913 531.531 763.565 530.795 778.243 528.729C795.64 526.254 813.113 521.894 830.173 515.769C860.66 504.826 887.311 490.606 911.648 472.296C924.708 462.47 937.587 450.426 949.929 436.49C970.734 413.129 989.126 385.294 1006.91 358.378C1018.91 340.229 1030.23 323.088 1042.28 307.149C1056.03 288.937 1069.62 271.301 1084.5 255.691C1098.1 241.38 1111.51 231.086 1124.37 225.088C1139.96 217.816 1154.74 216.9 1168.3 222.362C1176.44 225.641 1184.46 230.912 1192.82 238.48C1209.37 253.388 1224.13 274.914 1238.4 295.73C1243.17 302.673 1247.66 309.232 1252.22 315.543C1269.4 339.349 1286.47 364.895 1302.97 391.47C1336.8 445.871 1370.91 508.97 1407.26 584.378L1407 584.615Z" fill="#A1A1A1"/>
<path d="M1405.75 564.14C1371.75 486.471 1338.15 422.224 1303.05 367.73C1286.08 341.328 1268.3 316.566 1250.21 294.126C1246.35 289.329 1242.37 284.238 1238.52 279.317C1222.62 258.982 1206.18 237.958 1188.23 224.741C1179.81 218.495 1171.79 214.351 1163.72 212.077C1132.76 203.341 1103.01 229.493 1083.52 252.967C1070.3 268.814 1058.22 286.775 1046.53 304.146L1044.35 307.399C1033.74 323.158 1023.79 340.443 1013.25 358.744C996.471 387.887 979.124 418.019 958.311 442.795C946.201 457.317 933.203 469.468 919.676 478.911C896.092 495.375 869.844 507.123 837.08 515.884C820.138 520.413 802.659 523.243 785.126 524.292C770.471 525.135 755.895 524.712 741.801 523.029C699.131 517.958 659.262 500.364 623.3 470.737C607.754 457.929 592.35 442.186 576.21 422.602C548.895 389.53 524.601 355.537 502.061 323.553C499.038 319.266 496.048 315.007 493.081 310.782C462.295 266.954 433.218 225.556 399.045 193.693C376.736 172.891 352.263 155.928 326.31 143.272C307.255 133.982 286.605 127.674 263.183 123.987C257.905 123.161 252.536 122.482 247.224 121.969C233.862 120.7 219.689 120.495 204.684 120.277C192.632 120.103 180.17 119.922 167.019 119.187C141.621 117.645 112.836 115.9 86.4243 119.553C72.7967 121.439 59.7902 125.261 47.7646 130.915C5.08675 150.984 -25.4421 187.94 -33.8999 229.772L-34.2474 229.64C-32.0183 218.61 -28.2922 207.851 -23.1739 197.662C-18.2798 187.918 -12.086 178.633 -4.76531 170.067C9.23649 153.685 27.3613 139.986 47.6453 130.447C59.6977 124.779 72.7309 120.948 86.3852 119.06C112.824 115.404 141.623 117.152 167.032 118.693C180.174 119.426 192.636 119.609 204.684 119.784C219.695 120.001 233.872 120.207 247.247 121.478C252.562 121.994 257.938 122.673 263.22 123.499C286.671 127.189 307.346 133.506 326.427 142.81C352.411 155.48 376.911 172.463 399.245 193.287C433.448 225.178 462.54 266.596 493.338 310.443C496.305 314.669 499.297 318.925 502.318 323.215C524.854 355.193 549.14 389.178 576.446 422.238C592.57 441.8 607.958 457.528 623.486 470.32C659.4 499.91 699.217 517.479 741.831 522.544C755.909 524.224 770.47 524.647 785.11 523.804C802.624 522.756 820.086 519.929 837.01 515.405C869.742 506.653 895.958 494.918 919.512 478.477C933.01 469.054 945.984 456.925 958.073 442.429C978.859 417.683 996.196 387.568 1012.96 358.443C1023.5 340.133 1033.46 322.84 1044.08 307.069L1046.27 303.817C1057.96 286.437 1070.04 268.465 1083.27 252.601C1102.83 229.051 1132.68 202.823 1163.79 211.597C1171.9 213.883 1179.94 218.041 1188.4 224.313C1206.39 237.558 1222.84 258.605 1238.76 278.961C1242.61 283.883 1246.59 288.973 1250.45 293.768C1268.55 316.219 1286.34 340.995 1303.32 367.412C1338.43 421.928 1372.04 486.197 1406.06 563.892L1405.75 564.14Z" fill="#A1A1A1"/>
<path d="M1404.51 543.662C1373.29 464.82 1339.26 397.547 1303.38 343.715C1285.93 317.479 1267.45 293.489 1248.44 272.411C1245.69 269.367 1242.88 266.207 1240.16 263.151C1222.19 242.967 1203.61 222.092 1183.82 210.648C1175.33 205.684 1167.29 202.654 1159.24 201.38C1128.36 196.498 1100.39 225.071 1082.35 249.901C1071.16 265.24 1061.05 282.299 1051.28 298.797C1049.59 301.652 1047.9 304.502 1046.2 307.34C1036.91 322.933 1028.21 340.353 1019.01 358.792C1003.37 390.142 987.189 422.557 966.502 448.771C954.353 464.164 941.616 476.064 927.558 485.157C898.157 504.175 868.773 511.213 843.91 515.593C827.093 518.553 809.622 519.85 791.978 519.438C777.368 519.058 762.88 517.471 748.922 514.725C707.533 506.605 668.187 486.457 631.976 454.839C616.909 441.687 601.497 425.536 584.855 405.464C568.044 385.237 552.378 365.774 537.227 346.951C526.931 334.157 517.204 322.073 507.706 310.48C471.802 266.655 438.914 228.124 400.01 200.427C377.221 184.206 352.773 171.724 327.344 163.333C309.118 157.318 289.636 154.389 266.036 154.11C260.944 154.06 255.758 154.141 250.623 154.356C242.823 154.702 234.754 155.427 226.214 156.196C209.825 157.67 191.245 159.342 171.233 158.406C163.612 158.048 155.837 157.544 148.317 157.053C128.975 155.793 108.974 154.491 90.1318 155.655C76.2945 156.512 63.2078 159.195 51.2397 163.632C8.63386 179.431 -23.4599 210.738 -34.6136 247.378L-34.994 247.161C-32.074 237.566 -27.7474 228.27 -22.1355 219.529C-16.7458 211.135 -10.1408 203.206 -2.50753 195.965C12.2017 182.013 30.748 170.645 51.1287 163.088C63.1255 158.64 76.241 155.948 90.1092 155.091C108.972 153.924 128.981 155.229 148.333 156.489C155.851 156.98 163.626 157.484 171.245 157.842C191.239 158.778 209.804 157.109 226.185 155.635C234.729 154.866 242.801 154.141 250.609 153.795C255.75 153.58 260.94 153.499 266.038 153.549C289.671 153.826 309.182 156.763 327.439 162.786C352.898 171.189 377.38 183.684 400.197 199.928C417.771 212.438 435.579 228.287 454.639 248.379C471.703 266.365 488.302 286.045 507.977 310.06C517.476 321.656 527.202 333.74 537.501 346.534C552.65 365.354 568.315 384.817 585.122 405.042C601.748 425.094 617.144 441.228 632.192 454.366C668.353 485.941 707.644 506.061 748.975 514.17C762.918 516.913 777.386 518.497 791.98 518.877C809.603 519.289 827.056 517.995 843.852 515.035C868.685 510.664 898.029 503.634 927.38 484.65C941.398 475.582 954.102 463.713 966.218 448.359C986.87 422.19 1003.04 389.801 1018.67 358.477C1027.88 340.026 1036.57 322.598 1045.88 306.988C1047.57 304.149 1049.26 301.3 1050.95 298.447C1060.73 281.938 1070.84 264.868 1082.06 249.509C1093.79 233.355 1105.82 220.927 1117.83 212.573C1132.05 202.676 1145.99 198.725 1159.28 200.827C1167.37 202.107 1175.45 205.151 1183.98 210.135C1203.82 221.61 1222.42 242.51 1240.41 262.72C1243.13 265.776 1245.94 268.935 1248.68 271.977C1267.71 293.072 1286.21 317.084 1303.67 343.34C1322.72 371.925 1341.38 404.492 1359.13 440.137C1374.82 471.642 1390.2 506.385 1404.86 543.397L1404.51 543.662Z" fill="#A1A1A1"/>
<path d="M1403.27 523.179C1374.37 442.077 1340.87 373.616 1303.7 319.697C1285.78 293.627 1266.59 270.413 1246.66 250.693C1245.71 249.754 1244.77 248.816 1243.82 247.874C1223.1 227.343 1201.67 206.113 1179.42 196.554C1170.8 192.851 1162.74 190.931 1154.76 190.683C1124.01 189.73 1097.78 220.691 1081.2 246.829C1071.44 262.12 1062.78 278.88 1054.4 295.087C1052.33 299.096 1050.18 303.239 1048.07 307.275C1040.02 322.649 1032.53 340.127 1024.6 358.635C1010.19 392.298 995.279 427.106 974.699 454.741C962.793 470.729 949.953 482.719 935.445 491.401C906.864 508.502 877.842 512.992 850.739 515.298C834.027 516.718 816.562 516.476 798.83 514.579C784.267 512.972 769.873 510.224 756.043 506.413C716.064 495.42 677.239 472.719 640.655 438.936C626.003 425.41 611.02 409.326 593.506 388.321C560.22 348.51 535.502 320.47 513.363 297.404C469.33 251.53 435.723 224.541 400.993 207.161C377.742 195.526 353.318 187.529 328.397 183.391C311.107 180.522 292.758 180.778 268.905 184.231C264.017 184.947 259.015 185.79 254.039 186.74C249.338 187.65 244.563 188.693 239.507 189.795C220.837 193.868 199.675 198.485 175.455 197.623C162.689 197.169 149.65 195.926 137.04 194.725C122.709 193.361 107.891 191.949 93.8419 191.757C79.7558 191.565 66.5889 193.11 54.7175 196.351C12.2535 207.939 -21.4093 233.603 -35.3288 265.001L-35.7236 264.671C-32.1085 256.514 -27.1815 248.68 -21.0802 241.389C-15.1908 234.347 -8.17858 227.777 -0.236893 221.855C15.19 210.349 34.162 201.312 54.627 195.729C66.5313 192.481 79.727 190.931 93.846 191.123C107.907 191.314 122.734 192.727 137.071 194.094C149.676 195.294 162.71 196.537 175.465 196.991C199.642 197.851 220.781 193.24 239.431 189.172C244.489 188.067 249.268 187.027 253.971 186.114C258.954 185.164 263.959 184.321 268.851 183.602C292.742 180.147 311.122 179.887 328.449 182.765C353.405 186.909 377.863 194.917 401.147 206.569C435.925 223.972 469.567 250.989 513.639 296.903C535.786 319.976 560.512 348.025 593.806 387.848C611.308 408.836 626.274 424.902 640.91 438.415C677.445 472.149 716.212 494.82 756.132 505.796C769.942 509.601 784.321 512.344 798.863 513.95C816.575 515.844 834.017 516.087 850.708 514.669C877.77 512.366 906.742 507.887 935.258 490.826C949.712 482.178 962.507 470.227 974.372 454.296C994.907 426.72 1009.8 391.949 1024.2 358.322C1032.13 339.803 1039.62 322.31 1047.69 306.915C1049.8 302.881 1051.95 298.738 1054.02 294.729C1062.4 278.508 1071.07 261.737 1080.85 246.42C1091.67 229.361 1103.02 215.868 1114.57 206.313C1128.11 195.12 1141.63 189.654 1154.77 190.057C1162.79 190.305 1170.9 192.236 1179.56 195.957C1201.88 205.549 1223.34 226.807 1244.09 247.37C1245.04 248.311 1245.99 249.253 1246.93 250.188C1266.88 269.931 1286.09 293.174 1304.03 319.272C1341.24 373.238 1374.77 441.752 1403.68 522.911L1403.27 523.179Z" fill="#A1A1A1"/>
<path d="M860.971 515.004C859.817 515.004 858.68 515.002 857.561 514.993C840.936 514.897 823.477 513.122 805.675 509.711C791.165 506.878 776.861 502.969 763.16 498.095C743.583 491.144 723.937 481.155 704.761 468.406C686.243 456.094 667.594 440.828 649.33 423.028C631.433 405.588 614.717 386.156 602.153 371.175C572.755 336.218 544.784 306.999 519.018 284.328C477.286 247.612 440.096 225.229 401.978 213.889C378.981 207.048 354.309 203.44 330.554 203.44C330.186 203.44 329.82 203.44 329.452 203.443C309.044 203.539 289.669 208.737 271.775 214.34C267.117 215.809 262.299 217.413 257.454 219.112C254.799 220.054 252.14 221.023 249.327 222.049C229.485 229.296 206.995 237.507 179.672 236.833C163.032 236.422 146.036 234.06 129.599 231.774C118.986 230.297 108.014 228.772 97.5468 227.85C83.1584 226.585 69.9175 226.99 58.188 229.062C15.9502 236.515 -19.2816 256.539 -36.0594 282.629L-36.446 282.164C-27.8401 268.783 -14.8953 257.198 2.0286 247.728C18.1916 238.685 37.5893 231.988 58.1222 228.366C69.8825 226.291 83.1584 225.88 97.5797 227.151C108.057 228.073 119.036 229.601 129.653 231.078C146.079 233.364 163.065 235.726 179.682 236.134C206.935 236.808 229.387 228.608 249.196 221.376C252.011 220.347 254.67 219.377 257.327 218.436C262.175 216.736 266.998 215.129 271.659 213.661C289.585 208.049 308.993 202.843 329.449 202.744C353.583 202.629 378.697 206.248 402.087 213.207C421.76 219.062 440.833 227.678 460.391 239.551C479.227 250.986 498.495 265.44 519.293 283.742C545.08 306.43 573.071 335.671 602.488 370.651C615.042 385.624 631.746 405.042 649.624 422.461C686.686 458.58 724.928 483.799 763.287 497.421C776.97 502.289 791.256 506.193 805.745 509.023C823.524 512.428 840.958 514.204 857.561 514.297C883.542 514.443 913.708 513.243 943.131 496.993C958.023 488.768 970.906 476.741 982.519 460.226C1002.91 431.222 1016.43 393.995 1029.51 357.992C1036.23 339.473 1042.59 321.98 1049.49 306.838C1051.71 301.987 1053.94 296.99 1056.1 292.156C1063.39 275.824 1070.94 258.94 1079.63 243.333C1089.56 225.378 1100.22 210.814 1111.3 200.047C1124.16 187.563 1137.26 180.578 1150.25 179.287C1158.27 178.489 1166.41 179.304 1175.13 181.779C1198.45 188.391 1221.57 207.604 1245.16 228.397C1265.74 246.527 1286.22 269.626 1304.39 295.2C1324.57 323.525 1343.53 356.755 1360.74 393.964C1376.08 427.115 1390.13 463.606 1402.49 502.425L1402.02 502.706C1375.46 419.341 1342.49 349.691 1304.02 295.693C1285.88 270.156 1265.43 247.091 1244.89 228.992C1221.33 208.235 1198.26 189.059 1175.02 182.469C1166.35 180.009 1158.26 179.2 1150.29 179.992C1126.42 182.368 1101.47 205.013 1080.04 243.762C1071.36 259.341 1063.83 276.21 1056.54 292.525C1054.38 297.362 1052.14 302.362 1049.93 307.213C1043.03 322.327 1036.69 339.806 1029.97 358.308C1023.55 375.972 1016.92 394.24 1009.3 411.801C1000.67 431.709 992.036 447.708 982.891 460.716C971.227 477.304 958.286 489.385 943.324 497.65C930.129 504.939 915.946 509.756 899.966 512.383C886.433 514.596 872.84 515.004 860.971 515.004Z" fill="#A1A1A1"/>
<path d="M893.948 516.417C883.462 516.417 873.39 515.56 864.379 514.692C847.811 513.096 830.361 509.784 812.515 504.846C798.067 500.79 783.854 495.722 770.269 489.777C733.072 473.533 696.347 446.493 657.998 407.119C641.273 389.95 625.507 371.477 610.796 354.029C581.752 319.683 552.778 291.835 524.673 271.253C483.34 240.983 444.668 224.891 402.969 220.612C379.21 218.174 354.155 219.169 330.511 223.487C310.721 227.101 292.063 235.822 274.646 244.441C270.288 246.609 265.653 248.976 260.872 251.477C259.678 252.105 258.473 252.745 257.251 253.39C237.191 264.023 214.493 276.053 185.363 276.053C184.871 276.053 184.382 276.05 183.886 276.041C164.178 275.768 144.056 271.912 124.595 268.18C116.879 266.7 108.901 265.173 101.245 263.935C86.2909 261.522 73.3398 260.809 61.6494 261.762C19.1299 265.229 -16.7599 279.255 -36.8136 300.251L-37.157 299.634C-27.2432 289.255 -12.9083 280.244 4.29322 273.575C21.213 267.016 41.0343 262.664 61.6144 260.987C73.3378 260.031 86.3217 260.744 101.309 263.163C108.973 264.4 116.953 265.931 124.671 267.408C144.114 271.134 164.217 274.987 183.888 275.261C213.625 275.678 236.694 263.448 257.043 252.66C258.263 252.015 259.47 251.375 260.665 250.744C265.45 248.241 270.087 245.873 274.448 243.705C291.895 235.069 310.587 226.337 330.431 222.712C354.112 218.388 379.208 217.39 403.006 219.831C423.671 221.951 443.373 226.957 463.237 235.131C483.696 243.55 503.877 255.138 524.935 270.562C553.074 291.172 582.085 319.055 611.16 353.434C625.865 370.876 641.621 389.339 658.331 406.491C696.629 445.811 733.298 472.812 770.436 489.03C784 494.964 798.195 500.026 812.622 504.076C830.443 509.009 847.869 512.318 864.412 513.908C892.251 516.586 921.867 517.961 951.002 503.143C966.332 495.344 979.305 483.241 990.661 466.14C1010.89 435.678 1023.48 394.128 1034.59 357.468C1040.18 339.022 1045.46 321.6 1051.29 306.748C1053.39 301.39 1055.51 295.851 1057.55 290.496C1063.95 273.739 1070.57 256.412 1078.4 240.23C1087.46 221.379 1097.43 205.743 1108.03 193.758C1120.21 179.995 1132.89 171.493 1145.72 168.497C1153.74 166.623 1161.91 166.324 1170.69 167.575C1195.21 171.079 1220.12 188.391 1243.39 206.58C1264.88 223.374 1286.09 245.687 1304.74 271.106C1325.48 299.298 1344.59 332.861 1361.54 370.854C1376.7 404.83 1390.07 442.195 1401.3 481.916L1400.78 482.195C1376.91 397.764 1343.56 324.96 1304.34 271.653C1285.73 246.282 1264.56 224.011 1243.11 207.251C1219.9 189.105 1195.05 171.834 1170.63 168.345C1161.91 167.099 1153.79 167.398 1145.82 169.258C1122.12 174.791 1098.35 200.145 1078.88 240.653C1071.06 256.801 1064.45 274.111 1058.06 290.851C1056.01 296.209 1053.89 301.748 1051.79 307.112C1045.98 321.93 1040.7 339.335 1035.12 357.761C1023.99 394.477 1011.38 436.095 991.08 466.658C979.661 483.852 966.615 496.023 951.199 503.868C937.82 510.672 923.389 514.613 907.075 515.907C902.664 516.273 898.272 516.417 893.948 516.417Z" fill="#A1A1A1"/>
<path d="M914.645 519.469C914.494 519.469 914.346 519.469 914.196 519.469C899.378 519.418 884.829 516.932 871.196 514.39C854.652 511.306 837.212 506.455 819.357 499.978C804.974 494.704 790.851 488.472 777.382 481.459C741.671 462.892 706.493 434.218 666.671 391.213C652.33 375.73 638.217 359.057 624.567 342.937C622.861 340.919 621.152 338.904 619.443 336.888C590.249 302.551 560.269 276.069 530.338 258.182C489.353 233.69 448.018 223.599 403.971 227.334C379.819 229.383 354.786 234.984 331.58 243.53C313.27 250.276 296.955 261.097 277.527 274.542C273.589 277.279 269.383 280.233 264.296 283.841L264.012 284.044C254.197 291.051 243.072 298.991 230.594 305.029C216.263 311.963 202.36 315.3 188.103 315.261C165.872 315.184 143.184 309.513 121.245 304.025C115.869 302.681 110.309 301.291 104.942 300.034C89.55 296.434 76.5208 294.616 65.11 294.478C23.0943 293.971 -14.3356 302.506 -37.5808 317.89L-37.8481 317.129C-26.462 309.592 -11.103 303.476 6.56732 299.439C24.2706 295.394 44.5176 293.387 65.1162 293.636C76.5599 293.774 89.6219 295.594 105.047 299.202C110.418 300.46 115.978 301.849 121.356 303.194C143.268 308.673 165.928 314.339 188.105 314.415C188.204 314.415 188.305 314.415 188.404 314.415C220.127 314.415 244.296 297.165 263.728 283.294L264.014 283.091C269.104 279.48 273.309 276.526 277.249 273.789C296.71 260.321 313.054 249.481 331.422 242.716C354.667 234.153 379.74 228.543 403.933 226.491C425.488 224.665 445.82 226.057 466.093 230.753C487.94 235.813 509.036 244.531 530.585 257.41C560.573 275.331 590.604 301.855 619.846 336.248C621.555 338.264 623.264 340.282 624.97 342.3C638.614 358.415 652.723 375.082 667.052 390.553C706.822 433.505 741.949 462.14 777.6 480.675C791.051 487.68 805.153 493.901 819.515 499.169C837.346 505.638 854.761 510.48 871.278 513.558C900.863 519.077 929.827 522.905 958.883 509.33C974.651 501.962 987.714 489.783 998.812 472.093C1018.86 440.137 1029.81 395.858 1039.48 356.788C1044 338.498 1048.28 321.219 1053.1 306.7C1054.95 301.113 1056.81 295.335 1058.61 289.746C1064.24 272.27 1070.05 254.202 1077.19 237.166C1085.4 217.41 1094.68 200.7 1104.77 187.503C1116.27 172.463 1128.53 162.451 1141.2 157.749C1149.05 154.835 1157.07 153.414 1165.69 153.414C1165.88 153.414 1166.06 153.414 1166.25 153.417C1193.04 153.609 1220.6 170.29 1241.63 184.8C1264.02 200.261 1285.97 221.784 1305.1 247.045C1326.41 275.108 1345.67 309 1362.35 347.783C1377.32 382.585 1390.03 420.826 1400.12 461.449L1399.54 461.723C1384.52 401.279 1355.86 315.077 1304.67 247.657C1285.59 222.452 1263.69 200.979 1241.35 185.556C1220.39 171.084 1192.91 154.451 1166.25 154.262C1157.47 154.192 1149.33 155.607 1141.36 158.567C1117.88 167.279 1095.28 195.342 1077.72 237.586C1070.61 254.583 1064.79 272.631 1059.17 290.087C1057.37 295.679 1055.51 301.46 1053.66 307.05C1048.85 321.532 1044.58 338.788 1040.06 357.059C1030.38 396.199 1019.41 440.563 999.281 472.642C988.108 490.451 974.958 502.712 959.083 510.128C945.628 516.411 931.085 519.469 914.645 519.469Z" fill="#A1A1A1"/>
<path d="M931.102 523.438C927.91 523.438 924.649 523.297 921.309 523.016C906.693 521.784 892.487 518.088 878.01 514.086C861.228 509.446 844.28 503.24 826.196 495.111C811.888 488.622 797.857 481.231 784.493 473.139C750.59 452.641 716.927 422.467 675.345 375.305C665.018 363.593 654.695 351.309 644.711 339.429C639.276 332.962 633.658 326.274 628.092 319.743C598.55 285.174 567.569 260.065 536.008 245.11C494.307 225.348 451.448 221.728 404.978 234.046C380.427 240.554 355.417 250.761 332.656 263.561C314.37 273.843 298.442 288.283 281.577 303.572L280.411 304.629C277.777 307.025 275.114 309.455 272.418 311.912C270.866 313.33 269.303 314.757 267.726 316.194C257.892 325.205 247.271 334.606 235.091 341.841C220.95 350.241 206.962 354.373 192.325 354.475C167.957 354.638 143.102 346.876 119.067 339.361C115.637 338.287 112.088 337.179 108.643 336.128C92.4945 331.195 79.7635 328.357 68.5728 327.19C27.2768 322.886 -11.6955 325.919 -38.3542 335.513L-38.5249 334.628C-11.7962 325.008 27.2562 321.964 68.6242 326.277C79.8458 327.446 92.6096 330.293 108.789 335.234C112.236 336.289 115.785 337.396 119.217 338.47C142.958 345.892 167.498 353.561 191.544 353.561C191.803 353.561 192.062 353.561 192.323 353.559C223.423 353.344 245.562 335.401 267.358 315.433C268.935 313.996 270.498 312.569 272.05 311.151C274.746 308.691 277.407 306.264 280.043 303.865L281.209 302.808C298.102 287.494 314.058 273.029 332.403 262.712C355.206 249.887 380.258 239.664 404.853 233.144C451.44 220.795 494.413 224.426 536.228 244.241C567.867 259.237 598.92 284.402 628.528 319.047C634.094 325.58 639.714 332.266 645.149 338.735C655.129 350.613 665.45 362.894 675.771 374.597C717.303 421.706 750.919 451.838 784.762 472.302C798.108 480.38 812.118 487.762 826.406 494.24C844.463 502.357 861.387 508.556 878.144 513.187C903.581 520.219 935.239 528.974 966.765 515.49C982.973 508.559 996.122 496.303 1006.96 478.021C1026.82 444.535 1036.02 397.437 1044.15 355.887C1047.68 337.836 1051.01 320.786 1054.9 306.636C1056.42 301.123 1057.94 295.42 1059.4 289.904C1064.33 271.405 1069.43 252.277 1075.97 234.086C1083.35 213.41 1091.94 195.627 1101.5 181.229C1112.33 164.915 1124.17 153.395 1136.67 146.988C1144.69 142.876 1152.92 140.342 1161.81 139.239C1173.72 137.762 1186.4 139.341 1200.57 144.054C1212.55 148.045 1225.41 154.241 1239.86 162.998C1263.17 177.123 1285.85 197.86 1305.45 222.966C1327.33 250.896 1346.74 285.124 1363.15 324.692C1377.93 360.324 1389.97 399.441 1398.94 440.963L1398.3 441.223C1379.36 353.561 1346.23 276.287 1305 223.637C1285.44 198.598 1262.83 177.92 1239.59 163.838C1208.45 144.97 1183.76 137.441 1161.87 140.153C1153.04 141.246 1144.87 143.763 1136.9 147.845C1107.16 163.086 1087.67 203.376 1076.57 234.489C1070.04 252.635 1064.95 271.741 1060.03 290.217C1058.56 295.736 1057.04 301.441 1055.53 306.957C1051.65 321.065 1048.32 338.095 1044.79 356.124C1036.65 397.764 1027.43 444.96 1007.48 478.599C996.554 497.024 983.3 509.379 966.963 516.366C955.889 521.102 944.079 523.438 931.102 523.438Z" fill="#A1A1A1"/>
<path d="M945.361 527.987C923.615 527.987 902.708 520.329 884.821 513.778C867.994 507.617 851.054 499.916 833.032 490.239C818.804 482.544 804.864 473.992 791.6 464.818C751.84 437.347 716.395 397.916 684.015 359.396C677.404 351.532 670.725 343.425 664.268 335.586C655.302 324.701 646.03 313.445 636.739 302.599C606.755 267.69 574.773 243.948 541.682 232.033C498.874 216.623 454.488 219.473 405.986 240.749C381.014 251.702 356.029 266.514 333.732 283.584C316.534 296.748 301.983 313.367 286.579 330.961C285.487 332.207 284.393 333.458 283.293 334.71L282.697 335.392C278.952 339.673 275.08 344.099 271.154 348.541C261.748 359.232 251.39 370.29 239.41 378.738C225.503 388.544 211.483 393.434 196.543 393.688C170.32 394.136 143.594 384.031 117.749 374.259C115.938 373.574 114.134 372.892 112.339 372.218C95.2958 365.808 82.863 362.009 72.03 359.895C31.7705 352.042 -8.74819 349.573 -39.1372 353.121L-39.1989 352.138C-8.76051 348.58 31.8178 351.052 72.1308 358.917C82.9946 361.036 95.4541 364.844 112.528 371.265C114.323 371.939 116.127 372.621 117.94 373.309C143.736 383.061 170.411 393.141 196.533 392.701C228.976 392.149 251.824 369.225 270.694 347.78C274.619 343.338 278.491 338.912 282.236 334.634L282.832 333.951C283.932 332.697 285.026 331.448 286.118 330.203C301.549 312.577 316.125 295.93 333.38 282.722C355.718 265.621 380.75 250.783 405.766 239.81C428.76 229.725 450.358 223.901 471.792 222.007C495.701 219.896 519.275 222.949 541.863 231.08C575.058 243.032 607.136 266.841 637.204 301.847C646.501 312.699 655.775 323.956 664.743 334.845C671.2 342.684 677.875 350.787 684.484 358.649C716.831 397.127 752.233 436.515 791.921 463.935C805.166 473.096 819.086 481.637 833.293 489.321C851.288 498.983 868.202 506.672 885.004 512.826C910.804 522.274 942.912 534.033 974.637 521.659C991.286 515.165 1004.52 502.833 1015.1 483.959C1034.75 448.898 1042.1 398.903 1048.59 354.79C1051.2 337.066 1053.66 320.326 1056.7 306.579C1057.82 301.494 1058.95 296.24 1060.04 291.158C1064.3 271.281 1068.71 250.724 1074.74 231.013C1081.31 209.402 1089.2 190.539 1098.22 174.955C1108.39 157.369 1119.8 144.341 1132.13 136.232C1140.14 130.966 1148.39 127.316 1157.36 125.07C1169.44 122.045 1182.85 122.147 1197.21 125.371C1209.78 128.195 1223.53 133.52 1238.08 141.201C1262.29 153.989 1285.71 173.937 1305.8 198.888C1328.24 226.689 1347.81 261.246 1363.95 301.604C1378.53 338.064 1389.9 378.061 1397.75 420.482L1397.05 420.725C1380.43 330.837 1347.86 252.314 1305.32 199.621C1285.29 174.752 1261.95 154.869 1237.82 142.123C1206.54 125.602 1180.26 120.34 1157.49 126.042C1148.58 128.272 1140.39 131.896 1132.44 137.122C1103.1 156.416 1085.23 199.035 1075.41 231.393C1069.39 251.054 1064.99 271.582 1060.73 291.434C1059.64 296.516 1058.51 301.773 1057.39 306.864C1054.36 320.565 1051.9 337.283 1049.3 354.985C1046.18 376.206 1042.64 400.258 1037.5 422.808C1031.62 448.644 1024.48 468.843 1015.67 484.56C1010.58 493.647 1004.73 501.382 998.275 507.549C991.337 514.181 983.451 519.249 974.835 522.609C964.977 526.457 955.083 527.987 945.361 527.987Z" fill="#A1A1A1"/>
<path d="M958.213 532.979C951.024 532.979 943.491 532.021 935.535 530.107C919.866 526.338 904.866 519.5 891.632 513.471C874.95 505.869 857.533 496.412 839.867 485.366C825.729 476.476 811.88 466.762 798.707 456.491C760.896 427.044 728.321 387.89 692.684 343.484C689.518 339.538 686.301 335.513 683.192 331.617C670.947 316.287 658.286 300.434 645.386 285.456C614.904 250.137 581.922 227.766 547.355 218.96C503.752 207.851 456.525 217.435 406.993 247.448C381.577 262.85 356.614 282.265 334.807 303.6C318.387 319.663 304.87 338.602 290.56 358.654C289.106 360.692 287.646 362.736 286.178 364.788C282.523 369.901 278.588 375.389 274.584 380.882C266.188 392.442 255.955 405.614 243.73 415.628C230.045 426.841 215.99 432.493 200.764 432.901C172.892 433.654 144.521 421.004 117.083 408.771L116.038 408.306C102.604 402.319 88.3921 396.27 75.4905 392.597C36.1645 381.404 -4.82094 373.633 -39.9128 370.715L-39.8655 369.661C-4.73663 372.581 36.2858 380.358 75.6468 391.562C88.5854 395.247 102.822 401.304 116.276 407.299L117.321 407.764C144.7 419.969 173.014 432.589 200.75 431.842C232.782 430.979 254.904 406.479 274.039 380.13C278.043 374.639 281.974 369.151 285.629 364.041C287.097 361.992 288.557 359.945 290.011 357.91C304.346 337.824 317.887 318.852 334.36 302.734C356.209 281.357 381.219 261.906 406.683 246.476C429.922 232.397 452.791 222.695 474.65 217.644C499.626 211.874 524.136 211.964 547.499 217.914C582.198 226.754 615.301 249.205 645.886 284.644C658.795 299.637 671.463 315.494 683.714 330.834C686.824 334.726 690.04 338.752 693.207 342.698C728.809 387.061 761.349 426.173 799.091 455.569C812.246 465.824 826.075 475.523 840.192 484.402C857.833 495.431 875.222 504.874 891.878 512.465C917.988 524.365 950.483 539.172 982.525 527.826C999.616 521.775 1012.94 509.37 1023.25 489.898C1042.69 453.213 1048.31 397.919 1052.83 353.488C1054.59 336.181 1056.25 319.835 1058.51 306.531C1059.22 302.337 1059.93 298.016 1060.63 293.836C1064.22 272.12 1067.95 249.664 1073.53 227.949C1082.15 194.155 1098.53 148.949 1127.6 125.489C1135.63 119.012 1143.91 114.243 1152.91 110.911C1176.48 102.069 1204.54 104.93 1236.31 119.409C1261.43 130.862 1285.59 150.02 1306.16 174.816C1329.17 202.485 1348.89 237.374 1364.76 278.525C1372.04 297.399 1378.47 317.558 1383.89 338.441C1389.06 358.389 1393.32 379.104 1396.56 400.01L1395.81 400.23C1381.52 308.109 1349.5 228.338 1305.65 175.608C1285.15 150.905 1261.09 131.82 1236.06 120.41C1204.44 105.995 1176.53 103.143 1153.12 111.929C1144.17 115.235 1135.96 119.968 1127.99 126.397C1099.12 149.693 1082.84 194.668 1074.26 228.295C1068.69 249.954 1064.97 272.38 1061.38 294.067C1060.68 298.247 1059.97 302.571 1059.26 306.768C1057.01 320.027 1055.35 336.35 1053.59 353.631C1051.32 375.989 1048.74 401.329 1044.34 425.246C1039.28 452.728 1032.58 474.08 1023.87 490.518C1018.91 499.896 1013.1 507.805 1006.61 514.023C999.614 520.723 991.575 525.712 982.716 528.847C974.941 531.604 966.821 532.979 958.213 532.979Z" fill="#A1A1A1"/>
<path d="M970.057 538.25C961.44 538.25 952.353 536.72 942.647 533.65C926.92 528.681 911.789 520.434 898.44 513.156C881.633 503.995 864.226 493.005 846.701 480.487C832.656 470.41 818.899 459.536 805.812 448.162C769.801 416.889 738.915 376.582 706.214 333.912C704.596 331.801 702.978 329.687 701.355 327.573C686.148 307.752 670.425 287.254 654.034 268.313C623.022 232.546 589.041 211.542 553.034 205.882C507.806 198.77 459.01 215.009 408 254.14C382.485 273.713 356.873 298.385 335.881 323.61C320.031 342.656 307.318 364.086 293.859 386.777C292.266 389.463 290.668 392.158 289.058 394.858C285.842 400.261 282.015 406.668 278.009 413.222C270.59 425.39 260.48 440.853 248.048 452.486C234.581 465.089 220.494 471.512 204.983 472.118C192.234 472.555 178.164 469.858 161.968 463.868C148.063 458.727 134.612 452.007 119.728 444.396C106.142 437.364 91.8028 430.1 78.9382 425.303C40.8316 411.091 0.58033 398.646 -40.6951 388.307L-40.547 387.2C0.753056 397.541 41.027 409.997 79.1541 424.215C92.0537 429.026 106.413 436.301 120.016 443.339C144.964 456.1 176.013 471.986 204.961 470.991C238.056 469.694 259.325 442.111 277.378 412.495C281.381 405.947 285.206 399.543 288.42 394.142C290.03 391.442 291.628 388.747 293.22 386.064C306.701 363.337 319.436 341.869 335.338 322.761C356.373 297.486 382.034 272.766 407.599 253.157C458.764 213.906 507.728 197.626 553.128 204.763C570.535 207.5 587.634 213.856 603.945 223.653C621.447 234.164 638.478 248.903 654.565 267.453C670.974 286.414 686.708 306.923 701.923 326.758C703.545 328.875 705.166 330.986 706.784 333.098C739.454 375.73 770.313 415.998 806.255 447.212C819.323 458.569 833.059 469.429 847.084 479.489C864.583 491.987 881.964 502.963 898.746 512.11C925.121 526.485 957.947 544.375 990.404 534C1007.99 528.379 1021.4 515.898 1031.39 495.846C1050.66 457.546 1054.09 399.038 1056.84 352.028C1057.83 335.214 1058.76 319.334 1060.31 306.492C1060.63 303.842 1060.94 301.179 1061.26 298.501C1064.15 274.314 1067.13 249.301 1072.31 224.891C1079.71 189.781 1094.52 142.174 1123.06 114.753C1131.02 107.103 1139.33 101.218 1148.46 96.7588C1161.15 90.5041 1175.29 87.5642 1190.49 88.0152C1204.37 88.4268 1219.19 91.6598 1234.53 97.6213C1260.56 107.732 1285.45 126.101 1306.5 150.742C1330.09 178.275 1349.95 213.503 1365.56 255.443C1372.72 274.686 1378.92 295.26 1383.98 316.591C1388.84 337.021 1392.67 358.201 1395.37 379.541L1394.56 379.733C1382.79 286.741 1350.5 203.59 1305.97 151.599C1285 127.065 1260.22 108.772 1234.3 98.7009C1202.34 86.2817 1172.76 85.9773 1148.74 97.8158C1139.68 102.241 1131.43 108.081 1123.53 115.672C1095.19 142.904 1080.46 190.266 1073.1 225.201C1067.93 249.546 1064.95 274.522 1062.07 298.679C1061.75 301.356 1061.44 304.023 1061.12 306.672C1059.58 319.466 1058.65 335.327 1057.66 352.115C1054.9 399.261 1051.46 457.937 1032.07 496.483C1027.25 506.148 1021.49 514.238 1014.94 520.521C1007.9 527.28 999.705 532.185 990.591 535.099C984.011 537.196 977.196 538.25 970.057 538.25Z" fill="#A1A1A1"/>
<path d="M981.186 543.739C971.369 543.739 960.968 541.563 949.759 537.194C933.9 531.012 918.675 521.358 905.245 512.843C888.271 502.081 870.872 489.552 853.531 475.611C839.587 464.364 825.922 452.326 812.914 439.836C780.882 409.09 753.505 371.423 724.521 331.545C719.783 325.025 714.883 318.286 710.021 311.659C692.933 288.376 678.341 269.178 662.678 251.17C631.112 214.93 596.133 195.292 558.71 192.8C511.685 189.669 461.314 212.556 409 260.826C383.012 284.808 357.422 314.207 336.947 343.611C321.522 365.764 309.464 389.877 296.698 415.406C295.116 418.569 293.529 421.743 291.931 424.919C289.085 430.588 285.318 438.057 281.429 445.547C265.065 477.139 243.685 509.663 209.197 511.326C208.122 511.374 207.042 511.397 205.965 511.397C179.034 511.397 151.541 496.788 123.414 480.476L121.658 479.45C107.726 471.298 94.5651 463.6 82.3831 457.997C36.4748 436.879 -7.92427 419.054 -41.476 405.885L-41.2353 404.732C-7.67544 417.907 36.7359 435.735 82.6608 456.861C94.8756 462.478 108.051 470.188 122.001 478.348L123.755 479.374C152.912 496.283 181.387 511.366 209.166 510.131C243.271 508.485 264.472 476.211 280.716 444.856C284.602 437.372 288.365 429.909 291.211 424.243C292.809 421.063 294.395 417.892 295.976 414.73C308.762 389.162 320.839 365.008 336.314 342.786C356.83 313.319 382.471 283.861 408.511 259.831C432.679 237.53 456.856 220.406 480.368 208.932C507.346 195.765 533.719 189.936 558.751 191.602C596.368 194.105 631.524 213.839 663.237 250.248C678.923 268.285 693.529 287.503 710.634 310.805C715.497 317.431 720.398 324.174 725.138 330.693C754.093 370.533 781.443 408.162 813.413 438.847C826.404 451.322 840.047 463.341 853.971 474.571C871.288 488.495 888.66 501.004 905.609 511.749C932.214 528.619 965.326 549.613 998.281 540.162C1016.29 534.995 1029.79 522.441 1039.53 501.782C1058.55 461.737 1059.69 399.937 1060.61 350.28C1060.91 334.079 1061.2 318.773 1062.1 306.441L1062.12 306.16C1064.16 278.545 1066.26 249.991 1071.08 221.819C1075.26 197.245 1081.08 175.152 1088.37 156.149C1096.6 134.724 1106.74 117.18 1118.52 104.003C1126.4 95.1861 1134.74 88.1816 1144 82.5922C1169.04 67.4022 1199.73 65.0571 1232.74 75.816C1246.03 80.1455 1259.13 86.7046 1271.7 95.3073C1284.33 103.961 1296.16 114.511 1306.85 126.66C1331.01 154.06 1351.03 189.621 1366.36 232.355C1380.14 270.765 1389.76 314.582 1394.18 359.064L1393.32 359.224C1383.86 264.02 1352.14 179.589 1306.3 127.581C1284.86 103.222 1259.35 85.7237 1232.54 76.9886C1199.72 66.2917 1169.22 68.6114 1144.36 83.6971C1135.16 89.2443 1126.89 96.1923 1119.07 104.939C1097.08 129.543 1080.78 170.056 1071.94 222.098C1067.13 250.197 1065.03 278.711 1063 306.286L1062.98 306.568C1062.07 318.855 1061.79 334.138 1061.49 350.317C1060.56 400.126 1059.42 462.112 1040.26 502.439C1035.57 512.4 1029.84 520.665 1023.26 527.001C1016.16 533.834 1007.82 538.656 998.46 541.343C992.887 542.938 987.143 543.739 981.186 543.739Z" fill="#A1A1A1"/>
<path d="M209.837 550.642C197.795 550.642 184.682 547.425 169.882 540.858C155.177 534.333 140.634 525.324 127.108 516.564C124.658 514.968 122.228 513.376 119.814 511.794C107.796 503.922 96.4451 496.486 85.8363 490.694C43.5348 467.606 3.21357 446.854 -35.7813 426.791L-42.2424 423.465L-41.9175 422.278L-35.4564 425.604C3.54052 445.673 43.8679 466.425 86.1777 489.518C96.8153 495.325 108.181 502.769 120.213 510.653C122.625 512.234 125.055 513.827 127.502 515.419C155.27 533.402 184.77 550.83 213.382 549.277C248.555 547.27 269.632 509.714 284.064 477.223C287.761 468.914 291.323 460.632 294.013 454.347C295.497 450.882 296.972 447.421 298.442 443.968C310.636 415.344 322.154 388.307 337.301 362.815C357.295 329.171 382.911 294.969 409.434 266.515C434.041 240.115 458.872 219.256 483.24 204.52C511.19 187.617 538.49 178.845 564.382 178.447C603.342 177.653 639.528 196.025 671.919 233.048C689.876 253.597 705.975 275.825 719.358 294.859C726.639 305.218 733.921 315.836 740.964 326.105C765.893 362.457 791.672 400.044 820.582 430.489C833.496 444.092 847.052 457.272 860.869 469.661C877.967 484.958 895.331 499 912.481 511.397C939.288 530.773 972.649 554.887 1006.17 546.329C1024.61 541.619 1038.19 528.991 1047.68 507.724C1066.44 465.864 1065.18 400.679 1064.16 348.302C1063.86 332.813 1063.57 318.181 1063.91 306.402C1064.69 279.847 1065.85 248.985 1069.87 218.758C1073.26 193.144 1078.38 169.972 1085.09 149.886C1092.68 127.164 1102.4 108.115 1113.99 93.2665C1121.66 83.4265 1130.27 75.0747 1139.56 68.4395C1152.81 58.9405 1167.68 52.9677 1183.77 50.6902C1198.83 48.5564 1214.71 49.6783 1230.96 54.0219C1244.67 57.6862 1258.19 63.7125 1271.13 71.9375C1284.15 80.2132 1296.29 90.5239 1307.21 102.582C1319.8 116.467 1331.37 132.864 1341.61 151.317C1351.31 168.802 1359.91 188.302 1367.17 209.273C1380.74 248.506 1389.68 293.227 1393 338.594L1392.08 338.721C1384.94 241.299 1353.79 155.591 1306.63 103.572C1285.03 79.7199 1258.09 62.5653 1230.79 55.2677C1197.02 46.2451 1165.62 51.1891 1139.98 69.5642C1130.77 76.1458 1122.23 84.4327 1114.62 94.1939C1092.79 122.172 1078.04 164.157 1070.78 218.986C1066.76 249.132 1065.61 279.94 1064.84 306.453C1064.5 318.19 1064.78 332.799 1065.08 348.268C1065.58 374.107 1066.15 403.396 1064.25 431.71C1062.03 464.564 1056.87 489.645 1048.47 508.387C1043.89 518.641 1038.21 527.083 1031.59 533.476C1024.43 540.382 1015.94 545.125 1006.34 547.575C1001.49 548.812 996.655 549.373 991.845 549.373C963.041 549.373 935.13 529.197 912.052 512.516C894.877 500.1 877.486 486.037 860.365 470.718C846.528 458.312 832.953 445.113 820.021 431.49C791.051 400.983 765.246 363.356 740.292 326.97C733.251 316.704 725.971 306.089 718.694 295.736C705.329 276.724 689.253 254.527 671.329 234.018C639.112 197.192 603.138 178.927 564.396 179.71C503.554 180.646 446.856 227.969 410.006 267.507C383.537 295.905 357.972 330.034 338.021 363.61C322.919 389.026 311.418 416.021 299.242 444.6C297.772 448.052 296.295 451.514 294.81 454.981C292.119 461.269 288.555 469.556 284.856 477.874C278.798 491.514 269.287 511.369 256.69 526.251C250.572 533.479 244.061 539.158 237.339 543.135C229.844 547.569 221.795 550.061 213.422 550.537C212.235 550.608 211.04 550.642 209.837 550.642Z" fill="#A1A1A1"/>
<path d="M213.703 589.883C201.647 589.883 188.56 586.419 173.838 579.349C158.596 572.032 143.527 561.744 130.799 552.642C126.887 549.841 122.984 546.999 119.209 544.251C108.656 536.57 98.6863 529.312 89.2866 523.387C55.5314 502.106 21.9961 481.33 -10.4369 461.235C-21.165 454.589 -32.257 447.717 -43.0077 441.042L-42.6047 439.822C-31.854 446.496 -20.7619 453.368 -10.0338 460.015C22.3992 480.109 55.9385 500.888 89.6958 522.172C99.1202 528.114 109.102 535.378 119.667 543.07C123.441 545.818 127.344 548.657 131.251 551.459C157.651 570.327 188.272 590.3 217.594 588.42C253.594 586.058 273.815 545.049 287.411 509.587C290.897 500.502 294.267 491.381 296.813 484.45C298.121 480.893 299.421 477.338 300.718 473.792C312.382 441.899 323.398 411.776 338.29 382.847C357.659 345.223 383.255 306.283 410.357 273.2C448.102 227.326 506.439 171.369 570.01 165.301C610.438 161.338 647.648 178.346 680.601 215.857C695.407 232.718 710.048 252.167 728.079 278.925C737.19 292.446 746.232 306.461 754.976 320.01C777.725 355.264 801.246 391.718 827.751 422.145C840.591 436.89 854.054 451.229 867.766 464.764C884.369 481.138 901.726 496.714 919.354 511.061C946.43 532.965 980.127 560.23 1014.05 552.513C1032.65 548.369 1046.7 535.305 1055.82 513.685C1074.33 469.931 1070.36 398.347 1067.46 346.08C1066.64 331.412 1065.87 317.558 1065.72 306.382C1065.38 281.544 1065.41 248.793 1068.66 215.716C1074.25 158.398 1087.98 113.592 1109.45 82.5495C1116.98 71.613 1125.61 62.1112 1135.11 54.3062C1148.61 43.1893 1163.85 35.7113 1180.41 32.0837C1196 28.6674 1212.41 28.721 1229.18 32.2443C1243.34 35.2829 1257.25 40.7906 1270.55 48.6097C1283.98 56.5076 1296.43 66.5704 1307.56 78.5188C1320.43 92.3247 1332.19 108.777 1342.51 127.423C1352.28 145.093 1360.85 164.869 1367.97 186.207C1381.34 226.266 1389.58 271.889 1391.81 318.144L1390.84 318.232C1386.04 218.585 1355.46 131.598 1306.96 79.5758C1284.97 55.9749 1257.29 39.635 1229.04 33.5691C1194.2 26.2546 1161.89 33.8228 1135.61 55.4563C1126.2 63.1964 1117.63 72.6221 1110.17 83.4712C1088.84 114.308 1075.2 158.86 1069.63 215.896C1066.39 248.883 1066.37 281.569 1066.7 306.359C1066.85 317.496 1067.62 331.333 1068.43 345.982C1069.93 372.999 1071.63 403.624 1070.66 433.522C1069.53 468.335 1064.95 494.778 1056.67 514.359C1052.21 524.921 1046.58 533.546 1039.92 539.995C1032.7 546.988 1024.05 551.645 1014.21 553.838C998.951 557.307 982.529 554.19 964.004 544.305C947.9 535.711 932.471 523.229 918.86 512.22C901.206 497.853 883.826 482.254 867.198 465.858C853.466 452.303 839.984 437.944 827.126 423.18C800.566 392.69 777.018 356.197 754.246 320.907C745.506 307.36 736.466 293.354 727.363 279.844C709.364 253.134 694.749 233.722 679.978 216.9C647.22 179.603 610.247 162.696 570.076 166.634C506.779 172.68 448.635 228.465 411.003 274.201C383.954 307.216 358.412 346.075 339.084 383.62C324.233 412.466 313.233 442.547 301.588 474.393C300.29 477.941 298.991 481.496 297.683 485.053C295.135 491.99 291.763 501.12 288.273 510.213C274.557 545.99 254.133 587.366 217.637 589.759C216.339 589.841 215.025 589.883 213.703 589.883Z" fill="#A1A1A1"/>
<path d="M217.647 629.128C184.704 629.128 150.138 601.395 119.497 576.807C110.08 569.253 101.187 562.116 92.735 556.082L-43.7728 458.62L-43.2978 457.371L93.21 554.833C101.684 560.882 110.588 568.027 120.017 575.593C151.843 601.13 187.918 630.075 221.805 627.566C258.599 624.846 277.983 580.384 290.759 541.957C294.938 529.389 298.972 516.6 302.875 504.232C313.55 470.407 324.586 435.43 339.275 402.877C350.939 377.03 365.428 349.922 381.175 324.489C398.451 296.587 416.948 270.988 436.148 248.404C457.319 223.507 478.845 202.911 500.126 187.191C523.665 169.805 546.855 158.454 569.055 153.451C613.528 143.431 653.977 158.638 689.275 198.655C718.609 231.907 743.54 273.026 767.651 312.792C788.638 347.405 810.339 383.194 834.913 413.788C863.297 449.124 894.017 481.733 926.222 510.706C953.355 535.119 987.125 565.504 1021.93 558.675C1051.32 552.908 1068.32 525.95 1073.88 476.256C1078.62 433.987 1074.11 383.845 1070.5 343.558C1069.26 329.828 1068.1 316.859 1067.53 306.343C1064.37 248.368 1066.38 200.509 1073.67 160.036C1078.22 134.783 1084.93 112.273 1093.62 93.1313C1103.33 71.7487 1115.79 53.9233 1130.65 40.1511C1143.52 28.2365 1158.01 19.5832 1173.74 14.4306C1188.71 9.52607 1204.48 7.88277 1220.59 9.5458C1252.29 12.8155 1283.3 28.758 1307.9 54.4335C1321.06 68.1577 1333 84.6696 1343.39 103.507C1353.25 121.36 1361.79 141.415 1368.77 163.119C1381.92 204.004 1389.48 250.533 1390.62 297.67L1389.59 297.717C1387.16 197.338 1356.39 106.81 1307.28 55.5581C1255.12 1.12919 1181.08 -4.86053 1131.22 41.3209C1081.84 87.0683 1061.34 173.723 1068.55 306.238C1069.12 316.721 1070.28 329.673 1071.51 343.386C1075.14 383.761 1079.65 434.01 1074.9 476.47C1072.31 499.598 1067.1 518.184 1059.42 531.717C1055.1 539.324 1049.9 545.542 1043.95 550.193C1037.62 555.143 1030.26 558.466 1022.07 560.073C1018.73 560.73 1015.32 561.059 1011.86 561.059C999.251 561.059 985.817 556.688 971.098 547.831C954.515 537.853 938.512 523.455 925.654 511.887C893.406 482.872 862.643 450.22 834.218 414.834C809.589 384.175 787.865 348.344 766.855 313.694C742.775 273.978 717.875 232.91 688.615 199.743C653.553 159.999 613.382 144.891 569.216 154.844C479.875 174.975 387.844 297.915 340.143 403.621C325.493 436.084 314.471 471.013 303.811 504.793C299.906 517.167 295.869 529.964 291.686 542.543C283.204 568.055 274.826 586.323 265.322 600.028C259.389 608.58 252.953 615.322 246.191 620.066C238.673 625.34 230.485 628.339 221.852 628.979C220.458 629.077 219.053 629.128 217.647 629.128Z" fill="#A1A1A1"/>
</g>
</svg>
