<svg width="752" height="400" viewBox="0 0 752 400" fill="none" xmlns="http://www.w3.org/2000/svg">
<path d="M679.368 316.322C679.368 150.71 545.112 16.4546 379.5 16.4546C213.888 16.4546 79.6326 150.71 79.6326 316.322" stroke="#A7CEFC" stroke-width="2" stroke-dasharray="15 15"/>
<line x1="78.0071" y1="314.822" x2="679.367" y2="314.822" stroke="#A7CEFC" stroke-width="3" stroke-dasharray="15 15"/>
<line x1="200.31" y1="74.9034" x2="326.271" y2="250.436" stroke="#A7CEFC" stroke-width="3" stroke-dasharray="15 15"/>
<line x1="580.97" y1="93.869" x2="456.252" y2="251.428" stroke="#A7CEFC" stroke-width="3" stroke-dasharray="15 15"/>
<rect x="324.115" y="249.56" width="133.525" height="133.525" rx="8.5" stroke="#A7CEFC" stroke-width="3" stroke-dasharray="15 15"/>
<g filter="url(#filter0_d_9_7158)">
<rect x="350.245" y="275.69" width="81.2649" height="81.2649" rx="10" fill="white"/>
</g>
<g filter="url(#filter1_d_9_7158)">
<rect x="39" y="275.69" width="81.2649" height="81.2649" rx="10" fill="white"/>
</g>
<path d="M77.8097 319.451C77.4196 319.451 77.0295 319.302 76.7324 319.005C76.1374 318.41 76.1374 317.445 76.7324 316.85L86.6068 306.976C87.2011 306.381 88.1671 306.381 88.7614 306.976C89.3564 307.571 89.3564 308.535 88.7614 309.13L78.8869 319.005C78.5898 319.302 78.1997 319.451 77.8097 319.451Z" fill="#FFE492"/>
<path d="M77.8091 319.451C77.4191 319.451 77.0297 319.303 76.7319 319.005L71.7539 314.028C71.1589 313.433 71.1589 312.468 71.7539 311.873C72.3481 311.278 73.3134 311.278 73.9084 311.873L78.8864 316.85C79.4814 317.445 79.4814 318.41 78.8864 319.005C78.5893 319.303 78.1992 319.451 77.8091 319.451Z" fill="#FFE492"/>
<path d="M79.631 335.317C79.4725 335.317 79.3118 335.292 79.1533 335.24C69.4137 332.028 62.8701 322.978 62.8701 312.721C62.8701 311.88 63.5527 311.198 64.3938 311.198C65.2349 311.198 65.9175 311.88 65.9175 312.721C65.9175 321.66 71.6201 329.546 80.1079 332.346C80.9071 332.61 81.3414 333.471 81.0778 334.271C80.8667 334.911 80.271 335.317 79.631 335.317Z" fill="#FFE492"/>
<path d="M64.3938 314.245C63.5527 314.245 62.8701 313.563 62.8701 312.722V301.942C62.8701 301.101 63.5527 300.418 64.3938 300.418C65.2349 300.418 65.9176 301.101 65.9176 301.942V312.722C65.9176 313.564 65.2349 314.245 64.3938 314.245Z" fill="#FFE492"/>
<path d="M64.3945 303.466C63.6463 303.466 62.9934 302.915 62.8868 302.152C62.771 301.318 63.3523 300.549 64.1865 300.433C69.3336 299.718 74.3017 298.18 78.9536 295.861C79.7071 295.486 80.6221 295.792 80.9969 296.545C81.3725 297.299 81.0655 298.213 80.3128 298.589C75.3645 301.054 70.0802 302.69 64.6055 303.452C64.5347 303.462 64.4638 303.466 64.3945 303.466Z" fill="#FFE492"/>
<path d="M79.6325 335.318C78.9933 335.318 78.3968 334.912 78.1857 334.271C77.9221 333.472 78.3564 332.61 79.1556 332.346C87.6434 329.547 93.346 321.661 93.346 312.722C93.346 311.881 94.0286 311.198 94.8697 311.198C95.7108 311.198 96.3934 311.881 96.3934 312.722C96.3934 322.978 89.8498 332.028 80.1094 335.241C79.951 335.293 79.791 335.318 79.6325 335.318Z" fill="#FFE492"/>
<path d="M94.8704 314.245C94.0293 314.245 93.3467 313.563 93.3467 312.722V301.942C93.3467 301.101 94.0293 300.418 94.8704 300.418C95.7115 300.418 96.3941 301.101 96.3941 301.942V312.722C96.3941 313.564 95.7115 314.245 94.8704 314.245Z" fill="#FFE492"/>
<path d="M94.8719 303.466C94.8018 303.466 94.7309 303.462 94.6601 303.452C89.1854 302.69 83.9011 301.054 78.9529 298.589C78.2002 298.213 77.8931 297.299 78.2687 296.545C78.6436 295.792 79.5585 295.486 80.312 295.861C84.9639 298.179 89.932 299.718 95.0791 300.433C95.9126 300.549 96.4946 301.319 96.3788 302.152C96.2737 302.915 95.6208 303.466 94.8719 303.466Z" fill="#FFE492"/>
<g filter="url(#filter2_d_9_7158)">
<rect x="638.735" y="275.69" width="81.2649" height="81.2649" rx="10" fill="white"/>
</g>
<g clip-path="url(#clip0_9_7158)">
<path d="M693.08 309.846H689.648V302.015C689.648 296.461 685.034 291.943 679.363 291.943C673.692 291.943 669.078 296.461 669.078 302.015V309.846H665.653C662.502 309.846 659.939 312.41 659.939 315.56V334.988C659.939 338.138 662.502 340.702 665.653 340.702H693.08C696.231 340.702 698.794 338.138 698.794 334.988V315.56C698.794 312.41 696.231 309.846 693.08 309.846ZM672.887 302.015C672.887 298.562 675.792 295.752 679.363 295.752C682.934 295.752 685.839 298.562 685.839 302.015V309.846H672.887V302.015ZM694.985 334.988C694.985 336.038 694.13 336.892 693.08 336.892H665.653C664.603 336.892 663.749 336.038 663.749 334.988V315.56C663.749 314.51 664.603 313.656 665.653 313.656H693.08C694.13 313.656 694.985 314.51 694.985 315.56V334.988Z" fill="#4F9CF9"/>
<path d="M679.367 319.179C677.421 319.179 675.844 320.756 675.844 322.703C675.844 323.945 676.487 325.037 677.459 325.664V329.845C677.459 330.897 678.312 331.75 679.364 331.75C680.415 331.75 681.268 330.897 681.268 329.845V325.669C682.244 325.042 682.891 323.948 682.891 322.703C682.891 320.756 681.313 319.179 679.367 319.179Z" fill="#4F9CF9"/>
</g>
<g filter="url(#filter3_d_9_7158)">
<rect x="538.779" y="35.1455" width="81.2649" height="81.2649" rx="10" fill="white"/>
</g>
<g clip-path="url(#clip1_9_7158)">
<path d="M571.708 51.3984C561.881 51.3984 555.032 54.811 555.032 57.8739C555.032 60.9368 561.881 64.3494 571.708 64.3494C581.535 64.3494 588.384 60.9366 588.384 57.8739C588.384 54.8111 581.536 51.3984 571.708 51.3984Z" fill="#FFE492"/>
<path d="M555.032 87.6254V93.6819C555.032 96.7447 561.881 100.157 571.708 100.157C576.113 100.157 580.27 99.4637 583.414 98.2039C585.464 97.3829 586.981 96.3646 587.77 95.3063C586.283 94.1428 584.566 92.4698 583.07 90.1616C579.777 91.2159 575.885 91.7691 571.708 91.7691C566.453 91.7691 561.537 90.8639 557.866 89.2199C556.795 88.7405 555.848 88.2061 555.032 87.6254V87.6254Z" fill="#FFE492"/>
<path d="M555.032 75.7168L555.032 81.6907C555.032 84.7535 561.881 88.1661 571.708 88.1661C575.193 88.1661 578.537 87.729 581.339 86.9203C580.323 84.5715 579.666 81.9788 579.377 79.1731C576.98 79.6238 574.369 79.859 571.708 79.859C566.419 79.859 561.48 78.9434 557.801 77.2809C556.757 76.809 555.831 76.2849 555.032 75.7168Z" fill="#FFE492"/>
<path d="M555.032 63.803V69.7809C555.032 72.8437 561.881 76.2564 571.708 76.2564C574.337 76.2564 576.899 76.0087 579.205 75.5354C579.209 74.9693 579.378 73.496 580.742 73.1216C582.891 72.5314 584.395 71.1149 584.528 69.1719C584.583 68.3719 585.584 67.251 586.33 67.2622H588.384V63.803C587.585 64.3711 586.66 64.8953 585.616 65.3677C581.932 67.0343 576.993 67.9522 571.708 67.9522C566.424 67.9522 561.485 67.0343 557.801 65.3677C556.756 64.8953 555.831 64.3711 555.032 63.803V63.803Z" fill="#FFE492"/>
<path d="M598.683 70.8652H587.935C587.334 73.3639 585.412 75.4138 582.813 76.3076C583.016 88.3016 589.91 92.875 592.949 94.3089C593.123 94.3908 593.329 94.3821 593.5 94.2857C596.552 92.5662 603.47 87.4481 603.792 76.3034C601.199 75.4075 599.283 73.3602 598.683 70.8652ZM592.665 86.4845C591.935 87.2347 590.68 87.1936 590.001 86.3972L586.576 82.3783L589.319 80.0416L591.46 82.5542L597.434 76.4102L600.018 78.9214L592.665 86.4845Z" fill="#FFE492"/>
</g>
<g filter="url(#filter4_d_9_7158)">
<rect x="158.459" y="35.1455" width="81.2649" height="81.2649" rx="10" fill="white"/>
</g>
<g clip-path="url(#clip2_9_7158)">
<path d="M217.25 55.9942C211.123 49.8666 201.153 49.8667 195.025 55.9942C190.84 60.1793 189.387 66.3483 191.198 71.944L173.506 89.6366C173.238 89.9045 173.087 90.2679 173.087 90.6468V98.7288C173.087 99.5179 173.727 100.157 174.516 100.157H182.598C182.977 100.157 183.34 100.007 183.608 99.739L185.629 97.7181C185.938 97.4094 186.088 96.9765 186.038 96.5429L185.786 94.3732L188.793 94.0897C189.476 94.0253 190.017 93.4845 190.082 92.8015L190.365 89.7933L192.535 90.0454C192.94 90.0928 193.346 89.9644 193.65 89.6933C193.955 89.4222 194.129 89.034 194.129 88.6263V85.9657H196.741C197.117 85.9657 197.478 85.8174 197.746 85.5531L201.295 82.0445C206.892 83.8588 213.064 82.4058 217.251 78.2194C223.378 72.092 223.378 62.1216 217.25 55.9942ZM215.23 76.199C211.624 79.805 206.215 80.9306 201.45 79.0669C200.924 78.8613 200.326 78.9845 199.925 79.3813L196.154 83.1083H192.7C191.911 83.1083 191.272 83.748 191.272 84.537V87.0219L189.245 86.7864C188.863 86.7421 188.48 86.8534 188.181 87.0951C187.882 87.3368 187.694 87.6887 187.658 88.0714L187.348 91.3558L184.064 91.6653C183.681 91.7014 183.329 91.8901 183.087 92.1888C182.845 92.4875 182.734 92.8711 182.778 93.2528L183.12 96.1863L182.006 97.3002H175.944V91.2388L193.857 73.3259C194.259 72.9246 194.384 72.3238 194.178 71.7952C192.314 67.03 193.44 61.621 197.046 58.0148C202.059 53.0014 210.217 53.0014 215.23 58.0148C220.243 63.0281 220.243 71.1856 215.23 76.199Z" fill="#4F9CF9"/>
<path d="M213.209 60.0351C211.537 58.3639 208.818 58.364 207.147 60.0351C205.476 61.7063 205.476 64.4254 207.147 66.0966C208.818 67.7677 211.537 67.7679 213.209 66.0966C214.88 64.4254 214.88 61.7063 213.209 60.0351ZM211.188 64.0761C210.631 64.6331 209.725 64.6332 209.168 64.0761C208.611 63.5191 208.611 62.6128 209.168 62.0557C209.726 61.4972 210.63 61.4972 211.188 62.0557C211.747 62.6141 211.746 63.5177 211.188 64.0761Z" fill="#4F9CF9"/>
</g>
<circle cx="381.938" cy="16.4545" r="13.0024" fill="#A7CEFC"/>
<circle cx="283.607" cy="193.612" r="13.0024" fill="#A7CEFC"/>
<circle cx="562.346" cy="316.322" r="13.0024" fill="#A7CEFC"/>
<g clip-path="url(#clip3_9_7158)">
<path d="M364 299.633V308.714C364 311.48 367.454 312.955 369.565 311.019L379.641 301.937C381.848 299.955 380.408 296.452 377.386 296.452H367.31C365.487 296.452 364 297.881 364 299.633Z" fill="#5986EF"/>
<path d="M411.69 296.452H401.614C398.64 296.452 397.152 299.955 399.359 301.937L409.435 311.019C411.546 312.909 415 311.48 415 308.714V299.633C415 297.881 413.513 296.452 411.69 296.452Z" fill="#5986EF"/>
<path d="M391.779 318.625L409.435 334.576C411.546 336.466 415 335.037 415 332.271V323.097C415 322.221 414.616 321.391 413.944 320.792L391.779 300.739C390.484 299.586 388.516 299.586 387.221 300.739L365.056 320.792C364.384 321.391 364 322.221 364 323.097V332.271C364 335.037 367.454 336.512 369.565 334.576L387.221 318.625C388.516 317.473 390.484 317.473 391.779 318.625Z" fill="#5986EF"/>
</g>
<defs>
<filter id="filter0_d_9_7158" x="311.245" y="240.69" width="159.265" height="159.265" filterUnits="userSpaceOnUse" color-interpolation-filters="sRGB">
<feFlood flood-opacity="0" result="BackgroundImageFix"/>
<feColorMatrix in="SourceAlpha" type="matrix" values="0 0 0 0 0 0 0 0 0 0 0 0 0 0 0 0 0 0 127 0" result="hardAlpha"/>
<feMorphology radius="11" operator="erode" in="SourceAlpha" result="effect1_dropShadow_9_7158"/>
<feOffset dy="4"/>
<feGaussianBlur stdDeviation="25"/>
<feComposite in2="hardAlpha" operator="out"/>
<feColorMatrix type="matrix" values="0 0 0 0 0 0 0 0 0 0 0 0 0 0 0 0 0 0 0.2 0"/>
<feBlend mode="normal" in2="BackgroundImageFix" result="effect1_dropShadow_9_7158"/>
<feBlend mode="normal" in="SourceGraphic" in2="effect1_dropShadow_9_7158" result="shape"/>
</filter>
<filter id="filter1_d_9_7158" x="0" y="240.69" width="159.265" height="159.265" filterUnits="userSpaceOnUse" color-interpolation-filters="sRGB">
<feFlood flood-opacity="0" result="BackgroundImageFix"/>
<feColorMatrix in="SourceAlpha" type="matrix" values="0 0 0 0 0 0 0 0 0 0 0 0 0 0 0 0 0 0 127 0" result="hardAlpha"/>
<feMorphology radius="11" operator="erode" in="SourceAlpha" result="effect1_dropShadow_9_7158"/>
<feOffset dy="4"/>
<feGaussianBlur stdDeviation="25"/>
<feComposite in2="hardAlpha" operator="out"/>
<feColorMatrix type="matrix" values="0 0 0 0 0 0 0 0 0 0 0 0 0 0 0 0 0 0 0.2 0"/>
<feBlend mode="normal" in2="BackgroundImageFix" result="effect1_dropShadow_9_7158"/>
<feBlend mode="normal" in="SourceGraphic" in2="effect1_dropShadow_9_7158" result="shape"/>
</filter>
<filter id="filter2_d_9_7158" x="599.735" y="240.69" width="159.265" height="159.265" filterUnits="userSpaceOnUse" color-interpolation-filters="sRGB">
<feFlood flood-opacity="0" result="BackgroundImageFix"/>
<feColorMatrix in="SourceAlpha" type="matrix" values="0 0 0 0 0 0 0 0 0 0 0 0 0 0 0 0 0 0 127 0" result="hardAlpha"/>
<feMorphology radius="11" operator="erode" in="SourceAlpha" result="effect1_dropShadow_9_7158"/>
<feOffset dy="4"/>
<feGaussianBlur stdDeviation="25"/>
<feComposite in2="hardAlpha" operator="out"/>
<feColorMatrix type="matrix" values="0 0 0 0 0 0 0 0 0 0 0 0 0 0 0 0 0 0 0.2 0"/>
<feBlend mode="normal" in2="BackgroundImageFix" result="effect1_dropShadow_9_7158"/>
<feBlend mode="normal" in="SourceGraphic" in2="effect1_dropShadow_9_7158" result="shape"/>
</filter>
<filter id="filter3_d_9_7158" x="499.779" y="0.145508" width="159.265" height="159.265" filterUnits="userSpaceOnUse" color-interpolation-filters="sRGB">
<feFlood flood-opacity="0" result="BackgroundImageFix"/>
<feColorMatrix in="SourceAlpha" type="matrix" values="0 0 0 0 0 0 0 0 0 0 0 0 0 0 0 0 0 0 127 0" result="hardAlpha"/>
<feMorphology radius="11" operator="erode" in="SourceAlpha" result="effect1_dropShadow_9_7158"/>
<feOffset dy="4"/>
<feGaussianBlur stdDeviation="25"/>
<feComposite in2="hardAlpha" operator="out"/>
<feColorMatrix type="matrix" values="0 0 0 0 0 0 0 0 0 0 0 0 0 0 0 0 0 0 0.2 0"/>
<feBlend mode="normal" in2="BackgroundImageFix" result="effect1_dropShadow_9_7158"/>
<feBlend mode="normal" in="SourceGraphic" in2="effect1_dropShadow_9_7158" result="shape"/>
</filter>
<filter id="filter4_d_9_7158" x="119.459" y="0.145508" width="159.265" height="159.265" filterUnits="userSpaceOnUse" color-interpolation-filters="sRGB">
<feFlood flood-opacity="0" result="BackgroundImageFix"/>
<feColorMatrix in="SourceAlpha" type="matrix" values="0 0 0 0 0 0 0 0 0 0 0 0 0 0 0 0 0 0 127 0" result="hardAlpha"/>
<feMorphology radius="11" operator="erode" in="SourceAlpha" result="effect1_dropShadow_9_7158"/>
<feOffset dy="4"/>
<feGaussianBlur stdDeviation="25"/>
<feComposite in2="hardAlpha" operator="out"/>
<feColorMatrix type="matrix" values="0 0 0 0 0 0 0 0 0 0 0 0 0 0 0 0 0 0 0.2 0"/>
<feBlend mode="normal" in2="BackgroundImageFix" result="effect1_dropShadow_9_7158"/>
<feBlend mode="normal" in="SourceGraphic" in2="effect1_dropShadow_9_7158" result="shape"/>
</filter>
<clipPath id="clip0_9_7158">
<rect width="48.7589" height="48.7589" fill="white" transform="translate(654.988 291.943)"/>
</clipPath>
<clipPath id="clip1_9_7158">
<rect width="48.7589" height="48.7589" fill="white" transform="translate(555.032 51.3984)"/>
</clipPath>
<clipPath id="clip2_9_7158">
<rect width="48.7589" height="48.7589" fill="white" transform="translate(173.087 51.3984)"/>
</clipPath>
<clipPath id="clip3_9_7158">
<rect width="51" height="39" fill="white" transform="translate(364 296.452)"/>
</clipPath>
</defs>
</svg>
